<svg width="237" height="237" viewBox="0 0 237 237" fill="none" xmlns="http://www.w3.org/2000/svg">
<path d="M127.17 237.004C187.827 237.004 237 209.942 237 176.559C237 143.176 187.827 116.114 127.17 116.114C66.5126 116.114 17.3401 143.176 17.3401 176.559C17.3401 209.942 66.5126 237.004 127.17 237.004Z" fill="#FAFAFA"/>
<path d="M143.46 195.476C159.446 195.476 172.405 188.811 172.405 180.589C172.405 172.367 159.446 165.702 143.46 165.702C127.474 165.702 114.514 172.367 114.514 180.589C114.514 188.811 127.474 195.476 143.46 195.476Z" fill="#00294B" fill-opacity="0.24"/>
<path d="M175.526 147.336L68.4046 206.286C67.7936 206.583 67.1172 206.738 66.4311 206.738C65.7449 206.738 65.0686 206.583 64.4575 206.286L31.3836 188.082C30.2826 187.484 30.2826 186.508 31.3836 185.915L138.5 126.961C139.111 126.666 139.787 126.512 140.473 126.512C141.159 126.512 141.835 126.666 142.447 126.961L175.526 145.164C176.616 145.762 176.616 146.738 175.526 147.336Z" fill="#00294B" fill-opacity="0.24"/>
<path d="M207.631 165.099L203.282 162.727C203.282 162.727 198.03 151.534 198.961 142.042C200.117 130.24 205.963 126.095 209.42 127.412C212.877 128.729 212.145 133.425 208.506 139.733C205.6 144.754 203.766 158.104 207.631 165.099Z" fill="#61CE70"/>
<path opacity="0.2" d="M207.631 165.099L203.282 162.727C203.282 162.727 198.03 151.534 198.961 142.042C200.117 130.24 205.963 126.095 209.42 127.412C212.877 128.729 212.145 133.425 208.506 139.733C205.6 144.754 203.766 158.104 207.631 165.099Z" fill="#1E1E1E"/>
<path d="M204.785 163.803C204.727 163.803 204.671 163.786 204.624 163.754C204.578 163.722 204.543 163.676 204.526 163.624C200.711 152.494 200.557 136.863 207.768 129.821C207.792 129.793 207.821 129.77 207.855 129.754C207.888 129.737 207.924 129.728 207.962 129.725C207.999 129.723 208.037 129.729 208.072 129.741C208.107 129.753 208.139 129.773 208.166 129.798C208.193 129.823 208.214 129.853 208.228 129.886C208.242 129.919 208.249 129.954 208.248 129.99C208.247 130.026 208.238 130.061 208.221 130.093C208.205 130.125 208.182 130.154 208.154 130.177C201.344 136.831 201.223 152.327 205.038 163.467C205.059 163.532 205.053 163.602 205.021 163.662C204.989 163.723 204.934 163.769 204.867 163.792L204.785 163.803Z" fill="white"/>
<path d="M219.698 171.742C220.381 172.12 221.801 171.296 222.341 170.95C223.28 170.349 224.038 169.527 224.543 168.562C225.105 167.471 225.298 166.241 225.093 165.041C224.984 164.408 224.828 163.784 224.625 163.173C224.444 162.569 224.262 161.961 224.075 161.357C223.856 160.77 223.762 160.148 223.799 159.526C223.965 158.282 225.121 157.427 226.172 156.661C227.334 155.832 228.545 154.735 228.539 153.24C228.46 152.073 227.973 150.965 227.157 150.091C226.409 149.183 225.506 148.386 224.84 147.431C224.305 146.765 224.025 145.945 224.047 145.106C224.126 144.591 224.313 144.097 224.598 143.653C225.23 142.726 225.782 141.752 226.249 140.74C226.629 139.691 226.574 138.395 225.699 137.644C224.994 137.03 223.948 136.946 222.996 137.004C222.105 137.11 221.248 137.398 220.485 137.849C217.997 139.171 216.577 141.979 213.935 142.997C212.886 143.308 211.818 143.557 210.736 143.742C209.674 144.009 208.589 144.529 208.094 145.463C207.125 147.31 208.925 149.587 208.242 151.545C207.642 153.282 205.87 153.948 204.879 155.512C204.473 156.2 204.311 156.995 204.416 157.779C204.501 159.107 204.841 160.408 205.418 161.62C206.062 162.823 206.798 163.978 207.62 165.078C207.67 165.135 219.588 171.684 219.698 171.742Z" fill="#61CE70"/>
<path d="M212.574 168.074C212.512 168.068 212.454 168.042 212.41 168C212.366 167.958 212.338 167.903 212.332 167.843C211.05 158.151 215.905 145.08 223.15 138.704C223.175 138.678 223.206 138.658 223.24 138.643C223.274 138.629 223.311 138.622 223.348 138.622C223.385 138.622 223.422 138.63 223.456 138.644C223.49 138.658 223.521 138.679 223.546 138.705C223.571 138.732 223.591 138.763 223.603 138.796C223.615 138.83 223.619 138.865 223.616 138.901C223.613 138.936 223.602 138.971 223.584 139.002C223.567 139.033 223.542 139.06 223.513 139.082C216.356 145.379 211.6 158.23 212.866 167.78C212.874 167.847 212.854 167.914 212.811 167.967C212.768 168.02 212.705 168.054 212.635 168.064L212.574 168.074Z" fill="white"/>
<path d="M213.819 155.674C213.777 155.675 213.736 155.667 213.699 155.65C213.661 155.632 213.629 155.607 213.604 155.575C213.582 155.548 213.566 155.517 213.557 155.484C213.547 155.452 213.545 155.417 213.55 155.384C213.554 155.35 213.566 155.318 213.584 155.288C213.601 155.259 213.625 155.233 213.654 155.213C217.656 152.353 223.766 152.851 224.025 152.878C224.06 152.88 224.095 152.889 224.126 152.905C224.157 152.92 224.185 152.942 224.208 152.968C224.23 152.994 224.247 153.024 224.257 153.056C224.268 153.088 224.271 153.122 224.267 153.156C224.26 153.223 224.226 153.285 224.171 153.328C224.116 153.371 224.046 153.392 223.975 153.387C223.915 153.387 217.81 152.862 213.978 155.622C213.933 155.656 213.877 155.675 213.819 155.674Z" fill="white"/>
<path d="M214.419 153.297C214.349 153.297 214.282 153.272 214.232 153.226C214.182 153.18 214.152 153.117 214.149 153.051C213.967 148.611 210.45 145.93 210.417 145.904C210.389 145.883 210.366 145.858 210.349 145.829C210.331 145.799 210.32 145.767 210.316 145.734C210.312 145.701 210.315 145.667 210.325 145.635C210.334 145.603 210.351 145.573 210.373 145.547C210.416 145.494 210.48 145.459 210.55 145.45C210.62 145.442 210.691 145.459 210.747 145.5C211.905 146.436 212.851 147.587 213.529 148.882C214.207 150.177 214.601 151.59 214.689 153.035C214.69 153.068 214.685 153.102 214.672 153.133C214.66 153.165 214.641 153.194 214.617 153.218C214.593 153.242 214.564 153.262 214.532 153.276C214.5 153.289 214.465 153.297 214.43 153.297H214.419Z" fill="white"/>
<path d="M43.0709 73.9272L40.8865 74.984L54.4627 100.481L56.6471 99.4241L43.0709 73.9272Z" fill="#455A64"/>
<path d="M68.28 71.8891L55.0408 92.2744L57.1237 93.5035L70.3629 73.1182L68.28 71.8891Z" fill="#455A64"/>
<path d="M53.5134 69.4597V161.73C53.5295 161.902 53.5937 162.066 53.6992 162.207C53.8047 162.347 53.9478 162.458 54.1135 162.527C54.5631 162.745 55.06 162.858 55.564 162.858C56.0681 162.858 56.565 162.745 57.0146 162.527C57.1803 162.458 57.3233 162.347 57.4289 162.207C57.5344 162.066 57.5986 161.902 57.6146 161.73V69.4597H53.5134Z" fill="#455A64"/>
<path d="M51.2509 61.5728C54.2386 49.5065 46.3987 37.4161 33.7401 34.5682C21.0814 31.7203 8.39746 39.1933 5.40974 51.2596C2.42203 63.326 10.2619 75.4164 22.9206 78.2643C35.5792 81.1122 48.2631 73.6392 51.2509 61.5728Z" fill="#61CE70"/>
<path opacity="0.15" d="M20.6155 59.0437C13.8553 48.0241 15.8041 39.0354 16.7289 36.8839C18.2208 33.4101 24.1111 33.9716 28.3334 33.9716C32.3018 33.9714 36.2059 34.9269 39.6831 36.7497C43.1604 38.5724 46.098 41.2031 48.2233 44.3976C50.3486 47.592 51.5926 51.2466 51.8397 55.0219C52.0869 58.7972 51.3292 62.5709 49.637 65.9924C47.9448 69.4139 45.373 72.3723 42.1604 74.593C38.9479 76.8136 35.1987 78.2244 31.2611 78.6944C27.3235 79.1643 23.3252 78.6782 19.6374 77.2812C15.9496 75.8842 12.692 73.6215 10.167 70.7034C17.1418 72.6502 27.1829 69.7536 20.6155 59.0437Z" fill="#1E1E1E"/>
<path d="M102.349 63.0138C105.018 52.2336 98.0143 41.4319 86.7049 38.8876C75.3956 36.3432 64.0636 43.0197 61.3944 53.7999C58.7251 64.58 65.7293 75.3817 77.0387 77.926C88.3481 80.4704 99.68 73.7939 102.349 63.0138Z" fill="#61CE70"/>
<path opacity="0.15" d="M81.864 38.3584C86.2777 38.3518 90.5804 39.6761 94.1567 42.1418C94.7072 54.3892 83.8183 66.3375 86.8681 70.3518C89.9178 74.366 97.4321 71.8998 100.047 68.4942C98.1915 71.5363 95.5291 74.0594 92.327 75.8104C89.1248 77.5613 85.4958 78.4784 81.8042 78.4694C78.1127 78.4605 74.4886 77.5259 71.2958 75.7595C68.1031 73.993 65.4541 71.457 63.6149 68.406C61.7757 65.355 60.811 61.8964 60.8177 58.3776C60.8244 54.8587 61.8022 51.4035 63.653 48.3589C65.5038 45.3143 68.1624 42.7874 71.3619 41.032C74.5613 39.2767 78.189 38.3546 81.8805 38.3584H81.864Z" fill="#1E1E1E"/>
<path d="M55.5613 73.5789C76.8769 73.5789 94.1567 57.1077 94.1567 36.7895C94.1567 16.4712 76.8769 0 55.5613 0C34.2456 0 16.9658 16.4712 16.9658 36.7895C16.9658 57.1077 34.2456 73.5789 55.5613 73.5789Z" fill="#61CE70"/>
<path opacity="0.1" d="M83.5928 11.5127C84.2705 14.2646 84.6141 17.0818 84.6167 19.9085C84.6167 40.2317 73.9535 61.9506 45.4652 61.9506C34.4222 61.9506 21.3809 55.129 17.9954 45.1957C18.8561 48.6958 20.2548 52.0555 22.1461 55.1658C22.4049 55.6013 22.6966 56.0263 22.9554 56.4461C22.9712 56.4614 22.9843 56.4791 22.9939 56.4986C24.3727 58.5681 25.9641 60.5017 27.7447 62.2707L27.9484 62.4754C28.2401 62.7587 28.5319 63.0316 28.8292 63.3045L29.1705 63.614C29.4567 63.8712 29.721 64.1388 30.0348 64.3644L30.4421 64.7003C30.7284 64.9364 31.0202 65.1725 31.3174 65.3982C31.455 65.5084 31.5982 65.6081 31.7413 65.7183C32.0441 65.9439 32.3469 66.1695 32.6551 66.3899L32.9139 66.5631C33.5469 67.0039 34.1965 67.4237 34.8571 67.8225L35.3636 68.1321L36.1948 68.5991L36.8664 68.9664C37.1362 69.1081 37.4169 69.2445 37.6867 69.3809C37.9564 69.5174 38.1711 69.6223 38.4189 69.743L39.2281 70.1156L40.0153 70.4514C40.285 70.5668 40.5658 70.677 40.819 70.782C41.0723 70.8869 41.3695 71.0024 41.6778 71.1073C41.9861 71.2123 42.1898 71.3015 42.4485 71.3907C42.8228 71.5166 43.2027 71.6373 43.5495 71.7528L44.5569 72.0519C44.9423 72.162 45.3276 72.267 45.7185 72.3667C45.9717 72.4297 46.2304 72.4821 46.4837 72.5399C46.7369 72.5976 47.1332 72.692 47.4635 72.755C47.7938 72.818 48.014 72.86 48.2728 72.9072C48.5315 72.9544 48.9169 73.0226 49.2361 73.0751L50.0674 73.1958L51.0528 73.3165L51.8785 73.4004C52.2253 73.4319 52.5777 73.4529 52.93 73.4739L53.7117 73.5264C54.1686 73.5264 54.631 73.5526 55.0934 73.5579H55.5283C63.0696 73.5627 70.447 71.4609 76.7486 67.5123C83.0502 63.5638 87.9998 57.9415 90.9856 51.3406C93.9713 44.7396 94.8623 37.4494 93.5484 30.371C92.2346 23.2926 88.7734 16.7363 83.5928 11.5127Z" fill="#1E1E1E"/>
<path d="M206.029 20.8374L210.13 23.0937C210.108 22.9196 210.097 22.7444 210.097 22.569V21.4408C210.097 19.4258 211.578 18.6072 213.4 19.6147C214.191 20.0801 214.867 20.703 215.382 21.4408C215.685 18.9063 217.771 17.967 220.304 19.3419C223.056 20.8479 225.258 24.5158 225.258 27.5278V29.2227C225.277 29.8987 225.134 30.5699 224.84 31.1852L228.242 33.0585C228.778 33.3899 229.224 33.8374 229.543 34.3646C229.863 34.8917 230.047 35.4835 230.08 36.0915C230.08 37.2092 229.26 37.6657 228.242 37.1043L206.029 24.8779C205.494 24.5456 205.049 24.0978 204.729 23.5709C204.41 23.0439 204.225 22.4526 204.19 21.8449C204.19 20.7324 205.016 20.2811 206.029 20.8374Z" fill="#00294B"/>
<path d="M175.796 20.6223L180.75 23.3352C180.722 23.1298 180.707 22.923 180.706 22.716V21.3516C180.706 18.9221 182.495 17.9408 184.697 19.153C185.646 19.7083 186.457 20.4531 187.075 21.3359C187.439 18.2819 189.949 17.138 192.999 18.8276C196.302 20.638 198.972 25.0563 198.972 28.6822V30.7235C198.994 31.5371 198.821 32.3448 198.465 33.0848L202.566 35.3412C203.21 35.7457 203.745 36.289 204.128 36.9271C204.51 37.5653 204.73 38.2803 204.768 39.0144C204.768 40.3577 203.777 40.9034 202.566 40.2318L175.812 25.5076C175.167 25.1043 174.631 24.5613 174.249 23.9229C173.866 23.2845 173.647 22.5688 173.61 21.8344C173.583 20.4911 174.574 19.9453 175.796 20.6223Z" fill="#00294B"/>
<path d="M114.933 145.678C114.534 145.678 114.143 145.577 113.799 145.384L89.3566 131.935C88.0421 131.208 86.9504 130.164 86.1903 128.91C85.4302 127.655 85.0282 126.232 85.0242 124.783V97.8745C85.0242 97.3011 85.2631 96.7512 85.6885 96.3457C86.1138 95.9403 86.6907 95.7125 87.2922 95.7125C87.8937 95.7125 88.4706 95.9403 88.896 96.3457C89.3213 96.7512 89.5603 97.3011 89.5603 97.8745V124.783C89.5624 125.473 89.7541 126.151 90.1163 126.748C90.4785 127.346 90.9985 127.842 91.6246 128.189L116.067 141.643C116.5 141.881 116.838 142.248 117.03 142.688C117.221 143.128 117.255 143.616 117.125 144.076C116.996 144.536 116.711 144.942 116.315 145.232C115.918 145.522 115.432 145.679 114.933 145.678Z" fill="#61CE70"/>
<path d="M65.0354 172.529C64.6367 172.529 64.2452 172.428 63.9013 172.235L39.4757 158.786C38.1605 158.059 37.0682 157.016 36.308 155.761C35.5478 154.506 35.1462 153.083 35.1433 151.634V124.731C35.1433 124.157 35.3823 123.607 35.8076 123.202C36.233 122.796 36.8098 122.569 37.4114 122.569C38.0129 122.569 38.5898 122.796 39.0151 123.202C39.4405 123.607 39.6794 124.157 39.6794 124.731V151.634C39.6805 152.324 39.8717 153.002 40.234 153.6C40.5963 154.197 41.1169 154.694 41.7438 155.039L66.1859 168.494C66.6188 168.731 66.9573 169.099 67.1487 169.539C67.3402 169.979 67.3739 170.466 67.2446 170.926C67.1153 171.387 66.8303 171.793 66.4338 172.083C66.0373 172.373 65.5515 172.529 65.0519 172.529H65.0354Z" fill="#61CE70"/>
<path d="M163.118 118.623C162.719 118.622 162.327 118.521 161.984 118.329L137.542 104.874C136.228 104.146 135.137 103.103 134.378 101.848C133.618 100.593 133.217 99.1707 133.215 97.7222V70.824C133.215 70.2507 133.454 69.7008 133.879 69.2953C134.304 68.8899 134.881 68.6621 135.483 68.6621C136.084 68.6621 136.661 68.8899 137.086 69.2953C137.512 69.7008 137.751 70.2507 137.751 70.824V97.7274C137.751 98.4179 137.941 99.0962 138.304 99.694C138.666 100.292 139.187 100.788 139.815 101.133L164.257 114.587C164.686 114.828 165.021 115.196 165.209 115.635C165.398 116.074 165.43 116.56 165.3 117.019C165.171 117.477 164.887 117.882 164.493 118.172C164.099 118.461 163.615 118.62 163.118 118.623Z" fill="#61CE70"/>
<path d="M69.2633 169.848V200.634C69.2435 200.851 69.1632 201.059 69.0305 201.236C68.8979 201.413 68.7178 201.553 68.5091 201.641C67.944 201.913 67.3199 202.055 66.6869 202.055C66.054 202.055 65.4299 201.913 64.8648 201.641C64.6567 201.552 64.4773 201.412 64.3448 201.235C64.2123 201.058 64.1315 200.851 64.1106 200.634V169.848H69.2633Z" fill="#61CE70"/>
<path d="M47.7335 158.141V188.932C47.7117 189.148 47.6304 189.354 47.498 189.53C47.3655 189.706 47.1866 189.846 46.9793 189.935C46.4142 190.206 45.7901 190.348 45.1571 190.348C44.5242 190.348 43.9001 190.206 43.335 189.935C43.1277 189.846 42.9488 189.706 42.8163 189.53C42.6838 189.354 42.6026 189.148 42.5808 188.932V158.141H47.7335Z" fill="#61CE70"/>
<path d="M167.263 115.894V146.68C167.241 146.896 167.16 147.102 167.027 147.278C166.895 147.454 166.716 147.594 166.509 147.683C165.944 147.957 165.32 148.1 164.686 148.1C164.053 148.1 163.429 147.957 162.864 147.683C162.657 147.594 162.478 147.454 162.346 147.278C162.213 147.102 162.132 146.896 162.11 146.68V115.894H167.263Z" fill="#61CE70"/>
<path d="M145.722 104.208V134.994C145.701 135.21 145.62 135.417 145.488 135.593C145.355 135.77 145.176 135.909 144.968 135.997C144.403 136.271 143.779 136.414 143.145 136.414C142.512 136.414 141.888 136.271 141.323 135.997C141.115 135.91 140.934 135.771 140.802 135.594C140.669 135.418 140.589 135.211 140.569 134.994V104.208H145.722Z" fill="#61CE70"/>
<g opacity="0.65">
<path opacity="0.2" d="M114.933 145.678C114.534 145.678 114.143 145.577 113.799 145.384L89.3566 131.935C88.0421 131.207 86.9504 130.164 86.1903 128.909C85.4302 127.655 85.0282 126.232 85.0242 124.783V97.8743C85.0242 97.301 85.2631 96.7511 85.6885 96.3456C86.1138 95.9402 86.6907 95.7124 87.2922 95.7124C87.8937 95.7124 88.4706 95.9402 88.896 96.3456C89.3213 96.7511 89.5603 97.301 89.5603 97.8743V124.783C89.5624 125.473 89.7541 126.15 90.1163 126.748C90.4785 127.345 90.9985 127.842 91.6246 128.189L116.067 141.643C116.5 141.881 116.838 142.248 117.03 142.688C117.221 143.128 117.255 143.616 117.125 144.076C116.996 144.536 116.711 144.942 116.315 145.232C115.918 145.522 115.432 145.678 114.933 145.678Z" fill="#1E1E1E"/>
<path opacity="0.2" d="M65.0354 172.529C64.6367 172.529 64.2452 172.428 63.9013 172.235L39.4757 158.786C38.1605 158.059 37.0682 157.016 36.308 155.761C35.5478 154.506 35.1462 153.083 35.1433 151.634V124.731C35.1433 124.157 35.3823 123.607 35.8076 123.202C36.233 122.796 36.8098 122.569 37.4114 122.569C38.0129 122.569 38.5898 122.796 39.0151 123.202C39.4405 123.607 39.6794 124.157 39.6794 124.731V151.634C39.6805 152.324 39.8717 153.002 40.234 153.6C40.5963 154.197 41.1169 154.694 41.7438 155.039L66.1859 168.494C66.6188 168.731 66.9573 169.099 67.1487 169.539C67.3402 169.979 67.3739 170.466 67.2446 170.926C67.1153 171.387 66.8303 171.793 66.4338 172.083C66.0373 172.373 65.5515 172.529 65.0519 172.529H65.0354Z" fill="#1E1E1E"/>
<path opacity="0.2" d="M163.118 118.623C162.719 118.622 162.327 118.521 161.984 118.329L137.542 104.874C136.228 104.146 135.137 103.103 134.378 101.848C133.618 100.593 133.217 99.1707 133.215 97.7222V70.824C133.215 70.2507 133.454 69.7008 133.879 69.2953C134.304 68.8899 134.881 68.6621 135.483 68.6621C136.084 68.6621 136.661 68.8899 137.086 69.2953C137.512 69.7008 137.751 70.2507 137.751 70.824V97.7274C137.751 98.4179 137.941 99.0962 138.304 99.694C138.666 100.292 139.187 100.788 139.815 101.133L164.257 114.587C164.686 114.828 165.021 115.196 165.209 115.635C165.398 116.074 165.43 116.56 165.3 117.019C165.171 117.477 164.887 117.882 164.493 118.172C164.099 118.461 163.615 118.62 163.118 118.623Z" fill="#1E1E1E"/>
<path opacity="0.4" d="M69.2633 169.848V200.634C69.2435 200.851 69.1632 201.059 69.0305 201.236C68.8979 201.413 68.7178 201.553 68.5091 201.641C67.944 201.913 67.3199 202.055 66.6869 202.055C66.054 202.055 65.4299 201.913 64.8648 201.641C64.6567 201.552 64.4773 201.412 64.3448 201.235C64.2123 201.058 64.1315 200.851 64.1106 200.634V169.848H69.2633Z" fill="#1E1E1E"/>
<path opacity="0.4" d="M47.7335 158.141V188.932C47.7117 189.148 47.6304 189.354 47.498 189.53C47.3655 189.706 47.1866 189.846 46.9793 189.935C46.4142 190.206 45.7901 190.348 45.1571 190.348C44.5242 190.348 43.9001 190.206 43.335 189.935C43.1277 189.846 42.9488 189.706 42.8163 189.53C42.6838 189.354 42.6026 189.148 42.5808 188.932V158.141H47.7335Z" fill="#1E1E1E"/>
<path opacity="0.4" d="M167.263 115.894V146.68C167.241 146.896 167.16 147.102 167.028 147.278C166.895 147.454 166.716 147.594 166.509 147.683C165.945 147.957 165.32 148.1 164.687 148.1C164.054 148.1 163.429 147.957 162.865 147.683C162.658 147.594 162.479 147.454 162.346 147.278C162.214 147.102 162.132 146.896 162.111 146.68V115.894H167.263Z" fill="#1E1E1E"/>
<path opacity="0.4" d="M145.722 104.208V134.994C145.702 135.21 145.621 135.417 145.488 135.593C145.356 135.77 145.176 135.909 144.968 135.997C144.404 136.271 143.779 136.414 143.146 136.414C142.513 136.414 141.888 136.271 141.324 135.997C141.115 135.91 140.935 135.771 140.802 135.594C140.669 135.418 140.589 135.211 140.57 134.994V104.208H145.722Z" fill="#1E1E1E"/>
</g>
<path d="M30.0731 130.833L29.6217 130.587C29.2411 130.349 28.9242 130.03 28.6967 129.654C28.4691 129.279 28.3372 128.858 28.3115 128.425V124.547C28.3359 124.114 28.4673 123.692 28.6949 123.316C28.9226 122.941 29.2402 122.622 29.6217 122.385L137.36 63.0895C137.767 62.8955 138.215 62.7946 138.67 62.7946C139.125 62.7946 139.573 62.8955 139.98 63.0895L140.432 63.3414C140.812 63.5785 141.13 63.8978 141.357 64.2734C141.585 64.6489 141.716 65.0702 141.742 65.5033V69.3811C141.716 69.8142 141.585 70.2355 141.357 70.611C141.13 70.9866 140.812 71.3059 140.432 71.543L32.6935 130.839C32.2872 131.035 31.838 131.136 31.3826 131.135C30.9273 131.134 30.4786 131.031 30.0731 130.833Z" fill="#61CE70"/>
<path opacity="0.4" d="M140.432 64.7844L32.6937 124.08C32.3122 124.316 31.9946 124.636 31.7669 125.011C31.5393 125.387 31.4079 125.809 31.3835 126.242V130.12C31.3835 130.912 31.9726 131.237 32.6937 130.839L140.432 71.543C140.813 71.3058 141.13 70.9866 141.357 70.611C141.585 70.2355 141.717 69.8141 141.742 69.3811V65.519C141.742 64.7057 141.153 64.3856 140.432 64.7844Z" fill="white"/>
<path opacity="0.7" d="M140.431 63.3414L139.98 63.0895C139.573 62.8955 139.125 62.7946 138.67 62.7946C138.215 62.7946 137.766 62.8955 137.36 63.0895L29.6216 122.385C29.2331 122.612 28.9141 122.932 28.6968 123.314L31.7686 125.003C31.9943 124.628 32.3115 124.309 32.6934 124.075L140.431 64.7792C141.153 64.3803 141.742 64.7004 141.742 65.498C141.716 65.0659 141.583 64.6456 141.356 64.271C141.128 63.8965 140.812 63.578 140.431 63.3414Z" fill="white"/>
<path opacity="0.2" d="M31.3834 126.237C31.4001 125.801 31.5327 125.377 31.7688 125.003L28.697 123.314C28.5997 123.481 28.5186 123.657 28.4548 123.838C28.3675 124.071 28.321 124.316 28.3171 124.563V128.44C28.3337 128.884 28.4702 129.316 28.7135 129.695C28.9339 130.059 29.246 130.366 29.6218 130.587L29.798 130.686L30.0787 130.833C30.1425 130.869 30.2087 130.9 30.2769 130.928L30.332 130.954L30.5136 131.012L30.6292 131.043L30.8109 131.08H30.9485H31.1302H31.466H31.5871H31.8018H31.8513C32.0395 131.056 32.2241 131.012 32.4018 130.949C32.3405 130.965 32.2779 130.978 32.2147 130.985C32.1454 130.996 32.0748 130.996 32.0055 130.985H31.9504L31.8183 130.943L31.7688 130.912C31.73 130.887 31.6949 130.857 31.6642 130.823C31.65 130.812 31.6371 130.8 31.6256 130.786C31.5912 130.746 31.5616 130.702 31.5376 130.655C31.5356 130.641 31.5356 130.627 31.5376 130.613C31.5071 130.547 31.4832 130.478 31.466 130.408C31.457 130.317 31.457 130.226 31.466 130.135L31.3834 126.237Z" fill="white"/>
<path d="M30.0731 142.692L29.6217 142.44C29.2408 142.203 28.9237 141.884 28.6961 141.508C28.4685 141.133 28.3368 140.712 28.3115 140.279V136.401C28.3401 135.971 28.4734 135.554 28.7009 135.183C28.9283 134.811 29.2436 134.495 29.6217 134.26L137.36 74.9643C137.766 74.7675 138.215 74.6649 138.67 74.6649C139.125 74.6649 139.574 74.7675 139.98 74.9643L140.432 75.2109C140.813 75.4489 141.13 75.7691 141.358 76.1455C141.585 76.522 141.717 76.9442 141.742 77.3781V81.2611C141.716 81.6941 141.584 82.1152 141.357 82.4907C141.129 82.8662 140.812 83.1856 140.432 83.4231L32.6935 142.719C32.2854 142.911 31.8354 143.009 31.38 143.005C30.9246 143 30.4768 142.893 30.0731 142.692Z" fill="#61CE70"/>
<path opacity="0.4" d="M140.432 76.6382L32.6937 135.934C32.3122 136.17 31.9946 136.489 31.7669 136.865C31.5393 137.241 31.4079 137.662 31.3835 138.096V141.973C31.3835 142.766 31.9726 143.091 32.6937 142.692L140.432 83.3968C140.813 83.1597 141.13 82.8404 141.357 82.4648C141.585 82.0893 141.717 81.668 141.742 81.2349V77.3571C141.742 76.5647 141.153 76.2446 140.432 76.6382Z" fill="white"/>
<path opacity="0.7" d="M140.431 75.2004L139.98 74.9485C139.573 74.7545 139.125 74.6536 138.67 74.6536C138.215 74.6536 137.766 74.7545 137.36 74.9485L29.6216 134.26C29.234 134.49 28.9154 134.812 28.6968 135.194L31.7686 136.883C31.9943 136.508 32.3115 136.189 32.6934 135.955L140.431 76.6591C141.153 76.2656 141.742 76.5857 141.742 77.3833C141.72 76.9466 141.59 76.5211 141.362 76.1416C141.134 75.7622 140.815 75.4396 140.431 75.2004Z" fill="white"/>
<path opacity="0.2" d="M31.3834 138.096C31.4038 137.667 31.5363 137.251 31.7688 136.884L28.697 135.194C28.5994 135.361 28.5184 135.537 28.4548 135.719C28.3675 135.953 28.321 136.199 28.3171 136.448V140.326C28.3359 140.769 28.4723 141.201 28.7135 141.58C28.9332 141.949 29.2452 142.261 29.6218 142.488L29.798 142.582L30.0787 142.734C30.1426 142.768 30.2089 142.798 30.2769 142.824L30.332 142.85L30.5136 142.908L30.6292 142.944L30.8109 142.981H30.9485H31.1302H31.2733H31.5871H31.8018H31.8513C32.0389 142.955 32.2233 142.911 32.4018 142.85L32.2147 142.881C32.1452 142.889 32.075 142.889 32.0055 142.881H31.9504C31.9047 142.87 31.8604 142.854 31.8183 142.834L31.7688 142.803L31.6642 142.719C31.6485 142.707 31.6354 142.693 31.6256 142.677C31.59 142.637 31.5604 142.593 31.5376 142.545C31.5357 142.533 31.5357 142.521 31.5376 142.509C31.5071 142.443 31.4832 142.374 31.466 142.304C31.457 142.213 31.457 142.122 31.466 142.031L31.3834 138.096Z" fill="white"/>
<path d="M30.0731 154.546L29.6217 154.3C29.2408 154.062 28.9237 153.743 28.6961 153.368C28.4685 152.992 28.3368 152.571 28.3115 152.138V148.26C28.3368 147.827 28.4685 147.405 28.6961 147.03C28.9237 146.654 29.2408 146.335 29.6217 146.098L137.36 86.8024C137.766 86.6056 138.215 86.5031 138.67 86.5031C139.125 86.5031 139.574 86.6056 139.98 86.8024L140.432 87.049C140.812 87.2862 141.13 87.6055 141.357 87.981C141.585 88.3566 141.716 88.7779 141.742 89.2109V93.0888C141.716 93.5218 141.585 93.9431 141.357 94.3187C141.13 94.6943 140.812 95.0135 140.432 95.2507L32.6935 154.546C32.2876 154.743 31.8387 154.846 31.3833 154.846C30.9279 154.846 30.479 154.743 30.0731 154.546Z" fill="#61CE70"/>
<path opacity="0.4" d="M140.432 88.4972L32.6937 147.793C32.3122 148.029 31.9946 148.348 31.7669 148.724C31.5393 149.1 31.4079 149.521 31.3835 149.955V153.833C31.3835 154.625 31.9726 154.95 32.6937 154.551L140.432 95.2559C140.813 95.0187 141.13 94.6994 141.357 94.3239C141.585 93.9483 141.717 93.527 141.742 93.094V89.2161C141.742 88.4185 141.153 88.0827 140.432 88.4972Z" fill="white"/>
<path opacity="0.7" d="M140.431 87.0333L139.98 86.7814C139.573 86.5874 139.125 86.4865 138.67 86.4865C138.215 86.4865 137.766 86.5874 137.36 86.7814L29.6216 146.093C29.234 146.323 28.9154 146.645 28.6968 147.027L31.7686 148.716C31.9943 148.341 32.3115 148.022 32.6934 147.788L140.431 88.492C141.153 88.0932 141.742 88.4133 141.742 89.2109C141.719 88.7752 141.588 88.3507 141.361 87.9722C141.133 87.5937 140.815 87.272 140.431 87.0333Z" fill="white"/>
<path opacity="0.2" d="M31.3834 149.95C31.4001 149.514 31.5327 149.09 31.7688 148.716L28.697 147.027C28.5994 147.194 28.5184 147.37 28.4548 147.551C28.3675 147.786 28.321 148.032 28.3171 148.281V152.159C28.3359 152.602 28.4723 153.033 28.7135 153.413C28.9332 153.782 29.2452 154.094 29.6218 154.321L29.798 154.415L30.0787 154.567C30.1426 154.601 30.2089 154.631 30.2769 154.656L30.332 154.683L30.5136 154.74L30.6292 154.777L30.8109 154.814H30.9485H31.1302H31.2733H31.5871H31.8018H31.8513C32.0389 154.788 32.2233 154.744 32.4018 154.683L32.2147 154.714C32.1452 154.722 32.075 154.722 32.0055 154.714H31.9504C31.9047 154.703 31.8604 154.687 31.8183 154.667L31.7688 154.635L31.6642 154.552C31.6485 154.54 31.6354 154.526 31.6256 154.51C31.59 154.47 31.5604 154.426 31.5376 154.378C31.5357 154.366 31.5357 154.354 31.5376 154.342C31.5071 154.276 31.4832 154.207 31.466 154.137C31.457 154.046 31.457 153.955 31.466 153.864L31.3834 149.95Z" fill="white"/>
<path d="M55.9521 173.558V174.056C55.9774 174.489 56.1091 174.91 56.3367 175.286C56.5643 175.662 56.8814 175.981 57.2623 176.218L60.7855 178.154C61.1914 178.351 61.6403 178.454 62.0957 178.454C62.5511 178.454 63 178.351 63.4059 178.154L171.144 118.859C171.525 118.622 171.842 118.302 172.07 117.927C172.297 117.551 172.429 117.13 172.454 116.697V116.198C172.428 115.765 172.297 115.344 172.069 114.969C171.841 114.593 171.525 114.274 171.144 114.036L167.621 112.1C167.215 111.903 166.766 111.801 166.311 111.801C165.855 111.801 165.406 111.903 165 112.1L57.2623 171.396C56.8814 171.633 56.5643 171.952 56.3367 172.328C56.1091 172.703 55.9774 173.125 55.9521 173.558Z" fill="#61CE70"/>
<path opacity="0.7" d="M63.4059 174.775L171.144 115.479C171.865 115.081 171.865 114.43 171.144 114.036L167.621 112.1C167.215 111.903 166.766 111.801 166.311 111.801C165.855 111.801 165.406 111.903 165 112.1L57.2623 171.396C56.5411 171.794 56.5411 172.445 57.2623 172.839L60.7855 174.775C61.1914 174.972 61.6403 175.074 62.0957 175.074C62.551 175.074 63 174.972 63.4059 174.775Z" fill="white"/>
<path opacity="0.4" d="M171.276 114.12C171.86 114.524 171.827 115.112 171.144 115.485L63.4059 174.78C63.003 174.984 62.552 175.087 62.0957 175.079V178.459C62.552 178.467 63.003 178.364 63.4059 178.159L171.144 118.864C171.525 118.627 171.842 118.307 172.07 117.932C172.297 117.556 172.429 117.135 172.454 116.702V116.203C172.43 115.795 172.312 115.397 172.108 115.037C171.905 114.677 171.621 114.364 171.276 114.12Z" fill="white"/>
<path opacity="0.2" d="M60.7855 174.775L57.2623 172.833C56.6293 172.482 56.5522 171.947 57.0256 171.553C56.7098 171.797 56.4511 172.102 56.2662 172.447C56.0813 172.792 55.9743 173.171 55.9521 173.558V174.051C55.989 174.714 56.272 175.342 56.7504 175.824C56.9012 175.976 57.0735 176.107 57.2623 176.213L60.7855 178.154C61.1884 178.359 61.6394 178.462 62.0957 178.453V175.074C61.6394 175.082 61.1884 174.979 60.7855 174.775Z" fill="white"/>
<path d="M45.2065 167.644V168.142C45.2313 168.575 45.3629 168.997 45.5905 169.373C45.8182 169.748 46.1355 170.067 46.5167 170.304L50.0399 172.24C50.4448 172.437 50.8929 172.54 51.3474 172.54C51.8018 172.54 52.2499 172.437 52.6548 172.24L160.393 112.945C160.774 112.708 161.091 112.388 161.318 112.013C161.546 111.637 161.678 111.216 161.703 110.783V110.258C161.678 109.825 161.546 109.404 161.318 109.028C161.091 108.653 160.774 108.334 160.393 108.096L156.87 106.16C156.464 105.963 156.015 105.861 155.559 105.861C155.104 105.861 154.655 105.963 154.249 106.16L46.5167 165.456C46.1312 165.694 45.8111 166.018 45.5832 166.398C45.3553 166.779 45.2262 167.206 45.2065 167.644Z" fill="#61CE70"/>
<path opacity="0.7" d="M52.6547 168.861L160.393 109.597C161.114 109.198 161.114 108.548 160.393 108.154L156.87 106.218C156.464 106.021 156.015 105.918 155.559 105.918C155.104 105.918 154.655 106.021 154.249 106.218L46.5167 165.513C45.79 165.912 45.79 166.563 46.5167 166.951L50.0399 168.893C50.4474 169.085 50.8968 169.182 51.3513 169.176C51.8057 169.171 52.2524 169.063 52.6547 168.861Z" fill="white"/>
<path opacity="0.4" d="M160.525 108.207C161.108 108.611 161.075 109.198 160.393 109.571L52.6547 168.866C52.2518 169.071 51.8008 169.174 51.3445 169.165V172.566C51.8008 172.574 52.2518 172.471 52.6547 172.267L160.393 112.971C160.774 112.734 161.091 112.415 161.318 112.039C161.546 111.664 161.678 111.242 161.703 110.809V110.285C161.678 109.877 161.559 109.48 161.356 109.121C161.152 108.762 160.869 108.45 160.525 108.207Z" fill="white"/>
<path opacity="0.2" d="M50.0343 168.861L46.5111 166.92C45.878 166.568 45.801 166.033 46.2744 165.639C45.9586 165.883 45.6999 166.188 45.515 166.533C45.3301 166.878 45.2231 167.257 45.2009 167.644V168.137C45.2378 168.8 45.5207 169.428 45.9991 169.911C46.1499 170.062 46.3223 170.193 46.5111 170.299L50.0343 172.24C50.4372 172.445 50.8882 172.548 51.3445 172.539V169.16C50.8882 169.168 50.4372 169.065 50.0343 168.861Z" fill="white"/>
<path d="M34.4553 161.725V162.25C34.4792 162.683 34.6104 163.105 34.8381 163.48C35.0659 163.856 35.3836 164.175 35.7655 164.411L39.2887 166.353C39.6946 166.55 40.1435 166.652 40.5989 166.652C41.0543 166.652 41.5032 166.55 41.9091 166.353L149.642 107.057C150.026 106.819 150.345 106.496 150.573 106.116C150.8 105.737 150.93 105.311 150.952 104.875V104.376C150.928 103.943 150.797 103.521 150.569 103.145C150.341 102.769 150.023 102.45 149.642 102.214L146.118 100.273C145.713 100.076 145.265 99.9733 144.811 99.9733C144.356 99.9733 143.908 100.076 143.504 100.273L35.7655 159.568C35.385 159.804 35.0681 160.123 34.8405 160.497C34.6129 160.872 34.481 161.293 34.4553 161.725Z" fill="#61CE70"/>
<path opacity="0.7" d="M35.7655 161.021L39.2886 162.963C39.6954 163.157 40.144 163.258 40.5988 163.258C41.0537 163.258 41.5022 163.157 41.909 162.963L149.642 103.668C150.368 103.274 150.368 102.618 149.642 102.23L146.118 100.288C145.713 100.091 145.265 99.9889 144.811 99.9889C144.356 99.9889 143.908 100.091 143.503 100.288L35.7655 159.584C35.0388 159.972 35.0388 160.607 35.7655 161.021Z" fill="white"/>
<path opacity="0.4" d="M149.779 102.293C150.363 102.697 150.33 103.284 149.647 103.657L41.9091 162.953C41.5062 163.157 41.0552 163.26 40.5989 163.252V166.631C41.0552 166.639 41.5062 166.536 41.9091 166.332L149.647 107.036C150.028 106.799 150.345 106.48 150.573 106.104C150.8 105.729 150.932 105.307 150.957 104.874V104.376C150.933 103.968 150.815 103.569 150.611 103.209C150.408 102.849 150.124 102.537 149.779 102.293Z" fill="white"/>
<path opacity="0.2" d="M39.2886 162.947L35.7654 161.006C35.1324 160.654 35.0553 160.119 35.5287 159.725C35.2078 159.967 34.9439 160.271 34.7542 160.616C34.5646 160.961 34.4533 161.341 34.4277 161.73V162.223C34.4646 162.886 34.7475 163.515 35.226 163.997C35.3767 164.148 35.5491 164.279 35.7379 164.385L39.2611 166.327C39.664 166.531 40.115 166.634 40.5713 166.626V163.246C40.1243 163.25 39.6833 163.147 39.2886 162.947Z" fill="white"/>
<path d="M44.3862 157.228C44.2975 157.257 44.2205 157.312 44.166 157.384C44.1115 157.457 44.0823 157.545 44.0823 157.634C44.0823 157.723 44.1115 157.811 44.166 157.884C44.2205 157.956 44.2975 158.011 44.3862 158.04C44.616 158.15 44.8695 158.207 45.1266 158.207C45.3837 158.207 45.6372 158.15 45.867 158.04C45.9558 158.011 46.0327 157.956 46.0872 157.884C46.1417 157.811 46.171 157.723 46.171 157.634C46.171 157.545 46.1417 157.457 46.0872 157.384C46.0327 157.312 45.9558 157.257 45.867 157.228C45.6372 157.118 45.3837 157.061 45.1266 157.061C44.8695 157.061 44.616 157.118 44.3862 157.228Z" fill="white"/>
<path d="M55.1705 163.189C55.0798 163.217 55.0008 163.271 54.9447 163.345C54.8886 163.418 54.8584 163.507 54.8584 163.598C54.8584 163.689 54.8886 163.777 54.9447 163.851C55.0008 163.924 55.0798 163.979 55.1705 164.007C55.4003 164.117 55.6539 164.174 55.911 164.174C56.168 164.174 56.4216 164.117 56.6514 164.007C56.7421 163.979 56.8212 163.924 56.8772 163.851C56.9333 163.777 56.9635 163.689 56.9635 163.598C56.9635 163.507 56.9333 163.418 56.8772 163.345C56.8212 163.271 56.7421 163.217 56.6514 163.189C56.4216 163.079 56.168 163.022 55.911 163.022C55.6539 163.022 55.4003 163.079 55.1705 163.189Z" fill="white"/>
<path d="M65.9492 169.155C65.8605 169.184 65.7835 169.239 65.729 169.312C65.6745 169.385 65.6453 169.472 65.6453 169.561C65.6453 169.651 65.6745 169.738 65.729 169.811C65.7835 169.884 65.8605 169.939 65.9492 169.968C66.179 170.078 66.4325 170.135 66.6896 170.135C66.9467 170.135 67.2002 170.078 67.43 169.968C67.5188 169.939 67.5957 169.884 67.6502 169.811C67.7047 169.738 67.734 169.651 67.734 169.561C67.734 169.472 67.7047 169.385 67.6502 169.312C67.5957 169.239 67.5188 169.184 67.43 169.155C67.2002 169.045 66.9467 168.988 66.6896 168.988C66.4325 168.988 66.179 169.045 65.9492 169.155Z" fill="white"/>
<path d="M142.386 103.326C142.297 103.356 142.22 103.41 142.166 103.483C142.111 103.556 142.082 103.643 142.082 103.733C142.082 103.822 142.111 103.909 142.166 103.982C142.22 104.055 142.297 104.11 142.386 104.139C142.616 104.249 142.869 104.306 143.126 104.306C143.383 104.306 143.637 104.249 143.867 104.139C143.956 104.11 144.033 104.055 144.087 103.982C144.141 103.909 144.171 103.822 144.171 103.733C144.171 103.643 144.141 103.556 144.087 103.483C144.033 103.41 143.956 103.356 143.867 103.326C143.637 103.216 143.383 103.159 143.126 103.159C142.869 103.159 142.616 103.216 142.386 103.326Z" fill="white"/>
<path d="M153.164 109.287C153.076 109.318 153 109.374 152.946 109.447C152.893 109.52 152.864 109.607 152.864 109.697C152.864 109.786 152.893 109.873 152.946 109.946C153 110.019 153.076 110.075 153.164 110.106C153.394 110.215 153.648 110.273 153.905 110.273C154.162 110.273 154.416 110.215 154.645 110.106C154.736 110.078 154.815 110.023 154.871 109.949C154.927 109.876 154.957 109.787 154.957 109.697C154.957 109.606 154.927 109.517 154.871 109.444C154.815 109.37 154.736 109.316 154.645 109.287C154.416 109.178 154.162 109.12 153.905 109.12C153.648 109.12 153.394 109.178 153.164 109.287Z" fill="white"/>
<path d="M163.949 115.254C163.86 115.283 163.783 115.338 163.729 115.411C163.674 115.483 163.645 115.571 163.645 115.66C163.645 115.75 163.674 115.837 163.729 115.91C163.783 115.983 163.86 116.037 163.949 116.067C164.179 116.176 164.432 116.234 164.689 116.234C164.946 116.234 165.2 116.176 165.43 116.067C165.519 116.037 165.595 115.983 165.65 115.91C165.704 115.837 165.734 115.75 165.734 115.66C165.734 115.571 165.704 115.483 165.65 115.411C165.595 115.338 165.519 115.283 165.43 115.254C165.2 115.144 164.946 115.087 164.689 115.087C164.432 115.087 164.179 115.144 163.949 115.254Z" fill="white"/>
<path d="M94.2007 130.382C94.1119 130.411 94.035 130.466 93.9805 130.539C93.926 130.612 93.8967 130.699 93.8967 130.788C93.8967 130.878 93.926 130.965 93.9805 131.038C94.035 131.111 94.1119 131.166 94.2007 131.195C94.4305 131.305 94.684 131.362 94.9411 131.362C95.1982 131.362 95.4517 131.305 95.6815 131.195C95.7702 131.166 95.8472 131.111 95.9017 131.038C95.9561 130.965 95.9854 130.878 95.9854 130.788C95.9854 130.699 95.9561 130.612 95.9017 130.539C95.8472 130.466 95.7702 130.411 95.6815 130.382C95.4517 130.272 95.1982 130.215 94.9411 130.215C94.684 130.215 94.4305 130.272 94.2007 130.382Z" fill="white"/>
<path d="M104.985 136.359C104.896 136.388 104.819 136.443 104.765 136.516C104.71 136.589 104.681 136.676 104.681 136.765C104.681 136.855 104.71 136.942 104.765 137.015C104.819 137.088 104.896 137.142 104.985 137.172C105.215 137.282 105.468 137.339 105.725 137.339C105.983 137.339 106.236 137.282 106.466 137.172C106.879 136.951 106.879 136.584 106.466 136.359C106.236 136.249 105.983 136.192 105.725 136.192C105.468 136.192 105.215 136.249 104.985 136.359Z" fill="white"/>
<path d="M115.758 142.309C115.67 142.338 115.593 142.393 115.538 142.466C115.484 142.539 115.454 142.626 115.454 142.716C115.454 142.805 115.484 142.892 115.538 142.965C115.593 143.038 115.67 143.093 115.758 143.122C115.988 143.232 116.242 143.289 116.499 143.289C116.756 143.289 117.009 143.232 117.239 143.122C117.328 143.093 117.405 143.038 117.459 142.965C117.514 142.892 117.543 142.805 117.543 142.716C117.543 142.626 117.514 142.539 117.459 142.466C117.405 142.393 117.328 142.338 117.239 142.309C117.009 142.199 116.756 142.142 116.499 142.142C116.242 142.142 115.988 142.199 115.758 142.309Z" fill="white"/>
<path d="M37.395 123.802C37.1501 123.954 36.9462 124.16 36.7999 124.401C36.6536 124.643 36.5689 124.914 36.5527 125.192C36.5527 125.717 36.9326 125.911 37.395 125.659C37.6374 125.509 37.8397 125.307 37.9859 125.069C38.1321 124.832 38.2181 124.565 38.2373 124.29C38.2373 123.765 37.8629 123.545 37.395 123.802Z" fill="white"/>
<path d="M37.395 135.635C37.1501 135.787 36.9462 135.993 36.7999 136.234C36.6536 136.476 36.5689 136.747 36.5527 137.025C36.5527 137.55 36.9326 137.744 37.395 137.487C37.6412 137.336 37.846 137.13 37.9924 136.889C38.1389 136.647 38.2228 136.375 38.2373 136.096C38.2373 135.582 37.8629 135.377 37.395 135.635Z" fill="white"/>
<path d="M37.395 147.467C37.1498 147.62 36.9457 147.825 36.7993 148.067C36.653 148.308 36.5685 148.579 36.5527 148.858C36.5527 149.383 36.9326 149.577 37.395 149.32C37.6405 149.168 37.8449 148.963 37.9912 148.721C38.1376 148.479 38.2219 148.208 38.2373 147.929C38.2373 147.415 37.8629 147.21 37.395 147.467Z" fill="white"/>
<path d="M135.483 69.9216C135.237 70.0736 135.032 70.2788 134.885 70.5203C134.737 70.7619 134.652 71.0332 134.635 71.3122C134.635 71.8369 135.015 72.0363 135.483 71.7792C135.727 71.626 135.931 71.4204 136.077 71.179C136.223 70.9376 136.308 70.6669 136.325 70.3886C136.325 69.8744 135.945 69.6645 135.483 69.9216Z" fill="white"/>
<path d="M135.483 81.7544C135.237 81.9064 135.032 82.1115 134.885 82.3531C134.737 82.5947 134.652 82.866 134.635 83.1449C134.635 83.6697 135.015 83.8691 135.483 83.6119C135.728 83.4582 135.932 83.2519 136.078 83.0095C136.224 82.7671 136.309 82.4954 136.325 82.2161C136.325 81.7071 135.945 81.4972 135.483 81.7544Z" fill="white"/>
<path d="M135.483 93.5873C135.237 93.739 135.031 93.944 134.884 94.1857C134.737 94.4273 134.651 94.6988 134.635 94.9778C134.635 95.5026 135.015 95.6967 135.483 95.4448C135.728 95.2911 135.932 95.0847 136.078 94.8423C136.224 94.5999 136.309 94.3282 136.325 94.049C136.325 93.54 135.945 93.3301 135.483 93.5873Z" fill="white"/>
<path d="M87.2922 97.0033C87.0479 97.1565 86.8445 97.3621 86.6983 97.6035C86.552 97.8449 86.467 98.1156 86.45 98.3939C86.45 98.9186 86.8298 99.118 87.2922 98.8609C87.5375 98.7086 87.7415 98.5033 87.8879 98.2617C88.0342 98.0201 88.1187 97.7489 88.1345 97.4703C88.1345 96.9299 87.7601 96.72 87.2922 97.0033Z" fill="white"/>
<path d="M87.2922 108.81C87.0479 108.963 86.8445 109.169 86.6983 109.41C86.552 109.651 86.467 109.922 86.45 110.2C86.45 110.725 86.8298 110.919 87.2922 110.667C87.5382 110.515 87.7427 110.309 87.8891 110.066C88.0355 109.823 88.1196 109.551 88.1345 109.272C88.1345 108.763 87.7601 108.548 87.2922 108.81Z" fill="white"/>
<path d="M87.2922 120.643C87.0473 120.795 86.8434 121.001 86.6971 121.242C86.5508 121.484 86.4661 121.755 86.45 122.033C86.45 122.558 86.8298 122.752 87.2922 122.495C87.5384 122.344 87.7432 122.139 87.8896 121.897C88.0361 121.655 88.12 121.383 88.1345 121.105C88.1345 120.617 87.7601 120.386 87.2922 120.643Z" fill="white"/>
<path d="M183.156 63.8607C180.48 61.2948 179.528 62.2865 179.187 65.1096C179.06 66.2912 178.76 67.45 178.295 68.5519C178.212 67.9657 178.043 67.3934 177.794 66.8517C177.676 66.5606 177.448 66.3223 177.154 66.1843C176.86 66.0462 176.523 66.0185 176.209 66.1066C175.944 66.2116 176.269 66.8098 176.209 67.9012C176.159 69.297 175.686 70.0684 176.027 71.5744C176.148 72.131 176.054 72.7104 175.763 73.2063C174.32 75.7513 169.707 80.4635 166.476 83.8533L154.128 73.2221C149.911 69.6066 148.54 67.9747 144.467 68.2423C145.74 68.6912 146.914 69.3621 147.929 70.2206C149.818 71.7423 149.372 80.453 149.372 80.453C149.372 80.453 163.382 90.0347 164.824 90.9478C165.039 91.0842 165.254 91.2049 165.468 91.3151C166.157 91.6554 166.947 91.7643 167.709 91.6244C168.471 91.4844 169.161 91.1037 169.669 90.5437C172.658 87.2851 177.018 80.8728 179.539 77.5354C180.68 75.9214 181.698 74.2309 182.583 72.4769C185.083 67.7438 184.807 65.4717 183.156 63.8607Z" fill="#FFA8A7"/>
<path d="M151.948 67.3134H138.934C136.462 67.3134 134.092 66.3774 132.344 64.7114C130.596 63.0453 129.614 60.7857 129.614 58.4296V54.3838C129.619 51.4904 130.828 48.717 132.975 46.6725C135.123 44.628 138.035 43.4797 141.07 43.4797C143.955 43.4797 146.722 44.5722 148.762 46.5167C150.802 48.4612 151.948 51.0986 151.948 53.8486V67.3134Z" fill="#263238"/>
<path d="M128.36 173.867C128.106 175.222 127.97 176.594 127.952 177.971C127.903 180.463 127.402 181.345 127.358 183.391C127.286 185.726 127.704 186.597 128.701 187.909C129.697 189.221 132.307 190.412 133.408 188.198C134.509 185.983 134.371 184.525 134.013 182.231C133.655 179.938 133.606 178.558 133.391 176.748C133.209 175.174 132.984 173.951 132.984 173.951L128.36 173.867Z" fill="#263238"/>
<path d="M135.774 154.289L127.17 154.137C127.297 159.615 128.211 168.73 128.359 173.867C128.387 174.838 128.359 181.387 128.717 183.375C129.268 186.366 133.016 185.962 133.215 184.173C133.413 182.384 132.972 174.728 132.983 173.951C132.95 170.656 134.574 162.055 135.422 156.136C135.461 155.847 135.736 154.572 135.774 154.289Z" fill="#FFA8A7"/>
<path d="M148.425 169.606C148.425 169.606 147.979 169.632 147.907 169.979C147.836 170.325 147.808 171.028 147.627 171.71C147.336 172.769 147.232 173.867 147.318 174.959C147.467 175.725 149.3 176.863 150.555 177.058C151.81 177.252 153.572 178.438 154.552 179.319C156.126 180.565 158.075 181.301 160.117 181.418C162.209 181.418 163.668 180.752 164.356 179.686C165.044 178.621 163.729 178.49 161.34 177.01C160.789 176.674 160.178 176.297 159.484 175.861C155.697 173.505 154.31 172.246 153.242 169.884L148.425 169.606Z" fill="#263238"/>
<path d="M153.269 168.326C153.209 166.631 154.117 154.158 154.117 154.158L146.718 154.956C148.469 164.926 148.606 168.305 148.408 169.753C148.372 169.888 148.357 170.028 148.364 170.168C148.364 172.104 150.66 173.148 152.449 174.439C153.154 174.964 154.965 176.538 157.09 177.204C158.466 177.651 161.009 177.824 161.334 177.026C159.16 175.452 156.203 173.353 154.475 171.569C153.649 170.682 153.335 170.021 153.269 168.326Z" fill="#FFA8A7"/>
<path d="M129.163 97.6592C125.128 106.055 129.312 135.682 129.312 135.682C129.191 137.046 127.556 139.733 126.945 145.736C126.223 152.83 128.271 171.826 128.271 171.826C128.271 171.826 130.242 173.227 133.094 171.92C133.094 171.92 138.301 144.015 139.237 136.962C140.052 130.802 141.615 117.263 141.615 117.263L146.058 136.925C145.409 138.909 144.938 140.942 144.649 143.002C144.23 147.153 148.469 167.979 148.469 167.979C148.469 167.979 150.451 168.976 153.269 167.89C153.269 167.89 155.147 140.982 155.543 135.986C156.204 127.59 153.892 101.395 152.24 96.426L129.163 97.6592Z" fill="#61CE70"/>
<path opacity="0.1" d="M141.615 117.263L142.925 109.455C142.925 109.455 148.474 108.364 150.99 106.108C150.99 106.108 148.348 109.256 144.428 110.263L142.969 116.272L145.54 134.48L141.615 117.263Z" fill="#1E1E1E"/>
<path d="M136.287 68.447C131.112 68.7881 130.749 71.1704 129.455 73.7784C128.5 75.7852 128.411 78.0694 129.207 80.1382L132.818 90.1083C132.818 90.1083 131.128 94.0018 129.163 97.6803C138.219 102.497 149.532 99.9629 152.245 96.4471C152.361 95.702 151.662 89.8721 151.233 86.0678C152.829 82.2529 153.247 79.8339 152.576 77.3151C151.326 72.6345 146.476 68.0797 144.318 68.2424L136.287 68.447Z" fill="#37474F"/>
<path d="M147.572 48.8584C149.278 49.7505 150.781 52.222 150.627 58.3719C150.5 63.5826 148.728 64.8734 147.841 65.2408C146.955 65.6081 145.232 65.3877 143.564 65.1253V68.2737C143.564 68.2737 145.871 70.8292 145.728 72.2618C145.584 73.6943 142.397 74.0354 140.223 72.6343C138.821 71.6755 137.618 70.4761 136.677 69.0976V61.5151C136.677 61.5151 135.549 62.9476 133.71 61.7827C131.871 60.6178 131.794 57.7265 132.868 56.6928C133.941 55.659 136.248 55.9844 136.677 57.4169C136.677 57.4169 136.782 56.3674 137.382 56.3674C139.207 56.2357 140.986 55.7613 142.617 54.9716C146.685 52.8254 147.016 50.9888 147.572 48.8584Z" fill="#FFA8A7"/>
<path d="M149.262 54.9501L147.737 54.2525C147.78 54.1559 147.843 54.0686 147.922 53.9958C148.001 53.923 148.095 53.8663 148.198 53.8291C148.301 53.7918 148.411 53.7748 148.521 53.7791C148.631 53.7834 148.738 53.8088 148.838 53.8539C149.042 53.9504 149.2 54.1177 149.279 54.3216C149.358 54.5255 149.352 54.7504 149.262 54.9501Z" fill="#263238"/>
<path d="M142.634 54.1162L141.202 54.9764C141.138 54.8906 141.093 54.7933 141.07 54.6904C141.047 54.5875 141.047 54.4812 141.068 54.378C141.09 54.2749 141.133 54.177 141.196 54.0905C141.259 54.004 141.34 53.9306 141.434 53.8749C141.628 53.7613 141.861 53.7229 142.084 53.7678C142.307 53.8127 142.504 53.9374 142.634 54.1162Z" fill="#263238"/>
<path d="M136.634 55.9792L136.727 59.1697C137.165 59.1697 137.585 59.0038 137.895 58.7086C138.205 58.4134 138.379 58.0129 138.379 57.5954C138.362 57.1638 138.171 56.755 137.846 56.454C137.521 56.153 137.087 55.983 136.634 55.9792Z" fill="#263238"/>
<path d="M130.242 45.4057L133.06 47.153C133.187 46.9827 133.277 46.79 133.325 46.5863C133.373 46.3825 133.378 46.1716 133.339 45.966C133.301 45.7604 133.22 45.5642 133.101 45.3887C132.983 45.2132 132.828 45.062 132.648 44.9439C132.262 44.7076 131.796 44.6236 131.347 44.7098C130.897 44.796 130.501 45.0456 130.242 45.4057Z" fill="#263238"/>
<path d="M133.424 43.2175L133.16 46.3974C133.378 46.4252 133.599 46.4104 133.811 46.3538C134.022 46.2973 134.22 46.2003 134.391 46.0687C134.562 45.9371 134.703 45.7737 134.805 45.5885C134.908 45.4032 134.97 45.2 134.987 44.9911C135.017 44.5604 134.871 44.1354 134.579 43.8049C134.288 43.4744 133.874 43.264 133.424 43.2175Z" fill="#263238"/>
<path d="M143.322 56.8604C143.323 56.9887 143.284 57.1144 143.211 57.2219C143.137 57.3295 143.032 57.4142 142.909 57.4655C142.786 57.5168 142.649 57.5325 142.516 57.5106C142.384 57.4887 142.261 57.4303 142.163 57.3424C142.064 57.2546 141.995 57.1413 141.964 57.0165C141.933 56.8917 141.941 56.7609 141.987 56.6404C142.033 56.5198 142.115 56.4148 142.223 56.3383C142.331 56.2618 142.461 56.2172 142.595 56.21C142.782 56.2058 142.962 56.2716 143.098 56.3933C143.234 56.515 143.315 56.6828 143.322 56.8604Z" fill="#263238"/>
<path d="M144.115 61.4784L145.711 61.9662C145.68 62.066 145.629 62.1589 145.56 62.2395C145.491 62.3201 145.406 62.3868 145.309 62.4357C145.213 62.4845 145.107 62.5146 144.999 62.524C144.89 62.5334 144.78 62.5221 144.676 62.4906C144.466 62.42 144.292 62.2766 144.188 62.089C144.084 61.9015 144.058 61.6835 144.115 61.4784Z" fill="#F28F8F"/>
<path d="M148.942 56.5981C148.949 56.6853 148.938 56.7729 148.908 56.8559C148.879 56.9389 148.833 57.0155 148.773 57.0814C148.712 57.1473 148.639 57.201 148.556 57.2396C148.474 57.2782 148.384 57.3008 148.293 57.3061C148.15 57.3186 148.007 57.2901 147.882 57.2243C147.757 57.1585 147.655 57.0585 147.59 56.9371C147.525 56.8158 147.5 56.6786 147.517 56.5434C147.535 56.4081 147.594 56.281 147.689 56.1784C147.783 56.0758 147.907 56.0024 148.045 55.9678C148.184 55.9331 148.33 55.9387 148.465 55.9838C148.6 56.029 148.717 56.1117 148.802 56.2212C148.887 56.3306 148.936 56.4619 148.942 56.5981Z" fill="#263238"/>
<path d="M145.281 56.2101L145.386 60.1561L147.566 59.5159L145.281 56.2101Z" fill="#F28F8F"/>
<path d="M143.564 65.1254C141.808 64.905 138.186 63.9133 137.624 62.549C137.85 63.2392 138.292 63.8472 138.89 64.2911C139.991 65.1727 143.564 66.1697 143.564 66.1697V65.1254Z" fill="#F28F8F"/>
<path d="M138.604 98.5775C137.895 98.4226 137.226 98.1342 136.636 97.7293C136.045 97.3244 135.546 96.8111 135.166 96.2197C134.787 95.6283 134.535 94.9705 134.426 94.2851C134.317 93.5997 134.352 92.9003 134.53 92.2282C134.553 92.1348 134.585 92.0435 134.624 91.9553C134.75 91.5945 134.998 91.2842 135.331 91.074C135.663 90.8638 136.06 90.7658 136.457 90.7957C135.875 90.4292 135.376 89.9561 134.987 89.4038C134.599 88.8516 134.329 88.2313 134.195 87.579L133.094 81.3451C132.961 80.3304 133.055 79.3004 133.369 78.3226L129.758 74.3188L129.086 74.7649C128.537 76.5258 128.589 78.4073 129.235 80.1382L132.846 90.1083C132.846 90.1083 131.156 94.0018 129.191 97.6802C135.868 101.227 143.757 100.787 148.541 98.8976C145.237 99.3954 141.865 99.2868 138.604 98.5775Z" fill="#263238"/>
<path d="M120.95 89.2477C122.717 82.3788 128.106 68.7828 133.809 68.8615C135.461 70.7611 135.015 76.4965 132.378 79.9808C132.378 79.9808 126.504 91.7927 125.568 95.9906C124.742 99.6637 123.812 104.323 123.873 107.493C123.89 108.055 124.121 108.592 124.522 109.004C125.596 110.111 125.623 111.003 126.295 112.231C126.845 113.186 127.434 113.548 127.264 113.763C127.041 113.992 126.736 114.132 126.409 114.156C126.082 114.179 125.758 114.084 125.502 113.889C125.001 113.541 124.551 113.13 124.164 112.667C124.35 113.84 124.707 114.983 125.227 116.062C126.433 118.654 126.135 119.976 122.474 119.053C120.173 118.476 118.731 116.65 118.384 111.381C118.219 109.442 118.198 107.493 118.324 105.551C118.808 100.066 119.686 94.6188 120.95 89.2477Z" fill="#FFA8A7"/>
</svg>
