<svg width="170" height="142" viewBox="0 0 170 142" fill="none" xmlns="http://www.w3.org/2000/svg">
<path d="M12.1523 72.0007V76.5158" stroke="#DADADA" stroke-miterlimit="10"/>
<path d="M14.7738 74.2567H9.52716" stroke="#DADADA" stroke-miterlimit="10"/>
<path d="M131.487 112.309V115.094" stroke="#DADADA" stroke-miterlimit="10"/>
<path d="M133.103 113.7H129.87" stroke="#DADADA" stroke-miterlimit="10"/>
<path d="M148.579 18.0784V20.8633" stroke="#DADADA" stroke-miterlimit="10"/>
<path d="M150.199 19.4724H146.963" stroke="#DADADA" stroke-miterlimit="10"/>
<path d="M105.087 131.739V134.524" stroke="#DADADA" stroke-miterlimit="10"/>
<path d="M106.707 133.133H103.471" stroke="#DADADA" stroke-miterlimit="10"/>
<path d="M146.525 125.534V132.29" stroke="#DADADA" stroke-miterlimit="10"/>
<path d="M150.452 128.91H142.602" stroke="#DADADA" stroke-miterlimit="10"/>
<path d="M26.5217 28.3158V35.0744" stroke="#DADADA" stroke-miterlimit="10"/>
<path d="M30.4486 31.6951H22.5949" stroke="#DADADA" stroke-miterlimit="10"/>
<path d="M13.9168 50.6576C13.9168 50.8989 13.8337 51.1347 13.6779 51.3353C13.5222 51.5359 13.3008 51.6923 13.0418 51.7846C12.7828 51.8769 12.4978 51.9011 12.2229 51.854C11.9479 51.8069 11.6954 51.6908 11.4971 51.5202C11.2989 51.3496 11.1639 51.1322 11.1092 50.8956C11.0545 50.659 11.0826 50.4137 11.1899 50.1909C11.2971 49.968 11.4788 49.7775 11.7119 49.6434C11.945 49.5094 12.2191 49.4379 12.4994 49.4379C12.8753 49.4379 13.2358 49.5664 13.5017 49.7951C13.7675 50.0239 13.9168 50.3341 13.9168 50.6576Z" stroke="#DADADA" stroke-miterlimit="10"/>
<path d="M153.811 121.495C153.811 121.662 153.753 121.825 153.646 121.964C153.538 122.102 153.385 122.21 153.206 122.274C153.027 122.338 152.83 122.355 152.64 122.322C152.45 122.29 152.275 122.209 152.138 122.091C152.001 121.973 151.908 121.823 151.87 121.66C151.832 121.496 151.852 121.326 151.926 121.172C152 121.018 152.125 120.887 152.287 120.794C152.448 120.701 152.637 120.652 152.831 120.652C153.091 120.652 153.34 120.741 153.524 120.899C153.708 121.057 153.811 121.271 153.811 121.495Z" stroke="#DADADA" stroke-miterlimit="10"/>
<path d="M118.104 127.302C118.105 127.469 118.048 127.633 117.94 127.773C117.833 127.912 117.679 128.021 117.5 128.086C117.32 128.15 117.122 128.167 116.931 128.135C116.74 128.103 116.565 128.022 116.427 127.904C116.289 127.786 116.195 127.635 116.156 127.471C116.118 127.307 116.137 127.136 116.212 126.981C116.286 126.827 116.412 126.694 116.574 126.601C116.736 126.508 116.926 126.458 117.121 126.458C117.25 126.458 117.378 126.479 117.497 126.522C117.616 126.564 117.725 126.626 117.816 126.704C117.907 126.782 117.98 126.876 118.029 126.978C118.079 127.081 118.104 127.191 118.104 127.302Z" stroke="#DADADA" stroke-miterlimit="10"/>
<path d="M17.7125 56.7172C18.4178 55.3546 17.706 53.7579 16.1226 53.151C14.5392 52.544 12.6838 53.1566 11.9785 54.5192C11.2732 55.8818 11.985 57.4785 13.5684 58.0855C15.1518 58.6924 17.0072 58.0798 17.7125 56.7172Z" stroke="#DADADA" stroke-miterlimit="10"/>
<path d="M158.352 79.4407C160.086 79.4407 161.491 78.2314 161.491 76.7398C161.491 75.2481 160.086 74.0388 158.352 74.0388C156.619 74.0388 155.214 75.2481 155.214 76.7398C155.214 78.2314 156.619 79.4407 158.352 79.4407Z" stroke="#DADADA" stroke-miterlimit="10"/>
<path d="M61.1066 22.1851C61.5033 20.733 60.457 19.2791 58.7696 18.9377C57.0823 18.5963 55.3928 19.4967 54.9961 20.9488C54.5994 22.4009 55.6457 23.8548 57.333 24.1962C59.0204 24.5376 60.7099 23.6372 61.1066 22.1851Z" stroke="#DADADA" stroke-miterlimit="10"/>
<path d="M54.8339 36.3875C35.4204 36.3875 19.6263 49.6962 19.6263 66.0512V82.6893H29.6458V66.0512C29.6458 54.3575 40.9382 44.8419 54.8195 44.8419C68.7008 44.8419 79.9895 54.3575 79.9895 66.0512V82.6893H90.0307V66.0512C90.0307 49.6962 74.2439 36.3875 54.8339 36.3875Z" stroke="#DADADA" stroke-miterlimit="10"/>
<path d="M92.7716 127.971V82.6893H43.5959M40.262 82.6893H15.9056V137.411H92.7788V131.247M57.94 111.619L59.3465 124.05H48.5785L49.9851 111.619C48.6643 111.028 47.5565 110.137 46.7815 109.044C46.0065 107.95 45.5939 106.695 45.5882 105.414C45.6337 103.53 46.5354 101.736 48.0999 100.417C49.6645 99.0986 51.7672 98.3601 53.9571 98.3601C56.147 98.3601 58.2498 99.0986 59.8143 100.417C61.3788 101.736 62.2805 103.53 62.326 105.414C62.3203 106.695 61.908 107.949 61.1337 109.043C60.3594 110.136 59.2525 111.027 57.9327 111.619H57.94Z" stroke="#DADADA" stroke-miterlimit="10"/>
<path d="M57.9327 111.619L59.3393 124.05H48.5785L49.9851 111.619C48.6644 111.028 47.5565 110.137 46.7815 109.044C46.0065 107.95 45.5939 106.695 45.5882 105.414C45.6337 103.53 46.5354 101.736 48.0999 100.417C49.6645 99.0986 51.7672 98.3601 53.9571 98.3601C56.147 98.3601 58.2498 99.0986 59.8143 100.417C61.3788 101.736 62.2805 103.53 62.326 105.414C62.3203 106.695 61.908 107.949 61.1337 109.043C60.3594 110.136 59.2526 111.027 57.9327 111.619Z" stroke="#DADADA" stroke-miterlimit="10"/>
<path d="M57.9327 111.619L59.3393 124.05H48.5785L49.9851 111.619C48.6644 111.028 47.5565 110.137 46.7815 109.044C46.0065 107.95 45.5939 106.695 45.5882 105.414C45.6337 103.53 46.5354 101.736 48.0999 100.417C49.6645 99.0986 51.7672 98.3601 53.9571 98.3601C56.147 98.3601 58.2498 99.0986 59.8143 100.417C61.3788 101.736 62.2805 103.53 62.326 105.414C62.3203 106.695 61.908 107.949 61.1337 109.043C60.3594 110.136 59.2526 111.027 57.9327 111.619Z" stroke="#DADADA" stroke-miterlimit="10"/>
<path d="M138.914 7.24663C137.377 6.99769 135.37 8.69667 134.701 9.75464C134.643 9.84488 133.931 11.3603 133.96 11.3634C133.989 11.3665 136.701 11.5376 137.847 11.1673C138.823 10.8562 139.962 10.2152 140.277 9.30034C140.358 9.08856 140.386 8.86454 140.36 8.64275C140.334 8.42097 140.254 8.20636 140.126 8.01279C139.997 7.81923 139.823 7.65102 139.614 7.51905C139.405 7.38707 139.167 7.29427 138.914 7.24663Z" fill="#DADADA"/>
<path d="M113.942 29.4765C114.044 30.2357 114.159 30.9888 114.304 31.7262C114.38 32.0374 114.431 32.3672 114.525 32.6597C114.619 32.9522 114.695 33.2634 114.781 33.5621C114.98 34.1845 115.161 34.7414 115.363 35.3078C115.465 35.5909 115.566 35.8617 115.667 36.1386C115.418 35.6998 115.009 35.0091 114.962 34.9499C114.196 33.948 112.022 32.3983 110.518 32.7718C110.27 32.8374 110.041 32.9473 109.845 33.0944C109.65 33.2414 109.492 33.4223 109.384 33.6252C109.275 33.8281 109.217 34.0484 109.214 34.2718C109.21 34.4953 109.262 34.7168 109.365 34.9219C109.766 35.8056 110.967 36.3564 111.968 36.5991C113.078 36.8667 115.505 36.5556 115.801 36.5151C115.975 36.9756 116.145 37.4268 116.318 37.8625H117.287C117.092 37.4082 116.897 36.929 116.701 36.456C116.973 36.3564 119.073 35.5754 119.919 34.869C120.59 35.225 121.286 35.5451 122.002 35.8274C121.778 36.512 121.568 37.181 121.384 37.8065C121.382 37.8251 121.382 37.8438 121.384 37.8625H122.335C122.476 37.3304 122.635 36.7765 122.805 36.2039C123.105 36.2537 125.517 36.624 126.631 36.3875C127.643 36.1697 128.862 35.6501 129.295 34.7757C129.405 34.5729 129.464 34.3526 129.468 34.1289C129.472 33.9053 129.421 33.6835 129.319 33.4779C129.216 33.2724 129.065 33.0877 128.874 32.936C128.683 32.7843 128.457 32.6689 128.211 32.5975C126.717 32.1961 124.494 33.6866 123.687 34.6699C123.637 34.7321 123.127 35.5349 122.877 35.9488C122.989 35.5754 123.098 35.2051 123.239 34.8192C123.412 34.2622 123.6 33.6772 123.81 33.1109C123.926 32.8215 124.038 32.529 124.172 32.2303C124.306 31.9316 124.428 31.6547 124.555 31.359C124.754 30.9327 124.985 30.5002 125.213 30.0708C125.86 30.2575 127.777 30.7772 128.782 30.6931C129.787 30.6091 131.114 30.2575 131.696 29.4485C131.841 29.2627 131.938 29.0528 131.982 28.8325C132.026 28.6122 132.015 28.3865 131.951 28.1699C131.887 27.9533 131.771 27.7508 131.61 27.5754C131.449 27.4 131.247 27.2558 131.017 27.1521C129.61 26.5639 127.148 27.7495 126.182 28.6145C126.15 28.6425 125.969 28.8448 125.755 29.0844C125.991 28.6706 126.229 28.2536 126.479 27.8397C127.202 26.6666 127.994 25.4904 128.778 24.308C128.941 24.0622 129.097 23.8132 129.259 23.5674C129.805 23.7261 131.874 24.3049 132.926 24.2208C133.978 24.1368 135.262 23.7852 135.844 22.9762C135.989 22.7894 136.086 22.5784 136.129 22.357C136.172 22.1356 136.161 21.9088 136.095 21.6916C136.029 21.4744 135.91 21.2716 135.747 21.0967C135.583 20.9217 135.378 20.7786 135.146 20.6766C133.743 20.0854 131.281 21.271 130.311 22.136C130.279 22.1671 130.062 22.4067 129.82 22.6806C130.236 22.0333 130.641 21.383 131.017 20.7264C131.667 19.6089 132.228 18.455 132.698 17.2725C132.89 17.3285 135.298 18.0504 136.469 17.957C137.507 17.873 138.805 17.5183 139.387 16.7124C139.531 16.5264 139.629 16.3163 139.672 16.0959C139.716 15.8755 139.705 15.6496 139.641 15.433C139.576 15.2164 139.459 15.0139 139.298 14.8387C139.137 14.6634 138.934 14.5194 138.704 14.4159C137.301 13.8278 134.839 15.0103 133.873 15.8784C133.804 15.9376 133.023 16.8119 132.759 17.1231C132.764 17.1091 132.77 17.0956 132.777 17.0826C133.21 15.9075 133.521 14.7017 133.707 13.4793C133.879 12.3878 133.977 11.2885 134 10.1872C134.032 9.16653 134 8.22992 133.945 7.40221C133.916 6.95413 133.884 6.5465 133.844 6.15754L133.869 6.17621C133.895 6.17621 134.513 4.64526 134.538 4.54257C134.839 3.36947 134.622 0.951693 133.273 0.270235C133.044 0.165768 132.793 0.103648 132.534 0.0878704C132.276 0.0720929 132.017 0.103007 131.773 0.178625C131.53 0.254243 131.308 0.37289 131.12 0.526933C130.933 0.680975 130.786 0.867003 130.688 1.07305C130.232 1.93498 130.608 3.06141 131.103 3.84867C131.599 4.63592 133.349 5.83703 133.783 6.12331C133.815 6.5216 133.841 6.94479 133.859 7.41777C133.884 8.24236 133.902 9.17587 133.859 10.1934C133.859 10.4641 133.815 10.7535 133.794 11.0367C133.718 10.5543 133.598 9.89467 133.58 9.82932C133.219 8.66866 131.729 6.60873 130.167 6.54339C129.908 6.53822 129.65 6.5801 129.411 6.6663C129.171 6.7525 128.956 6.8811 128.778 7.04371C128.6 7.20632 128.464 7.39931 128.379 7.61012C128.294 7.82093 128.261 8.04483 128.283 8.26726C128.337 9.20076 129.274 10.0658 130.138 10.5699C131.002 11.074 133.266 11.4536 133.754 11.5283C133.696 12.1506 133.616 12.7916 133.486 13.4544C133.273 14.658 132.937 15.843 132.481 16.9955C132.452 17.064 132.416 17.1293 132.387 17.1947C132.387 16.952 132.34 15.6077 132.322 15.5144C132.112 14.3288 130.876 12.1382 129.353 11.9235C129.096 11.8937 128.834 11.9109 128.585 11.974C128.335 12.0371 128.104 12.1446 127.906 12.2896C127.709 12.4346 127.548 12.6138 127.436 12.8156C127.324 13.0173 127.263 13.2371 127.256 13.4607C127.191 14.3942 128.012 15.3277 128.807 15.9251C129.722 16.5972 132.271 17.2165 132.365 17.2413C131.874 18.3783 131.296 19.4863 130.637 20.5584C130.152 21.355 129.624 22.1454 129.086 22.9326C129.086 22.6214 129.035 21.3768 129.021 21.2772C128.811 20.0885 127.592 17.901 126.048 17.6863C125.791 17.657 125.53 17.6746 125.281 17.7379C125.032 17.8012 124.801 17.9088 124.604 18.0537C124.406 18.1987 124.247 18.3777 124.135 18.5792C124.023 18.7808 123.962 19.0003 123.955 19.2235C123.89 20.157 124.71 21.0905 125.502 21.6879C126.395 22.3414 128.836 22.9326 129.042 22.998C128.796 23.3558 128.554 23.7136 128.319 24.0684C127.506 25.2353 126.688 26.399 125.922 27.5721C125.654 27.9767 125.412 28.3843 125.162 28.7919C125.162 28.3158 125.112 27.4508 125.101 27.3761C124.891 26.1874 123.655 23.9999 122.129 23.7852C121.872 23.7559 121.61 23.7735 121.361 23.8368C121.112 23.9001 120.882 24.0077 120.684 24.1526C120.487 24.2976 120.327 24.4766 120.215 24.6781C120.103 24.8797 120.042 25.0991 120.035 25.3224C119.97 26.2559 120.791 27.1894 121.583 27.7837C122.375 28.3781 124.418 28.9164 124.996 29.0626C124.591 29.7441 124.208 30.4287 123.864 31.1163C123.727 31.4275 123.561 31.7138 123.445 32.0094C123.329 32.305 123.199 32.5944 123.083 32.8838C122.859 33.4874 122.646 34.0475 122.451 34.617C122.353 34.9033 122.266 35.174 122.172 35.454C122.244 34.9686 122.346 34.2093 122.346 34.1284C122.346 32.9273 121.529 30.606 120.042 30.1922C119.793 30.1292 119.531 30.1121 119.274 30.1419C119.017 30.1717 118.77 30.2478 118.549 30.3652C118.328 30.4825 118.138 30.6386 117.991 30.8233C117.845 31.0079 117.746 31.2169 117.699 31.4368C117.671 31.5515 117.655 31.6682 117.652 31.7853C116.983 32.6724 116.59 33.6924 116.51 34.7477C116.51 34.8223 116.593 35.7341 116.651 36.2008C116.506 35.8336 116.358 35.4727 116.217 35.0931C116.004 34.5454 115.801 33.9604 115.599 33.3941C115.508 33.0829 115.414 32.7998 115.324 32.4979C115.233 32.1961 115.168 31.8943 115.085 31.5862C114.977 31.1381 114.893 30.6527 114.807 30.1984C115.468 30.049 117.396 29.5761 118.184 29.0284C118.972 28.4807 119.851 27.5566 119.818 26.6075C119.817 26.3829 119.761 26.161 119.653 25.9565C119.545 25.7519 119.388 25.5693 119.192 25.4206C118.997 25.2719 118.767 25.1605 118.518 25.0937C118.268 25.0269 118.006 25.0062 117.746 25.033C116.195 25.2073 114.904 27.3636 114.651 28.5461C114.651 28.5865 114.619 28.8386 114.597 29.1404C114.528 28.683 114.46 28.2256 114.409 27.7557C114.264 26.4301 114.167 25.0766 114.047 23.7105C114.026 23.4274 113.997 23.1442 113.975 22.8642C114.532 22.7366 116.625 22.2418 117.453 21.6693C118.281 21.0967 119.12 20.1943 119.088 19.2453C119.089 19.0217 119.035 18.8004 118.93 18.5959C118.825 18.3914 118.671 18.2082 118.478 18.0582C118.286 17.9082 118.058 17.7948 117.811 17.7254C117.564 17.656 117.303 17.6321 117.045 17.6552C115.497 17.8295 114.203 19.9859 113.95 21.1683C113.95 21.2087 113.917 21.5137 113.888 21.8529C113.82 21.1185 113.74 20.3841 113.635 19.6747C113.461 18.4285 113.192 17.1936 112.829 15.978C113.028 15.9344 115.497 15.393 116.412 14.7582C117.226 14.1981 118.079 13.2864 118.05 12.3373C118.055 12.1126 118.005 11.8894 117.903 11.6824C117.801 11.4755 117.649 11.2895 117.458 11.1367C117.266 10.9838 117.039 10.8676 116.792 10.7957C116.544 10.7237 116.282 10.6977 116.022 10.7193C114.474 10.8935 113.18 13.0499 112.926 14.2324C112.908 14.3164 112.822 15.4148 112.807 15.81V15.7664C112.416 14.5798 111.902 13.4259 111.27 12.3187C110.715 11.3272 110.092 10.365 109.405 9.43725C108.779 8.56909 108.146 7.80673 107.575 7.13772C107.264 6.77676 106.975 6.45315 106.696 6.15131H106.729C106.758 6.15131 106.284 4.57058 106.241 4.47412C105.742 3.3508 104.006 1.43712 102.448 1.5118C102.189 1.52999 101.937 1.59501 101.709 1.70261C101.481 1.81021 101.282 1.95796 101.125 2.13622C100.968 2.31447 100.857 2.51922 100.798 2.73709C100.739 2.95496 100.735 3.18105 100.784 3.40059C100.954 4.33409 101.988 5.09645 102.907 5.51964C103.825 5.94283 106.056 6.11086 106.602 6.14198C106.884 6.45315 107.177 6.79854 107.495 7.18439C108.045 7.86274 108.66 8.63132 109.26 9.50571C109.423 9.73908 109.582 9.99735 109.744 10.2432C109.383 9.876 108.851 9.38124 108.793 9.33768C107.748 8.54108 105.178 7.52979 103.84 8.21436C103.62 8.33377 103.432 8.49153 103.288 8.67743C103.144 8.86333 103.047 9.07322 103.003 9.29352C102.959 9.51381 102.969 9.73959 103.033 9.95625C103.097 10.1729 103.213 10.3756 103.373 10.5512C104.028 11.3136 105.355 11.5781 106.396 11.5905C107.438 11.603 109.574 10.8406 110.012 10.657C110.374 11.2078 110.706 11.7803 111.024 12.3933C111.618 13.4955 112.096 14.641 112.453 15.8162C112.471 15.8815 112.482 15.9562 112.503 16.0247C112.355 15.8162 111.444 14.724 111.372 14.6555C110.435 13.7625 108.016 12.5147 106.591 13.0686C106.358 13.1664 106.151 13.3053 105.984 13.4764C105.817 13.6476 105.694 13.847 105.622 14.0618C105.55 14.2766 105.532 14.502 105.568 14.7233C105.604 14.9446 105.694 15.1569 105.832 15.3463C106.382 16.1678 107.665 16.5568 108.703 16.6657C109.893 16.7902 112.42 16.0994 112.514 16.0714C112.832 17.2543 113.06 18.4538 113.198 19.6622C113.306 20.5553 113.371 21.4639 113.429 22.3756C113.227 22.1111 112.38 21.0967 112.312 21.0283C111.375 20.1383 108.956 18.8905 107.532 19.4444C107.298 19.5419 107.09 19.6807 106.923 19.8517C106.756 20.0227 106.632 20.2221 106.56 20.4369C106.488 20.6517 106.469 20.8772 106.505 21.0986C106.541 21.3201 106.631 21.5325 106.769 21.7222C107.322 22.5437 108.605 22.9295 109.64 23.0384C110.804 23.1629 113.227 22.5094 113.433 22.4534C113.458 22.8673 113.483 23.2811 113.505 23.6981C113.577 25.0548 113.642 26.4177 113.751 27.7433C113.791 28.21 113.848 28.6768 113.903 29.1217C113.588 28.7297 112.999 28.0264 112.941 27.9704C112.004 27.0805 109.585 25.8327 108.161 26.3866C107.927 26.484 107.719 26.6228 107.552 26.7938C107.385 26.9649 107.261 27.1644 107.189 27.3794C107.118 27.5944 107.1 27.8199 107.136 28.0413C107.173 28.2627 107.263 28.475 107.401 28.6643C107.955 29.4858 109.235 29.8717 110.272 29.9806C111.31 30.0895 113.368 29.6258 113.942 29.4765Z" fill="#DADADA"/>
<path d="M110.095 10.4392C110.095 10.4392 112.492 9.28478 113.212 8.43218C113.823 7.70405 114.369 6.63363 114.044 5.72502C113.976 5.50914 113.857 5.30787 113.694 5.13434C113.53 4.96081 113.326 4.81892 113.094 4.71791C112.862 4.61691 112.608 4.55907 112.349 4.54816C112.09 4.53725 111.83 4.57352 111.588 4.6546C110.142 5.17425 109.564 7.54847 109.683 8.74646C109.694 8.85226 110.07 10.4517 110.095 10.4392Z" fill="#DADADA"/>
<path d="M43.6753 105.507C42.0735 105.249 39.9799 107.02 39.2857 108.121C39.2242 108.214 38.4829 109.795 38.5119 109.798C38.5408 109.801 41.3684 109.982 42.5616 109.596C43.5777 109.266 44.7673 108.603 45.0927 107.654C45.1781 107.433 45.2085 107.2 45.1821 106.968C45.1557 106.736 45.073 106.512 44.9393 106.309C44.8057 106.107 44.6241 105.931 44.4064 105.793C44.1886 105.655 43.9396 105.557 43.6753 105.507Z" fill="#DADADA"/>
<path d="M17.652 128.674C17.7568 129.464 17.8798 130.248 18.0425 131.017C18.122 131.347 18.1763 131.686 18.2739 132C18.3715 132.314 18.4511 132.623 18.5379 132.934C18.7476 133.572 18.9356 134.178 19.149 134.754C19.2538 135.05 19.3587 135.33 19.4635 135.619C19.2032 135.162 18.7765 134.443 18.7404 134.374C17.9413 133.332 15.6777 131.717 14.1084 132.094C13.8497 132.162 13.6106 132.277 13.4069 132.431C13.2032 132.584 13.0394 132.773 12.9261 132.985C12.8128 133.196 12.7527 133.426 12.7496 133.659C12.7464 133.892 12.8004 134.123 12.908 134.337C13.3274 135.271 14.5749 135.831 15.6235 136.086C16.7769 136.363 19.3044 136.039 19.6009 135.999C19.7817 136.478 19.9625 136.948 20.1361 137.399H21.1485C20.946 136.93 20.7423 136.442 20.5374 135.933C20.8231 135.831 23.0107 135.019 23.8893 134.281C24.5888 134.651 25.3133 134.984 26.0589 135.28C25.8238 135.992 25.6069 136.689 25.4152 137.343C25.4152 137.362 25.4152 137.38 25.4152 137.399H26.3915C26.5398 136.845 26.7025 136.266 26.8797 135.672C27.1942 135.722 29.7073 136.111 30.8571 135.862C31.9093 135.635 33.1821 135.096 33.6305 134.185C33.7451 133.974 33.8068 133.744 33.8116 133.512C33.8165 133.279 33.7644 133.048 33.6586 132.834C33.5529 132.619 33.3959 132.427 33.198 132.268C33 132.11 32.7654 131.989 32.5096 131.913C30.9547 131.496 28.637 133.049 27.8089 134.073C27.7547 134.141 27.2232 134.975 26.9628 135.407C27.0785 135.019 27.1942 134.633 27.3244 134.231C27.5052 133.649 27.7185 133.039 27.921 132.451L28.2826 131.533C28.3983 131.222 28.5502 130.93 28.684 130.625C28.8937 130.18 29.1323 129.729 29.371 129.281C30.0472 129.473 32.0395 130.015 33.0881 129.934C34.1367 129.853 35.5216 129.477 36.1254 128.636C36.2761 128.442 36.3774 128.223 36.4225 127.993C36.4677 127.762 36.4557 127.526 36.3874 127.3C36.3191 127.074 36.196 126.863 36.0262 126.681C35.8564 126.499 35.6438 126.35 35.4022 126.244C33.9559 125.621 31.3742 126.866 30.3654 127.765C30.3328 127.796 30.1412 128.005 29.9206 128.257C30.1701 127.824 30.4124 127.392 30.6835 126.959C31.4429 125.736 32.2637 124.51 33.0772 123.278C33.2472 123.023 33.4135 122.765 33.5799 122.506C34.1512 122.674 36.3026 123.275 37.4018 123.188C38.501 123.101 39.8353 122.734 40.4391 121.893C40.5893 121.699 40.69 121.48 40.7349 121.25C40.7797 121.019 40.7676 120.784 40.6994 120.558C40.6311 120.332 40.5082 120.121 40.3388 119.939C40.1693 119.757 39.9571 119.607 39.716 119.501C38.2696 118.878 35.6879 120.123 34.6791 121.022C34.6429 121.053 34.4151 121.305 34.1656 121.588C34.5995 120.913 35.019 120.238 35.4131 119.553C36.0941 118.385 36.6848 117.179 37.1813 115.944C37.3801 116.003 39.8895 116.753 41.1117 116.656C42.1965 116.569 43.5416 116.202 44.149 115.359C44.2985 115.165 44.3988 114.946 44.4433 114.716C44.4878 114.486 44.4755 114.251 44.4073 114.025C44.3391 113.8 44.2164 113.589 44.0473 113.407C43.8782 113.225 43.6664 113.076 43.4258 112.969C41.9614 112.347 39.3942 113.591 38.389 114.491C38.3166 114.553 37.5067 115.468 37.2283 115.801C37.2364 115.787 37.2425 115.772 37.2463 115.757C37.6993 114.534 38.0236 113.278 38.2154 112.005C38.3943 110.87 38.4957 109.727 38.5191 108.582C38.5553 107.517 38.5191 106.54 38.4649 105.678C38.436 105.212 38.3998 104.785 38.36 104.387L38.3853 104.406C38.4106 104.406 39.0579 102.809 39.0832 102.704C39.3978 101.481 39.17 98.9697 37.7634 98.254C37.526 98.1418 37.2639 98.0739 36.9939 98.0547C36.724 98.0355 36.4524 98.0655 36.1969 98.1427C35.9414 98.22 35.7076 98.3427 35.5109 98.5028C35.3142 98.663 35.1589 98.8571 35.0551 99.0724C34.5778 99.9716 34.972 101.142 35.4854 101.966C35.9989 102.791 37.8285 104.035 38.2805 104.337C38.313 104.751 38.3419 105.193 38.36 105.682C38.3853 106.544 38.4034 107.517 38.36 108.575C38.36 108.859 38.313 109.16 38.2913 109.456C38.2118 108.952 38.0888 108.264 38.0671 108.211C37.7056 107.001 36.1399 104.854 34.5127 104.789C34.2422 104.784 33.9734 104.828 33.724 104.918C33.4746 105.009 33.25 105.143 33.0649 105.313C32.8798 105.483 32.7382 105.685 32.6494 105.905C32.5606 106.125 32.5265 106.358 32.5493 106.59C32.6072 107.577 33.5799 108.457 34.4802 108.986C35.3806 109.515 37.7345 109.92 38.2515 109.985C38.1865 110.635 38.1069 111.304 37.9731 111.995C37.7499 113.249 37.399 114.484 36.9245 115.686C36.8956 115.754 36.8558 115.823 36.8269 115.891C36.8269 115.636 36.7763 114.239 36.7582 114.142C36.5376 112.898 35.2721 110.623 33.663 110.408C33.3958 110.379 33.1243 110.398 32.8663 110.465C32.6083 110.532 32.3693 110.644 32.1649 110.795C31.9604 110.946 31.7951 111.132 31.6794 111.342C31.5638 111.551 31.5005 111.779 31.4935 112.011C31.4248 112.997 32.2818 113.971 33.1098 114.578C34.0608 115.278 36.7257 115.922 36.8197 115.947C36.3053 117.132 35.7014 118.287 35.0117 119.404C34.5091 120.235 33.9559 121.06 33.3954 121.893C33.3954 121.564 33.3448 120.263 33.3267 120.17C33.1098 118.925 31.8406 116.653 30.2316 116.436C29.9643 116.406 29.6929 116.426 29.4348 116.492C29.1768 116.559 28.9378 116.671 28.7334 116.822C28.529 116.973 28.3636 117.16 28.248 117.369C28.1323 117.578 28.069 117.806 28.062 118.038C27.9933 119.024 28.8503 119.995 29.6783 120.602C30.6076 121.287 33.1496 121.915 33.3665 121.968C33.1098 122.342 32.8567 122.715 32.6 123.085C31.7538 124.302 30.9005 125.515 30.1014 126.735C29.823 127.158 29.5699 127.585 29.3131 128.008C29.3131 127.513 29.2589 126.608 29.2444 126.53C29.0275 125.285 27.7583 123.014 26.1493 122.796C25.8821 122.767 25.6109 122.787 25.3531 122.854C25.0953 122.92 24.8566 123.033 24.6523 123.184C24.448 123.335 24.2826 123.521 24.1668 123.73C24.051 123.939 23.9872 124.167 23.9797 124.398C23.9147 125.385 24.768 126.359 25.596 126.965C26.4241 127.572 28.5502 128.145 29.1504 128.297C28.731 129.007 28.3296 129.719 27.9717 130.438C27.827 130.749 27.6571 131.06 27.5377 131.372L27.1545 132.283C26.9194 132.906 26.6989 133.497 26.4964 134.088C26.3915 134.399 26.3011 134.67 26.2035 134.963C26.2794 134.455 26.3843 133.656 26.3843 133.581C26.3843 132.336 25.5346 129.909 23.9834 129.48C23.7239 129.414 23.4513 129.396 23.1833 129.427C22.9153 129.458 22.6579 129.538 22.428 129.66C22.198 129.782 22.0006 129.945 21.8487 130.138C21.6968 130.33 21.5937 130.548 21.5463 130.777C21.515 130.898 21.498 131.021 21.4956 131.144C20.7978 132.068 20.387 133.129 20.3024 134.228C20.3024 134.309 20.3928 135.258 20.4507 135.744C20.2988 135.364 20.1469 134.987 19.9987 134.589C19.7781 134.02 19.5648 133.41 19.3551 132.822C19.261 132.51 19.1634 132.199 19.0658 131.888C18.9682 131.577 18.9031 131.266 18.8199 130.955C18.7078 130.485 18.6174 129.996 18.5306 129.508C19.2177 129.352 21.2281 128.854 22.0489 128.288C22.8697 127.722 23.7845 126.754 23.7519 125.764C23.7534 125.531 23.6978 125.301 23.5887 125.088C23.4797 124.874 23.3197 124.683 23.1191 124.527C22.9185 124.37 22.6818 124.252 22.4245 124.179C22.1673 124.107 21.8951 124.082 21.6258 124.106C20.0095 124.289 18.6644 126.536 18.4005 127.768C18.4005 127.806 18.3679 128.079 18.3426 128.391C18.2739 127.911 18.2016 127.432 18.1474 126.947C17.9991 125.565 17.8979 124.146 17.7858 122.74C17.7641 122.444 17.7351 122.152 17.7135 121.856C18.292 121.725 20.476 121.206 21.3293 120.611C22.1827 120.017 23.0649 119.077 23.0324 118.088C23.0333 117.855 22.9773 117.625 22.868 117.412C22.7588 117.199 22.5988 117.008 22.3983 116.851C22.1978 116.695 21.9614 116.577 21.7044 116.504C21.4474 116.431 21.1754 116.406 20.9063 116.429C19.29 116.613 17.9413 118.86 17.6809 120.092C17.6809 120.135 17.6411 120.45 17.6158 120.804C17.5435 120.039 17.4603 119.273 17.3482 118.517C17.1707 117.218 16.8904 115.931 16.5094 114.665C16.7155 114.621 19.29 114.043 20.2446 113.395C21.0943 112.81 21.9838 111.861 21.9476 110.872C21.949 110.639 21.8935 110.409 21.7847 110.196C21.6758 109.983 21.5161 109.792 21.316 109.635C21.1158 109.479 20.8796 109.361 20.6227 109.288C20.3659 109.215 20.0941 109.19 19.8251 109.213C18.2088 109.397 16.8601 111.644 16.5998 112.876C16.5781 112.963 16.4877 114.12 16.4732 114.519C16.4732 114.503 16.4732 114.488 16.4732 114.475C16.0661 113.239 15.5313 112.036 14.875 110.881C14.2923 109.823 13.6366 108.795 12.9116 107.804C12.2607 106.898 11.599 106.105 11.006 105.408C10.6842 105.031 10.3769 104.695 10.0912 104.381H10.1201C10.1527 104.381 9.65731 102.732 9.6103 102.632C9.08962 101.462 7.28531 99.4676 5.65817 99.5453C5.38855 99.5648 5.12669 99.6328 4.88956 99.7449C4.65244 99.857 4.44534 100.011 4.2817 100.196C4.11806 100.382 4.00152 100.595 3.93965 100.821C3.87778 101.048 3.87196 101.283 3.92255 101.512C4.10335 102.489 5.18087 103.282 6.13908 103.721C7.09728 104.16 9.41866 104.344 9.98997 104.372C10.2829 104.701 10.5866 105.059 10.9192 105.458C11.4906 106.164 12.1306 106.967 12.7561 107.882C12.9261 108.124 13.0924 108.389 13.2623 108.647C12.8754 108.264 12.3294 107.748 12.2716 107.714C11.1868 106.883 8.51108 105.828 7.10813 106.544C6.87907 106.668 6.68293 106.832 6.53249 107.025C6.38205 107.219 6.28068 107.438 6.23497 107.667C6.18926 107.897 6.20024 108.132 6.2672 108.358C6.33416 108.583 6.4556 108.794 6.6236 108.977C7.307 109.773 8.68826 110.047 9.77302 110.06C10.8578 110.072 13.0851 109.279 13.5588 109.101C13.9204 109.674 14.282 110.271 14.6147 110.909C15.2322 112.061 15.7307 113.257 16.1044 114.485C16.1044 114.556 16.1369 114.631 16.155 114.702C15.9995 114.488 15.0522 113.349 14.9762 113.277C14 112.344 11.4797 111.049 9.99359 111.625C9.75028 111.727 9.5346 111.872 9.36056 112.05C9.18652 112.229 9.058 112.436 8.98333 112.66C8.90866 112.884 8.88952 113.119 8.92714 113.35C8.96476 113.58 9.05831 113.802 9.20171 113.999C9.78025 114.855 11.1145 115.244 12.1956 115.371C13.4359 115.502 16.0682 114.78 16.1731 114.749C16.5083 115.979 16.7499 117.226 16.8963 118.483C17.0084 119.417 17.0771 120.35 17.1385 121.312C16.9288 121.032 16.0538 119.977 15.9742 119.905C14.9979 118.972 12.4777 117.677 10.9916 118.256C10.748 118.357 10.5319 118.502 10.3576 118.68C10.1832 118.858 10.0545 119.065 9.97977 119.289C9.90504 119.513 9.886 119.748 9.9239 119.978C9.96179 120.209 10.0558 120.43 10.1997 120.627C10.7746 121.483 12.1125 121.872 13.19 122.002C14.4049 122.13 16.9288 121.448 17.1421 121.38C17.1675 121.813 17.1964 122.245 17.2181 122.678C17.294 124.09 17.3591 125.509 17.4748 126.906C17.5146 127.389 17.576 127.865 17.6339 128.341C17.3049 127.933 16.6938 127.199 16.6323 127.143C15.656 126.209 13.1358 124.915 11.6497 125.491C11.4028 125.59 11.1834 125.734 11.0062 125.913C10.8289 126.091 10.6978 126.3 10.6216 126.526C10.5453 126.751 10.5256 126.988 10.5639 127.22C10.6021 127.453 10.6974 127.676 10.8433 127.874C11.4182 128.733 12.7561 129.134 13.8336 129.249C14.9112 129.365 17.0554 128.829 17.652 128.674Z" fill="#DADADA"/>
<path d="M13.6419 108.834C13.6419 108.834 16.1405 107.633 16.8962 106.743C17.5362 105.987 18.1039 104.876 17.7676 103.924C17.6976 103.698 17.5732 103.488 17.4026 103.307C17.232 103.126 17.019 102.978 16.7775 102.873C16.5359 102.768 16.2713 102.707 16.0008 102.696C15.7303 102.684 15.46 102.722 15.2076 102.806C13.7034 103.351 13.0959 105.822 13.2189 107.069C13.2225 107.181 13.6166 108.846 13.6419 108.834Z" fill="#DADADA"/>
<path d="M72.6276 25.9852H158.19V113.181C158.19 113.955 157.832 114.697 157.196 115.245C156.56 115.792 155.698 116.099 154.798 116.099H76.0229C75.1233 116.099 74.2606 115.792 73.6246 115.245C72.9885 114.697 72.6312 113.955 72.6312 113.181V25.9852H72.6276Z" fill="#DADADA" stroke="#DADADA" stroke-linecap="round" stroke-linejoin="round"/>
<path d="M70.8377 24.6378H156.4V111.833C156.4 112.607 156.043 113.35 155.406 113.897C154.77 114.445 153.908 114.752 153.008 114.752H74.233C73.3335 114.752 72.4708 114.445 71.8347 113.897C71.1987 113.35 70.8413 112.607 70.8413 111.833V24.6378H70.8377Z" fill="white" stroke="#DADADA" stroke-miterlimit="10"/>
<path d="M153.07 24.6378V114.752H153.25C154.086 114.752 154.887 114.467 155.477 113.958C156.068 113.45 156.4 112.761 156.4 112.042V24.6378H153.07Z" fill="white" stroke="#DADADA" stroke-miterlimit="10"/>
<path d="M156.4 48.6289H153.07V67.2399H156.4V48.6289Z" fill="white" stroke="#DADADA" stroke-miterlimit="10"/>
<path d="M156.4 24.6378H70.8377V31.0105H156.4V24.6378Z" fill="#DADADA" stroke="#DADADA" stroke-miterlimit="10"/>
<path d="M147.028 27.8895C147.028 27.7084 146.967 27.5313 146.85 27.3804C146.734 27.2296 146.568 27.1118 146.374 27.0421C146.18 26.9724 145.966 26.9538 145.759 26.9888C145.553 27.0237 145.363 27.1106 145.214 27.2384C145.065 27.3662 144.963 27.5292 144.922 27.7068C144.881 27.8843 144.902 28.0684 144.982 28.2358C145.062 28.4031 145.199 28.5462 145.374 28.6468C145.548 28.7475 145.754 28.8012 145.964 28.8012C146.246 28.8012 146.516 28.7053 146.715 28.5344C146.914 28.3635 147.027 28.1316 147.028 27.8895Z" fill="white" stroke="#DADADA" stroke-miterlimit="10"/>
<path d="M149.298 28.8012C149.883 28.8012 150.358 28.393 150.358 27.8895C150.358 27.386 149.883 26.9778 149.298 26.9778C148.713 26.9778 148.239 27.386 148.239 27.8895C148.239 28.393 148.713 28.8012 149.298 28.8012Z" fill="white" stroke="#DADADA" stroke-miterlimit="10"/>
<path d="M152.632 28.8012C153.217 28.8012 153.692 28.393 153.692 27.8895C153.692 27.386 153.217 26.9778 152.632 26.9778C152.047 26.9778 151.573 27.386 151.573 27.8895C151.573 28.393 152.047 28.8012 152.632 28.8012Z" fill="white" stroke="#DADADA" stroke-miterlimit="10"/>
<path d="M109.488 95.8579C101.659 91.8128 95.4907 86.915 91.1589 81.3077C87.8395 77.0105 86.8199 73.821 86.6427 73.2174L86.4257 72.4643V43.8213L113.284 33.9355L140.143 43.8213V72.4737L139.922 73.2267C139.752 73.821 138.729 77.0105 135.406 81.3171C131.067 86.9181 124.92 91.819 117.081 95.8673L113.284 97.8276L109.488 95.8579Z" fill="#CFCFCF" stroke="white" stroke-linecap="round" stroke-linejoin="round"/>
<path d="M111.386 93.1352C93.7225 84.0087 90.3561 72.928 90.2223 72.4612L90.1138 72.0847V45.9155L113.284 37.3895L136.455 45.9155V72.0847L136.346 72.4612C136.212 72.928 132.842 84.0087 115.183 93.1352L113.284 94.1123L111.386 93.1352Z" fill="white"/>
<path d="M113.284 40.9462L93.7985 47.8665V71.7082C93.7985 71.7082 96.7309 81.871 113.284 90.425C129.838 81.8617 132.767 71.7082 132.767 71.7082V47.8665L113.284 40.9462Z" fill="white"/>
<path d="M122.839 69.6594C128.226 65.0234 128.226 57.5071 122.839 52.8711C117.452 48.2352 108.718 48.2352 103.331 52.8711C97.9438 57.5071 97.9438 65.0234 103.331 69.6594C108.718 74.2953 117.452 74.2953 122.839 69.6594Z" fill="white"/>
<path d="M118.237 58.16C118.947 55.7141 117.219 53.2359 114.377 52.6247C111.535 52.0135 108.655 53.5008 107.945 55.9467C107.234 58.3926 108.963 60.8708 111.805 61.482C114.647 62.0932 117.527 60.6059 118.237 58.16Z" fill="#DADADA"/>
<path d="M113.085 73.1365C116.625 73.1408 120.031 71.9693 122.592 69.8661C122.315 67.864 121.195 66.0188 119.443 64.6799C117.692 63.341 115.43 62.6016 113.087 62.6016C110.744 62.6016 108.483 63.341 106.731 64.6799C104.98 66.0188 103.86 67.864 103.583 69.8661C106.143 71.9686 109.547 73.14 113.085 73.1365Z" fill="#DADADA"/>
<path opacity="0.19" d="M117.081 95.858C124.909 91.8128 131.074 86.915 135.406 81.3077C138.729 77.0105 139.745 73.821 139.922 73.2174L140.143 72.4643V43.8213L113.284 33.9355V97.8183L117.081 95.858Z" fill="#61CE70"/>
<path d="M80.6729 109.325V101.602H82.9003C83.3492 101.584 83.7955 101.671 84.1912 101.854C84.5111 102.026 84.7573 102.282 84.8926 102.585C85.0503 102.955 85.1251 103.346 85.1132 103.74C85.1231 104.104 85.0379 104.466 84.8637 104.798C84.7119 105.087 84.4591 105.329 84.1405 105.489C83.7664 105.661 83.3459 105.744 82.922 105.731H81.9349V109.325H80.6729ZM81.924 104.969H82.4989C82.7884 104.978 83.0774 104.942 83.3523 104.863C83.4515 104.831 83.542 104.782 83.6185 104.719C83.695 104.656 83.7557 104.58 83.797 104.496C83.8972 104.26 83.9426 104.009 83.9308 103.758C83.9405 103.473 83.9089 103.188 83.8368 102.909C83.8105 102.82 83.7615 102.736 83.6934 102.665C83.6252 102.594 83.5396 102.537 83.4427 102.498C83.1432 102.409 82.8264 102.37 82.5098 102.383H81.924V104.969Z" fill="#DADADA"/>
<path d="M85.9882 109.325V101.602H87.7962C88.301 101.589 88.8041 101.659 89.2787 101.807C89.6521 101.93 89.9616 102.164 90.1501 102.467C90.3551 102.837 90.452 103.244 90.4321 103.653C90.436 103.927 90.3983 104.201 90.32 104.468C90.2556 104.696 90.132 104.909 89.9584 105.09C89.789 105.262 89.5673 105.389 89.3184 105.457L90.5912 109.328H89.3835L88.2228 105.703H87.2502V109.325H85.9882ZM87.2429 104.932H87.7166C88.0104 104.939 88.3034 104.9 88.5808 104.816C88.7965 104.745 88.9716 104.605 89.0689 104.424C89.1863 104.18 89.2394 103.917 89.2244 103.653C89.2587 103.308 89.1567 102.964 88.9351 102.676C88.7435 102.476 88.3638 102.364 87.7962 102.364H87.2429V104.932Z" fill="#DADADA"/>
<path d="M91.8062 109.325V101.602H93.0355V109.325H91.8062Z" fill="#DADADA"/>
<path d="M96.0476 109.325L94.0444 101.602H95.2159L96.6369 107.293L97.9857 101.602H99.1283L97.1468 109.325H96.0476Z" fill="#DADADA"/>
<path d="M99.2838 109.325L101.189 101.602H102.397L104.313 109.325H103.127L102.719 107.38H100.878L100.448 109.325H99.2838ZM101.056 106.609H102.552L101.797 103.136L101.056 106.609Z" fill="#DADADA"/>
<path d="M107.427 109.409C106.903 109.438 106.384 109.318 105.948 109.067C105.595 108.832 105.341 108.504 105.225 108.134C105.085 107.712 105.017 107.275 105.022 106.836V104.11C105.014 103.65 105.082 103.191 105.225 102.747C105.34 102.385 105.595 102.067 105.948 101.845C106.392 101.613 106.908 101.504 107.427 101.534C107.892 101.512 108.355 101.605 108.761 101.801C109.095 101.978 109.35 102.246 109.484 102.564C109.639 102.946 109.712 103.35 109.701 103.755V104.378H108.515V103.833C108.517 103.58 108.5 103.328 108.464 103.077C108.448 102.885 108.352 102.704 108.193 102.567C107.982 102.427 107.717 102.362 107.452 102.383C107.173 102.362 106.896 102.432 106.675 102.579C106.5 102.728 106.389 102.923 106.36 103.133C106.309 103.409 106.285 103.688 106.288 103.967V107.026C106.275 107.34 106.313 107.654 106.4 107.959C106.447 108.153 106.576 108.325 106.761 108.442C106.97 108.545 107.208 108.594 107.448 108.585C107.578 108.595 107.709 108.582 107.833 108.549C107.957 108.515 108.072 108.461 108.172 108.389C108.328 108.239 108.425 108.051 108.446 107.85C108.488 107.585 108.508 107.318 108.504 107.051V106.478H109.69V107.051C109.698 107.472 109.63 107.892 109.488 108.295C109.375 108.633 109.134 108.929 108.804 109.135C108.389 109.346 107.908 109.442 107.427 109.409Z" fill="#DADADA"/>
<path d="M112.254 109.325V106.599L110.316 101.602H111.48L112.854 105.336L114.206 101.602H115.378L113.451 106.599V109.325H112.254Z" fill="#DADADA"/>
<path d="M118.748 109.325V101.602H120.972C121.421 101.583 121.867 101.67 122.263 101.854C122.584 102.025 122.832 102.282 122.968 102.585C123.125 102.955 123.2 103.346 123.188 103.74C123.198 104.104 123.113 104.466 122.939 104.798C122.785 105.086 122.533 105.327 122.216 105.488C121.841 105.66 121.421 105.744 120.997 105.731H120.01V109.325H118.748ZM119.999 104.969H120.574C120.863 104.977 121.152 104.942 121.427 104.863C121.526 104.831 121.617 104.782 121.694 104.719C121.77 104.656 121.831 104.58 121.872 104.496C121.971 104.26 122.015 104.009 122.002 103.758C122.014 103.473 121.982 103.187 121.908 102.909C121.885 102.819 121.837 102.735 121.769 102.664C121.701 102.593 121.615 102.536 121.518 102.498C121.218 102.409 120.901 102.37 120.585 102.383H119.999V104.969Z" fill="#DADADA"/>
<path d="M126.356 109.409C125.849 109.429 125.346 109.321 124.909 109.098C124.543 108.893 124.27 108.585 124.136 108.227C123.97 107.799 123.891 107.349 123.901 106.898V103.976C123.889 103.531 123.969 103.087 124.139 102.666C124.282 102.319 124.555 102.023 124.917 101.826C125.358 101.615 125.859 101.515 126.363 101.537C126.868 101.513 127.371 101.615 127.809 101.832C128.166 102.031 128.436 102.325 128.579 102.669C128.747 103.09 128.827 103.532 128.814 103.976V106.914C128.826 107.361 128.746 107.806 128.579 108.23C128.438 108.584 128.168 108.89 127.809 109.101C127.371 109.327 126.865 109.434 126.356 109.409ZM126.356 108.563C126.624 108.579 126.89 108.517 127.111 108.386C127.287 108.258 127.408 108.084 127.455 107.891C127.517 107.644 127.546 107.393 127.542 107.141V103.758C127.546 103.51 127.517 103.261 127.455 103.018C127.407 102.83 127.286 102.662 127.111 102.542C126.88 102.431 126.62 102.374 126.356 102.374C126.091 102.374 125.831 102.431 125.6 102.542C125.416 102.657 125.287 102.826 125.238 103.018C125.176 103.261 125.147 103.51 125.152 103.758V107.141C125.148 107.393 125.177 107.644 125.238 107.891C125.287 108.087 125.415 108.263 125.6 108.386C125.821 108.517 126.088 108.579 126.356 108.563Z" fill="#DADADA"/>
<path d="M130.033 109.325V101.602H131.288V108.553H133.58V109.325H130.033Z" fill="#DADADA"/>
<path d="M134.506 109.325V101.602H135.735V109.325H134.506Z" fill="#DADADA"/>
<path d="M139.431 109.409C138.907 109.438 138.388 109.318 137.952 109.067C137.599 108.832 137.345 108.504 137.229 108.134C137.087 107.712 137.019 107.275 137.026 106.836V104.11C137.016 103.65 137.084 103.191 137.229 102.747C137.344 102.385 137.599 102.067 137.952 101.845C138.396 101.613 138.912 101.504 139.431 101.534C139.896 101.512 140.359 101.605 140.765 101.801C141.099 101.978 141.354 102.246 141.488 102.564C141.643 102.946 141.716 103.35 141.705 103.755V104.378H140.519V103.833C140.521 103.58 140.504 103.328 140.468 103.077C140.452 102.885 140.355 102.704 140.197 102.567C139.986 102.427 139.721 102.362 139.456 102.383C139.177 102.362 138.9 102.432 138.679 102.579C138.504 102.728 138.393 102.923 138.364 103.133C138.313 103.409 138.289 103.688 138.292 103.967V107.026C138.279 107.34 138.317 107.654 138.404 107.959C138.451 108.153 138.58 108.325 138.765 108.442C138.974 108.545 139.212 108.594 139.452 108.585C139.582 108.595 139.713 108.582 139.837 108.549C139.961 108.515 140.076 108.461 140.176 108.389C140.332 108.239 140.428 108.051 140.45 107.85C140.492 107.585 140.512 107.318 140.508 107.051V106.478H141.694V107.051C141.702 107.472 141.634 107.892 141.492 108.295C141.38 108.634 141.138 108.93 140.805 109.135C140.391 109.347 139.911 109.443 139.431 109.409Z" fill="#DADADA"/>
<path d="M144.269 109.325V106.599L142.331 101.602H143.495L144.869 105.336L146.218 101.602H147.393L145.466 106.599V109.325H144.269Z" fill="#DADADA"/>
<path d="M61.9571 104.723C61.9571 104.723 61.5088 110.514 62.4778 113.408C63.4469 116.302 69.583 130.074 69.583 130.074C69.583 130.074 69.7313 132.517 69.5071 132.775C69.2829 133.033 68.2343 134.449 66.8169 135.028C65.3994 135.607 62.4055 137.085 63.0781 137.278C63.7506 137.47 69.7313 136.892 70.4038 137.15C71.0764 137.408 74.0667 136.378 74.8152 136.12C75.5636 135.862 74.8152 134.253 74.8152 134.253C73.9066 131.585 73.1583 128.878 72.5733 126.144C71.9008 122.606 70.8522 117.718 70.2556 115.272C69.8759 113.768 69.2984 112.307 68.5344 110.915L69.2829 104.869L61.9571 104.723Z" fill="white" stroke="#175054" stroke-miterlimit="10"/>
<path d="M67.7859 135.862L67.0194 134.928C66.9507 134.962 66.8856 134.994 66.8169 135.022C65.3958 135.6 62.4055 137.078 63.0781 137.271C63.7506 137.464 69.7313 136.886 70.4038 137.144C71.0764 137.402 74.0667 136.372 74.8152 136.114C75.5637 135.856 74.8152 134.247 74.8152 134.247C74.8152 134.247 74.7392 134.029 74.6163 133.652C73.5923 134.046 72.6291 134.548 71.7489 135.146C70.1796 136.313 67.7859 135.862 67.7859 135.862Z" fill="#175054" stroke="#175054" stroke-miterlimit="10"/>
<path d="M66.7048 105.174C66.7048 105.174 67.3014 111.087 68.1982 113.153C69.0949 115.219 69.0949 129.237 69.0949 130.395C69.0949 131.552 66.9254 133.419 66.9254 133.419C66.9254 133.419 63.1866 135.8 62.1416 136.058C61.0966 136.316 60.2722 136.637 60.7929 137.022C61.3136 137.408 66.477 137.408 68.2705 137.408C70.064 137.408 72.3817 137.471 72.6095 137.15C72.7935 136.736 72.915 136.303 72.9711 135.862C72.9711 135.862 72.5228 132.262 72.671 130.653C72.8193 129.044 75.5131 119.264 75.2889 115.984C75.1053 113.804 74.6532 111.647 73.9402 109.549C73.8679 109.291 74.4645 104.854 74.4645 104.854L66.7048 105.174Z" fill="white" stroke="#175054" stroke-miterlimit="10"/>
<path d="M72.9856 135.862C72.9856 135.862 72.9639 135.709 72.935 135.451C69.5758 135.675 65.2079 135.862 65.2079 135.862L64.7016 134.773C63.6964 135.358 62.6298 135.936 62.1452 136.058C61.0966 136.313 60.2758 136.637 60.7965 137.022C61.3172 137.408 66.4807 137.408 68.2741 137.408C70.0676 137.408 72.3854 137.471 72.6132 137.15C72.8008 136.736 72.926 136.303 72.9856 135.862Z" fill="#175054" stroke="#175054" stroke-miterlimit="10"/>
<path d="M59.314 89.3048C59.314 89.3048 58.7897 93.9443 59.0139 96.0042C59.2381 98.0642 59.8636 108.289 59.8636 108.289C59.8636 108.289 64.105 110.536 67.9234 110.729C71.7417 110.922 77.509 109.173 77.509 109.173C77.509 109.173 78.7818 97.0373 78.0333 93.8043C77.2848 90.5712 76.9088 89.0372 76.9088 89.0372C76.9088 89.0372 66.7844 88.586 64.1809 88.0072C61.5775 87.4284 60.9267 87.0986 60.9267 87.0986L60.0661 87.0115L59.314 89.3048Z" fill="#175054" stroke="#175054" stroke-linecap="round" stroke-linejoin="round"/>
<path d="M60.8869 88.1036C60.8869 88.1036 64.7812 89.7123 70.5449 89.0682L70.1833 79.6616L72.7325 65.4194L68.614 65.2919L63.9712 66.7108L61.2015 84.7585L60.8869 88.1036Z" fill="white" stroke="#175054" stroke-linecap="round" stroke-linejoin="round"/>
<path d="M64.5931 63.8948C64.5931 63.8948 63.5915 67.7937 63.7687 68.2978C63.9459 68.8019 65.7683 71.4873 67.0049 71.285C68.2415 71.0827 70.8883 67.3861 71.2427 66.6797C71.597 65.9734 70.8811 64.7536 70.8305 64.5015C70.7798 64.2495 70.0639 61.6139 70.0639 61.6139C70.0639 61.6139 67.2508 63.6925 64.5931 63.8948Z" fill="white" stroke="#175054" stroke-linecap="round" stroke-linejoin="round"/>
<path d="M64.9402 66.2534C64.9402 66.2534 63.8555 73.8615 63.794 76.8331C63.7325 79.8048 61.7691 93.3842 61.7691 93.3842C61.7691 93.3842 61.5015 93.7887 59.7442 93.325C58.7121 93.0599 57.7963 92.5342 57.1155 91.8159C57.1155 91.8159 60.1492 82.0608 60.2179 81.5971C60.2866 81.1335 59.6791 76.6029 59.6791 76.6029L53.6045 81.1304C53.6045 81.1304 53.7419 78.6908 54.2807 78.168C54.8194 77.6453 58.8692 71.1419 59.2055 70.504C59.5417 69.8661 59.1368 67.9493 60.3517 67.3674C61.5666 66.7855 64.9402 66.2534 64.9402 66.2534Z" fill="white" stroke="#175054" stroke-linecap="round" stroke-linejoin="round"/>
<path d="M59.05 87.2853L61.6172 88.0196L61.5232 88.5922L59.238 88.1037" stroke="#175054" stroke-linecap="round" stroke-linejoin="round"/>
<path d="M63.4578 80.1316C63.4578 80.1316 62.373 71.1295 62.5141 69.0975Z" fill="white"/>
<path d="M63.4578 80.1316C63.4578 80.1316 62.373 71.1295 62.5141 69.0975" stroke="#175054" stroke-linecap="round" stroke-linejoin="round"/>
<path d="M71.1487 65.796C71.1487 65.796 67.4388 76.7118 67.4388 79.2074C67.4388 81.7029 68.162 93.9194 68.162 93.9194C68.162 93.9194 71.5211 94.7844 74.1534 94.4919C76.7858 94.1994 80.3004 92.9143 80.3004 92.9143L76.7243 83.738C76.7243 83.738 82.4374 72.0007 82.4374 71.1885C82.4374 70.3764 83.1786 68.8672 82.4374 68.4596C81.6961 68.052 75.2852 66.1943 74.4065 65.8458C73.5279 65.4973 72.2298 64.9745 71.1487 65.796Z" fill="white" stroke="#175054" stroke-linecap="round" stroke-linejoin="round"/>
<path d="M76.7388 88.3463L70.5449 89.0682L70.939 89.8212L74.4572 89.4945" stroke="#175054" stroke-linecap="round" stroke-linejoin="round"/>
<path d="M74.6814 65.9515C74.5584 65.908 74.4536 65.8737 74.3885 65.8457C73.5098 65.4972 72.219 64.9745 71.1342 65.7897C71.1342 65.7897 67.4243 76.7055 67.4243 79.2011C67.4243 79.618 67.4641 80.3026 67.5328 81.1521C67.8365 80.2777 68.5235 78.9117 69.7855 76.1236C71.4415 72.5016 73.8352 67.6629 74.6814 65.9515Z" fill="white" stroke="#175054" stroke-linecap="round" stroke-linejoin="round"/>
<path d="M61.639 51.0591C61.639 51.0591 57.9472 53.175 57.723 54.7153C57.4988 56.2556 57.6651 57.1704 57.6651 58.664C57.6651 60.1576 56.7142 64.8252 57.6109 66.5584C58.5076 68.2916 59.7804 69.8318 61.5884 70.2644C63.3963 70.6969 64.4991 70.3142 64.9439 69.9283C65.2741 69.5985 65.5391 69.2243 65.7285 68.8206C65.7285 68.8206 64.7775 68.917 64.7775 67.9555C64.7775 66.994 65.8406 64.0566 65.8406 64.0566C65.8406 64.0566 63.4361 62.9955 62.9877 61.9842C62.5393 60.9729 61.1978 55.6301 61.3099 55.1976C61.422 54.7651 63.4361 53.8005 63.4795 52.5994C63.5228 51.3982 62.6442 50.6732 61.639 51.0591Z" fill="#175054" stroke="#175054" stroke-linecap="round" stroke-linejoin="round"/>
<path d="M61.3027 53.175C61.3027 53.175 60.3517 54.958 60.6302 56.4018C60.9086 57.8457 61.469 60.3475 61.7511 61.3587C62.0331 62.37 63.4831 63.4778 64.2099 64.0566C64.9367 64.6353 66.2239 65.4506 67.1749 65.2577C68.1258 65.0648 69.5252 63.0795 69.5252 63.0795C69.5252 63.0795 70.6425 61.9717 70.9245 61.0102C71.2066 60.0487 70.252 58.3622 69.6373 56.5823C69.3418 55.6334 68.7547 54.7706 67.9378 54.0845C67.1208 53.3984 66.104 52.9144 64.9945 52.6834C62.4779 52.1637 61.6932 52.839 61.3027 53.175Z" fill="white" stroke="#175054" stroke-linecap="round" stroke-linejoin="round"/>
<path d="M63.4288 58.2782C63.4288 58.2782 64.2099 59.386 64.152 59.722C64.0942 60.0581 63.7036 61.505 63.9278 61.589C64.152 61.673 64.933 61.5392 64.933 61.5392" stroke="#175054" stroke-linecap="round" stroke-linejoin="round"/>
<path d="M64.9366 62.5617C64.9366 62.5617 66.1118 62.658 67.1062 61.5516" stroke="#175054" stroke-linecap="round" stroke-linejoin="round"/>
<path d="M63.0347 58.2314C63.0347 58.2314 62.0837 57.8927 61.639 58.5671" stroke="#175054" stroke-linecap="round" stroke-linejoin="round"/>
<path d="M64.604 58.038C64.604 58.038 64.7703 57.3636 66.1697 57.6992" stroke="#175054" stroke-linecap="round" stroke-linejoin="round"/>
<path d="M66.1661 58.9498C66.2673 59.2016 66.2058 59.4471 66.0286 59.4999C65.8515 59.5528 65.6309 59.3911 65.5297 59.1394C65.4284 58.8877 65.4899 58.6422 65.6671 58.5893C65.8442 58.5365 66.0503 58.7043 66.1661 58.9498Z" fill="#175054"/>
<path d="M63.1468 59.4321C63.2481 59.6839 63.1866 59.9294 63.013 59.9822C62.8395 60.0351 62.6153 59.8735 62.514 59.6217C62.4128 59.37 62.4743 59.1245 62.6478 59.0716C62.8214 59.0188 63.0492 59.1835 63.1468 59.4321Z" fill="#175054"/>
<path d="M60.688 52.8856C60.688 52.8856 62.9226 55.6861 65.1608 56.9308C67.3991 58.1755 69.5794 58.4866 69.6373 59.6255C69.6951 60.7644 68.6285 63.3813 69.471 65.2577C70.3135 67.134 71.8755 67.8092 74.0559 67.4358C76.2362 67.0624 77.2451 65.3168 77.2451 65.3168C77.2451 65.3168 76.0157 66.0387 75.6215 65.2203C75.2274 64.402 74.3343 63.1977 75.4552 61.2249C76.5761 59.2521 77.2451 58.3373 75.1768 55.0638C73.1085 51.7903 70.6425 49.9015 68.6972 49.1796C66.7518 48.4577 60.6302 49.6152 60.688 52.8856Z" fill="#175054" stroke="#175054" stroke-linecap="round" stroke-linejoin="round"/>
<path d="M59.8672 79.7799L59.6068 77.5302L58.6125 78.3859L59.8672 79.7799Z" fill="white" stroke="#175054" stroke-linecap="round" stroke-linejoin="round"/>
<path d="M57.0288 74.2225L58.1135 75.4672L57.271 76.5842C57.271 76.5842 57.1553 76.7181 57.7303 77.5178C58.132 78.0491 58.5934 78.5452 59.1079 78.9989C59.1079 78.9989 60.9375 75.685 61.0749 75.0875C61.2123 74.4901 58.0159 70.9863 58.0159 70.9863C58.0159 70.9863 56.9167 72.8067 57.0288 74.2225Z" fill="white" stroke="#175054" stroke-linecap="round" stroke-linejoin="round"/>
<path d="M53.9625 67.8902L59.3719 73.4196L62.9588 73.6188L57.8279 67.7688L53.9625 67.8902Z" fill="white" stroke="#175054" stroke-linecap="round" stroke-linejoin="round"/>
<path d="M56.7359 71.033C56.7359 71.033 56.0597 71.3908 56.2188 71.7051C56.3779 72.0194 57.5169 72.7319 58.3486 72.8222C59.1802 72.9124 58.7716 72.4768 58.768 72.2465C58.7644 72.0162 56.7359 71.033 56.7359 71.033Z" fill="white" stroke="#175054" stroke-linecap="round" stroke-linejoin="round"/>
<path d="M56.4792 72.063C56.4792 72.063 55.9585 72.5546 56.1176 72.9125C56.2767 73.2703 58.2509 73.762 58.6125 73.8086C58.711 73.824 58.8126 73.8084 58.8987 73.7645C58.9848 73.7206 59.0497 73.6514 59.0813 73.5697C59.113 73.488 59.1093 73.3992 59.071 73.3196C59.0327 73.2401 58.9624 73.175 58.8729 73.1365C58.3486 72.8222 56.4792 72.063 56.4792 72.063Z" fill="white" stroke="#175054" stroke-linecap="round" stroke-linejoin="round"/>
<path d="M56.5298 73.3605C56.5298 73.3605 56.3743 73.982 56.7359 74.2089C57.0974 74.4358 58.7861 74.2648 59.0645 74.1716C59.3429 74.0784 58.6089 73.808 58.6089 73.808L56.5298 73.3605Z" fill="white" stroke="#175054" stroke-linecap="round" stroke-linejoin="round"/>
<path d="M67.5365 76.2481L65.5333 74.6269C65.5333 74.6269 64.886 72.7599 64.5932 72.1967C64.3003 71.6335 64.0652 71.4872 63.3565 70.9302C62.6478 70.3732 62.1814 70.6191 62.0621 70.9831L61.9464 71.3379C61.9464 71.3379 58.533 71.1854 58.0051 70.9831C57.4771 70.7809 56.8878 70.3234 56.5913 70.6284C56.2948 70.9333 56.7106 71.3378 57.1806 71.5899C57.6728 71.8696 58.2068 72.0905 58.768 72.2465C59.2381 72.3491 59.8275 72.4487 59.8275 72.4487L57.3578 72.1376C57.3266 72.2278 57.3268 72.3238 57.3583 72.414C57.3898 72.5041 57.4512 72.5843 57.535 72.6448L58.298 73.3013C58.5033 73.6192 58.7616 73.9096 59.0645 74.1633C59.3786 74.3968 59.7322 74.5877 60.1131 74.7296C60.6085 74.9318 61.0641 75.075 61.0641 75.075C60.6108 75.0732 60.1584 75.0388 59.7117 74.9723C59.1224 74.8696 58.5908 74.6176 58.6523 74.9723C58.7138 75.327 59.1224 75.4795 59.7696 75.5791C60.4168 75.6786 63.183 75.9836 63.418 76.0365C63.653 76.0894 66.7121 78.5258 66.7121 78.5258L67.5365 76.2481Z" fill="white" stroke="#175054" stroke-linecap="round" stroke-linejoin="round"/>
<path d="M61.9464 71.3379C62.5062 71.4743 63.0406 71.6783 63.5337 71.9439Z" fill="white"/>
<path d="M61.9464 71.3379C62.5062 71.4743 63.0406 71.6783 63.5337 71.9439" stroke="#175054" stroke-linecap="round" stroke-linejoin="round"/>
<path d="M59.8275 72.4487L61.357 72.7533" stroke="#175054" stroke-linecap="round" stroke-linejoin="round"/>
<path d="M58.298 73.3107C58.298 73.3107 60.2397 73.867 61.2413 74.069" stroke="#175054" stroke-linecap="round" stroke-linejoin="round"/>
<path d="M82.7412 69.1442C82.3477 71.926 81.7108 74.6784 80.8357 77.3777C79.4905 81.3731 78.7927 84.9702 78.5143 85.2502C78.2358 85.5303 75.2166 84.5283 72.7578 83.2494C70.299 81.9705 65.3272 78.8931 65.3272 78.8931L67.4172 75.4547L74.8008 79.2509C74.8008 79.2509 75.0322 78.8122 75.3576 78.7313C75.5521 78.685 75.7392 78.6181 75.9145 78.5321L76.6123 70.8587" fill="white"/>
<path d="M82.7412 69.1442C82.3477 71.926 81.7108 74.6784 80.8357 77.3777C79.4905 81.3731 78.7927 84.9702 78.5143 85.2502C78.2358 85.5303 75.2166 84.5283 72.7578 83.2494C70.299 81.9705 65.3272 78.8931 65.3272 78.8931L67.4172 75.4547L74.8008 79.2509C74.8008 79.2509 75.0322 78.8122 75.3576 78.7313C75.5521 78.685 75.7392 78.6181 75.9145 78.5321L76.6123 70.8587" stroke="#175054" stroke-linecap="round" stroke-linejoin="round"/>
<path d="M57.2602 76.5905L59.8672 79.7799C59.8672 79.7799 59.0826 81.8492 58.2979 82.6582C57.5133 83.4673 54.9532 83.8282 54.118 82.9694C53.2827 82.1106 53.4888 80.8099 53.9625 80.0911C54.4362 79.3723 57.2602 76.5905 57.2602 76.5905Z" fill="white" stroke="#175054" stroke-linecap="round" stroke-linejoin="round"/>
<path d="M0.552612 137.411H162.16" stroke="#DADADA" stroke-miterlimit="10"/>
</svg>
