<svg width="168" height="145" viewBox="0 0 168 145" fill="none" xmlns="http://www.w3.org/2000/svg">
<path d="M0.815796 133.135H166.79" stroke="#263238" stroke-linecap="round" stroke-linejoin="round"/>
<path d="M25.5107 49.334H147.005C148.173 49.334 149.293 49.7621 150.118 50.5243C150.944 51.2864 151.408 52.3201 151.408 53.3979V127.403H21.1254V53.3979C21.1254 52.3228 21.5868 51.2916 22.4088 50.5299C23.2307 49.7682 24.3461 49.3382 25.5107 49.334Z" fill="#B8B8B8" stroke="#263238" stroke-linecap="round" stroke-linejoin="round"/>
<path d="M131.33 123.633H41.7839V127.706H131.33V123.633Z" fill="#263238" stroke="#263238" stroke-linecap="round" stroke-linejoin="round"/>
<path d="M131.33 125.594H41.7839V127.706H131.33V125.594Z" fill="white" stroke="#263238" stroke-linecap="round" stroke-linejoin="round"/>
<path d="M10.5714 130.121C10.5714 130.121 12.0436 131.78 16.4462 133.135H156.657C156.657 133.135 159.926 132.382 161.395 130.264L10.5714 130.121Z" fill="#263238" stroke="#263238" stroke-linecap="round" stroke-linejoin="round"/>
<path d="M160.379 127.148H11.6047C10.868 127.148 10.2708 127.699 10.2708 128.379V129.087C10.2708 129.767 10.868 130.319 11.6047 130.319H160.379C161.116 130.319 161.713 129.767 161.713 129.087V128.379C161.713 127.699 161.116 127.148 160.379 127.148Z" fill="#B8B8B8" stroke="#263238" stroke-linecap="round" stroke-linejoin="round"/>
<path d="M87.3724 51.6849C87.3724 51.4761 87.3054 51.2719 87.1797 51.0983C87.054 50.9246 86.8753 50.7893 86.6663 50.7094C86.4573 50.6295 86.2273 50.6086 86.0054 50.6493C85.7835 50.6901 85.5797 50.7906 85.4197 50.9383C85.2598 51.0859 85.1508 51.2741 85.1067 51.4789C85.0626 51.6837 85.0852 51.896 85.1718 52.0889C85.2584 52.2819 85.405 52.4468 85.5931 52.5628C85.7812 52.6788 86.0023 52.7407 86.2286 52.7407C86.5319 52.7407 86.8229 52.6295 87.0374 52.4315C87.2519 52.2335 87.3724 51.9649 87.3724 51.6849Z" fill="#263238"/>
<path d="M22.3383 71.2932C22.2954 71.2936 22.2527 71.2861 22.2129 71.2713C22.1731 71.2564 22.1369 71.2344 22.1064 71.2065C22.0758 71.1786 22.0516 71.1454 22.0351 71.1088C22.0185 71.0722 22.01 71.033 22.01 70.9933V62.2435C22.01 62.2038 22.0185 62.1646 22.0351 62.128C22.0516 62.0914 22.0758 62.0582 22.1064 62.0303C22.1369 62.0024 22.1731 61.9804 22.2129 61.9655C22.2527 61.9506 22.2954 61.9432 22.3383 61.9436C22.4245 61.9436 22.5071 61.9752 22.568 62.0314C22.6289 62.0877 22.6632 62.1639 22.6632 62.2435V70.9933C22.6632 71.0728 22.6289 71.1491 22.568 71.2053C22.5071 71.2616 22.4245 71.2932 22.3383 71.2932Z" fill="#263238" stroke="white" stroke-width="0.691688" stroke-linejoin="round"/>
<path d="M146.121 55.4235H26.3954V117.878H146.121V55.4235Z" fill="white" stroke="#263238" stroke-linecap="round" stroke-linejoin="round"/>
<path d="M146.12 55.4235H105.142V117.878H146.12V55.4235Z" fill="#92E3A9" stroke="#263238" stroke-linecap="round" stroke-linejoin="round"/>
<path d="M146.12 55.4235H46.2937V59.1173H146.12V55.4235Z" fill="#263238"/>
<path d="M140.857 75.3921H111.013C110.713 75.3921 110.416 75.4466 110.139 75.5526C109.862 75.6585 109.61 75.8139 109.398 76.0097C109.186 76.2055 109.018 76.4379 108.903 76.6937C108.788 76.9495 108.729 77.2237 108.729 77.5006V87.906C108.729 88.4652 108.97 89.0015 109.398 89.3969C109.827 89.7924 110.408 90.0145 111.013 90.0145H140.125L143.138 93.3926V77.5006C143.138 76.9419 142.898 76.4061 142.47 76.0108C142.043 75.6155 141.463 75.3929 140.857 75.3921Z" fill="white" stroke="#263238" stroke-linecap="round" stroke-linejoin="round"/>
<path d="M111.013 94.9047H140.857C141.463 94.9055 142.043 95.128 142.47 95.5234C142.898 95.9187 143.138 96.4545 143.138 97.0132V107.422C143.138 107.98 142.898 108.516 142.47 108.912C142.043 109.307 141.463 109.529 140.857 109.53H111.743L108.729 112.908V97.0132C108.729 96.454 108.97 95.9177 109.398 95.5222C109.827 95.1268 110.408 94.9047 111.013 94.9047Z" fill="white" stroke="#263238" stroke-linecap="round" stroke-linejoin="round"/>
<path d="M117.531 86.0368C117.088 86.042 116.647 85.9762 116.228 85.8422C115.86 85.7218 115.528 85.5241 115.257 85.2648C114.984 84.9987 114.785 84.676 114.676 84.3238C114.549 83.9094 114.501 83.4776 114.535 83.0479C114.553 82.5675 114.653 82.0927 114.832 81.6411C114.981 81.2557 115.217 80.9036 115.523 80.6076C115.822 80.3271 116.182 80.1095 116.581 79.9696C117.014 79.8209 117.473 79.7474 117.935 79.7527C118.356 79.7444 118.774 79.8172 119.162 79.9664C119.49 80.0987 119.777 80.3036 119.998 80.5629C120.216 80.8221 120.373 81.1196 120.461 81.437C120.558 81.7802 120.592 82.136 120.562 82.4896C120.552 82.7396 120.506 82.9873 120.427 83.2265C120.351 83.4555 120.234 83.6712 120.081 83.8645C119.933 84.0522 119.745 84.2097 119.528 84.327C119.297 84.445 119.036 84.5044 118.772 84.4993C118.644 84.4999 118.518 84.4794 118.398 84.4387C118.282 84.4007 118.179 84.3359 118.098 84.2504C118.013 84.1599 117.958 84.0494 117.939 83.9315C117.895 84.0652 117.812 84.1854 117.7 84.2792C117.577 84.3833 117.418 84.4452 117.251 84.4546C117.021 84.4771 116.791 84.4252 116.598 84.3079C116.415 84.1914 116.276 84.0253 116.2 83.8326C116.108 83.6199 116.066 83.3916 116.076 83.1627C116.083 82.9249 116.123 82.6889 116.197 82.4609C116.269 82.2212 116.379 81.9924 116.522 81.7815C116.657 81.5798 116.836 81.4061 117.047 81.2711C117.257 81.1394 117.505 81.0703 117.759 81.0733C117.84 81.0714 117.92 81.0926 117.987 81.1339C118.05 81.1711 118.106 81.2174 118.153 81.2711L118.267 81.4019L118.34 81.1212H119.1L118.74 83.4657C118.74 83.5327 118.723 83.6061 118.716 83.6858C118.707 83.7564 118.713 83.8279 118.733 83.8964C118.741 83.9244 118.757 83.9497 118.781 83.9686C118.804 83.9875 118.834 83.9991 118.865 84.0016C118.988 84.01 119.11 83.9784 119.21 83.9123C119.34 83.8283 119.448 83.7195 119.528 83.5933C119.628 83.4427 119.706 83.2808 119.76 83.1117C119.83 82.9168 119.871 82.7139 119.881 82.5088C119.902 82.2213 119.88 81.9325 119.815 81.6507C119.753 81.4014 119.635 81.1667 119.47 80.9617C119.303 80.7612 119.082 80.6041 118.83 80.5055C118.524 80.3927 118.196 80.3385 117.866 80.346C117.502 80.3402 117.141 80.4077 116.809 80.5438C116.504 80.6705 116.235 80.8592 116.021 81.0957C115.798 81.3461 115.628 81.6328 115.52 81.941C115.398 82.2866 115.329 82.6463 115.316 83.0096C115.294 83.2951 115.308 83.582 115.357 83.8645C115.399 84.101 115.485 84.3289 115.613 84.5375C115.73 84.7292 115.889 84.8965 116.079 85.0288C116.281 85.1659 116.508 85.2665 116.75 85.3254C117.035 85.3961 117.329 85.4305 117.624 85.4275C117.767 85.4263 117.91 85.4177 118.053 85.402C118.205 85.3861 118.367 85.3637 118.533 85.3318C118.699 85.2999 118.858 85.2648 119.003 85.2266L119.131 85.8199C118.865 85.8837 118.595 85.9347 118.322 85.9762C118.06 86.0147 117.796 86.035 117.531 86.0368ZM117.458 83.8262C117.55 83.807 117.636 83.77 117.711 83.7177C117.82 83.6371 117.897 83.5247 117.928 83.3988L118.16 81.8325C118.138 81.8059 118.106 81.7878 118.07 81.7815C118.03 81.7721 117.99 81.7668 117.949 81.7655C117.853 81.7649 117.758 81.7828 117.67 81.8179C117.582 81.8531 117.503 81.9048 117.438 81.9697C117.282 82.1211 117.164 82.3018 117.092 82.4992C117.002 82.7205 116.958 82.9552 116.961 83.1914C116.961 83.3045 116.977 83.4172 117.009 83.5263C117.037 83.6195 117.095 83.7028 117.175 83.7656C117.215 83.7946 117.261 83.815 117.311 83.8255C117.361 83.836 117.412 83.8362 117.462 83.8262H117.458Z" fill="#263238"/>
<path d="M121.229 85.1659L121.488 83.2966H121.142V82.6874H121.585L121.685 81.9728H121.156V81.3508H121.785L122.01 79.7559H122.78L122.556 81.3508H123.157L123.388 79.7559H124.149L123.917 81.3508H124.263V81.9728H123.827L123.727 82.6874H124.242V83.2966H123.641L123.375 85.1659H122.604L122.874 83.2966H122.272L122.01 85.1659H121.229ZM122.345 82.6874H122.953L123.057 81.9728H122.452L122.345 82.6874Z" fill="#263238"/>
<path d="M126.281 85.7943V85.2329C126.071 85.2383 125.862 85.2008 125.67 85.1231C125.478 85.0453 125.306 84.9292 125.168 84.7831C124.9 84.4341 124.759 84.0149 124.767 83.5869L125.693 83.4179C125.701 83.6048 125.728 83.7906 125.773 83.9729C125.805 84.1122 125.876 84.2411 125.98 84.3461C126.03 84.3902 126.088 84.4246 126.152 84.447C126.216 84.4695 126.285 84.4797 126.353 84.4769C126.424 84.4835 126.495 84.4738 126.56 84.4487C126.625 84.4237 126.682 84.384 126.727 84.3334C126.806 84.2255 126.846 84.0969 126.841 83.9665C126.85 83.7602 126.787 83.5565 126.661 83.386C126.528 83.2177 126.374 83.0646 126.201 82.9298L125.455 82.3269C125.329 82.2192 125.214 82.1018 125.109 81.976C125.007 81.8501 124.927 81.7102 124.871 81.5614C124.81 81.3874 124.78 81.2052 124.785 81.0223C124.773 80.8474 124.8 80.6722 124.865 80.5076C124.93 80.343 125.031 80.1924 125.161 80.0653C125.437 79.8261 125.799 79.6906 126.177 79.6857V79.1434H126.488V79.6793C126.702 79.6836 126.91 79.7362 127.096 79.8324C127.248 79.91 127.378 80.0193 127.477 80.1514C127.575 80.2924 127.646 80.4477 127.687 80.6108C127.733 80.7845 127.761 80.9618 127.77 81.1403L126.858 81.287C126.851 81.1328 126.831 80.9793 126.799 80.8277C126.779 80.7094 126.722 80.5988 126.637 80.5087C126.592 80.4681 126.537 80.4375 126.477 80.4192C126.417 80.401 126.354 80.3956 126.291 80.4034C126.221 80.4021 126.152 80.4145 126.088 80.4398C126.023 80.4651 125.965 80.5027 125.918 80.5502C125.832 80.6509 125.787 80.7761 125.79 80.9042C125.783 81.069 125.831 81.2318 125.928 81.37C126.031 81.497 126.147 81.6146 126.274 81.7209L127.014 82.3174C127.168 82.4482 127.312 82.5889 127.446 82.7384C127.579 82.8929 127.686 83.065 127.763 83.2488C127.846 83.4527 127.887 83.669 127.884 83.8868C127.887 84.1077 127.834 84.3261 127.729 84.5248C127.626 84.7091 127.475 84.8669 127.29 84.9841C127.081 85.1051 126.844 85.1784 126.599 85.1978V85.7656L126.281 85.7943Z" fill="#263238"/>
<path d="M129.64 82.7224C129.461 82.7388 129.28 82.7158 129.113 82.6553C128.945 82.5949 128.795 82.4988 128.676 82.3747C128.462 82.0809 128.359 81.7296 128.386 81.3763V81.0413C128.357 80.6917 128.456 80.3432 128.669 80.0525C128.793 79.9341 128.946 79.8437 129.114 79.7884C129.283 79.7331 129.462 79.7143 129.64 79.7335C129.818 79.716 129.998 79.7355 130.167 79.7907C130.335 79.8459 130.488 79.9354 130.614 80.0525C130.83 80.3386 130.931 80.6846 130.901 81.0318V81.3986C130.926 81.7498 130.824 82.0986 130.611 82.3907C130.488 82.5111 130.336 82.6038 130.167 82.6613C129.999 82.7188 129.819 82.7397 129.64 82.7224ZM129.64 82.1068C129.69 82.1106 129.74 82.1043 129.788 82.0883C129.835 82.0723 129.877 82.0471 129.913 82.0143C129.977 81.9372 130.018 81.8458 130.03 81.7495C130.051 81.6217 130.06 81.4927 130.058 81.3635V81.0445C130.065 80.8704 130.044 80.6963 129.996 80.5278C129.951 80.4034 129.833 80.3428 129.65 80.3428C129.467 80.3428 129.346 80.4034 129.305 80.5278C129.254 80.6958 129.232 80.8702 129.239 81.0445V81.3635C129.238 81.4917 129.248 81.6197 129.27 81.7463C129.28 81.8417 129.32 81.9325 129.384 82.0079C129.417 82.0398 129.457 82.065 129.501 82.082C129.545 82.0991 129.592 82.1075 129.64 82.1068ZM130.331 85.1659L132.059 79.7431H132.719L130.991 85.1659H130.331ZM133.407 85.185C133.228 85.2019 133.048 85.1791 132.881 85.1186C132.714 85.0582 132.565 84.9617 132.446 84.8373C132.235 84.5397 132.135 84.1872 132.159 83.8325V83.5135C132.132 83.1634 132.23 82.8147 132.439 82.5214C132.563 82.4031 132.715 82.3128 132.883 82.2574C133.05 82.2021 133.23 82.1833 133.407 82.2025C133.585 82.1844 133.766 82.2037 133.935 82.259C134.104 82.3142 134.258 82.4039 134.385 82.5214C134.598 82.8096 134.698 83.1562 134.668 83.5039V83.8644C134.694 84.2177 134.592 84.569 134.378 84.8628C134.255 84.9802 134.104 85.0702 133.938 85.1261C133.771 85.1819 133.593 85.202 133.417 85.185H133.407ZM133.407 84.563C133.458 84.5663 133.509 84.5598 133.557 84.5438C133.605 84.5279 133.649 84.5029 133.687 84.4705C133.751 84.3951 133.79 84.3043 133.801 84.2089C133.82 84.0821 133.829 83.9541 133.828 83.8261V83.5071C133.834 83.3328 133.812 83.1587 133.763 82.9904C133.718 82.866 133.6 82.8053 133.417 82.8053C133.234 82.8053 133.113 82.8691 133.072 82.9935C133.023 83.1609 133.001 83.3339 133.006 83.5071V83.8261C133.004 83.9553 133.015 84.0845 133.037 84.2121C133.049 84.306 133.089 84.3952 133.151 84.4705C133.186 84.5024 133.227 84.5272 133.273 84.5431C133.319 84.5591 133.368 84.5659 133.417 84.563H133.407Z" fill="#263238"/>
<path d="M135.325 85.166V84.2824H136.282V85.166H135.325ZM135.629 83.89L135.332 79.7432H136.317L135.971 83.89H135.629Z" fill="#263238"/>
<path d="M113.315 103.351V99.7915H114.006V101.281H114.791V99.7915H115.482V103.351H114.791V101.756H114.006V103.351H113.315Z" fill="#263238"/>
<path d="M115.907 103.351L116.677 99.7915H117.431L118.201 103.351H117.552L117.4 102.528H116.726L116.57 103.351H115.907ZM116.798 102.117H117.32L117.061 100.621L116.798 102.117Z" fill="#263238"/>
<path d="M119.736 103.351V99.7915H120.427V101.281H121.211V99.7915H121.902V103.351H121.211V101.756H120.427V103.351H119.736Z" fill="#263238"/>
<path d="M122.321 103.351L123.095 99.7915H123.845L124.615 103.351H123.966L123.814 102.528H123.14L122.984 103.351H122.321ZM123.212 102.117H123.738L123.475 100.621L123.212 102.117Z" fill="#263238"/>
<path d="M126.15 103.351V99.7915H126.841V101.281H127.625V99.7915H128.316V103.351H127.625V101.756H126.841V103.351H126.15Z" fill="#263238"/>
<path d="M128.734 103.351L129.509 99.7915H130.248L131.019 103.351H130.369L130.217 102.528H129.557L129.401 103.351H128.734ZM129.626 102.117H130.151L129.889 100.621L129.626 102.117Z" fill="#263238"/>
<path d="M132.563 103.351V99.7915H133.255V101.281H134.049V99.7915H134.741V103.351H134.049V101.756H133.265V103.351H132.563Z" fill="#263238"/>
<path d="M135.148 103.351L135.923 99.7915H136.672L137.443 103.351H136.793L136.641 102.528H135.967L135.812 103.351H135.148ZM136.04 102.117H136.565L136.303 100.621L136.04 102.117Z" fill="#263238"/>
<path d="M137.751 103.351V102.771H138.38V103.351H137.751ZM137.951 102.516L137.754 99.7947H138.4L138.172 102.516H137.951Z" fill="#263238"/>
<path d="M138.86 103.351V102.771H139.489V103.351H138.86ZM139.06 102.516L138.863 99.7947H139.51L139.282 102.516H139.06Z" fill="#263238"/>
<path d="M139.969 103.351V102.771H140.615V103.351H139.969ZM140.17 102.516L139.973 99.7947H140.615L140.387 102.516H140.17Z" fill="#263238"/>
<path d="M157.028 95.3254C157.437 93.249 155.946 91.2592 153.696 90.8811C151.447 90.503 149.291 91.8798 148.882 93.9562C148.472 96.0326 149.964 98.0223 152.213 98.4004C154.463 98.7785 156.618 97.4018 157.028 95.3254Z" fill="white" stroke="#263238" stroke-linecap="round" stroke-linejoin="round"/>
<path d="M154.801 93.0353C154.802 93.3738 154.694 93.7048 154.491 93.9864C154.287 94.2681 153.998 94.4877 153.66 94.6175C153.321 94.7473 152.948 94.7815 152.589 94.7156C152.229 94.6497 151.899 94.4868 151.639 94.2475C151.38 94.0082 151.204 93.7033 151.132 93.3713C151.061 93.0393 151.098 92.6953 151.238 92.3827C151.379 92.0702 151.617 91.8032 151.922 91.6156C152.227 91.4279 152.586 91.3281 152.953 91.3287C153.443 91.3296 153.912 91.5097 154.259 91.8295C154.605 92.1494 154.8 92.583 154.801 93.0353Z" fill="white" stroke="#263238" stroke-linecap="round" stroke-linejoin="round"/>
<path d="M152.953 95.0066C152.258 95.0066 151.592 95.2613 151.1 95.7148C150.609 96.1682 150.333 96.7833 150.333 97.4245C150.333 97.4851 150.333 97.5457 150.333 97.6032C151.071 98.154 151.991 98.4544 152.941 98.4544C153.89 98.4544 154.81 98.154 155.548 97.6032C155.551 97.5437 155.551 97.484 155.548 97.4245C155.549 96.7868 155.276 96.1747 154.79 95.7217C154.304 95.2687 153.643 95.0116 152.953 95.0066Z" fill="white" stroke="#263238" stroke-linecap="round" stroke-linejoin="round"/>
<path d="M35.1974 111.247C37.3032 110.425 38.2881 108.183 37.3973 106.239C36.5065 104.295 34.0772 103.386 31.9714 104.208C29.8656 105.031 28.8807 107.273 29.7715 109.217C30.6624 111.161 33.0916 112.07 35.1974 111.247Z" fill="white" stroke="#263238" stroke-linecap="round" stroke-linejoin="round"/>
<path d="M35.4322 106.114C35.4322 106.451 35.3237 106.781 35.1206 107.062C34.9174 107.343 34.6287 107.561 34.2909 107.69C33.953 107.82 33.5813 107.853 33.2226 107.788C32.864 107.722 32.5346 107.559 32.276 107.321C32.0174 107.082 31.8414 106.778 31.77 106.447C31.6987 106.116 31.7353 105.773 31.8752 105.461C32.0152 105.149 32.2521 104.882 32.5562 104.695C32.8602 104.507 33.2177 104.407 33.5833 104.407C34.0737 104.407 34.5439 104.587 34.8907 104.907C35.2374 105.227 35.4322 105.661 35.4322 106.114Z" fill="white" stroke="#263238" stroke-linecap="round" stroke-linejoin="round"/>
<path d="M33.5834 108.098C32.8896 108.098 32.2242 108.352 31.7336 108.805C31.243 109.258 30.9674 109.872 30.9674 110.513C30.9638 110.572 30.9638 110.632 30.9674 110.691C31.7054 111.242 32.6257 111.543 33.5747 111.543C34.5238 111.543 35.4441 111.242 36.1821 110.691C36.1821 110.634 36.1821 110.573 36.1821 110.513C36.1812 109.875 35.9077 109.264 35.421 108.812C34.9344 108.359 34.2739 108.103 33.5834 108.098Z" fill="white" stroke="#263238" stroke-linecap="round" stroke-linejoin="round"/>
<path d="M112.159 69.8747C114.268 69.0613 115.264 66.8231 114.383 64.8756C113.502 62.9281 111.077 62.0088 108.967 62.8223C106.858 63.6357 105.862 65.8739 106.743 67.8214C107.624 69.7689 110.049 70.6882 112.159 69.8747Z" fill="white" stroke="#263238" stroke-linecap="round" stroke-linejoin="round"/>
<path d="M112.413 64.7219C112.412 65.0593 112.303 65.3889 112.1 65.6691C111.896 65.9493 111.607 66.1676 111.269 66.2963C110.931 66.4249 110.56 66.4583 110.201 66.3921C109.843 66.3259 109.514 66.1631 109.255 65.9243C108.997 65.6855 108.822 65.3814 108.75 65.0504C108.679 64.7195 108.716 64.3765 108.856 64.0649C108.996 63.7532 109.233 63.4869 109.537 63.2995C109.841 63.1121 110.199 63.0121 110.564 63.0121C110.807 63.0121 111.048 63.0563 111.272 63.1423C111.497 63.2283 111.701 63.3542 111.873 63.5131C112.044 63.6719 112.18 63.8604 112.273 64.0678C112.366 64.2752 112.413 64.4975 112.413 64.7219Z" fill="white" stroke="#263238" stroke-linecap="round" stroke-linejoin="round"/>
<path d="M110.55 66.7092C109.856 66.7092 109.19 66.9635 108.699 67.4163C108.208 67.8691 107.932 68.4832 107.931 69.124C107.931 69.1846 107.931 69.2452 107.931 69.3058C108.669 69.8566 109.589 70.1571 110.538 70.1571C111.487 70.1571 112.408 69.8566 113.146 69.3058C113.149 69.2452 113.149 69.1845 113.146 69.124C113.146 68.4868 112.873 67.8755 112.387 67.4232C111.901 66.9709 111.24 66.7143 110.55 66.7092Z" fill="white" stroke="#263238" stroke-linecap="round" stroke-linejoin="round"/>
<path d="M103.01 109.916C105.296 109.916 107.15 108.205 107.15 106.095C107.15 103.984 105.296 102.273 103.01 102.273C100.723 102.273 98.8698 103.984 98.8698 106.095C98.8698 108.205 100.723 109.916 103.01 109.916Z" fill="white" stroke="#263238" stroke-linecap="round" stroke-linejoin="round"/>
<path d="M104.859 104.477C104.859 104.815 104.75 105.145 104.547 105.425C104.344 105.706 104.055 105.925 103.717 106.054C103.379 106.183 103.008 106.217 102.649 106.151C102.29 106.085 101.961 105.923 101.702 105.684C101.444 105.445 101.268 105.141 101.196 104.81C101.125 104.479 101.162 104.136 101.302 103.824C101.442 103.512 101.679 103.246 101.983 103.058C102.287 102.871 102.644 102.771 103.01 102.771C103.253 102.77 103.493 102.814 103.718 102.9C103.942 102.985 104.146 103.111 104.318 103.27C104.49 103.428 104.626 103.617 104.719 103.824C104.812 104.031 104.859 104.253 104.859 104.477Z" fill="white" stroke="#263238" stroke-linecap="round" stroke-linejoin="round"/>
<path d="M103.01 106.465C102.316 106.465 101.651 106.719 101.16 107.172C100.669 107.625 100.394 108.239 100.394 108.879C100.39 108.94 100.39 109.001 100.394 109.061C101.132 109.612 102.052 109.913 103.001 109.913C103.95 109.913 104.87 109.612 105.608 109.061C105.608 109.001 105.608 108.94 105.608 108.879C105.608 108.242 105.334 107.631 104.847 107.179C104.361 106.726 103.7 106.47 103.01 106.465Z" fill="white" stroke="#263238" stroke-linecap="round" stroke-linejoin="round"/>
<path d="M14.0997 66.8591C16.3862 66.8591 18.2397 65.1482 18.2397 63.0377C18.2397 60.9271 16.3862 59.2162 14.0997 59.2162C11.8133 59.2162 9.95972 60.9271 9.95972 63.0377C9.95972 65.1482 11.8133 66.8591 14.0997 66.8591Z" fill="white" stroke="#263238" stroke-linecap="round" stroke-linejoin="round"/>
<path d="M15.9486 61.4204C15.9486 61.7586 15.8399 62.0893 15.6362 62.3706C15.4325 62.6518 15.143 62.871 14.8044 63.0003C14.4657 63.1296 14.0931 63.1633 13.7337 63.097C13.3743 63.0308 13.0442 62.8676 12.7853 62.6282C12.5264 62.3888 12.3503 62.0838 12.2792 61.752C12.2081 61.4201 12.2453 61.0762 12.386 60.7638C12.5267 60.4515 12.7647 60.1847 13.0697 59.9972C13.3748 59.8097 13.7333 59.7099 14.0998 59.7106C14.5904 59.7114 15.0607 59.8919 15.4073 60.2125C15.7539 60.533 15.9486 60.9674 15.9486 61.4204Z" fill="white" stroke="#263238" stroke-linecap="round" stroke-linejoin="round"/>
<path d="M14.0997 63.4077C13.7559 63.4073 13.4153 63.4694 13.0975 63.5906C12.7797 63.7118 12.4909 63.8896 12.2477 64.1139C12.0044 64.3381 11.8114 64.6045 11.6797 64.8976C11.548 65.1908 11.4802 65.5051 11.4802 65.8225C11.4802 65.8831 11.4802 65.9437 11.4802 66.0043C12.2182 66.5551 13.1386 66.8556 14.0876 66.8556C15.0367 66.8556 15.957 66.5551 16.695 66.0043C16.6984 65.9437 16.6984 65.883 16.695 65.8225C16.695 65.1853 16.4222 64.574 15.9361 64.1217C15.45 63.6694 14.7899 63.4128 14.0997 63.4077Z" fill="white" stroke="#263238" stroke-linecap="round" stroke-linejoin="round"/>
<path d="M68.9842 71.9439C71.2707 71.9439 73.1243 70.2329 73.1243 68.1224C73.1243 66.0118 71.2707 64.3009 68.9842 64.3009C66.6978 64.3009 64.8442 66.0118 64.8442 68.1224C64.8442 70.2329 66.6978 71.9439 68.9842 71.9439Z" fill="white" stroke="#263238" stroke-linecap="round" stroke-linejoin="round"/>
<path d="M70.8331 66.5051C70.8324 66.8425 70.7233 67.1721 70.5198 67.4523C70.3162 67.7326 70.0272 67.9508 69.6893 68.0795C69.3514 68.2081 68.9798 68.2415 68.6214 68.1753C68.263 68.1091 67.9339 67.9463 67.6757 67.7075C67.4174 67.4687 67.2417 67.1646 67.1706 66.8336C67.0996 66.5027 67.1364 66.1597 67.2764 65.8481C67.4165 65.5364 67.6535 65.2701 67.9574 65.0827C68.2614 64.8953 68.6187 64.7953 68.9842 64.7953C69.2273 64.7953 69.468 64.8395 69.6925 64.9255C69.9171 65.0115 70.121 65.1375 70.2928 65.2963C70.4645 65.4551 70.6006 65.6436 70.6933 65.851C70.786 66.0584 70.8335 66.2807 70.8331 66.5051Z" fill="white" stroke="#263238" stroke-linecap="round" stroke-linejoin="round"/>
<path d="M68.9843 68.4923C68.2905 68.4923 67.6251 68.7467 67.1345 69.1996C66.6439 69.6524 66.3683 70.2666 66.3683 70.9071C66.3649 70.9676 66.3649 71.0283 66.3683 71.0889C67.1063 71.6397 68.0266 71.9402 68.9757 71.9402C69.9247 71.9402 70.8451 71.6397 71.5831 71.0889C71.5831 71.0283 71.5831 70.9677 71.5831 70.9071C71.5831 70.2694 71.3098 69.6576 70.823 69.2052C70.3361 68.7528 69.6751 68.4965 68.9843 68.4923Z" fill="white" stroke="#263238" stroke-linecap="round" stroke-linejoin="round"/>
<path d="M76.4211 65.9756H95.2654" stroke="#263238" stroke-linecap="round" stroke-linejoin="round"/>
<path d="M76.4211 68.722H95.2654" stroke="#263238" stroke-linecap="round" stroke-linejoin="round"/>
<path d="M76.4211 71.4653H95.2654" stroke="#263238" stroke-linecap="round" stroke-linejoin="round"/>
<path d="M68.9842 84.3014C71.2707 84.3014 73.1243 82.5905 73.1243 80.4799C73.1243 78.3694 71.2707 76.6584 68.9842 76.6584C66.6978 76.6584 64.8442 78.3694 64.8442 80.4799C64.8442 82.5905 66.6978 84.3014 68.9842 84.3014Z" fill="white" stroke="#263238" stroke-linecap="round" stroke-linejoin="round"/>
<path d="M70.8331 78.8626C70.8324 79.2 70.7233 79.5296 70.5198 79.8099C70.3162 80.0901 70.0272 80.3083 69.6893 80.437C69.3514 80.5657 68.9798 80.599 68.6214 80.5328C68.263 80.4666 67.9339 80.3038 67.6757 80.065C67.4174 79.8262 67.2417 79.5221 67.1706 79.1912C67.0996 78.8602 67.1364 78.5173 67.2764 78.2056C67.4165 77.894 67.6535 77.6276 67.9574 77.4402C68.2614 77.2528 68.6187 77.1528 68.9842 77.1528C69.2273 77.1528 69.468 77.1971 69.6925 77.283C69.9171 77.369 70.121 77.495 70.2928 77.6538C70.4645 77.8126 70.6006 78.0011 70.6933 78.2085C70.786 78.416 70.8335 78.6382 70.8331 78.8626Z" fill="white" stroke="#263238" stroke-linecap="round" stroke-linejoin="round"/>
<path d="M68.9843 80.85C68.2905 80.85 67.6251 81.1044 67.1345 81.5572C66.6439 82.0101 66.3683 82.6243 66.3683 83.2647C66.3649 83.3253 66.3649 83.386 66.3683 83.4465C67.1063 83.9973 68.0266 84.2978 68.9757 84.2978C69.9247 84.2978 70.8451 83.9973 71.5831 83.4465C71.5831 83.3859 71.5831 83.3253 71.5831 83.2647C71.5831 82.627 71.3098 82.0152 70.823 81.5629C70.3361 81.1105 69.6751 80.8542 68.9843 80.85Z" fill="white" stroke="#263238" stroke-linecap="round" stroke-linejoin="round"/>
<path d="M76.4211 78.3331H95.2654" stroke="#263238" stroke-linecap="round" stroke-linejoin="round"/>
<path d="M76.4211 81.0796H95.2654" stroke="#263238" stroke-linecap="round" stroke-linejoin="round"/>
<path d="M76.4211 83.8229H95.2654" stroke="#263238" stroke-linecap="round" stroke-linejoin="round"/>
<path d="M111.597 33.0273C116.392 33.0273 120.278 29.4398 120.278 25.0143C120.278 20.5889 116.392 17.0013 111.597 17.0013C106.803 17.0013 102.917 20.5889 102.917 25.0143C102.917 29.4398 106.803 33.0273 111.597 33.0273Z" fill="#92E3A9" stroke="#263238" stroke-linecap="round" stroke-linejoin="round"/>
<path d="M108.484 26.3668C109.129 26.3668 109.652 25.8841 109.652 25.2886C109.652 24.6932 109.129 24.2104 108.484 24.2104C107.839 24.2104 107.316 24.6932 107.316 25.2886C107.316 25.8841 107.839 26.3668 108.484 26.3668Z" fill="#263238" stroke="#263238" stroke-linecap="round" stroke-linejoin="round"/>
<path d="M114.936 26.555C115.581 26.555 116.104 26.0723 116.104 25.4769C116.104 24.8814 115.581 24.3987 114.936 24.3987C114.291 24.3987 113.768 24.8814 113.768 25.4769C113.768 26.0723 114.291 26.555 114.936 26.555Z" fill="#263238" stroke="#263238" stroke-linecap="round" stroke-linejoin="round"/>
<path d="M106.421 23.6267L110.443 24.807" stroke="#263238" stroke-width="2" stroke-linecap="round" stroke-linejoin="round"/>
<path d="M112.465 24.9473L117.272 23.6267" stroke="#263238" stroke-width="2" stroke-linecap="round" stroke-linejoin="round"/>
<path d="M109.783 29.2441H113.274" stroke="#263238" stroke-width="2" stroke-linecap="round" stroke-linejoin="round"/>
<path d="M52.6038 78.1934C59.0349 74.0414 60.6019 65.8633 56.1038 59.927C51.6057 53.9907 42.7459 52.5443 36.3148 56.6963C29.8837 60.8483 28.3167 69.0264 32.8148 74.9627C37.3129 80.899 46.1727 82.3454 52.6038 78.1934Z" fill="#92E3A9" stroke="#263238" stroke-linecap="round" stroke-linejoin="round"/>
<path d="M41.192 67.6933C41.4726 66.7541 40.8753 65.7828 39.8579 65.5237C38.8405 65.2647 37.7882 65.816 37.5075 66.7552C37.2269 67.6943 37.8242 68.6657 38.8416 68.9247C39.8591 69.1838 40.9114 68.6324 41.192 67.6933Z" fill="#263238" stroke="#263238" stroke-linecap="round" stroke-linejoin="round"/>
<path d="M51.6502 69.1496C51.5972 69.4958 51.434 69.8197 51.1815 70.0803C50.9289 70.3409 50.5983 70.5265 50.2315 70.6136C49.8646 70.7007 49.478 70.6854 49.1206 70.5696C48.7632 70.4538 48.451 70.2427 48.2236 69.9631C47.9961 69.6835 47.8637 69.3479 47.843 68.9988C47.8222 68.6497 47.9142 68.3027 48.1071 68.0018C48.3001 67.701 48.5854 67.4597 48.927 67.3085C49.2686 67.1574 49.651 67.1032 50.026 67.1527C50.5281 67.2191 50.9811 67.4667 51.2856 67.841C51.5901 68.2154 51.7212 68.6861 51.6502 69.1496Z" fill="#263238" stroke="#263238" stroke-linecap="round" stroke-linejoin="round"/>
<path d="M36.4207 64.0968L42.641 66.8624" stroke="#263238" stroke-width="3" stroke-linecap="round" stroke-linejoin="round"/>
<path d="M45.886 67.5195L54.0036 66.3999" stroke="#263238" stroke-width="3" stroke-linecap="round" stroke-linejoin="round"/>
<path d="M40.4708 73.9088L46.1245 74.6521" stroke="#263238" stroke-width="2" stroke-linecap="round" stroke-linejoin="round"/>
<path d="M33.1822 46.8323C35.5552 41.7315 32.9992 35.8208 27.4733 33.6304C21.9474 31.44 15.544 33.7993 13.1711 38.9001C10.7981 44.0009 13.354 49.9115 18.88 52.1019C24.4059 54.2924 30.8092 51.933 33.1822 46.8323Z" fill="#92E3A9" stroke="#263238" stroke-linecap="round" stroke-linejoin="round"/>
<path d="M21.0459 44.0197C21.1555 44.2679 21.1828 44.5405 21.1243 44.8031C21.0657 45.0656 20.924 45.3062 20.717 45.4942C20.5101 45.6823 20.2473 45.8093 19.962 45.8592C19.6767 45.9091 19.3817 45.8797 19.1146 45.7746C18.8475 45.6695 18.6202 45.4935 18.4616 45.2689C18.3031 45.0444 18.2203 44.7814 18.224 44.5134C18.2276 44.2453 18.3175 43.9844 18.4821 43.7636C18.6468 43.5428 18.8788 43.3721 19.1487 43.2732C19.5077 43.1417 19.9084 43.1464 20.2636 43.2862C20.6189 43.4259 20.9001 43.6895 21.0459 44.0197Z" fill="#263238" stroke="#263238" stroke-linecap="round" stroke-linejoin="round"/>
<path d="M28.6486 41.4677C28.7588 41.7161 28.7866 41.9891 28.7282 42.252C28.6698 42.515 28.5281 42.7559 28.3209 42.9443C28.1137 43.1326 27.8505 43.2598 27.5648 43.3096C27.2791 43.3594 26.9838 43.3297 26.7165 43.2241C26.4491 43.1186 26.2219 42.942 26.0636 42.7168C25.9053 42.4917 25.8232 42.2281 25.8277 41.9598C25.8322 41.6914 25.9231 41.4303 26.0888 41.2098C26.2545 40.9893 26.4875 40.8192 26.7583 40.7213C27.1165 40.5926 27.5151 40.5987 27.8685 40.7383C28.2219 40.8778 28.502 41.1397 28.6486 41.4677Z" fill="#263238" stroke="#263238" stroke-linecap="round" stroke-linejoin="round"/>
<path d="M16.4497 43.471L21.7301 43.1201" stroke="#263238" stroke-width="3" stroke-linecap="round" stroke-linejoin="round"/>
<path d="M24.1561 42.4152L29.091 38.8138" stroke="#263238" stroke-width="3" stroke-linecap="round" stroke-linejoin="round"/>
<path d="M23.1989 48.5684L27.2628 47.0724" stroke="#263238" stroke-width="2" stroke-linecap="round" stroke-linejoin="round"/>
<path d="M32.5951 27.1069C36.2443 27.1069 39.2025 24.3763 39.2025 21.0079C39.2025 17.6395 36.2443 14.9088 32.5951 14.9088C28.9459 14.9088 25.9877 17.6395 25.9877 21.0079C25.9877 24.3763 28.9459 27.1069 32.5951 27.1069Z" fill="#92E3A9" stroke="#263238" stroke-linecap="round" stroke-linejoin="round"/>
<path d="M31.1161 21.2152C31.1167 21.3782 31.0649 21.5378 30.9672 21.6736C30.8695 21.8094 30.7303 21.9154 30.5673 21.9781C30.4042 22.0408 30.2247 22.0574 30.0514 22.0257C29.8781 21.9941 29.7189 21.9156 29.594 21.8003C29.4691 21.685 29.3841 21.5381 29.3499 21.3782C29.3156 21.2182 29.3335 21.0525 29.4014 20.902C29.4693 20.7515 29.5841 20.6229 29.7313 20.5328C29.8784 20.4426 30.0513 20.3948 30.2279 20.3954C30.4635 20.3954 30.6894 20.4818 30.8559 20.6355C31.0225 20.7892 31.1161 20.9978 31.1161 21.2152Z" fill="#263238" stroke="#263238" stroke-linecap="round" stroke-linejoin="round"/>
<path d="M36.0267 21.3587C36.0274 21.5217 35.9757 21.6811 35.8781 21.8168C35.7806 21.9526 35.6416 22.0586 35.4787 22.1214C35.3159 22.1841 35.1365 22.2009 34.9633 22.1695C34.7901 22.1381 34.6309 22.06 34.5059 21.945C34.3809 21.83 34.2956 21.6834 34.2609 21.5237C34.2262 21.3639 34.2437 21.1983 34.3111 21.0477C34.3784 20.8972 34.4927 20.7684 34.6394 20.6779C34.7861 20.5873 34.9586 20.5389 35.1351 20.5389C35.252 20.5385 35.3679 20.5594 35.476 20.6004C35.5842 20.6414 35.6825 20.7018 35.7654 20.7779C35.8482 20.8541 35.9139 20.9446 35.9588 21.0443C36.0036 21.144 36.0267 21.2508 36.0267 21.3587Z" fill="#263238" stroke="#263238" stroke-linecap="round" stroke-linejoin="round"/>
<path d="M28.6555 19.952L31.7173 20.8484" stroke="#263238" stroke-width="2" stroke-linecap="round" stroke-linejoin="round"/>
<path d="M33.2551 20.9568L36.9148 19.952" stroke="#263238" stroke-width="2" stroke-linecap="round" stroke-linejoin="round"/>
<path d="M31.2163 24.2264H33.8738" stroke="#263238" stroke-width="2" stroke-linecap="round" stroke-linejoin="round"/>
<path d="M109.681 59.6743C115.138 57.5026 117.655 51.6581 115.303 46.6202C112.95 41.5824 106.618 39.2589 101.16 41.4307C95.7027 43.6024 93.1856 49.4469 95.5383 54.4847C97.8911 59.5226 104.223 61.846 109.681 59.6743Z" fill="white" stroke="#263238" stroke-linecap="round" stroke-linejoin="round"/>
<path d="M99.1566 44.6321L102.336 45.5508L97.8711 46.4982" stroke="#263238" stroke-width="2" stroke-linecap="round" stroke-linejoin="round"/>
<path d="M111.829 44.6321L108.491 45.5508L112.748 46.4982" stroke="#263238" stroke-width="2" stroke-linecap="round" stroke-linejoin="round"/>
<path d="M97.2007 48.5046C98.2858 52.8045 101.558 55.9306 105.422 55.9306C109.286 55.9306 112.562 52.8045 113.647 48.5046L112.219 48.2845C107.655 47.58 102.995 47.5886 98.4344 48.31L97.2007 48.5046Z" fill="#263238" stroke="#263238" stroke-linecap="round" stroke-linejoin="round"/>
<path d="M111.027 53.3819C109.339 52.4522 107.408 51.9658 105.443 51.9754C103.478 51.9849 101.552 52.49 99.8754 53.4361C101.372 54.9896 103.307 55.9306 105.422 55.9306C107.537 55.9306 109.514 54.9705 111.027 53.3819Z" fill="#92E3A9" stroke="#263238" stroke-linecap="round" stroke-linejoin="round"/>
<path d="M129.803 75.8002C134.297 74.1268 136.471 69.4074 134.658 65.2592C132.845 61.111 127.732 59.1049 123.238 60.7783C118.744 62.4518 116.571 67.1711 118.384 71.3193C120.197 75.4675 125.309 77.4737 129.803 75.8002Z" fill="white" stroke="#263238" stroke-linecap="round" stroke-linejoin="round"/>
<path d="M120.382 64.6167L123.091 64.8209L119.725 66.3137" stroke="#263238" stroke-width="2" stroke-linecap="round" stroke-linejoin="round"/>
<path d="M130.462 62.5209L127.985 63.8032L131.554 63.8511" stroke="#263238" stroke-width="2" stroke-linecap="round" stroke-linejoin="round"/>
<path d="M119.58 68.0203C121.277 71.2612 124.487 73.207 127.563 72.5659C130.639 71.9247 132.633 68.9007 132.667 65.2993L131.489 65.3599C127.721 65.5547 124.015 66.3333 120.527 67.663L119.58 68.0203Z" fill="#263238" stroke="#263238" stroke-linecap="round" stroke-linejoin="round"/>
<path d="M131.523 69.6119C130 69.153 128.37 69.0864 126.809 69.4191C125.247 69.7519 123.814 70.4715 122.663 71.5004C124.156 72.4892 125.88 72.9167 127.563 72.5658C129.246 72.2149 130.635 71.1239 131.523 69.6119Z" fill="#92E3A9" stroke="#263238" stroke-linecap="round" stroke-linejoin="round"/>
<path d="M53.1945 44.9298C56.7834 43.5004 58.4374 39.6561 56.8888 36.3433C55.3402 33.0305 51.1754 31.5038 47.5865 32.9332C43.9976 34.3627 42.3436 38.207 43.8922 41.5198C45.4408 44.8325 49.6056 46.3593 53.1945 44.9298Z" fill="white" stroke="#263238" stroke-linecap="round" stroke-linejoin="round"/>
<path d="M46.2661 35.0337L48.3603 35.6366L45.4229 36.2618" stroke="#263238" stroke-width="2" stroke-linecap="round" stroke-linejoin="round"/>
<path d="M54.6049 35.0337L52.407 35.6366L55.2062 36.2618" stroke="#263238" stroke-width="2" stroke-linecap="round" stroke-linejoin="round"/>
<path d="M44.9806 37.5792C45.6959 40.4086 47.8454 42.4661 50.3889 42.4661C52.9323 42.4661 55.0853 40.4086 55.7972 37.5792L54.8572 37.4357C51.8561 36.972 48.7919 36.9774 45.7927 37.4516L44.9806 37.5792Z" fill="#263238" stroke="#263238" stroke-linecap="round" stroke-linejoin="round"/>
<path d="M54.0761 40.7882C52.9656 40.177 51.6954 39.8573 50.4025 39.8635C49.1096 39.8697 47.8431 40.2015 46.7395 40.8233C47.1762 41.3378 47.7346 41.7533 48.372 42.038C49.0095 42.3226 49.709 42.4688 50.4171 42.4654C51.1252 42.462 51.8231 42.3091 52.4573 42.0184C53.0915 41.7277 53.6452 41.3069 54.0761 40.7882Z" fill="#92E3A9" stroke="#263238" stroke-linecap="round" stroke-linejoin="round"/>
<path d="M21.8473 88.2052C25.7056 87.6271 28.3256 84.2714 27.6993 80.71C27.073 77.1486 23.4376 74.7301 19.5794 75.3082C15.7211 75.8863 13.1011 79.2421 13.7274 82.8034C14.3536 86.3648 17.9891 88.7833 21.8473 88.2052Z" fill="white" stroke="#263238" stroke-linecap="round" stroke-linejoin="round"/>
<path d="M16.588 77.8611L18.6822 78.464L15.7448 79.0892" stroke="#263238" stroke-width="2" stroke-linecap="round" stroke-linejoin="round"/>
<path d="M24.9268 77.8611L22.7289 78.464L25.5281 79.0892" stroke="#263238" stroke-width="2" stroke-linecap="round" stroke-linejoin="round"/>
<path d="M15.3024 80.4098C16.0177 83.236 18.1672 85.2935 20.7106 85.2935C23.2541 85.2935 25.407 83.236 26.1189 80.4098L25.1928 80.2758C22.1915 79.8137 19.1276 79.8191 16.1283 80.2917L15.3024 80.4098Z" fill="#263238" stroke="#263238" stroke-linecap="round" stroke-linejoin="round"/>
<path d="M24.398 83.6188C23.3065 82.9913 22.0412 82.6699 20.7556 82.6937C19.4487 82.6676 18.1628 83.0007 17.0614 83.6506C17.506 84.1481 18.0607 84.552 18.6884 84.8354C19.316 85.1187 20.002 85.2749 20.7003 85.2934C21.4112 85.2777 22.1099 85.1198 22.7483 84.8307C23.3866 84.5415 23.9495 84.1281 24.398 83.6188Z" fill="#92E3A9" stroke="#263238" stroke-linecap="round" stroke-linejoin="round"/>
<path d="M138.121 52.1071C145.506 51.4375 150.905 45.3686 150.179 38.5518C149.454 31.7351 142.879 26.7518 135.494 27.4214C128.109 28.091 122.71 34.1599 123.436 40.9766C124.161 47.7934 130.736 52.7767 138.121 52.1071Z" fill="white" stroke="#263238" stroke-linecap="round" stroke-linejoin="round"/>
<path d="M131.827 30.5137L135.221 32.7306L129.522 32.2713" stroke="#263238" stroke-width="2" stroke-linecap="round" stroke-linejoin="round"/>
<path d="M146.881 35.0082L142.53 34.9156L147.195 37.5505" stroke="#263238" stroke-width="2" stroke-linecap="round" stroke-linejoin="round"/>
<path d="M127.891 34.4181C127.39 39.9111 129.965 44.782 134.564 46.1568C139.164 47.5317 144.344 44.9766 147.423 40.2524L145.82 39.4836C140.692 37.0289 135.153 35.3857 129.436 34.6222L127.891 34.4181Z" fill="#263238" stroke="#263238" stroke-linecap="round" stroke-linejoin="round"/>
<path d="M142.281 45.1169C140.961 43.5826 138.86 42.246 136.292 41.4836C133.725 40.7212 131.078 40.6606 129.011 41.2252C130.144 43.6017 132.052 45.404 134.564 46.1568C137.077 46.9096 139.834 46.463 142.281 45.1169Z" fill="#92E3A9" stroke="#263238" stroke-linecap="round" stroke-linejoin="round"/>
<path d="M50.0398 102.184L48.2532 102.924L48.6921 97.9031L46.5184 98.6719L45.6821 95.3448C44.9053 94.9494 44.0115 94.7943 43.1321 94.9024C42.2527 95.0105 41.4341 95.3761 40.7964 95.9454C40.1588 96.5147 39.7357 97.2578 39.5894 98.0655C39.4431 98.8731 39.5812 99.7028 39.9835 100.433C41.041 102.417 43.9473 102.816 46.0381 103.485L49.3452 104.544L50.0398 102.184Z" fill="#851FEC" stroke="#851FEC" stroke-linecap="round" stroke-linejoin="round"/>
<path d="M48.5608 92.257C47.6147 92.6853 46.8807 93.4301 46.5081 94.34L47.2718 97.3863L49.8774 96.4612L49.4351 101.386L51.5984 100.49L50.3405 104.857L51.1042 105.103C51.1284 105.103 53.9552 98.2029 54.1695 97.6256C54.6084 96.4357 54.7604 95.1757 54.1384 94.0114C53.8972 93.558 53.5616 93.1528 53.1506 92.8192C52.7397 92.4856 52.2616 92.23 51.7436 92.067C51.2256 91.9041 50.6778 91.837 50.1317 91.8696C49.5856 91.9022 49.0518 92.0338 48.5608 92.257Z" fill="#851FEC" stroke="#851FEC" stroke-linecap="round" stroke-linejoin="round"/>
<path d="M76.6388 38.9318L75.3464 38.5809L78.0142 36.1406L76.5041 35.6462L77.679 33.56C77.4568 33.0385 77.0611 32.5956 76.5488 32.2949C76.0366 31.9942 75.4341 31.8513 74.8283 31.8868C74.2224 31.9222 73.6443 32.1342 73.1773 32.4922C72.7103 32.8502 72.3783 33.3358 72.2293 33.879C71.8215 35.3527 73.152 36.7499 73.9226 37.9748C74.3269 38.6128 74.7347 39.2508 75.139 39.8887L76.6388 38.9318Z" fill="#851FEC" stroke="#851FEC" stroke-linecap="round" stroke-linejoin="round"/>
<path d="M80.6718 33.1229C79.9718 32.9605 79.2312 33.0482 78.5983 33.3686L77.5236 35.2825L79.3344 35.8726L76.7184 38.2682L78.2873 38.6925L75.5227 40.4597L75.8026 40.8999C75.8026 40.8999 80.6407 38.466 81.0312 38.2523C81.4436 38.0566 81.8091 37.7863 82.1059 37.4574C82.4028 37.1286 82.6249 36.748 82.7591 36.3383C82.9442 35.6565 82.8282 34.9346 82.4368 34.3316C82.0454 33.7287 81.4105 33.2939 80.6718 33.1229Z" fill="#851FEC" stroke="#851FEC" stroke-linecap="round" stroke-linejoin="round"/>
<path d="M60.4624 26.8293L59.1181 26.7847L61.0499 23.8149L59.4533 23.6809L60.0339 21.3938C59.679 20.9422 59.1785 20.6059 58.604 20.4328C58.0295 20.2597 57.4104 20.2587 56.8353 20.43C56.2602 20.6013 55.7585 20.9361 55.4019 21.3865C55.0454 21.8369 54.8523 22.3798 54.8502 22.9377C54.8502 24.456 56.5159 25.5215 57.5837 26.5199C58.1505 27.0473 58.7149 27.5789 59.2771 28.1148L60.4624 26.8293Z" fill="#851FEC" stroke="#851FEC" stroke-linecap="round" stroke-linejoin="round"/>
<path d="M62.8158 20.2805C62.09 20.28 61.3915 20.5356 60.8633 20.9951L60.3346 23.0876L62.2456 23.2503L60.3518 26.1658L61.983 26.2201L59.7678 28.5646L60.1583 28.9283C60.1583 28.9283 64.1912 25.4673 64.516 25.1706C64.863 24.8895 65.1454 24.5471 65.3466 24.1636C65.5478 23.7801 65.6638 23.3632 65.6876 22.9377C65.6885 22.589 65.6149 22.2437 65.4709 21.9213C65.327 21.599 65.1156 21.306 64.8489 21.0592C64.5821 20.8123 64.2652 20.6165 63.9164 20.4829C63.5675 20.3493 63.1935 20.2805 62.8158 20.2805Z" fill="#851FEC" stroke="#851FEC" stroke-linecap="round" stroke-linejoin="round"/>
<path d="M90.7937 95.5138L92.9259 100.279C92.9259 100.279 91.8892 103.106 91.9617 102.681C92.0343 102.257 81.7361 101.945 81.7361 101.945L80.226 97.1597C80.226 97.1597 90.1958 95.4819 90.7937 95.5138Z" fill="#B8B8B8" stroke="#263238" stroke-linecap="round" stroke-linejoin="round"/>
<path d="M76.6838 107.961C76.6838 107.961 75.3983 114.541 74.835 116.21C74.2717 117.878 75.0493 123.843 76.9949 125.716C78.9405 127.588 89.8434 127.154 90.7592 126.992C91.675 126.829 94.8508 125.323 95.9428 123.055C97.0349 120.787 97.1454 117.926 96.7377 116.561C96.3299 115.195 95.8841 114.446 95.5212 113.415C95.1584 112.385 94.5778 107.84 93.9385 105.441C93.2992 103.042 91.5367 101.638 89.2628 101.46C86.9889 101.281 82.7453 100.2 80.7893 100.742C78.8333 101.284 77.0294 104.436 76.6838 107.961Z" fill="#263238" stroke="#263238" stroke-linecap="round" stroke-linejoin="round"/>
<path d="M91.4468 117.329C91.4468 117.329 91.2983 115.843 90.4101 115.004C89.522 114.165 87.8217 113.945 87.3552 115.077C86.8887 116.21 86.0697 120.692 85.9487 121.336C85.8278 121.98 85.7828 122.223 85.7828 122.223C85.7828 122.223 87.3932 121.642 88.1811 121.878C88.6779 122.028 89.1619 122.211 89.6291 122.427L91.4468 117.329Z" fill="white" stroke="#263238" stroke-linecap="round" stroke-linejoin="round"/>
<path d="M90.0646 122.098C90.0646 122.098 88.6822 120.663 87.9911 120.631C87.2999 120.599 86.3323 120.647 85.9487 121.336C85.6674 121.776 85.5227 122.279 85.5306 122.791C85.5306 123.154 85.185 124.204 84.9016 125.135C84.6183 126.067 84.4835 126.468 85.4062 126.861C86.3289 127.253 90.4274 127.132 90.9078 127.046C91.3881 126.96 91.7683 126.191 91.7648 125.748C91.7613 125.304 90.7833 124.153 90.5138 123.464C90.2442 122.775 90.0646 122.098 90.0646 122.098Z" fill="white" stroke="#263238" stroke-linecap="round" stroke-linejoin="round"/>
<path d="M88.3781 125.489C86.7816 125.288 85.0537 126.108 84.7219 126.274C84.791 126.504 84.9915 126.682 85.4131 126.861C86.3323 127.253 90.4343 127.132 90.9147 127.046C91.2222 126.992 91.4918 126.65 91.6404 126.296C90.5893 125.915 89.4949 125.644 88.3781 125.489Z" fill="white" stroke="#263238" stroke-linecap="round" stroke-linejoin="round"/>
<path d="M91.2845 126.829C91.0216 126.787 90.7628 126.727 90.5104 126.647C89.8538 126.452 88.7134 125.901 87.3656 126.236C86.6935 126.391 86.0386 126.605 85.4097 126.874C86.3289 127.266 90.4309 127.145 90.9113 127.059C91.0585 127.02 91.189 126.939 91.2845 126.829Z" fill="#263238" stroke="#263238" stroke-linecap="round" stroke-linejoin="round"/>
<path d="M84.6943 121.955C84.7726 121.271 84.7934 120.584 84.7565 119.897C84.6632 119.336 84.4766 118.369 84.3315 117.444C84.1863 116.519 83.6956 115.154 82.9042 114.72C82.1129 114.286 80.423 115.23 80.1707 116.28C79.9184 117.329 80.9137 119.939 80.9275 120.864C80.9407 121.379 80.8885 121.894 80.772 122.398C80.772 122.398 81.3318 122.028 82.5586 122.137C83.1872 122.163 83.8008 122.322 84.3522 122.602L84.6943 121.955Z" fill="white" stroke="#263238" stroke-linecap="round" stroke-linejoin="round"/>
<path d="M84.6943 121.955C84.6943 121.955 83.8511 120.873 82.8904 120.966C82.4878 120.982 82.0939 121.079 81.7358 121.25C81.3778 121.421 81.0643 121.661 80.8169 121.955C80.4587 122.423 80.0698 122.87 79.6523 123.294C79.2238 123.703 78.0523 124.318 77.8 125.247C77.5477 126.175 77.2471 126.341 78.5154 126.692C79.7836 127.043 81.75 127.062 82.842 127.049C83.934 127.036 84.4973 126.87 84.6666 126.306C84.836 125.741 84.8601 124.328 84.8947 123.483C84.91 122.967 84.8424 122.452 84.6943 121.955Z" fill="white" stroke="#263238" stroke-linecap="round" stroke-linejoin="round"/>
<path d="M82.835 127.049C83.2979 127.073 83.7608 127.001 84.1897 126.838C83.4778 126.577 81.3387 125.802 80.3434 125.563C79.4 125.346 78.149 125.604 77.6445 125.725C77.4855 126.242 77.5028 126.405 78.5084 126.682C79.794 127.039 81.743 127.062 82.835 127.049Z" fill="white" stroke="#263238" stroke-linecap="round" stroke-linejoin="round"/>
<path d="M77.8276 126.449C78.0477 126.553 78.2795 126.635 78.5188 126.692C79.7905 127.039 81.7534 127.062 82.8454 127.049H83.0977C82.1695 126.761 81.2217 126.53 80.2605 126.357C79.4565 126.174 78.6127 126.206 77.8276 126.449Z" fill="#263238" stroke="#263238" stroke-linecap="round" stroke-linejoin="round"/>
<path d="M77.4371 110.385L79.5659 116.73" stroke="#858585" stroke-linecap="round" stroke-linejoin="round"/>
<path d="M83.5953 110.401C83.5953 110.401 84.3176 115.792 84.3176 115.955" stroke="#858585" stroke-linecap="round" stroke-linejoin="round"/>
<path d="M86.9158 110.972L86.7435 114.8" stroke="#858585" stroke-linecap="round" stroke-linejoin="round"/>
<path d="M91.6127 116.644L92.7945 113.447" stroke="#858585" stroke-linecap="round" stroke-linejoin="round"/>
<path d="M78.8229 94.0815C78.243 94.2232 77.7102 94.4952 77.2718 94.8731C76.8335 95.251 76.5032 95.7232 76.3105 96.2475C75.5468 98.1136 75.5226 101.524 75.3809 102.554C75.2392 103.584 75.3187 104.573 75.7749 106.104C76.2311 107.635 76.466 108.72 76.8116 108.838C77.1572 108.956 82.6415 109.989 85.3992 110.241C88.1569 110.493 92.2693 110.455 92.5768 110.49C92.8844 110.525 93.3371 111.935 93.4719 112.136C93.6067 112.337 93.0434 112.95 93.1782 113.23C93.3129 113.511 93.9281 113.667 94.4533 113.661C94.83 113.638 95.199 113.552 95.5419 113.406C95.7841 113.349 96.008 113.24 96.195 113.087C96.3268 112.92 96.4424 112.743 96.5406 112.557L96.8413 111.99C96.8496 111.629 96.7705 111.272 96.6097 110.943C96.3402 110.382 95.8495 109.578 95.4002 108.615C94.951 107.651 93.3268 107.182 93.3268 107.182C93.3268 107.182 86.3115 105.843 85.3508 105.811C84.3901 105.779 80.9205 104.688 80.9205 104.688L80.8963 102.79C80.8963 102.79 81.3767 99.1917 80.8307 97.3416C80.2847 95.4915 79.4484 94.3112 78.8229 94.0815Z" fill="white" stroke="#263238" stroke-linecap="round" stroke-linejoin="round"/>
<path d="M77.9659 100.576C79.0107 100.716 80.0392 100.946 81.038 101.262C81.1175 100.059 81.1452 98.3911 80.8307 97.332C80.2812 95.4787 79.4484 94.3176 78.8229 94.0815C78.2431 94.2232 77.7102 94.4952 77.2719 94.8731C76.8335 95.251 76.5032 95.7232 76.3106 96.2475C75.8406 97.399 75.6505 99.1343 75.5399 100.541C76.3473 100.466 77.1614 100.478 77.9659 100.576Z" fill="#92E3A9" stroke="#263238" stroke-linecap="round" stroke-linejoin="round"/>
<path d="M80.9205 104.678L79.2479 103.887" stroke="#263238" stroke-linecap="round" stroke-linejoin="round"/>
<path d="M93.4753 112.136C93.4753 112.136 93.617 113.064 94.0559 113.221Z" fill="white"/>
<path d="M93.4753 112.136C93.4753 112.136 93.617 113.064 94.0559 113.221" stroke="#263238" stroke-linecap="round" stroke-linejoin="round"/>
<path d="M82.5828 100.512C82.5828 100.512 77.5546 98.876 76.8082 98.8855C76.0617 98.8951 75.26 99.4629 74.2509 100.098C73.2418 100.732 73.3179 101.169 73.463 101.919C73.6081 102.669 73.539 102.857 73.9503 103.039C74.3615 103.221 75.2427 103.587 75.2427 103.587C75.4328 103.331 75.6568 103.097 75.9097 102.892C76.314 102.573 78.4048 101.992 78.4048 101.992C78.4048 101.992 85.2161 105.476 87.1928 106.401C89.1695 107.326 91.9514 108.225 92.4214 107.91C92.8913 107.594 94.6227 105.074 95.1445 103.444C95.7821 101.45 96.2773 99.4205 96.627 97.3671C96.8758 95.6127 96.5268 94.8152 94.9648 94.3846C93.4028 93.954 92.7255 93.9061 92.3868 93.9125L90.6278 93.9284C90.6278 93.9284 89.7846 96.9365 90.4758 98.0561C90.8457 98.6342 91.1691 99.2366 91.4434 99.8584L90.7315 102.426L82.5828 100.512Z" fill="white" stroke="#263238" stroke-linecap="round" stroke-linejoin="round"/>
<path d="M95.5592 102.063C96.0093 100.517 96.3658 98.9494 96.6271 97.3671C96.8759 95.6127 96.5268 94.8152 94.9648 94.3846C93.4028 93.954 92.7255 93.9061 92.3868 93.9125L90.6278 93.9284C90.6278 93.9284 89.7846 96.9365 90.4758 98.0561C90.8457 98.6342 91.1691 99.2366 91.4434 99.8584L91.0978 101.064H91.1566C91.1566 101.064 92.7566 100.908 93.9039 101.319C94.4745 101.53 95.0277 101.778 95.5592 102.063Z" fill="#92E3A9" stroke="#263238" stroke-linecap="round" stroke-linejoin="round"/>
<path d="M91.4434 99.8584C91.4434 99.8584 91.8235 98.5474 92.29 97.4532Z" fill="white"/>
<path d="M91.4434 99.8584C91.4434 99.8584 91.8235 98.5474 92.29 97.4532" stroke="#263238" stroke-linecap="round" stroke-linejoin="round"/>
<path d="M85.8623 101.029C85.8623 101.029 86.315 101.613 86.7297 101.549C87.1444 101.485 87.3552 100.72 87.3552 100.72L85.8623 101.029Z" fill="white" stroke="#263238" stroke-linecap="round" stroke-linejoin="round"/>
<path d="M90.4757 98.0561C90.4757 98.0561 89.2835 100.11 88.1051 100.525C86.8437 100.968 86.1146 101.259 85.0294 101.083C84.004 100.917 83.0159 100.593 82.1059 100.126L80.4851 99.2842C80.4851 99.2842 88.9725 97.0704 90.4757 98.0561Z" fill="white" stroke="#263238" stroke-linecap="round" stroke-linejoin="round"/>
<path d="M90.7211 94.9492C90.9244 95.0533 91.1006 95.1971 91.2373 95.3707C91.3741 95.5443 91.468 95.7434 91.5124 95.954C91.5919 96.608 90.7487 97.4341 90.7487 97.4341L90.7211 94.9492Z" fill="white" stroke="#263238" stroke-linecap="round" stroke-linejoin="round"/>
<path d="M90.887 92.9268C90.4688 91.9316 89.2282 90.2569 87.7318 89.772C86.8938 89.5431 86.0008 89.5509 85.1677 89.7944C84.9464 89.4888 84.6602 89.228 84.3263 89.0278C83.9924 88.8277 83.6179 88.6923 83.2255 88.63C81.8225 88.3972 80.841 89.9475 80.1153 89.906C79.3896 89.8645 77.8449 89.7465 77.0673 91.3542C76.2898 92.9619 77.3507 92.8917 76.5593 93.5871C75.768 94.2825 73.6392 94.7259 74.0608 96.5665C74.4824 98.407 75.6263 99.0769 75.6885 98.8281C75.8215 98.1821 75.9922 97.5432 76.1999 96.9142C76.4474 96.2237 76.7741 95.5596 77.1745 94.9333C77.6306 94.1836 79.3861 96.5888 79.4691 97.0035C80.0462 99.935 80.2812 99.4948 81.2972 99.734C81.8674 100.075 83.1633 100.825 83.7957 100.962C84.4281 101.099 85.5823 101.236 86.2562 100.356C86.5722 99.9151 86.9371 99.5057 87.3448 99.1343L87.0994 99.096C87.3137 98.9206 87.445 98.7962 87.445 98.7962C87.7846 99.016 88.1849 99.1421 88.5992 99.1598C89.2074 99.1598 89.8813 98.8409 90.4826 98.0785C91.0839 97.3161 90.4342 96.4453 90.6278 95.5042C90.8213 94.5632 91.3051 93.9221 90.887 92.9268ZM80.2259 92.8885L80.454 92.6046C80.4125 92.6652 80.371 92.7259 80.3227 92.7865C80.2942 92.8234 80.2617 92.8576 80.2259 92.8885Z" fill="#263238" stroke="#263238" stroke-linecap="round" stroke-linejoin="round"/>
<path d="M90.7314 102.426C91.1164 102.465 91.4894 102.572 91.8291 102.744C92.1689 102.915 92.4687 103.146 92.7116 103.425" fill="white"/>
<path d="M90.7314 102.426C91.1164 102.465 91.4894 102.572 91.8291 102.744C92.1689 102.915 92.4687 103.146 92.7116 103.425" stroke="#263238" stroke-linecap="round" stroke-linejoin="round"/>
<path d="M86.7505 93.3351C86.7505 93.3351 87.8563 96.2793 87.7423 97.9413" stroke="#858585" stroke-linecap="round" stroke-linejoin="round"/>
</svg>
