<svg width="168" height="125" viewBox="0 0 168 125" fill="none" xmlns="http://www.w3.org/2000/svg">
<path d="M20.0744 80.9914H39.4289C39.4289 80.9914 45.0694 81.6731 42.7389 86.7621H47.8738C48.6809 85.7287 49.203 84.5294 49.395 83.268C49.587 82.0065 49.4431 80.7209 48.9758 79.5223C47.3959 75.3373 42.1109 74.5463 42.1109 74.5463H21.6544C21.6544 74.5463 16.6222 76.4674 20.0744 80.9914Z" fill="#263238" stroke="#1E1E1E" stroke-width="1.1326" stroke-linecap="round" stroke-linejoin="round"/>
<path d="M64.1314 105.988C62.0893 100.155 59.1151 95.7043 59.8577 89.1936C60.1736 86.4413 61.4376 83.7655 61.5522 81.0059C61.8247 73.4526 51.6261 73.5255 49.0902 67.0877C46.8625 61.4336 46.6768 59.0349 42.2214 58.8636C37.7659 58.6922 22.7246 57.1502 19.1974 58.0069C15.6701 58.8636 13.0671 66.7559 10.1126 70.1717C7.15808 73.5875 3.61502 78.3995 6.02841 84.7535C8.4418 91.1074 11.7795 99.4737 12.1389 106.673C12.4983 113.873 12.5102 120.723 12.5102 120.723H65.8023C65.8023 120.723 66.1735 111.814 64.1314 105.988ZM40.9218 85.9382H26.8088C25.5033 85.9044 24.2635 85.402 23.3531 84.5378C22.4426 83.6736 21.9332 82.5157 21.9332 81.3103C21.9332 80.105 22.4426 78.9471 23.3531 78.0829C24.2635 77.2187 25.5033 76.7163 26.8088 76.6825H40.9218C42.2274 76.7163 43.4671 77.2187 44.3776 78.0829C45.2881 78.9471 45.7975 80.105 45.7975 81.3103C45.7975 82.5157 45.2881 83.6736 44.3776 84.5378C43.4671 85.402 42.2274 85.9044 40.9218 85.9382Z" fill="#92E3A9" stroke="#1E1E1E" stroke-width="1.1326" stroke-linecap="round" stroke-linejoin="round"/>
<path d="M12.1154 67.2189C15.5518 68.8739 20.5761 72.1147 23.5701 77.7907C24.4728 77.0749 25.623 76.6806 26.813 76.6788H40.926C41.6174 76.6798 42.301 76.8135 42.9334 77.0714C43.5658 77.3293 44.1332 77.7059 44.5994 78.1771L44.7061 78.2427C46.286 75.7456 48.5572 72.5485 51.1325 70.0332C50.2339 69.1949 49.5391 68.1895 49.0944 67.084C46.8667 61.4299 46.681 59.0312 42.2255 58.8599C37.77 58.6886 22.7288 57.1466 19.2015 58.0032C16.484 58.6631 14.3195 63.475 12.1154 67.2189Z" fill="#263238" stroke="#1E1E1E" stroke-width="1.1326" stroke-linecap="round" stroke-linejoin="round"/>
<path d="M21.8638 120.894H60.8414C60.561 117.639 59.8776 109.958 59.3009 105.474C58.5584 99.6414 58.1871 95.8757 56.3306 94.1733C54.4742 92.4708 42.7785 84.3962 39.429 84.0535C39.429 84.0535 29.7715 83.3682 26.7893 83.8822C23.8071 84.3962 17.7045 93.3057 17.7045 94.8477C17.7045 96.3095 22.0494 111.307 21.8638 120.894Z" fill="#263238" stroke="#1E1E1E" stroke-width="1.1326" stroke-linecap="round" stroke-linejoin="round"/>
<path d="M14.1812 105.131C13.6243 97.9316 7.68362 81.3121 6.3841 78.5707C6.04734 77.7006 5.99921 76.7576 6.24585 75.8622C4.95207 78.6869 4.86878 81.8596 6.01281 84.7388C8.4262 91.0782 11.7678 99.4737 12.1391 106.673C12.5104 113.873 12.5104 120.723 12.5104 120.723H14.0548C14.2168 117.139 14.6433 111.084 14.1812 105.131Z" fill="#263238" stroke="#1E1E1E" stroke-width="1.1326" stroke-linecap="round" stroke-linejoin="round"/>
<path d="M46.677 94.5049C44.4493 91.2496 37.1973 92.7916 31.4502 92.6202C25.703 92.4489 25.1303 93.9909 25.1303 96.9036C25.1303 99.3789 27.9466 115.834 28.7919 120.723H52.4636C52.4636 111.154 48.8021 97.6108 46.677 94.5049Z" fill="#92E3A9" stroke="#1E1E1E" stroke-width="1.1326" stroke-linecap="round" stroke-linejoin="round"/>
<path d="M39.1169 92.4125C36.7075 92.4562 34.0768 92.6786 31.6871 92.6276C32.7023 95.6606 36.6719 108.245 37.0155 120.723H44.473C44.0898 115.029 42.8575 102.521 39.1169 92.4125Z" fill="white" stroke="#1E1E1E" stroke-width="1.1326" stroke-linecap="round" stroke-linejoin="round"/>
<path d="M47.8257 1.33949L89.2384 4.04565L85.4068 53.99L43.9941 51.2838L47.8257 1.33949Z" fill="#92E3A9" stroke="#1E1E1E"/>
<path opacity="0.5" d="M43.9945 51.2868L47.8141 1.3417L89.2262 4.05636L85.4066 54.0015L43.9945 51.2868Z" fill="white" stroke="#1E1E1E"/>
<path d="M53.0698 37.8994L53.0693 37.8994C52.9491 37.8905 52.8331 37.8598 52.7282 37.8103C52.6234 37.7608 52.5328 37.694 52.4603 37.6154C52.388 37.5369 52.3351 37.4483 52.3027 37.3555C52.2702 37.2629 52.2583 37.1664 52.2666 37.0709L52.2667 37.0703L54.1468 15.2637C54.1468 15.2636 54.1468 15.2635 54.1468 15.2633C54.1635 15.0725 54.2623 14.8851 54.4373 14.7472C54.6135 14.6084 54.8495 14.535 55.0935 14.5524C55.0936 14.5525 55.0938 14.5525 55.094 14.5525L80.542 16.4444L80.5421 16.4444C80.7861 16.4625 81.0034 16.5687 81.1502 16.7275C81.2955 16.8847 81.3608 17.0799 81.3449 17.2701C81.3449 17.2703 81.3449 17.2705 81.3448 17.2707L79.4687 39.0842L79.4685 39.0869C79.4608 39.1827 79.4325 39.2778 79.3837 39.3668C79.3349 39.4559 79.2659 39.5379 79.1788 39.6068C79.0915 39.6757 78.9883 39.7297 78.8744 39.7639C78.7604 39.798 78.6394 39.8112 78.5187 39.8023L53.0698 37.8994Z" fill="white" stroke="#1E1E1E"/>
<path opacity="0.08" d="M68.3712 29.4467C68.2837 29.3516 68.2328 29.2399 68.2182 29.1269C68.2031 29.0052 68.23 28.8795 68.3002 28.767C68.3711 28.6535 68.4844 28.5569 68.6296 28.4987C68.7751 28.4403 68.9393 28.4262 69.0963 28.4598C69.2531 28.4934 69.3875 28.5714 69.4829 28.675C69.5777 28.7779 69.6291 28.9002 69.638 29.0227C69.6468 29.145 69.6134 29.2702 69.5364 29.3806C69.4588 29.4919 69.3394 29.584 69.1906 29.6359C69.0416 29.6878 68.8768 29.6944 68.7225 29.654C68.5804 29.6163 68.4592 29.5422 68.3712 29.4467Z" fill="#851FEC" stroke="#1E1E1E"/>
<path opacity="0.08" d="M63.8379 28.8066L63.8377 28.8054C63.8221 28.6834 63.8487 28.5573 63.9189 28.4445C63.9896 28.3308 64.1029 28.2339 64.2482 28.1755C64.3937 28.1169 64.5582 28.1026 64.7153 28.1363C64.8723 28.1699 65.0069 28.2479 65.1023 28.3516C65.1971 28.4547 65.2486 28.5772 65.2573 28.6998C65.266 28.8222 65.2323 28.9475 65.155 29.058C65.0771 29.1693 64.9574 29.2613 64.8082 29.313C64.6587 29.3647 64.4935 29.3708 64.3391 29.3298L64.3381 29.3296C64.1968 29.2924 64.0764 29.2188 63.9891 29.124C63.9022 29.0296 63.8519 28.9187 63.8379 28.8066Z" fill="#851FEC" stroke="#1E1E1E"/>
<path opacity="0.08" d="M55.5547 32.3265C55.5115 31.9886 55.5864 31.6443 55.7737 31.3429C55.9615 31.0406 56.2545 30.7948 56.6156 30.6493C56.977 30.5037 57.3819 30.4686 57.7686 30.5509C58.1552 30.6332 58.4964 30.8268 58.7448 31.0959C58.9927 31.3643 59.1354 31.6932 59.1603 32.0327C59.1851 32.3721 59.0915 32.7133 58.8872 33.0068C58.6824 33.3012 58.3752 33.5337 58.0059 33.6626C57.6363 33.7915 57.23 33.8076 56.8488 33.7077C56.4985 33.6153 56.1913 33.431 55.9627 33.1835C55.7347 32.9365 55.595 32.6379 55.5547 32.3265Z" fill="#851FEC" stroke="#1E1E1E"/>
<path opacity="0.08" d="M73.3491 33.6792C73.3065 33.3423 73.3816 32.9991 73.5686 32.6988C73.7562 32.3974 74.0487 32.1525 74.4089 32.0075C74.7694 31.8624 75.1732 31.8276 75.559 31.9098C75.9445 31.992 76.2848 32.1851 76.5325 32.4535C76.7797 32.7211 76.9221 33.0492 76.947 33.3878C76.9719 33.7262 76.8788 34.0665 76.6752 34.3593C76.4711 34.653 76.165 34.8851 75.7967 35.0139C75.4283 35.1428 75.0231 35.1592 74.6429 35.06C74.2927 34.9676 73.9856 34.7833 73.7571 34.5359C73.5291 34.289 73.3895 33.9905 73.3491 33.6792Z" fill="#851FEC" stroke="#1E1E1E"/>
<path opacity="0.08" d="M66.8603 32.4949L66.7461 33.8126L66.7024 34.317L67.2073 34.3544L68.674 34.4629L68.609 35.2237L67.127 35.1142L66.6348 35.0779L66.5921 35.5696L66.4767 36.8975L65.5702 36.8315L65.6845 35.5139L65.7282 35.0094L65.2232 34.9721L63.7566 34.8636L63.8215 34.1028L65.3036 34.2122L65.7958 34.2486L65.8385 33.7569L65.9538 32.429L66.8603 32.4949Z" fill="#851FEC" stroke="#1E1E1E"/>
<path opacity="0.08" d="M77.4576 26.4565L77.457 26.4565L56.4198 24.8598L56.4177 24.8596C56.3405 24.8541 56.2773 24.8212 56.2381 24.7799C56.2017 24.7415 56.1887 24.6999 56.1896 24.6639L56.8602 17.1422L56.8603 17.1422L56.8605 17.1396C56.8637 17.1013 56.8836 17.0557 56.9312 17.017C56.9788 16.9784 57.0474 16.9533 57.1234 16.9554L78.1514 18.5551L78.1514 18.5551L78.156 18.5554C78.2328 18.5606 78.2956 18.5931 78.3344 18.634C78.3706 18.6722 78.3832 18.7135 78.3819 18.7489L77.6963 26.3122C77.6915 26.3414 77.6738 26.3773 77.6332 26.4081C77.5893 26.4414 77.5262 26.4618 77.4576 26.4565Z" fill="#851FEC" stroke="#1E1E1E"/>
<path opacity="0.7" d="M82.2521 50.0628L82.7452 50.0958L82.7839 49.6032L86.0426 8.18009L86.0823 7.67586L85.5776 7.642L51.0831 5.32715L50.5899 5.29405L50.5512 5.78686L47.2965 47.2172L47.2568 47.7215L47.7615 47.7553L82.2521 50.0628ZM49.9373 4.16355L86.906 6.65184L83.4017 51.2593L46.4331 48.7746L49.9373 4.16355Z" fill="white" stroke="#1E1E1E"/>
<path d="M111.336 18.0519L152.634 14.1332L158.183 63.9405L116.884 67.8592L111.336 18.0519Z" fill="#92E3A9" stroke="#1E1E1E"/>
<path opacity="0.5" d="M111.336 18.0519L152.634 14.1332L158.183 63.9405L116.884 67.8592L111.336 18.0519Z" fill="white" stroke="#1E1E1E"/>
<path d="M120.198 24.4797L145.134 22.1338C145.661 22.0843 146.062 22.4356 146.106 22.8301L149.799 56.2678C149.842 56.6623 149.526 57.0811 149 57.1307L124.063 59.4765C123.536 59.5261 123.135 59.1747 123.091 58.7802L119.398 25.3425C119.355 24.948 119.671 24.5292 120.198 24.4797Z" fill="white" stroke="#1E1E1E"/>
<path opacity="0.08" d="M136.814 45.21C136.764 45.0585 136.768 44.8973 136.826 44.7473C136.884 44.5962 136.997 44.4586 137.156 44.3605C137.314 44.2622 137.508 44.2115 137.706 44.2204C137.905 44.2292 138.091 44.2968 138.237 44.4073C138.382 44.5175 138.479 44.6624 138.52 44.8162C138.562 44.9693 138.55 45.1307 138.483 45.2791C138.416 45.4283 138.295 45.5614 138.13 45.6525C137.965 45.7436 137.769 45.785 137.572 45.7671C137.39 45.7496 137.222 45.6836 137.088 45.5821C136.954 45.4808 136.861 45.3502 136.814 45.21Z" fill="#851FEC" stroke="#1E1E1E"/>
<path opacity="0.08" d="M132.091 46.053C131.957 45.9517 131.865 45.821 131.818 45.6808C131.768 45.5292 131.772 45.3678 131.829 45.2176C131.888 45.0665 132 44.9289 132.159 44.8309C132.318 44.7326 132.511 44.6818 132.71 44.6907C132.908 44.6995 133.094 44.7671 133.24 44.8777C133.386 44.9878 133.482 45.1327 133.524 45.2865C133.565 45.4397 133.553 45.6011 133.486 45.7494C133.419 45.8986 133.298 46.0318 133.133 46.1228C132.968 46.214 132.772 46.2554 132.574 46.2374C132.393 46.2203 132.225 46.1545 132.091 46.053Z" fill="#851FEC" stroke="#1E1E1E"/>
<path opacity="0.08" d="M134.626 48.2549C134.576 48.1032 134.58 47.9415 134.638 47.7912C134.696 47.6401 134.809 47.5025 134.967 47.4045C135.126 47.3062 135.32 47.2554 135.518 47.2643C135.717 47.2732 135.903 47.3407 136.049 47.4513C136.194 47.5614 136.291 47.7063 136.332 47.8602C136.374 48.0133 136.361 48.1747 136.295 48.323C136.228 48.4722 136.107 48.6054 135.942 48.6964C135.777 48.7876 135.58 48.8291 135.382 48.8109C135.201 48.7942 135.033 48.7286 134.899 48.6271C134.765 48.5259 134.673 48.3951 134.626 48.2549Z" fill="#851FEC" stroke="#1E1E1E"/>
<path opacity="0.08" d="M147.063 50.47L145.319 50.6338L144.813 50.6813L144.868 51.1864L145.042 52.7592L143.865 52.8698L143.69 51.2809L143.636 50.7919L143.146 50.8379L141.385 51.0034L141.273 49.9925L143.018 49.8286L143.524 49.781L143.469 49.276L143.295 47.7031L144.472 47.5925L144.647 49.1814L144.701 49.6705L145.191 49.6244L146.95 49.459L147.063 50.47Z" fill="#851FEC" stroke="#1E1E1E"/>
<path opacity="0.08" d="M130.633 52.0155L128.887 52.1795L128.381 52.227L128.437 52.7321L128.61 54.3049L127.433 54.4155L127.258 52.8266L127.204 52.3376L126.715 52.3836L124.953 52.549L124.841 51.5381L126.587 51.3742L127.093 51.3267L127.037 50.8215L126.864 49.2524L128.041 49.1419L128.216 50.7272L128.27 51.2161L128.759 51.1701L130.521 51.0046L130.633 52.0155Z" fill="#851FEC" stroke="#1E1E1E"/>
<path opacity="0.08" d="M123.087 26.8436L142.825 24.9868C142.985 24.9718 143.059 25.0767 143.065 25.1327L144.807 40.905C144.813 40.961 144.764 41.0775 144.604 41.0925L124.866 42.9493C124.706 42.9643 124.632 42.8594 124.626 42.8034L122.884 27.0312C122.878 26.9751 122.927 26.8587 123.087 26.8436Z" fill="#851FEC" stroke="#1E1E1E"/>
<path opacity="0.08" d="M133.914 54.3057L138.365 53.8871L138.56 55.653L134.109 56.0717L133.914 54.3057Z" fill="#851FEC" stroke="#1E1E1E"/>
<path d="M73.4732 89.2811C73.4732 89.2811 75.1835 89.9847 76.8938 92.7917C78.6041 95.5987 102.698 108.223 103.082 111.748C103.465 115.273 104.764 115.802 99.819 116.487C94.8737 117.172 87.9259 112.477 79.556 108.248C71.1862 104.02 67.1968 104.381 67.1968 104.381L73.4732 89.2811Z" fill="white" stroke="#1E1E1E" stroke-width="1.1326" stroke-linecap="round" stroke-linejoin="round"/>
<path d="M98.1008 107.931C98.1008 107.931 92.7763 108.565 90.8883 110.625C89.0002 112.685 91.9113 115.904 93.7164 116.513C95.5215 117.121 101.02 116.647 102.564 113.961C104.109 111.274 102.908 110.632 100.846 109.222" fill="white"/>
<path d="M98.1008 107.931C98.1008 107.931 92.7763 108.565 90.8883 110.625C89.0002 112.685 91.9113 115.904 93.7164 116.513C95.5215 117.121 101.02 116.647 102.564 113.961C104.109 111.274 102.908 110.632 100.846 109.222" stroke="#1E1E1E" stroke-width="1.1326" stroke-linecap="round" stroke-linejoin="round"/>
<path d="M93.673 112.503C93.673 112.503 91.6981 113.884 91.2438 114.271C90.7896 114.657 90.122 116.341 89.6639 116.64C89.2057 116.939 87.5151 117.201 87.3255 117.632C87.1359 118.062 88.8225 118.539 90.1299 118.496C91.4374 118.452 92.4643 117.037 93.7244 116.513C94.5409 116.192 95.4104 116.003 96.2957 115.951C96.2957 115.951 97.461 113.582 96.9949 112.634C96.5288 111.686 94.7276 111.814 93.673 112.503Z" fill="white" stroke="#1E1E1E" stroke-width="1.1326" stroke-linecap="round" stroke-linejoin="round"/>
<path d="M98.3575 109.958C97.9409 109.889 97.5142 109.889 97.0975 109.958C96.0859 110.091 95.0855 110.288 94.1035 110.549C93.6177 110.775 92.8672 113.622 92.5038 114.967C92.1404 116.312 90.6987 118.736 91.3188 118.849C91.9389 118.962 93.4676 119.279 93.7283 118.415C94.1509 117.037 95.087 114.475 95.087 114.475C95.087 114.475 94.3563 116.943 94.7197 117.391C95.0831 117.839 100.917 117.726 101.648 117.5C102.379 117.274 104.077 114.362 104.199 112.79C104.29 111.453 100.194 110.282 98.3575 109.958Z" fill="white" stroke="#1E1E1E" stroke-width="1.1326" stroke-linecap="round" stroke-linejoin="round"/>
<path d="M97.22 117.588L98.717 112.2" stroke="#1E1E1E" stroke-width="1.1326" stroke-linecap="round" stroke-linejoin="round"/>
<path d="M100.396 117.504L101.798 112.419" stroke="#1E1E1E" stroke-width="1.1326" stroke-linecap="round" stroke-linejoin="round"/>
<path d="M95.0752 114.467L95.8178 112.029" stroke="#1E1E1E" stroke-width="1.1326" stroke-linecap="round" stroke-linejoin="round"/>
<path d="M83.9325 96.6521C78.0472 91.8256 71.4311 85.2966 63.8078 82.9526C61.8393 82.3684 60.0141 81.4333 58.4359 80.2003C58.4359 80.2003 53.0759 76.6934 49.6829 76.522C45.8002 76.3215 42.8022 80.1128 40.9931 82.8323C32.9511 94.9607 31.9084 108.988 31.6003 122.932H67.1968C67.1968 122.932 65.127 119.976 67.3864 111.46C67.8125 109.841 68.3616 108.251 69.0295 106.703C69.6892 106.965 70.416 107.246 71.1901 107.541C74.4212 108.77 81.8549 112.645 81.8549 112.645L90.2168 101.45C90.2168 101.45 85.6428 98.0593 83.9325 96.6521Z" fill="white" stroke="#1E1E1E" stroke-width="1.1326" stroke-linecap="round" stroke-linejoin="round"/>
<mask id="path-37-inside-1_370_23138" fill="white">
<path d="M51.4604 78.8114C50.4176 77.0944 48.1504 75.3264 44.5994 77.2147C40.0017 79.6572 26.3311 104.851 25.391 108.675C24.451 112.499 43.6554 114.952 51.1878 114.952C55.8517 114.944 60.512 114.717 65.1507 114.271L66.632 115.124C66.632 115.124 66.632 118.426 67.9512 118.769C69.2705 119.112 73.4139 119.134 74.7293 118.423C76.0446 117.712 75.6733 115.816 75.6733 115.816C75.6733 115.816 76.6134 119.64 78.1183 119.987C78.6173 120.106 79.1401 120.114 79.6429 120.008C79.7614 119.982 79.8704 119.928 79.9594 119.851C80.0483 119.775 80.1141 119.678 80.1504 119.571C80.1866 119.463 80.192 119.349 80.1661 119.239C80.1401 119.129 80.0837 119.028 80.0024 118.944L79.6074 118.51L77.0044 113.21C77.0044 113.21 76.2855 110.344 75.3454 110.344C74.4054 110.344 66.8374 110.253 66.8374 110.253C66.8374 110.253 54.0318 108.864 48.5691 107.472C43.1064 106.079 40.219 104.136 40.219 104.136L50.6941 88.3661"/>
</mask>
<path d="M51.4604 78.8114C50.4176 77.0944 48.1504 75.3264 44.5994 77.2147C40.0017 79.6572 26.3311 104.851 25.391 108.675C24.451 112.499 43.6554 114.952 51.1878 114.952C55.8517 114.944 60.512 114.717 65.1507 114.271L66.632 115.124C66.632 115.124 66.632 118.426 67.9512 118.769C69.2705 119.112 73.4139 119.134 74.7293 118.423C76.0446 117.712 75.6733 115.816 75.6733 115.816C75.6733 115.816 76.6134 119.64 78.1183 119.987C78.6173 120.106 79.1401 120.114 79.6429 120.008C79.7614 119.982 79.8704 119.928 79.9594 119.851C80.0483 119.775 80.1141 119.678 80.1504 119.571C80.1866 119.463 80.192 119.349 80.1661 119.239C80.1401 119.129 80.0837 119.028 80.0024 118.944L79.6074 118.51L77.0044 113.21C77.0044 113.21 76.2855 110.344 75.3454 110.344C74.4054 110.344 66.8374 110.253 66.8374 110.253C66.8374 110.253 54.0318 108.864 48.5691 107.472C43.1064 106.079 40.219 104.136 40.219 104.136L50.6941 88.3661" fill="white"/>
<path d="M44.5994 77.2147L45.0686 78.0978L45.0689 78.0976L44.5994 77.2147ZM51.1878 114.952L51.1878 115.952L51.1895 115.952L51.1878 114.952ZM65.1507 114.271L65.6498 113.404L65.373 113.245L65.055 113.275L65.1507 114.271ZM66.632 115.124L67.632 115.124L67.632 114.546L67.131 114.257L66.632 115.124ZM75.6733 115.816L76.6444 115.578L74.6919 116.008L75.6733 115.816ZM78.1183 119.987L78.3519 119.014L78.3425 119.012L78.1183 119.987ZM79.6429 120.008L79.8483 120.987L79.8588 120.985L79.6429 120.008ZM80.0024 118.944L79.263 119.617L79.274 119.629L79.2855 119.641L80.0024 118.944ZM79.6074 118.51L78.7098 118.951L78.7724 119.078L78.868 119.183L79.6074 118.51ZM77.0044 113.21L76.0345 113.453L76.0602 113.556L76.1068 113.651L77.0044 113.21ZM66.8374 110.253L66.7295 111.247L66.7773 111.253L66.8253 111.253L66.8374 110.253ZM40.219 104.136L39.386 103.583L38.836 104.411L39.6607 104.966L40.219 104.136ZM52.3151 78.2923C51.7154 77.3048 50.7306 76.2441 49.3163 75.7228C47.8657 75.188 46.114 75.2767 44.1299 76.3318L45.0689 78.0976C46.6357 77.2644 47.7932 77.2929 48.6246 77.5993C49.4924 77.9192 50.1626 78.601 50.6057 79.3305L52.3151 78.2923ZM44.1303 76.3316C43.3835 76.7283 42.5663 77.5102 41.7407 78.4516C40.8924 79.4189 39.9547 80.6502 38.9724 82.0481C37.0066 84.8459 34.8212 88.3708 32.7587 91.9247C30.6949 95.4809 28.745 99.0818 27.25 102.038C26.5028 103.516 25.866 104.839 25.3845 105.918C24.9132 106.974 24.5614 107.861 24.42 108.436L26.3621 108.914C26.4557 108.533 26.7367 107.796 27.211 106.733C27.675 105.693 28.2964 104.401 29.0348 102.941C30.5111 100.021 32.4425 96.4541 34.4885 92.9286C36.5359 89.4008 38.689 85.9303 40.6089 83.1979C41.5695 81.8307 42.4614 80.6631 43.2444 79.7703C44.0502 78.8515 44.6659 78.3118 45.0686 78.0978L44.1303 76.3316ZM24.42 108.436C24.1846 109.394 24.6373 110.195 25.2271 110.763C25.8053 111.319 26.6368 111.786 27.571 112.188C29.4567 112.998 32.0884 113.68 34.9218 114.229C40.602 115.331 47.3503 115.952 51.1878 115.952V113.952C47.4929 113.952 40.8728 113.347 35.3027 112.266C32.511 111.724 30.047 111.075 28.3609 110.35C27.5091 109.984 26.9358 109.632 26.6142 109.322C26.4586 109.172 26.3955 109.064 26.3721 109.005C26.3542 108.961 26.3557 108.94 26.3621 108.914L24.42 108.436ZM51.1895 115.952C55.8848 115.944 60.5765 115.715 65.2465 115.266L65.055 113.275C60.4476 113.718 55.8186 113.944 51.1861 113.952L51.1895 115.952ZM64.6517 115.137L66.1329 115.99L67.131 114.257L65.6498 113.404L64.6517 115.137ZM66.632 115.124C65.632 115.124 65.632 115.124 65.632 115.124C65.632 115.124 65.632 115.124 65.632 115.125C65.632 115.125 65.632 115.125 65.632 115.126C65.632 115.127 65.632 115.128 65.632 115.129C65.632 115.132 65.632 115.135 65.632 115.14C65.6321 115.148 65.6322 115.16 65.6324 115.174C65.6327 115.203 65.6335 115.244 65.6349 115.294C65.6378 115.396 65.6435 115.539 65.6547 115.71C65.677 116.05 65.7219 116.517 65.8144 117.004C65.9049 117.481 66.0511 118.034 66.3008 118.515C66.5427 118.982 66.9709 119.548 67.6998 119.737L68.2026 117.801C68.2719 117.819 68.2054 117.844 68.0763 117.595C67.9549 117.36 67.8537 117.023 67.7793 116.631C67.7069 116.25 67.6694 115.87 67.6504 115.58C67.641 115.436 67.6364 115.318 67.6341 115.238C67.633 115.198 67.6324 115.167 67.6322 115.148C67.6321 115.138 67.632 115.131 67.632 115.127C67.632 115.125 67.632 115.123 67.632 115.123C67.632 115.123 67.632 115.122 67.632 115.123C67.632 115.123 67.632 115.123 67.632 115.123C67.632 115.123 67.632 115.123 67.632 115.123C67.632 115.123 67.632 115.124 66.632 115.124ZM67.6998 119.737C68.5019 119.945 69.9843 120.032 71.3714 119.991C72.0822 119.969 72.8082 119.914 73.4548 119.813C74.0751 119.716 74.7202 119.564 75.2047 119.302L74.2538 117.543C74.0806 117.637 73.7146 117.748 73.1468 117.837C72.6054 117.921 71.9664 117.972 71.312 117.991C69.9688 118.031 68.7198 117.935 68.2026 117.801L67.6998 119.737ZM75.2047 119.302C76.2702 118.727 76.5961 117.689 76.6865 116.979C76.7331 116.613 76.7257 116.283 76.7079 116.048C76.6989 115.929 76.6869 115.83 76.6767 115.758C76.6715 115.722 76.6667 115.692 76.6629 115.67C76.661 115.658 76.6593 115.649 76.6579 115.641C76.6572 115.637 76.6565 115.634 76.656 115.631C76.6557 115.63 76.6555 115.628 76.6553 115.627C76.6551 115.627 76.655 115.626 76.6549 115.626C76.6549 115.625 76.6548 115.625 76.6548 115.625C76.6547 115.624 76.6546 115.624 75.6733 115.816C74.6919 116.008 74.6919 116.008 74.6918 116.008C74.6918 116.008 74.6917 116.007 74.6917 116.007C74.6916 116.007 74.6915 116.006 74.6914 116.006C74.6913 116.005 74.6912 116.005 74.6911 116.004C74.6909 116.003 74.6908 116.002 74.6907 116.002C74.6907 116.002 74.6909 116.003 74.6914 116.006C74.6923 116.011 74.6942 116.023 74.6967 116.04C74.7015 116.074 74.7083 116.129 74.7136 116.199C74.7243 116.341 74.7275 116.53 74.7025 116.727C74.6497 117.142 74.5036 117.408 74.2538 117.543L75.2047 119.302ZM75.6733 115.816C74.7022 116.055 74.7022 116.055 74.7023 116.055C74.7023 116.055 74.7024 116.056 74.7024 116.056C74.7025 116.056 74.7026 116.057 74.7027 116.057C74.7029 116.058 74.7032 116.059 74.7035 116.06C74.7042 116.063 74.7051 116.067 74.7063 116.071C74.7086 116.081 74.7118 116.093 74.7159 116.109C74.7242 116.141 74.7362 116.187 74.7517 116.244C74.7828 116.358 74.8283 116.519 74.8877 116.712C75.0057 117.097 75.1815 117.621 75.4106 118.161C75.6366 118.695 75.9307 119.285 76.296 119.782C76.6416 120.251 77.1646 120.793 77.894 120.961L78.3425 119.012C78.3195 119.007 78.1606 118.941 77.9067 118.596C77.6725 118.278 77.4494 117.847 77.2523 117.382C77.0582 116.923 76.905 116.469 76.7997 116.126C76.7474 115.955 76.7078 115.815 76.6815 115.719C76.6684 115.67 76.6587 115.633 76.6525 115.609C76.6493 115.597 76.6471 115.588 76.6457 115.583C76.6451 115.58 76.6446 115.579 76.6444 115.578C76.6443 115.577 76.6442 115.577 76.6442 115.577C76.6442 115.577 76.6442 115.577 76.6442 115.577C76.6443 115.577 76.6443 115.577 76.6443 115.577C76.6443 115.577 76.6444 115.578 75.6733 115.816ZM77.8847 120.959C78.5279 121.113 79.2007 121.123 79.8483 120.987L79.4376 119.03C79.0796 119.105 78.7066 119.1 78.3519 119.014L77.8847 120.959ZM79.8588 120.985C80.1336 120.924 80.3942 120.797 80.6127 120.608L79.306 119.094C79.3466 119.059 79.3892 119.04 79.4271 119.032L79.8588 120.985ZM80.6127 120.608C80.8317 120.419 81.0022 120.174 81.0978 119.89L79.2029 119.251C79.2261 119.182 79.2649 119.13 79.306 119.094L80.6127 120.608ZM81.0978 119.89C81.1937 119.607 81.2084 119.302 81.1393 119.009L79.1929 119.469C79.1756 119.396 79.1796 119.32 79.2029 119.251L81.0978 119.89ZM81.1393 119.009C81.0703 118.717 80.9222 118.456 80.7193 118.247L79.2855 119.641C79.2452 119.6 79.21 119.542 79.1929 119.469L81.1393 119.009ZM80.7418 118.271L80.3468 117.837L78.868 119.183L79.263 119.617L80.7418 118.271ZM80.505 118.069L77.902 112.769L76.1068 113.651L78.7098 118.951L80.505 118.069ZM77.0044 113.21C77.9743 112.966 77.9743 112.966 77.9743 112.966C77.9742 112.966 77.9742 112.966 77.9742 112.966C77.9741 112.965 77.974 112.965 77.9739 112.965C77.9737 112.964 77.9735 112.963 77.9732 112.962C77.9727 112.96 77.9719 112.957 77.971 112.953C77.9692 112.946 77.9667 112.937 77.9635 112.924C77.9571 112.9 77.9479 112.865 77.936 112.822C77.9124 112.736 77.878 112.615 77.8337 112.47C77.746 112.183 77.6162 111.792 77.4511 111.394C77.2905 111.007 77.0755 110.561 76.8039 110.196C76.5739 109.886 76.0912 109.344 75.3454 109.344V111.344C75.0697 111.344 75.0294 111.161 75.1986 111.389C75.3262 111.56 75.4672 111.831 75.6038 112.16C75.7359 112.479 75.8446 112.804 75.921 113.054C75.9589 113.178 75.988 113.281 76.0073 113.351C76.017 113.386 76.0241 113.413 76.0287 113.431C76.031 113.44 76.0326 113.446 76.0336 113.45C76.0341 113.452 76.0344 113.453 76.0345 113.453C76.0346 113.454 76.0346 113.454 76.0346 113.454C76.0346 113.454 76.0346 113.454 76.0346 113.454C76.0346 113.453 76.0345 113.453 76.0345 113.453C76.0345 113.453 76.0345 113.453 77.0044 113.21ZM75.3454 109.344C74.8828 109.344 72.7643 109.322 70.7502 109.299C69.7456 109.288 68.7704 109.276 68.0463 109.268C67.6843 109.263 67.385 109.26 67.1763 109.257C67.0719 109.256 66.9902 109.255 66.9346 109.254C66.9067 109.254 66.8854 109.254 66.8711 109.254C66.8639 109.254 66.8585 109.253 66.8549 109.253C66.8531 109.253 66.8517 109.253 66.8508 109.253C66.8503 109.253 66.85 109.253 66.8497 109.253C66.8496 109.253 66.8495 109.253 66.8495 109.253C66.8494 109.253 66.8494 109.253 66.8374 110.253C66.8253 111.253 66.8253 111.253 66.8254 111.253C66.8255 111.253 66.8255 111.253 66.8257 111.253C66.8259 111.253 66.8262 111.253 66.8267 111.253C66.8276 111.253 66.829 111.253 66.8308 111.253C66.8345 111.253 66.8399 111.253 66.8471 111.253C66.8614 111.254 66.8827 111.254 66.9106 111.254C66.9663 111.255 67.048 111.256 67.1524 111.257C67.3613 111.26 67.6606 111.263 68.0227 111.267C68.747 111.276 69.7226 111.287 70.7275 111.299C72.7325 111.322 74.868 111.344 75.3454 111.344V109.344ZM66.8374 110.253C66.9452 109.259 66.9452 109.259 66.9451 109.259C66.945 109.259 66.9449 109.259 66.9447 109.259C66.9444 109.259 66.9438 109.259 66.9431 109.259C66.9416 109.259 66.9394 109.258 66.9364 109.258C66.9304 109.258 66.9213 109.257 66.9093 109.255C66.8852 109.253 66.8493 109.249 66.8021 109.243C66.7076 109.233 66.5682 109.217 66.3885 109.197C66.0293 109.157 65.5095 109.097 64.8685 109.021C63.5863 108.87 61.8203 108.653 59.8847 108.394C55.9941 107.872 51.4828 107.183 48.8161 106.503L48.322 108.441C51.118 109.154 55.7409 109.855 59.6187 110.376C61.5674 110.637 63.3442 110.855 64.6338 111.008C65.2787 111.084 65.802 111.144 66.1644 111.185C66.3456 111.205 66.4865 111.221 66.5824 111.231C66.6303 111.237 66.6669 111.241 66.6916 111.243C66.704 111.245 66.7134 111.246 66.7197 111.246C66.7229 111.247 66.7253 111.247 66.7269 111.247C66.7278 111.247 66.7284 111.247 66.7288 111.247C66.729 111.247 66.7292 111.247 66.7293 111.247C66.7294 111.247 66.7295 111.247 66.8374 110.253ZM48.8161 106.503C46.1518 105.824 44.1238 105.012 42.7707 104.377C42.0941 104.059 41.5864 103.785 41.2525 103.594C41.0855 103.498 40.962 103.423 40.8826 103.374C40.8429 103.349 40.8142 103.331 40.7966 103.319C40.7878 103.314 40.7818 103.31 40.7786 103.307C40.777 103.306 40.7761 103.306 40.7758 103.306C40.7757 103.306 40.7758 103.306 40.776 103.306C40.7761 103.306 40.7763 103.306 40.7765 103.306C40.7766 103.306 40.7768 103.306 40.7769 103.306C40.7771 103.306 40.7773 103.307 40.219 104.136C39.6607 104.966 39.6609 104.966 39.6612 104.966C39.6612 104.966 39.6615 104.966 39.6617 104.967C39.6621 104.967 39.6625 104.967 39.663 104.967C39.6639 104.968 39.665 104.969 39.6663 104.97C39.6689 104.971 39.6722 104.974 39.6763 104.976C39.6843 104.982 39.6952 104.989 39.7088 104.998C39.7362 105.015 39.7749 105.04 39.8248 105.071C39.9247 105.133 40.0694 105.221 40.2585 105.329C40.6366 105.546 41.1922 105.845 41.9203 106.187C43.3766 106.871 45.5236 107.727 48.322 108.441L48.8161 106.503ZM41.052 104.69L51.5271 88.9194L49.8611 87.8128L39.386 103.583L41.052 104.69Z" fill="#1E1E1E" mask="url(#path-37-inside-1_370_23138)"/>
<mask id="mask0_370_23138" style="mask-type:luminance" maskUnits="userSpaceOnUse" x="25" y="76" width="56" height="45">
<mask id="path-39-inside-2_370_23138" fill="white">
<path d="M51.4604 78.8114C50.4176 77.0944 48.1504 75.3264 44.5994 77.2147C40.0017 79.6572 26.3311 104.851 25.391 108.675C24.451 112.499 43.6554 114.952 51.1878 114.952C55.8517 114.944 60.512 114.717 65.1507 114.271L66.632 115.124C66.632 115.124 66.632 118.426 67.9512 118.769C69.2705 119.112 73.4139 119.134 74.7293 118.423C76.0446 117.712 75.6733 115.816 75.6733 115.816C75.6733 115.816 76.6134 119.64 78.1183 119.987C78.6173 120.106 79.1401 120.114 79.6429 120.008C79.7614 119.982 79.8704 119.928 79.9594 119.851C80.0483 119.775 80.1141 119.678 80.1504 119.571C80.1866 119.463 80.192 119.349 80.1661 119.239C80.1401 119.129 80.0837 119.028 80.0024 118.944L79.6074 118.51L77.0044 113.21C77.0044 113.21 76.2855 110.344 75.3454 110.344C74.4054 110.344 66.8374 110.253 66.8374 110.253C66.8374 110.253 54.0318 108.864 48.5691 107.472C43.1064 106.079 40.219 104.136 40.219 104.136L50.6941 88.3661"/>
</mask>
<path d="M51.4604 78.8114C50.4176 77.0944 48.1504 75.3264 44.5994 77.2147C40.0017 79.6572 26.3311 104.851 25.391 108.675C24.451 112.499 43.6554 114.952 51.1878 114.952C55.8517 114.944 60.512 114.717 65.1507 114.271L66.632 115.124C66.632 115.124 66.632 118.426 67.9512 118.769C69.2705 119.112 73.4139 119.134 74.7293 118.423C76.0446 117.712 75.6733 115.816 75.6733 115.816C75.6733 115.816 76.6134 119.64 78.1183 119.987C78.6173 120.106 79.1401 120.114 79.6429 120.008C79.7614 119.982 79.8704 119.928 79.9594 119.851C80.0483 119.775 80.1141 119.678 80.1504 119.571C80.1866 119.463 80.192 119.349 80.1661 119.239C80.1401 119.129 80.0837 119.028 80.0024 118.944L79.6074 118.51L77.0044 113.21C77.0044 113.21 76.2855 110.344 75.3454 110.344C74.4054 110.344 66.8374 110.253 66.8374 110.253C66.8374 110.253 54.0318 108.864 48.5691 107.472C43.1064 106.079 40.219 104.136 40.219 104.136L50.6941 88.3661" fill="white"/>
<path d="M44.5994 77.2147L45.0686 78.0978L45.0689 78.0976L44.5994 77.2147ZM51.1878 114.952L51.1878 115.952L51.1895 115.952L51.1878 114.952ZM65.1507 114.271L65.6498 113.404L65.373 113.245L65.055 113.275L65.1507 114.271ZM66.632 115.124L67.632 115.124L67.632 114.546L67.131 114.257L66.632 115.124ZM75.6733 115.816L76.6444 115.578L74.6919 116.008L75.6733 115.816ZM78.1183 119.987L78.3519 119.014L78.3425 119.012L78.1183 119.987ZM79.6429 120.008L79.8483 120.987L79.8588 120.985L79.6429 120.008ZM80.0024 118.944L79.263 119.617L79.274 119.629L79.2855 119.641L80.0024 118.944ZM79.6074 118.51L78.7098 118.951L78.7724 119.078L78.868 119.183L79.6074 118.51ZM77.0044 113.21L76.0345 113.453L76.0602 113.556L76.1068 113.651L77.0044 113.21ZM66.8374 110.253L66.7295 111.247L66.7773 111.253L66.8253 111.253L66.8374 110.253ZM40.219 104.136L39.386 103.583L38.836 104.411L39.6607 104.966L40.219 104.136ZM52.3151 78.2923C51.7154 77.3048 50.7306 76.2441 49.3163 75.7228C47.8657 75.188 46.114 75.2767 44.1299 76.3318L45.0689 78.0976C46.6357 77.2644 47.7932 77.2929 48.6246 77.5993C49.4924 77.9192 50.1626 78.601 50.6057 79.3305L52.3151 78.2923ZM44.1303 76.3316C43.3835 76.7283 42.5663 77.5102 41.7407 78.4516C40.8924 79.4189 39.9547 80.6502 38.9724 82.0481C37.0066 84.8459 34.8212 88.3708 32.7587 91.9247C30.6949 95.4809 28.745 99.0818 27.25 102.038C26.5028 103.516 25.866 104.839 25.3845 105.918C24.9132 106.974 24.5614 107.861 24.42 108.436L26.3621 108.914C26.4557 108.533 26.7367 107.796 27.211 106.733C27.675 105.693 28.2964 104.401 29.0348 102.941C30.5111 100.021 32.4425 96.4541 34.4885 92.9286C36.5359 89.4008 38.689 85.9303 40.6089 83.1979C41.5695 81.8307 42.4614 80.6631 43.2444 79.7703C44.0502 78.8515 44.6659 78.3118 45.0686 78.0978L44.1303 76.3316ZM24.42 108.436C24.1846 109.394 24.6373 110.195 25.2271 110.763C25.8053 111.319 26.6368 111.786 27.571 112.188C29.4567 112.998 32.0884 113.68 34.9218 114.229C40.602 115.331 47.3503 115.952 51.1878 115.952V113.952C47.4929 113.952 40.8728 113.347 35.3027 112.266C32.511 111.724 30.047 111.075 28.3609 110.35C27.5091 109.984 26.9358 109.632 26.6142 109.322C26.4586 109.172 26.3955 109.064 26.3721 109.005C26.3542 108.961 26.3557 108.94 26.3621 108.914L24.42 108.436ZM51.1895 115.952C55.8848 115.944 60.5765 115.715 65.2465 115.266L65.055 113.275C60.4476 113.718 55.8186 113.944 51.1861 113.952L51.1895 115.952ZM64.6517 115.137L66.1329 115.99L67.131 114.257L65.6498 113.404L64.6517 115.137ZM66.632 115.124C65.632 115.124 65.632 115.124 65.632 115.124C65.632 115.124 65.632 115.124 65.632 115.125C65.632 115.125 65.632 115.125 65.632 115.126C65.632 115.127 65.632 115.128 65.632 115.129C65.632 115.132 65.632 115.135 65.632 115.14C65.6321 115.148 65.6322 115.16 65.6324 115.174C65.6327 115.203 65.6335 115.244 65.6349 115.294C65.6378 115.396 65.6435 115.539 65.6547 115.71C65.677 116.05 65.7219 116.517 65.8144 117.004C65.9049 117.481 66.0511 118.034 66.3008 118.515C66.5427 118.982 66.9709 119.548 67.6998 119.737L68.2026 117.801C68.2719 117.819 68.2054 117.844 68.0763 117.595C67.9549 117.36 67.8537 117.023 67.7793 116.631C67.7069 116.25 67.6694 115.87 67.6504 115.58C67.641 115.436 67.6364 115.318 67.6341 115.238C67.633 115.198 67.6324 115.167 67.6322 115.148C67.6321 115.138 67.632 115.131 67.632 115.127C67.632 115.125 67.632 115.123 67.632 115.123C67.632 115.123 67.632 115.122 67.632 115.123C67.632 115.123 67.632 115.123 67.632 115.123C67.632 115.123 67.632 115.123 67.632 115.123C67.632 115.123 67.632 115.124 66.632 115.124ZM67.6998 119.737C68.5019 119.945 69.9843 120.032 71.3714 119.991C72.0822 119.969 72.8082 119.914 73.4548 119.813C74.0751 119.716 74.7202 119.564 75.2047 119.302L74.2538 117.543C74.0806 117.637 73.7146 117.748 73.1468 117.837C72.6054 117.921 71.9664 117.972 71.312 117.991C69.9688 118.031 68.7198 117.935 68.2026 117.801L67.6998 119.737ZM75.2047 119.302C76.2702 118.727 76.5961 117.689 76.6865 116.979C76.7331 116.613 76.7257 116.283 76.7079 116.048C76.6989 115.929 76.6869 115.83 76.6767 115.758C76.6715 115.722 76.6667 115.692 76.6629 115.67C76.661 115.658 76.6593 115.649 76.6579 115.641C76.6572 115.637 76.6565 115.634 76.656 115.631C76.6557 115.63 76.6555 115.628 76.6553 115.627C76.6551 115.627 76.655 115.626 76.6549 115.626C76.6549 115.625 76.6548 115.625 76.6548 115.625C76.6547 115.624 76.6546 115.624 75.6733 115.816C74.6919 116.008 74.6919 116.008 74.6918 116.008C74.6918 116.008 74.6917 116.007 74.6917 116.007C74.6916 116.007 74.6915 116.006 74.6914 116.006C74.6913 116.005 74.6912 116.005 74.6911 116.004C74.6909 116.003 74.6908 116.002 74.6907 116.002C74.6907 116.002 74.6909 116.003 74.6914 116.006C74.6923 116.011 74.6942 116.023 74.6967 116.04C74.7015 116.074 74.7083 116.129 74.7136 116.199C74.7243 116.341 74.7275 116.53 74.7025 116.727C74.6497 117.142 74.5036 117.408 74.2538 117.543L75.2047 119.302ZM75.6733 115.816C74.7022 116.055 74.7022 116.055 74.7023 116.055C74.7023 116.055 74.7024 116.056 74.7024 116.056C74.7025 116.056 74.7026 116.057 74.7027 116.057C74.7029 116.058 74.7032 116.059 74.7035 116.06C74.7042 116.063 74.7051 116.067 74.7063 116.071C74.7086 116.081 74.7118 116.093 74.7159 116.109C74.7242 116.141 74.7362 116.187 74.7517 116.244C74.7828 116.358 74.8283 116.519 74.8877 116.712C75.0057 117.097 75.1815 117.621 75.4106 118.161C75.6366 118.695 75.9307 119.285 76.296 119.782C76.6416 120.251 77.1646 120.793 77.894 120.961L78.3425 119.012C78.3195 119.007 78.1606 118.941 77.9067 118.596C77.6725 118.278 77.4494 117.847 77.2523 117.382C77.0582 116.923 76.905 116.469 76.7997 116.126C76.7474 115.955 76.7078 115.815 76.6815 115.719C76.6684 115.67 76.6587 115.633 76.6525 115.609C76.6493 115.597 76.6471 115.588 76.6457 115.583C76.6451 115.58 76.6446 115.579 76.6444 115.578C76.6443 115.577 76.6442 115.577 76.6442 115.577C76.6442 115.577 76.6442 115.577 76.6442 115.577C76.6443 115.577 76.6443 115.577 76.6443 115.577C76.6443 115.577 76.6444 115.578 75.6733 115.816ZM77.8847 120.959C78.5279 121.113 79.2007 121.123 79.8483 120.987L79.4376 119.03C79.0796 119.105 78.7066 119.1 78.3519 119.014L77.8847 120.959ZM79.8588 120.985C80.1336 120.924 80.3942 120.797 80.6127 120.608L79.306 119.094C79.3466 119.059 79.3892 119.04 79.4271 119.032L79.8588 120.985ZM80.6127 120.608C80.8317 120.419 81.0022 120.174 81.0978 119.89L79.2029 119.251C79.2261 119.182 79.2649 119.13 79.306 119.094L80.6127 120.608ZM81.0978 119.89C81.1937 119.607 81.2084 119.302 81.1393 119.009L79.1929 119.469C79.1756 119.396 79.1796 119.32 79.2029 119.251L81.0978 119.89ZM81.1393 119.009C81.0703 118.717 80.9222 118.456 80.7193 118.247L79.2855 119.641C79.2452 119.6 79.21 119.542 79.1929 119.469L81.1393 119.009ZM80.7418 118.271L80.3468 117.837L78.868 119.183L79.263 119.617L80.7418 118.271ZM80.505 118.069L77.902 112.769L76.1068 113.651L78.7098 118.951L80.505 118.069ZM77.0044 113.21C77.9743 112.966 77.9743 112.966 77.9743 112.966C77.9742 112.966 77.9742 112.966 77.9742 112.966C77.9741 112.965 77.974 112.965 77.9739 112.965C77.9737 112.964 77.9735 112.963 77.9732 112.962C77.9727 112.96 77.9719 112.957 77.971 112.953C77.9692 112.946 77.9667 112.937 77.9635 112.924C77.9571 112.9 77.9479 112.865 77.936 112.822C77.9124 112.736 77.878 112.615 77.8337 112.47C77.746 112.183 77.6162 111.792 77.4511 111.394C77.2905 111.007 77.0755 110.561 76.8039 110.196C76.5739 109.886 76.0912 109.344 75.3454 109.344V111.344C75.0697 111.344 75.0294 111.161 75.1986 111.389C75.3262 111.56 75.4672 111.831 75.6038 112.16C75.7359 112.479 75.8446 112.804 75.921 113.054C75.9589 113.178 75.988 113.281 76.0073 113.351C76.017 113.386 76.0241 113.413 76.0287 113.431C76.031 113.44 76.0326 113.446 76.0336 113.45C76.0341 113.452 76.0344 113.453 76.0345 113.453C76.0346 113.454 76.0346 113.454 76.0346 113.454C76.0346 113.454 76.0346 113.454 76.0346 113.454C76.0346 113.453 76.0345 113.453 76.0345 113.453C76.0345 113.453 76.0345 113.453 77.0044 113.21ZM75.3454 109.344C74.8828 109.344 72.7643 109.322 70.7502 109.299C69.7456 109.288 68.7704 109.276 68.0463 109.268C67.6843 109.263 67.385 109.26 67.1763 109.257C67.0719 109.256 66.9902 109.255 66.9346 109.254C66.9067 109.254 66.8854 109.254 66.8711 109.254C66.8639 109.254 66.8585 109.253 66.8549 109.253C66.8531 109.253 66.8517 109.253 66.8508 109.253C66.8503 109.253 66.85 109.253 66.8497 109.253C66.8496 109.253 66.8495 109.253 66.8495 109.253C66.8494 109.253 66.8494 109.253 66.8374 110.253C66.8253 111.253 66.8253 111.253 66.8254 111.253C66.8255 111.253 66.8255 111.253 66.8257 111.253C66.8259 111.253 66.8262 111.253 66.8267 111.253C66.8276 111.253 66.829 111.253 66.8308 111.253C66.8345 111.253 66.8399 111.253 66.8471 111.253C66.8614 111.254 66.8827 111.254 66.9106 111.254C66.9663 111.255 67.048 111.256 67.1524 111.257C67.3613 111.26 67.6606 111.263 68.0227 111.267C68.747 111.276 69.7226 111.287 70.7275 111.299C72.7325 111.322 74.868 111.344 75.3454 111.344V109.344ZM66.8374 110.253C66.9452 109.259 66.9452 109.259 66.9451 109.259C66.945 109.259 66.9449 109.259 66.9447 109.259C66.9444 109.259 66.9438 109.259 66.9431 109.259C66.9416 109.259 66.9394 109.258 66.9364 109.258C66.9304 109.258 66.9213 109.257 66.9093 109.255C66.8852 109.253 66.8493 109.249 66.8021 109.243C66.7076 109.233 66.5682 109.217 66.3885 109.197C66.0293 109.157 65.5095 109.097 64.8685 109.021C63.5863 108.87 61.8203 108.653 59.8847 108.394C55.9941 107.872 51.4828 107.183 48.8161 106.503L48.322 108.441C51.118 109.154 55.7409 109.855 59.6187 110.376C61.5674 110.637 63.3442 110.855 64.6338 111.008C65.2787 111.084 65.802 111.144 66.1644 111.185C66.3456 111.205 66.4865 111.221 66.5824 111.231C66.6303 111.237 66.6669 111.241 66.6916 111.243C66.704 111.245 66.7134 111.246 66.7197 111.246C66.7229 111.247 66.7253 111.247 66.7269 111.247C66.7278 111.247 66.7284 111.247 66.7288 111.247C66.729 111.247 66.7292 111.247 66.7293 111.247C66.7294 111.247 66.7295 111.247 66.8374 110.253ZM48.8161 106.503C46.1518 105.824 44.1238 105.012 42.7707 104.377C42.0941 104.059 41.5864 103.785 41.2525 103.594C41.0855 103.498 40.962 103.423 40.8826 103.374C40.8429 103.349 40.8142 103.331 40.7966 103.319C40.7878 103.314 40.7818 103.31 40.7786 103.307C40.777 103.306 40.7761 103.306 40.7758 103.306C40.7757 103.306 40.7758 103.306 40.776 103.306C40.7761 103.306 40.7763 103.306 40.7765 103.306C40.7766 103.306 40.7768 103.306 40.7769 103.306C40.7771 103.306 40.7773 103.307 40.219 104.136C39.6607 104.966 39.6609 104.966 39.6612 104.966C39.6612 104.966 39.6615 104.966 39.6617 104.967C39.6621 104.967 39.6625 104.967 39.663 104.967C39.6639 104.968 39.665 104.969 39.6663 104.97C39.6689 104.971 39.6722 104.974 39.6763 104.976C39.6843 104.982 39.6952 104.989 39.7088 104.998C39.7362 105.015 39.7749 105.04 39.8248 105.071C39.9247 105.133 40.0694 105.221 40.2585 105.329C40.6366 105.546 41.1922 105.845 41.9203 106.187C43.3766 106.871 45.5236 107.727 48.322 108.441L48.8161 106.503ZM41.052 104.69L51.5271 88.9194L49.8611 87.8128L39.386 103.583L41.052 104.69Z" fill="white" mask="url(#path-39-inside-2_370_23138)"/>
</mask>
<g mask="url(#mask0_370_23138)">
<path d="M30.7126 102.961L30.5223 103.516L31.1009 103.616L31.1856 103.123C31.1009 103.616 31.1009 103.616 31.101 103.616L31.1013 103.616L31.1026 103.616L31.108 103.617L31.129 103.62L31.2111 103.634L31.5223 103.688C31.7903 103.734 32.1724 103.8 32.6295 103.88C33.5436 104.038 34.7569 104.25 35.9541 104.461C36.5574 104.567 37.1563 104.674 37.7104 104.773C37.1872 104.871 36.6206 104.979 36.0394 105.093C33.8802 105.515 31.4897 106.018 30.3821 106.331C30.0708 106.419 29.7678 106.559 29.5629 106.792C29.3287 107.059 29.265 107.401 29.3838 107.738C29.4884 108.034 29.7204 108.292 29.9977 108.515C30.2833 108.745 30.6626 108.974 31.1312 109.2C32.9954 110.099 36.5159 111.068 42.1126 111.763C47.7095 112.458 52.6779 112.767 56.5984 112.94C58.083 113.006 59.4095 113.052 60.5608 113.092C62.4677 113.158 63.8942 113.208 64.7635 113.302C66.0631 113.451 67.378 114.107 68.3329 114.926C68.8088 115.334 69.1782 115.767 69.4097 116.176C69.6438 116.589 69.7135 116.933 69.6708 117.188C69.5851 117.653 69.3419 118.087 68.9698 118.427C68.6671 118.4 68.367 118.352 68.0721 118.284C67.9428 118.248 67.7878 118.124 67.6324 117.825C67.479 117.529 67.3666 117.138 67.2881 116.724C67.2107 116.317 67.1713 115.915 67.1515 115.612C67.1417 115.462 67.1368 115.338 67.1344 115.252C67.1332 115.209 67.1326 115.176 67.1323 115.154L67.132 115.13L67.132 115.124L67.132 115.124V115.123V115.123V114.834L66.8815 114.69L65.4003 113.837L65.2619 113.758L65.1029 113.773C60.4801 114.218 55.8357 114.444 51.1879 114.452C47.4573 114.452 40.8041 113.843 35.206 112.757C32.4036 112.213 29.8976 111.556 28.1618 110.81C27.2895 110.435 26.6518 110.054 26.2664 109.682C25.8869 109.317 25.8177 109.033 25.8765 108.795L25.8766 108.794C26.0075 108.261 26.4306 107.213 27.0989 105.772C27.7601 104.346 28.6433 102.574 29.6703 100.614C31.0782 97.9277 32.7531 94.8956 34.492 91.9294L30.7126 102.961Z" fill="#92E3A9" stroke="#1E1E1E"/>
<path opacity="0.5" d="M30.7126 102.961L30.5223 103.516L31.1009 103.616L31.1856 103.123C31.1009 103.616 31.1009 103.616 31.101 103.616L31.1013 103.616L31.1026 103.616L31.108 103.617L31.129 103.62L31.2111 103.634L31.5223 103.688C31.7903 103.734 32.1724 103.8 32.6295 103.88C33.5436 104.038 34.7569 104.25 35.9541 104.461C36.5574 104.567 37.1563 104.674 37.7104 104.773C37.1872 104.871 36.6206 104.979 36.0394 105.093C33.8802 105.515 31.4897 106.018 30.3821 106.331C30.0708 106.419 29.7678 106.559 29.5629 106.792C29.3287 107.059 29.265 107.401 29.3838 107.738C29.4884 108.034 29.7204 108.292 29.9977 108.515C30.2833 108.745 30.6626 108.974 31.1312 109.2C32.9954 110.099 36.5159 111.068 42.1126 111.763C47.7095 112.458 52.6779 112.767 56.5984 112.94C58.083 113.006 59.4095 113.052 60.5608 113.092C62.4677 113.158 63.8942 113.208 64.7635 113.302C66.0631 113.451 67.378 114.107 68.3329 114.926C68.8088 115.334 69.1782 115.767 69.4097 116.176C69.6438 116.589 69.7135 116.933 69.6708 117.188C69.5851 117.653 69.3419 118.087 68.9698 118.427C68.6671 118.4 68.367 118.352 68.0721 118.284C67.9428 118.248 67.7878 118.124 67.6324 117.825C67.479 117.529 67.3666 117.138 67.2881 116.724C67.2107 116.317 67.1713 115.915 67.1515 115.612C67.1417 115.462 67.1368 115.338 67.1344 115.252C67.1332 115.209 67.1326 115.176 67.1323 115.154L67.132 115.13L67.132 115.124L67.132 115.124V115.123V115.123V114.834L66.8815 114.69L65.4003 113.837L65.2619 113.758L65.1029 113.773C60.4801 114.218 55.8357 114.444 51.1879 114.452C47.4573 114.452 40.8041 113.843 35.206 112.757C32.4036 112.213 29.8976 111.556 28.1618 110.81C27.2895 110.435 26.6518 110.054 26.2664 109.682C25.8869 109.317 25.8177 109.033 25.8765 108.795L25.8766 108.794C26.0075 108.261 26.4306 107.213 27.0989 105.772C27.7601 104.346 28.6433 102.574 29.6703 100.614C31.0782 97.9277 32.7531 94.8956 34.492 91.9294L30.7126 102.961Z" fill="white" stroke="#1E1E1E"/>
</g>
<path d="M51.4604 78.8114C50.4176 77.0944 48.1504 75.3264 44.5994 77.2147C40.0017 79.6572 26.3311 104.851 25.391 108.675C24.451 112.499 43.6554 114.952 51.1878 114.952C55.8517 114.944 60.512 114.717 65.1507 114.271L66.632 115.124C66.632 115.124 66.632 118.426 67.9512 118.769C69.2705 119.112 73.4139 119.134 74.7293 118.423C76.0446 117.712 75.6733 115.816 75.6733 115.816C75.6733 115.816 76.6134 119.64 78.1183 119.987C78.6173 120.106 79.1401 120.114 79.6429 120.008C79.7614 119.982 79.8704 119.928 79.9594 119.851C80.0483 119.775 80.1141 119.678 80.1504 119.571C80.1866 119.463 80.192 119.349 80.1661 119.239C80.1401 119.129 80.0837 119.028 80.0024 118.944L79.6074 118.51L77.0044 113.21C77.0044 113.21 76.2855 110.344 75.3454 110.344C74.4054 110.344 66.8374 110.253 66.8374 110.253C66.8374 110.253 54.0318 108.864 48.5691 107.472C43.1064 106.079 40.219 104.136 40.219 104.136L50.6941 88.3661" stroke="#1E1E1E" stroke-width="1.1326" stroke-linecap="round" stroke-linejoin="round"/>
<path d="M72.699 113.151C72.699 113.151 74.0972 116.935 74.0972 117.555C74.0766 117.985 73.9624 118.406 73.7615 118.795" stroke="#1E1E1E" stroke-width="1.1326" stroke-linecap="round" stroke-linejoin="round"/>
<path d="M70.2975 113.735C70.2975 113.735 71.6365 117.245 71.7511 117.967C71.7963 118.151 71.7892 118.343 71.7303 118.524C71.6715 118.704 71.563 118.868 71.4153 118.999" stroke="#1E1E1E" stroke-width="1.1326" stroke-linecap="round" stroke-linejoin="round"/>
<path d="M75.6733 115.802L74.7687 112.601" stroke="#1E1E1E" stroke-width="1.1326" stroke-linecap="round" stroke-linejoin="round"/>
<path d="M66.632 115.105L68.5042 115.696C68.5042 115.696 69.626 116.214 68.7294 116.935" fill="white"/>
<path d="M66.632 115.105L68.5042 115.696C68.5042 115.696 69.626 116.214 68.7294 116.935" stroke="#1E1E1E" stroke-width="1.1326" stroke-linecap="round" stroke-linejoin="round"/>
<path d="M52.1753 79.2598C52.1753 79.2598 51.1721 76.1612 47.1432 76.0591C43.1143 75.9571 40.219 80.2915 38.3072 82.8725C36.3955 85.4534 31.3752 95.4638 30.8024 96.7032C30.2297 97.9427 27.0026 103.309 27.0026 103.309C27.0026 103.309 28.6774 104.767 32.7063 104.767H41.5422C41.5422 104.767 41.874 104.661 42.0991 103.735C42.2144 103.329 42.2897 102.914 42.3243 102.496L52.3886 87.1158" fill="white"/>
<path d="M52.1753 79.2598C52.1753 79.2598 51.1721 76.1612 47.1432 76.0591C43.1143 75.9571 40.219 80.2915 38.3072 82.8725C36.3955 85.4534 31.3752 95.4638 30.8024 96.7032C30.2297 97.9427 27.0026 103.309 27.0026 103.309C27.0026 103.309 28.6774 104.767 32.7063 104.767H41.5422C41.5422 104.767 41.874 104.661 42.0991 103.735C42.2144 103.329 42.2897 102.914 42.3243 102.496L52.3886 87.1158" stroke="#1E1E1E" stroke-width="1.1326" stroke-linecap="round" stroke-linejoin="round"/>
<path d="M79.6508 115.146L80.4487 116.99" stroke="#1E1E1E" stroke-width="1.1326" stroke-linecap="round" stroke-linejoin="round"/>
<path d="M80.2512 113.855L81.2505 116.068" stroke="#1E1E1E" stroke-width="1.1326" stroke-linecap="round" stroke-linejoin="round"/>
<path d="M73.3744 99.0544L69.0295 106.699L75.7799 101.118" stroke="#1E1E1E" stroke-width="1.1326" stroke-linecap="round" stroke-linejoin="round"/>
<path d="M63.8078 82.9526C61.8393 82.3685 60.0141 81.4334 58.4359 80.2003C58.4359 80.2003 57.5511 79.6207 56.2753 78.9244C56.9824 82.1215 59.143 91.3189 60.8414 92.8755C62.4727 94.3811 65.9289 87.9469 67.3035 84.3306C66.1794 83.787 65.0105 83.3263 63.8078 82.9526Z" fill="white" stroke="#1E1E1E" stroke-width="1.1326" stroke-linecap="round" stroke-linejoin="round"/>
<path d="M74.6266 76.9923C77.264 76.9923 79.402 74.4625 79.402 71.3418C79.402 68.2212 77.264 65.6914 74.6266 65.6914C71.9892 65.6914 69.8511 68.2212 69.8511 71.3418C69.8511 74.4625 71.9892 76.9923 74.6266 76.9923Z" fill="white" stroke="#1E1E1E" stroke-width="1.1326" stroke-linecap="round" stroke-linejoin="round"/>
<path d="M58.8779 74.0578C58.9249 73.171 58.9816 72.3463 59.032 71.6832C59.4154 72.2051 59.8792 72.7383 60.3815 73.2637C61.3642 74.2917 62.5373 75.3336 63.6592 76.2628C64.7823 77.193 65.8612 78.016 66.6589 78.6062C67.0484 78.8945 67.3714 79.1276 67.6003 79.2909C67.4675 79.5187 67.2825 79.836 67.0592 80.2198C66.5873 81.0306 65.9439 82.1381 65.2576 83.3247C63.8866 85.6949 62.3393 88.3902 61.6499 89.6626C61.6197 89.7183 61.5943 89.7582 61.5739 89.7864C61.5332 89.7451 61.4819 89.6823 61.4217 89.5915C61.0979 89.1025 60.744 88.1564 60.4009 86.9679C59.7243 84.624 59.1574 81.5894 58.93 80.1236C58.7101 78.7066 58.763 76.227 58.8779 74.0578ZM61.5154 89.8499C61.5153 89.8494 61.5182 89.8471 61.524 89.8442C61.5183 89.849 61.5154 89.8504 61.5154 89.8499ZM61.6395 89.8414C61.64 89.8417 61.6402 89.8418 61.6402 89.8418L61.6395 89.8414Z" fill="white" stroke="#1E1E1E"/>
<mask id="mask1_370_23138" style="mask-type:luminance" maskUnits="userSpaceOnUse" x="58" y="70" width="11" height="21">
<path d="M58.8779 74.0578C58.9249 73.171 58.9816 72.3463 59.032 71.6832C59.4154 72.2051 59.8792 72.7383 60.3815 73.2637C61.3642 74.2917 62.5373 75.3336 63.6592 76.2628C64.7823 77.193 65.8612 78.016 66.6589 78.6062C67.0484 78.8945 67.3714 79.1276 67.6003 79.2909C67.4675 79.5187 67.2825 79.836 67.0592 80.2198C66.5873 81.0306 65.9439 82.1381 65.2576 83.3247C63.8866 85.6949 62.3393 88.3902 61.6499 89.6626C61.6197 89.7183 61.5943 89.7582 61.5739 89.7864C61.5332 89.7451 61.4819 89.6823 61.4217 89.5915C61.0979 89.1025 60.744 88.1564 60.4009 86.9679C59.7243 84.624 59.1574 81.5894 58.93 80.1236C58.7101 78.7066 58.763 76.227 58.8779 74.0578ZM61.5154 89.8499C61.5153 89.8494 61.5182 89.8471 61.524 89.8442C61.5183 89.849 61.5154 89.8504 61.5154 89.8499ZM61.6395 89.8414C61.64 89.8417 61.6402 89.8418 61.6402 89.8418L61.6395 89.8414Z" fill="white" stroke="white"/>
</mask>
<g mask="url(#mask1_370_23138)">
<path d="M66.6452 78.606C67.0343 78.8944 67.3568 79.1276 67.5852 79.2909L67.1271 80.0788L64.8612 82.2746L59.846 84.8122C59.424 82.9943 59.0881 81.1612 58.9302 80.125L58.93 80.1236C58.7101 78.7066 58.763 76.227 58.8779 74.0578C58.9249 73.1713 58.9816 72.3469 59.032 71.684C59.4147 72.2055 59.8776 72.7383 60.3788 73.2634C61.3599 74.2914 62.5311 75.3334 63.6509 76.2625C64.7721 77.1927 65.849 78.0158 66.6452 78.606Z" fill="#92E3A9" stroke="#1E1E1E"/>
<path opacity="0.5" d="M66.6452 78.606C67.0343 78.8944 67.3568 79.1276 67.5852 79.2909L67.1271 80.0788L64.8612 82.2746L59.846 84.8122C59.424 82.9943 59.0881 81.1612 58.9302 80.125L58.93 80.1236C58.7101 78.7066 58.763 76.227 58.8779 74.0578C58.9249 73.1713 58.9816 72.3469 59.032 71.684C59.4147 72.2055 59.8776 72.7383 60.3788 73.2634C61.3599 74.2914 62.5311 75.3334 63.6509 76.2625C64.7721 77.1927 65.849 78.0158 66.6452 78.606Z" fill="white" stroke="#1E1E1E"/>
</g>
<path d="M58.665 70.0769C58.665 70.0769 57.9777 77.2475 58.4359 80.2003C58.8941 83.1531 60.7189 92.4307 62.0895 89.9008C63.4602 87.3709 68.2632 79.1468 68.2632 79.1468C68.2632 79.1468 60.0356 73.4526 58.665 70.0769Z" stroke="#1E1E1E" stroke-width="1.1326" stroke-linecap="round" stroke-linejoin="round"/>
<path d="M57.2904 68.812C57.2904 68.812 55.7104 59.9536 57.0653 56.5779C58.4201 53.2022 63.4641 51.518 69.4048 53.2059C75.3454 54.8937 78.7739 56.5779 79.6745 60.3765C80.5751 64.175 77.3915 66.4935 77.3915 66.4935C77.3915 66.4935 74.6463 60.5879 71.4666 59.9536C68.2869 59.3193 65.2969 59.1115 65.755 61.2186C66.2132 63.3256 66.4423 66.0706 65.0717 67.1242C63.7011 68.1777 63.472 68.6006 62.7847 70.2884C62.0974 71.9762 60.0435 73.6641 58.4398 71.7466C56.8362 69.8291 57.2904 68.812 57.2904 68.812Z" fill="#263238" stroke="#1E1E1E" stroke-width="1.1326" stroke-linecap="round" stroke-linejoin="round"/>
<path d="M58.3969 69.5243L58.397 69.5247L58.397 69.525L58.3971 69.5254L58.3971 69.5255L58.4087 69.5952L58.4399 69.6599C58.5628 69.9147 58.6881 70.13 58.8193 70.2988C58.9459 70.4617 59.1083 70.6209 59.3178 70.7038C59.5571 70.7986 59.8035 70.772 60.0118 70.6493C60.1944 70.5419 60.3231 70.3764 60.415 70.2258C60.6001 69.9227 60.7462 69.4934 60.8714 69.0316C60.9997 68.5585 61.1182 68.0037 61.2332 67.4215C61.3317 66.9232 61.4994 66.7032 61.6458 66.5896C61.8036 66.4671 62.0128 66.4074 62.3168 66.3705C62.4145 66.3587 62.5037 66.3508 62.6003 66.3422C62.6619 66.3367 62.7266 66.331 62.7984 66.3238C62.9672 66.3069 63.1554 66.2832 63.341 66.2356C63.7307 66.1356 64.1254 65.9239 64.3815 65.4526C64.6567 64.9461 64.5551 64.3206 64.4036 63.7917C64.2553 63.2738 64.0103 62.6959 63.7745 62.1398C63.7568 62.0981 63.7392 62.0566 63.7217 62.0152C63.4631 61.4041 63.2209 60.8174 63.081 60.2845C62.9381 59.7402 62.928 59.3439 63.0357 59.0748C63.0451 59.0514 63.122 58.9364 63.436 58.7974C63.7279 58.6681 64.1423 58.555 64.6617 58.4731C65.6966 58.3097 67.0678 58.2822 68.5205 58.4366C69.9724 58.591 71.4819 58.9247 72.7986 59.469C74.12 60.0153 75.2088 60.7577 75.8719 61.7056C77.3105 63.762 77.6556 65.1449 77.6783 65.9672C77.6896 66.378 77.621 66.6576 77.5603 66.8225C77.5298 66.9056 77.5005 66.9615 77.4828 66.992C77.4752 67.0049 77.4697 67.0134 77.467 67.0173L77.3851 67.1182L77.3662 67.257L77.3661 67.2574L77.3659 67.2588L77.365 67.2651L77.3615 67.2909L77.3468 67.3935C77.3337 67.484 77.3139 67.6176 77.2875 67.7889C77.2346 68.1316 77.155 68.6251 77.0483 69.2262C76.8349 70.429 76.5138 72.059 76.0831 73.7717C75.6517 75.4868 75.1135 77.2718 74.4686 78.7896C73.8156 80.3264 73.0842 81.5126 72.3039 82.1111L72.3039 82.1111C69.3767 84.3568 64.1459 83.9121 61.1013 80.3009L61.1006 80.3C59.2523 78.1174 58.1065 75.5054 57.7871 72.7605L57.7717 72.6277L57.6921 72.5205L57.6921 72.5204L57.692 72.5203L57.6909 72.5189L57.6857 72.5118L57.6637 72.4813C57.644 72.4539 57.6148 72.4128 57.578 72.3596C57.5043 72.2532 57.4005 72.0989 57.2818 71.9102C57.0432 71.5307 56.7508 71.0216 56.5222 70.4879C56.2893 69.9444 56.1436 69.4231 56.1523 69.0054C56.1604 68.6196 56.2923 68.3646 56.6065 68.2032C57.0328 67.9842 57.3077 67.9935 57.4836 68.0509C57.672 68.1124 57.8413 68.2598 57.9905 68.4824C58.139 68.704 58.2426 68.9637 58.3096 69.1792C58.3424 69.2847 58.3649 69.3746 58.3789 69.4369C58.3859 69.4679 58.3907 69.4918 58.3937 69.5069L58.3967 69.5228L58.3969 69.5243Z" fill="white" stroke="#1E1E1E"/>
<mask id="mask2_370_23138" style="mask-type:luminance" maskUnits="userSpaceOnUse" x="55" y="57" width="24" height="27">
<path d="M58.3969 69.5243L58.397 69.5247L58.397 69.525L58.3971 69.5254L58.3971 69.5255L58.4087 69.5952L58.4399 69.6599C58.5628 69.9147 58.6881 70.13 58.8193 70.2988C58.9459 70.4617 59.1083 70.6209 59.3178 70.7038C59.5571 70.7986 59.8035 70.772 60.0118 70.6493C60.1944 70.5419 60.3231 70.3764 60.415 70.2258C60.6001 69.9227 60.7462 69.4934 60.8714 69.0316C60.9997 68.5585 61.1182 68.0037 61.2332 67.4215C61.3317 66.9232 61.4994 66.7032 61.6458 66.5896C61.8036 66.4671 62.0128 66.4074 62.3168 66.3705C62.4145 66.3587 62.5037 66.3508 62.6003 66.3422C62.6619 66.3367 62.7266 66.331 62.7984 66.3238C62.9672 66.3069 63.1554 66.2832 63.341 66.2356C63.7307 66.1356 64.1254 65.9239 64.3815 65.4526C64.6567 64.9461 64.5551 64.3206 64.4036 63.7917C64.2553 63.2738 64.0103 62.6959 63.7745 62.1398C63.7568 62.0981 63.7392 62.0566 63.7217 62.0152C63.4631 61.4041 63.2209 60.8174 63.081 60.2845C62.9381 59.7402 62.928 59.3439 63.0357 59.0748C63.0451 59.0514 63.122 58.9364 63.436 58.7974C63.7279 58.6681 64.1423 58.555 64.6617 58.4731C65.6966 58.3097 67.0678 58.2822 68.5205 58.4366C69.9724 58.591 71.4819 58.9247 72.7986 59.469C74.12 60.0153 75.2088 60.7577 75.8719 61.7056C77.3105 63.762 77.6556 65.1449 77.6783 65.9672C77.6896 66.378 77.621 66.6576 77.5603 66.8225C77.5298 66.9056 77.5005 66.9615 77.4828 66.992C77.4752 67.0049 77.4697 67.0134 77.467 67.0173L77.3851 67.1182L77.3662 67.257L77.3661 67.2574L77.3659 67.2588L77.365 67.2651L77.3615 67.2909L77.3468 67.3935C77.3337 67.484 77.3139 67.6176 77.2875 67.7889C77.2346 68.1316 77.155 68.6251 77.0483 69.2262C76.8349 70.429 76.5138 72.059 76.0831 73.7717C75.6517 75.4868 75.1135 77.2718 74.4686 78.7896C73.8156 80.3264 73.0842 81.5126 72.3039 82.1111L72.3039 82.1111C69.3767 84.3568 64.1459 83.9121 61.1013 80.3009L61.1006 80.3C59.2523 78.1174 58.1065 75.5054 57.7871 72.7605L57.7717 72.6277L57.6921 72.5205L57.6921 72.5204L57.692 72.5203L57.6909 72.5189L57.6857 72.5118L57.6637 72.4813C57.644 72.4539 57.6148 72.4128 57.578 72.3596C57.5043 72.2532 57.4005 72.0989 57.2818 71.9102C57.0432 71.5307 56.7508 71.0216 56.5222 70.4879C56.2893 69.9444 56.1436 69.4231 56.1523 69.0054C56.1604 68.6196 56.2923 68.3646 56.6065 68.2032C57.0328 67.9842 57.3077 67.9935 57.4836 68.0509C57.672 68.1124 57.8413 68.2598 57.9905 68.4824C58.139 68.704 58.2426 68.9637 58.3096 69.1792C58.3424 69.2847 58.3649 69.3746 58.3789 69.4369C58.3859 69.4679 58.3907 69.4918 58.3937 69.5069L58.3967 69.5228L58.3969 69.5243Z" fill="white" stroke="white"/>
</mask>
<g mask="url(#mask2_370_23138)">
<path d="M75.8491 61.7177L75.8491 61.7178L75.8524 61.7223C76.2447 62.2663 76.5937 62.8351 76.897 63.4243L74.8421 64.6507C74.8271 64.6495 74.8102 64.6478 74.7914 64.6456C74.6675 64.631 74.4609 64.5919 74.1731 64.4888C73.5971 64.2826 72.6912 63.8182 71.4719 62.7743L71.4416 62.7483C70.2263 61.7079 69.3486 60.9564 68.6233 60.5965C68.24 60.4062 67.8565 60.3016 67.4557 60.3392C67.0555 60.3767 66.6996 60.5503 66.3607 60.803C66.1193 60.9831 65.9112 61.3005 65.7315 61.6296C65.5406 61.9792 65.3412 62.4206 65.1383 62.9214C64.9397 63.4115 64.7338 63.9683 64.5251 64.5677C64.508 64.3062 64.4491 64.0443 64.3799 63.8025C64.2316 63.2847 63.9866 62.7068 63.7508 62.1506C63.7332 62.109 63.7155 62.0674 63.698 62.026C63.4394 61.415 63.1972 60.8282 63.0573 60.2954C62.9144 59.7511 62.9043 59.3547 63.012 59.0857C63.0215 59.062 63.0985 58.947 63.4117 58.8081C63.7031 58.6789 64.1168 58.5659 64.6353 58.4839C65.6686 58.3206 67.0379 58.293 68.4894 58.4475C69.9399 58.6018 71.449 58.9355 72.7667 59.4799C74.089 60.0263 75.1809 60.7689 75.8491 61.7177ZM61.621 79.2926C62.0517 80.6042 62.8695 81.7396 64.0937 82.6045C62.9196 82.0578 61.8974 81.2713 61.1056 80.306L61.1056 80.3059L61.1006 80.3C59.2523 78.1174 58.1065 75.5053 57.7871 72.7604L57.7717 72.6276L57.6921 72.5204L57.6921 72.5204L57.692 72.5202L57.6909 72.5188L57.6857 72.5117L57.6637 72.4812C57.644 72.4538 57.6148 72.4127 57.578 72.3595C57.5043 72.2531 57.4005 72.0988 57.2818 71.9101C57.0432 71.5307 56.7508 71.0215 56.5222 70.4878C56.2893 69.9443 56.1436 69.423 56.1523 69.0054C56.1604 68.6195 56.2923 68.3645 56.6065 68.2031C57.0328 67.9841 57.3077 67.9934 57.4836 68.0508C57.672 68.1123 57.8413 68.2598 57.9905 68.4824C58.139 68.7039 58.2426 68.9637 58.3096 69.1791C58.3424 69.2846 58.3649 69.3745 58.3789 69.4368C58.3859 69.4678 58.3907 69.4917 58.3937 69.5068L58.3967 69.5228L58.3969 69.5243L58.397 69.5246L58.397 69.5249L58.3971 69.5253L58.3971 69.5254L58.4086 69.5949L58.4397 69.6595C58.5624 69.9143 58.6869 70.1294 58.8168 70.2983C58.9417 70.4607 59.1021 70.6207 59.3094 70.7051C59.5477 70.8023 59.7953 70.7779 60.0052 70.6538C60.1877 70.5459 60.315 70.3794 60.405 70.2296C60.5865 69.9276 60.7292 69.4995 60.8519 69.0393C60.9777 68.5676 61.0946 68.0137 61.2095 67.4324C61.308 66.9341 61.4757 66.714 61.6221 66.6005C61.7799 66.478 61.9891 66.4183 62.2931 66.3814C62.3908 66.3695 62.48 66.3616 62.5766 66.3531C62.6382 66.3476 62.7029 66.3419 62.7747 66.3347C62.9435 66.3178 63.1317 66.2941 63.3173 66.2465C63.5961 66.1749 63.8776 66.0462 64.1089 65.806C64.0279 66.0546 63.9469 66.3072 63.8663 66.5623C63.1495 68.8299 62.4479 71.3311 61.9461 73.1201C61.8478 73.4704 61.7572 73.7934 61.6756 74.0821C61.1562 75.9201 61.1031 77.7155 61.621 79.2926Z" fill="#92E3A9" stroke="#1E1E1E"/>
<path opacity="0.5" d="M75.8491 61.7177L75.8491 61.7178L75.8524 61.7223C76.2447 62.2663 76.5937 62.8351 76.897 63.4243L74.8421 64.6507C74.8271 64.6495 74.8102 64.6478 74.7914 64.6456C74.6675 64.631 74.4609 64.5919 74.1731 64.4888C73.5971 64.2826 72.6912 63.8182 71.4719 62.7743L71.4416 62.7483C70.2263 61.7079 69.3486 60.9564 68.6233 60.5965C68.24 60.4062 67.8565 60.3016 67.4557 60.3392C67.0555 60.3767 66.6996 60.5503 66.3607 60.803C66.1193 60.9831 65.9112 61.3005 65.7315 61.6296C65.5406 61.9792 65.3412 62.4206 65.1383 62.9214C64.9397 63.4115 64.7338 63.9683 64.5251 64.5677C64.508 64.3062 64.4491 64.0443 64.3799 63.8025C64.2316 63.2847 63.9866 62.7068 63.7508 62.1506C63.7332 62.109 63.7155 62.0674 63.698 62.026C63.4394 61.415 63.1972 60.8282 63.0573 60.2954C62.9144 59.7511 62.9043 59.3547 63.012 59.0857C63.0215 59.062 63.0985 58.947 63.4117 58.8081C63.7031 58.6789 64.1168 58.5659 64.6353 58.4839C65.6686 58.3206 67.0379 58.293 68.4894 58.4475C69.9399 58.6018 71.449 58.9355 72.7667 59.4799C74.089 60.0263 75.1809 60.7689 75.8491 61.7177ZM61.621 79.2926C62.0517 80.6042 62.8695 81.7396 64.0937 82.6045C62.9196 82.0578 61.8974 81.2713 61.1056 80.306L61.1056 80.3059L61.1006 80.3C59.2523 78.1174 58.1065 75.5053 57.7871 72.7604L57.7717 72.6276L57.6921 72.5204L57.6921 72.5204L57.692 72.5202L57.6909 72.5188L57.6857 72.5117L57.6637 72.4812C57.644 72.4538 57.6148 72.4127 57.578 72.3595C57.5043 72.2531 57.4005 72.0988 57.2818 71.9101C57.0432 71.5307 56.7508 71.0215 56.5222 70.4878C56.2893 69.9443 56.1436 69.423 56.1523 69.0054C56.1604 68.6195 56.2923 68.3645 56.6065 68.2031C57.0328 67.9841 57.3077 67.9934 57.4836 68.0508C57.672 68.1123 57.8413 68.2598 57.9905 68.4824C58.139 68.7039 58.2426 68.9637 58.3096 69.1791C58.3424 69.2846 58.3649 69.3745 58.3789 69.4368C58.3859 69.4678 58.3907 69.4917 58.3937 69.5068L58.3967 69.5228L58.3969 69.5243L58.397 69.5246L58.397 69.5249L58.3971 69.5253L58.3971 69.5254L58.4086 69.5949L58.4397 69.6595C58.5624 69.9143 58.6869 70.1294 58.8168 70.2983C58.9417 70.4607 59.1021 70.6207 59.3094 70.7051C59.5477 70.8023 59.7953 70.7779 60.0052 70.6538C60.1877 70.5459 60.315 70.3794 60.405 70.2296C60.5865 69.9276 60.7292 69.4995 60.8519 69.0393C60.9777 68.5676 61.0946 68.0137 61.2095 67.4324C61.308 66.9341 61.4757 66.714 61.6221 66.6005C61.7799 66.478 61.9891 66.4183 62.2931 66.3814C62.3908 66.3695 62.48 66.3616 62.5766 66.3531C62.6382 66.3476 62.7029 66.3419 62.7747 66.3347C62.9435 66.3178 63.1317 66.2941 63.3173 66.2465C63.5961 66.1749 63.8776 66.0462 64.1089 65.806C64.0279 66.0546 63.9469 66.3072 63.8663 66.5623C63.1495 68.8299 62.4479 71.3311 61.9461 73.1201C61.8478 73.4704 61.7572 73.7934 61.6756 74.0821C61.1562 75.9201 61.1031 77.7155 61.621 79.2926Z" fill="white" stroke="#1E1E1E"/>
</g>
<path d="M58.8902 69.4426C58.8902 69.4426 58.436 66.7012 56.3781 67.7584C54.3202 68.8156 57.2905 72.8183 57.2905 72.8183C57.6216 75.6643 58.8092 78.3679 60.719 80.6231C63.9184 84.418 69.4483 84.9321 72.6082 82.5078C76.1631 79.7811 77.8616 67.3246 77.8616 67.3246C77.8616 67.3246 79.2322 65.6368 76.2816 61.419C73.331 57.2012 63.2469 57.2012 62.5715 58.8891C61.8961 60.5769 64.6294 63.9489 63.9421 65.2139C63.2548 66.4789 61.2009 65.0061 60.7427 67.3246C60.2845 69.6431 59.8066 71.3419 58.8902 69.4426Z" stroke="#1E1E1E" stroke-width="1.1326" stroke-linecap="round" stroke-linejoin="round"/>
<path d="M67.6273 76.7408C64.74 76.1611 64.1119 74.189 64.1119 74.189" stroke="#1E1E1E" stroke-width="1.1326" stroke-linecap="round" stroke-linejoin="round"/>
<path d="M68.3818 71.1779C66.9993 69.9056 65.7432 69.7889 65.7432 69.7889" stroke="#1E1E1E" stroke-width="1.1326" stroke-linecap="round" stroke-linejoin="round"/>
<path d="M64.8664 73.9594L63.1047 74.3081" stroke="#1E1E1E" stroke-width="1.1326" stroke-linecap="round" stroke-linejoin="round"/>
<path d="M64.112 74.1926C63.8335 74.5379 63.6343 74.9319 63.5263 75.3505C63.4183 75.7692 63.4039 76.2038 63.4839 76.6278C63.717 78.0641 65.4826 78.4177 65.4826 78.4177C65.4826 78.4177 65.6169 76.5111 66.6241 76.6278C66.6241 76.6278 64.6136 75.5815 64.112 74.1926Z" stroke="#1E1E1E" stroke-width="1.1326" stroke-linecap="round" stroke-linejoin="round"/>
<path d="M63.9184 74.2765C63.9184 74.2765 63.6458 76.6861 65.4983 77.3204" stroke="#1E1E1E" stroke-width="0.566302" stroke-linecap="round" stroke-linejoin="round"/>
<path d="M73.9946 67.7329C73.9946 67.7329 72.0907 69.49 72.0907 71.4039C72.0907 73.3177 73.9946 74.5973 72.4383 75.0785C70.882 75.5597 70.3607 75.2352 70.3607 75.2352" stroke="#1E1E1E" stroke-width="1.1326" stroke-linecap="round" stroke-linejoin="round"/>
<path d="M67.8959 69.1277C67.9152 69.2361 67.9151 69.3903 67.8755 69.5707C67.8365 69.5575 67.7921 69.5439 67.7437 69.5323C67.7208 69.5269 67.6986 69.5222 67.6772 69.5182C67.7376 69.3471 67.8193 69.213 67.8959 69.1277ZM67.9953 69.0442C67.9953 69.0444 67.9934 69.0454 67.9896 69.0463C67.9934 69.0445 67.9953 69.044 67.9953 69.0442ZM67.86 69.0104C67.8564 69.0067 67.8549 69.0042 67.8551 69.0038C67.8553 69.0035 67.8571 69.0054 67.86 69.0104Z" fill="#263238" stroke="#1E1E1E"/>
<path d="M74.4327 70.5899L74.4325 70.5906C74.371 70.8164 74.271 70.9895 74.1791 71.0908C74.1567 70.9698 74.1591 70.7901 74.2163 70.5802C74.2779 70.3543 74.378 70.182 74.4699 70.0812C74.4922 70.2035 74.4894 70.3832 74.4327 70.5899ZM74.0822 71.1715C74.0822 71.1713 74.084 71.1704 74.0878 71.1695C74.084 71.1713 74.0822 71.1717 74.0822 71.1715ZM74.2148 71.2044C74.2184 71.208 74.2198 71.2105 74.2197 71.2108C74.2195 71.2112 74.2177 71.2093 74.2148 71.2044ZM74.5677 70.0004C74.5677 70.0006 74.5661 70.0014 74.5627 70.0022C74.5661 70.0006 74.5677 70.0002 74.5677 70.0004ZM74.4341 69.9654C74.4302 69.9615 74.4287 69.9588 74.4289 69.9585C74.4291 69.9581 74.431 69.9601 74.4341 69.9654Z" fill="#263238" stroke="#1E1E1E"/>
<path d="M65.8657 65.8191C65.8657 65.8191 68.2633 65.1337 70.57 68.0355" stroke="#1E1E1E" stroke-width="1.1326" stroke-linecap="round" stroke-linejoin="round"/>
<path d="M74.6858 67.2554C74.6858 67.2554 76.4159 66.6174 76.7634 68.2141" stroke="#1E1E1E" stroke-width="1.1326" stroke-linecap="round" stroke-linejoin="round"/>
<path d="M62.5478 58.9C62.5478 58.9 63.6893 60.7957 66.6596 61.2185C69.6299 61.6414 73.2875 61.2185 73.9748 63.5407C74.6621 65.8628 77.8576 68.6005 81.5152 67.1241C85.1728 65.6477 85.627 59.1042 83.344 56.3701C81.0609 53.636 78.3158 54.048 75.5745 52.9944C72.8333 51.9409 72.8333 50.0416 68.7175 50.0416C64.6017 50.0416 59.8065 53.6251 62.5478 55.7358" fill="#263238"/>
<path d="M62.5478 58.9C62.5478 58.9 63.6893 60.7957 66.6596 61.2185C69.6299 61.6414 73.2875 61.2185 73.9748 63.5407C74.6621 65.8628 77.8576 68.6005 81.5152 67.1241C85.1728 65.6477 85.627 59.1042 83.344 56.3701C81.0609 53.636 78.3158 54.048 75.5745 52.9944C72.8333 51.9409 72.8333 50.0416 68.7175 50.0416C64.6017 50.0416 59.8065 53.6251 62.5478 55.7358" stroke="#1E1E1E" stroke-width="1.1326" stroke-linecap="round" stroke-linejoin="round"/>
<path d="M57.7921 74.8051C60.4295 74.8051 62.5675 72.2753 62.5675 69.1547C62.5675 66.0341 60.4295 63.5043 57.7921 63.5043C55.1547 63.5043 53.0167 66.0341 53.0167 69.1547C53.0167 72.2753 55.1547 74.8051 57.7921 74.8051Z" fill="white" stroke="#1E1E1E" stroke-width="1.1326" stroke-linecap="round" stroke-linejoin="round"/>
<path d="M57.0416 73.2594C58.9438 73.2594 60.4859 71.4331 60.4859 69.1802C60.4859 66.9273 58.9438 65.101 57.0416 65.101C55.1394 65.101 53.5973 66.9273 53.5973 69.1802C53.5973 71.4331 55.1394 73.2594 57.0416 73.2594Z" fill="#263238" stroke="#1E1E1E" stroke-width="1.1326" stroke-linecap="round" stroke-linejoin="round"/>
<path d="M56.378 68.5823C56.1622 68.5832 55.9533 68.5116 55.7905 68.3808C55.6277 68.2499 55.522 68.0689 55.4933 67.8715C55.2583 65.9329 55.2649 63.9759 55.513 62.0388C55.5265 61.931 55.5628 61.8268 55.62 61.7321C55.6771 61.6373 55.7539 61.5539 55.8459 61.4865C55.938 61.4192 56.0435 61.3692 56.1565 61.3395C56.2695 61.3098 56.3877 61.3009 56.5044 61.3133C56.6211 61.3258 56.7341 61.3593 56.8367 61.412C56.9394 61.4647 57.0298 61.5356 57.1028 61.6206C57.1758 61.7055 57.2299 61.8029 57.2621 61.9072C57.2943 62.0115 57.304 62.1206 57.2905 62.2283C57.0645 64.0312 57.0552 65.8516 57.2628 67.6564C57.2795 67.7637 57.273 67.873 57.2436 67.978C57.2143 68.0829 57.1626 68.1815 57.0917 68.2679C57.0209 68.3544 56.9321 68.427 56.8306 68.4816C56.7291 68.5362 56.6169 68.5716 56.5005 68.586C56.4596 68.5883 56.4186 68.587 56.378 68.5823Z" fill="white" stroke="#1E1E1E" stroke-width="1.1326" stroke-linecap="round" stroke-linejoin="round"/>
<path d="M74.5831 52.5533C74.8894 52.7285 75.2104 52.8809 75.5429 53.009C77.194 53.6433 78.849 53.7381 80.4013 54.325C80.3672 54.1357 80.2919 53.9546 80.1801 53.7928C78.0116 50.6176 71.676 45.6197 63.2192 49.4182C58.5149 51.5217 55.6236 55.8597 54.8336 61.9549C54.7889 62.3352 54.908 62.7165 55.1651 63.0166C55.4223 63.3166 55.7969 63.5114 56.2082 63.5589H56.3938C56.7766 63.5554 57.145 63.4237 57.4305 63.1883C57.716 62.953 57.8993 62.63 57.9461 62.2793C58.3885 58.7469 59.9211 54.0953 64.6057 51.9883C68.9901 50.0343 72.383 51.117 74.5831 52.5533Z" fill="white" stroke="#1E1E1E" stroke-width="1.1326" stroke-linecap="round" stroke-linejoin="round"/>
<path d="M112.684 119.163H57.1878V121.23H112.684V119.163Z" fill="white" stroke="#1E1E1E" stroke-width="1.1326" stroke-linecap="round" stroke-linejoin="round"/>
<path d="M128.329 119.163H72.8333V121.23H128.329V119.163Z" fill="white" stroke="#1E1E1E" stroke-width="1.1326" stroke-linecap="round" stroke-linejoin="round"/>
<path d="M39.824 115.827H48.0161C48.9201 115.827 49.7872 116.158 50.4264 116.748C51.0657 117.338 51.4248 118.139 51.4248 118.973V122.753H36.4152V118.962C36.4184 118.13 36.7789 117.332 37.4178 116.745C38.0567 116.157 38.922 115.827 39.824 115.827Z" fill="#92E3A9" stroke="#1E1E1E" stroke-width="1.1326" stroke-linecap="round" stroke-linejoin="round"/>
<path d="M40.219 117.413H43.6949C44.5989 117.413 45.466 117.744 46.1052 118.334C46.7445 118.924 47.1036 119.724 47.1036 120.559V124.339H36.83V120.555C36.831 119.725 37.1879 118.928 37.8228 118.339C38.4576 117.751 39.319 117.418 40.219 117.413Z" fill="#263238" stroke="#1E1E1E" stroke-width="1.1326" stroke-linecap="round" stroke-linejoin="round"/>
<path d="M40.219 118.401H42.4112C43.3152 118.401 44.1822 118.732 44.8215 119.322C45.4608 119.912 45.8199 120.712 45.8199 121.547V122.954H36.8141V121.547C36.8141 120.713 37.1727 119.913 37.8112 119.323C38.4496 118.734 39.3156 118.402 40.219 118.401Z" fill="#92E3A9" stroke="#1E1E1E" stroke-width="1.1326" stroke-linecap="round" stroke-linejoin="round"/>
<path d="M141.704 76.9813H90.4499V113.093H141.704V76.9813Z" fill="white" stroke="#1E1E1E" stroke-width="1.1326" stroke-linecap="round" stroke-linejoin="round"/>
<path d="M143.821 76.9813H92.567V113.093H143.821V76.9813Z" fill="#263238" stroke="#1E1E1E" stroke-width="1.1326" stroke-linecap="round" stroke-linejoin="round"/>
<path d="M125.039 100.33H113.095V121.226H125.039V100.33Z" fill="white" stroke="#1E1E1E" stroke-width="1.1326" stroke-linecap="round" stroke-linejoin="round"/>
<path d="M166.6 120.541H7.7666V124.401H166.6V120.541Z" fill="white" stroke="#1E1E1E" stroke-width="1.1326" stroke-linecap="round" stroke-linejoin="round"/>
<path d="M166.6 120.541H62.8005V124.401H166.6V120.541Z" fill="#263238" stroke="#1E1E1E" stroke-width="1.1326" stroke-linecap="round" stroke-linejoin="round"/>
</svg>
