<svg width="167" height="134" viewBox="0 0 167 134" fill="none" xmlns="http://www.w3.org/2000/svg">
<path d="M148.174 107.68H88.1743C87.6587 107.679 87.1644 107.49 86.7998 107.153C86.4352 106.817 86.23 106.361 86.2291 105.885V25.2137C86.23 24.7377 86.4352 24.2815 86.7998 23.9449C87.1644 23.6084 87.6587 23.419 88.1743 23.4182H148.174C148.689 23.419 149.184 23.6084 149.548 23.9449C149.913 24.2815 150.118 24.7377 150.119 25.2137V105.885C150.118 106.361 149.913 106.817 149.548 107.153C149.184 107.49 148.689 107.679 148.174 107.68ZM88.1743 23.4917C87.6807 23.4925 87.2076 23.6739 86.8585 23.9961C86.5095 24.3182 86.313 24.755 86.3121 25.2106V105.885C86.313 106.34 86.5095 106.777 86.8585 107.099C87.2076 107.421 87.6807 107.603 88.1743 107.604H148.174C148.668 107.604 149.141 107.422 149.491 107.1C149.84 106.778 150.036 106.34 150.036 105.885V25.2137C150.036 24.7578 149.84 24.3206 149.491 23.9982C149.141 23.6759 148.668 23.4948 148.174 23.4948L88.1743 23.4917Z" fill="#E0E0E0"/>
<path d="M78.9861 107.68H18.9899C18.4737 107.68 17.9786 107.491 17.6133 107.154C17.2479 106.818 17.0423 106.361 17.0414 105.885V25.2137C17.0423 24.7372 17.2479 24.2805 17.6133 23.9439C17.9786 23.6072 18.4737 23.4182 18.9899 23.4182H78.9861C79.502 23.4182 79.9968 23.6073 80.3616 23.9441C80.7264 24.2808 80.9313 24.7375 80.9313 25.2137V105.885C80.9313 106.361 80.7264 106.817 80.3616 107.154C79.9968 107.491 79.502 107.68 78.9861 107.68ZM18.9899 23.4917C18.4957 23.4917 18.0217 23.6727 17.6719 23.995C17.3222 24.3172 17.1252 24.7545 17.1244 25.2106V105.885C17.1252 106.341 17.3222 106.778 17.6719 107.1C18.0217 107.423 18.4957 107.604 18.9899 107.604H78.9861C79.2306 107.604 79.4728 107.559 79.6987 107.473C79.9247 107.386 80.13 107.26 80.3029 107.1C80.4758 106.94 80.613 106.751 80.7066 106.542C80.8001 106.334 80.8483 106.11 80.8483 105.885V25.2137C80.8483 24.988 80.8001 24.7644 80.7066 24.5559C80.613 24.3473 80.4758 24.1578 80.3029 23.9982C80.13 23.8386 79.9247 23.712 79.6987 23.6256C79.4728 23.5392 79.2306 23.4948 78.9861 23.4948L18.9899 23.4917Z" fill="#E0E0E0"/>
<path d="M166.79 126.392H0.815796V126.469H166.79V126.392Z" fill="#E0E0E0"/>
<path d="M23.2986 130.762H17.9675V130.838H23.2986V130.762Z" fill="#E0E0E0"/>
<path d="M75.1322 129.931H57.363V130.008H75.1322V129.931Z" fill="#E0E0E0"/>
<path d="M35.6636 133.608H23.6305V133.685H35.6636V133.608Z" fill="#E0E0E0"/>
<path d="M140.745 129.892H126.408V129.968H140.745V129.892Z" fill="#E0E0E0"/>
<path d="M145.804 129.892H143.703V129.968H145.804V129.892Z" fill="#E0E0E0"/>
<path d="M123.67 131.801H105.781V131.877H123.67V131.801Z" fill="#E0E0E0"/>
<path d="M153.447 35.2022C156.211 33.12 156.623 29.3638 154.367 26.8125C152.111 24.2613 148.042 23.8811 145.278 25.9633C142.514 28.0455 142.102 31.8017 144.358 34.353C146.614 36.9042 150.683 37.2844 153.447 35.2022Z" fill="#F0F0F0"/>
<path d="M145.877 27.5118L148.798 30.6157L149.173 30.4135L148.509 31.0263L147.603 30.107C147.603 30.107 147.009 31.2193 146.468 31.0477C145.927 30.8761 146.8 29.5433 146.8 29.5433L145.339 28.1338L145.877 27.5118Z" fill="#E0E0E0"/>
<path d="M154.278 30.9956L149.857 31.0446L149.644 30.7045L149.681 31.5134H151.009C151.009 31.5134 150.507 32.6625 151.009 32.9199C151.51 33.1772 152.005 31.6942 152.005 31.6942L154.116 31.7647L154.278 30.9956Z" fill="#E0E0E0"/>
<path d="M146.225 33.0976C146.225 33.0976 147.351 32.1293 148.453 32.4848C149.555 32.8402 149.578 34.5929 149.578 34.5929L149.352 34.6541C149.352 34.6541 149.107 32.9168 148.429 32.6472C147.752 32.3775 146.308 33.3979 146.308 33.3979L146.225 33.0976Z" fill="#E0E0E0"/>
<path d="M147.537 27.6282L147.427 27.4107C147.639 27.3188 148.001 27.1043 148.048 26.9143C148.094 26.7243 147.819 26.4118 147.636 26.2525L147.812 26.0809C147.872 26.133 148.393 26.6018 148.3 26.9756C148.207 27.3494 147.6 27.6007 147.537 27.6282Z" fill="#E0E0E0"/>
<path d="M148.011 28.0204C148.058 27.9316 148.393 27.1318 148.881 27.0614C149.187 27.0313 149.495 27.0823 149.771 27.2084L149.658 27.426C149.43 27.3252 149.176 27.2849 148.924 27.3096C148.672 27.3463 148.39 27.8151 148.26 28.1154L148.011 28.0204Z" fill="#E0E0E0"/>
<path d="M148.818 26.7396C148.745 26.7074 148.676 26.6684 148.612 26.6232C148.479 26.5048 148.375 26.3615 148.307 26.203C148.239 26.0444 148.208 25.8743 148.217 25.704H148.476C148.469 25.837 148.492 25.9699 148.543 26.0944C148.595 26.2188 148.674 26.3321 148.775 26.4271C149 26.5956 149.356 26.6171 149.83 26.4945L149.9 26.7243C149.552 26.8426 149.17 26.848 148.818 26.7396Z" fill="#E0E0E0"/>
<path d="M24.8937 48.5583C25.3202 45.0265 22.5641 41.8443 18.7379 41.4506C14.9117 41.0569 11.4642 43.6009 11.0377 47.1328C10.6112 50.6646 13.3673 53.8468 17.1935 54.2405C21.0197 54.6342 24.4672 52.0902 24.8937 48.5583Z" fill="#F0F0F0"/>
<path d="M12.9949 46.3619L17.4132 48.1146L17.6754 47.7561L17.3435 48.6385L15.9957 48.133C15.9957 48.133 15.9957 49.4689 15.3684 49.5363C14.741 49.6037 14.9302 47.9277 14.9302 47.9277L12.7958 47.1892L12.9949 46.3619Z" fill="#E0E0E0"/>
<path d="M22.9434 46.1107L18.6713 48.0717L18.2928 47.8297L18.741 48.5987L20.0488 48.0258C20.0488 48.0258 20.1418 49.3617 20.7559 49.3954C21.37 49.4291 21.0878 47.7653 21.0878 47.7653L23.1791 46.9227L22.9434 46.1107Z" fill="#E0E0E0"/>
<path d="M16.1816 51.6322C16.1816 51.6322 16.7858 50.2043 18.0339 50.0695C19.282 49.9347 20.1982 51.6322 20.1982 51.6322L20.009 51.7885C20.009 51.7885 18.8903 50.2074 18.0937 50.238C17.297 50.2687 16.4173 51.8834 16.4173 51.8834L16.1816 51.6322Z" fill="#E0E0E0"/>
<path d="M14.6746 45.7552L14.4588 45.5898C14.6214 45.4059 14.8604 45.0383 14.8107 44.8391C14.7609 44.6399 14.3326 44.4469 14.0737 44.3733L14.1567 44.1313C14.243 44.1558 14.9866 44.3856 15.0862 44.787C15.1858 45.1884 14.731 45.697 14.6746 45.7552Z" fill="#E0E0E0"/>
<path d="M15.3418 45.9268C15.3418 45.8196 15.2622 44.8973 15.7004 44.6185C15.9821 44.4567 16.308 44.3727 16.6398 44.3764V44.6338C16.3682 44.6371 16.1024 44.7068 15.8696 44.836C15.6406 44.9831 15.6074 45.5622 15.6306 45.9084L15.3418 45.9268Z" fill="#E0E0E0"/>
<path d="M15.4779 44.3274C15.3897 44.33 15.3015 44.3218 15.2156 44.3029C15.0263 44.2453 14.8525 44.151 14.706 44.0262C14.5594 43.9015 14.4434 43.7493 14.3658 43.5798L14.6281 43.4848C14.689 43.618 14.7795 43.7378 14.8939 43.8365C15.0083 43.9353 15.1439 44.0106 15.292 44.0578C15.6007 44.1252 15.9559 43.9934 16.3542 43.6686L16.5401 43.8617C16.2562 44.1271 15.8802 44.292 15.4779 44.3274Z" fill="#E0E0E0"/>
<path d="M132.908 1.6939C132.663 1.51427 132.406 1.34949 132.138 1.20058C130.782 0.447792 129.224 0.0612416 127.643 0.0848855C126.061 0.108529 124.518 0.541419 123.189 1.33433C121.86 2.12725 120.799 3.24837 120.127 4.57022C119.454 5.89207 119.197 7.36161 119.384 8.81174C119.429 9.143 119.496 9.47145 119.583 9.79531C119.878 10.9028 120.433 11.9371 121.208 12.8256C121.982 13.714 122.959 14.435 124.068 14.9378C125.177 15.4406 126.392 15.7129 127.627 15.7358C128.862 15.7586 130.088 15.5314 131.218 15.07C132.348 14.6086 133.355 13.9243 134.167 13.0652C134.98 12.2061 135.579 11.1931 135.922 10.0974C136.265 9.00168 136.344 7.84993 136.153 6.72313C135.962 5.59633 135.506 4.52184 134.816 3.57524C134.3 2.85278 133.655 2.2166 132.908 1.6939Z" fill="#F0F0F0"/>
<path d="M127.679 5.46272C127.679 5.46272 127.434 4.18807 128.217 3.6396C129.233 2.93793 130.441 3.81425 130.441 3.81425L130.04 4.08083C130.04 4.08083 129.044 3.43737 128.453 3.89392C127.723 4.46077 127.968 5.42595 127.968 5.42595L127.679 5.46272Z" fill="#E0E0E0"/>
<path d="M124.944 7.04068C124.944 7.04068 123.686 6.46157 122.893 7.00697C121.88 7.71171 122.455 9.02313 122.455 9.02313L122.856 8.75962C122.856 8.75962 122.468 7.69026 123.109 7.30419C123.899 6.817 124.818 7.30419 124.818 7.30419L124.944 7.04068Z" fill="#E0E0E0"/>
<path d="M123.135 10.5767C123.135 10.5767 128.652 8.18974 131.789 5.18695C131.789 5.18695 134.796 9.96077 130.262 12.2496C125.728 14.5385 123.135 10.5767 123.135 10.5767Z" fill="#E6E6E6"/>
<path d="M123.251 10.5031C123.251 10.5031 128.615 8.17135 131.626 5.34015C131.697 5.59935 131.721 5.86731 131.699 6.13374C131.56 6.33249 131.398 6.51643 131.215 6.68221C131.241 6.76523 131.241 6.85352 131.215 6.93653C131.009 7.33486 129.694 8.05492 129.694 8.05492C129.72 8.10451 129.729 8.15988 129.721 8.21425C129.568 8.585 128.772 9.13347 128.35 9.13347C128.216 9.09777 128.091 9.03846 127.981 8.95882C127.981 8.95882 128.101 9.24071 128.064 9.32651C127.952 9.61147 127.258 9.91787 126.929 9.92094C126.809 9.90026 126.695 9.85411 126.597 9.78612C126.597 9.78612 125.804 10.3989 125.479 10.4234C125.342 10.4047 125.21 10.3654 125.087 10.307C125.087 10.307 124.167 10.9198 123.816 10.8953C123.636 10.8892 123.251 10.5031 123.251 10.5031Z" fill="white"/>
<path d="M126.926 12.9268C127.489 11.9715 128.307 11.1646 129.303 10.5828C131.201 9.41231 132.652 9.49504 132.652 9.49504C132.652 9.49504 132.606 10.9015 130.398 12.3354C129.896 12.652 129.328 12.8681 128.73 12.9699C128.132 13.0718 127.517 13.0571 126.926 12.9268Z" fill="#E0E0E0"/>
<path d="M74.3056 7.80977C74.2449 7.61456 74.1706 7.42317 74.0832 7.23679C73.6347 6.29707 72.9109 5.49158 71.9933 4.91102C71.0757 4.33046 70.0007 3.99789 68.8894 3.95076C67.7781 3.90363 66.6747 4.1438 65.7033 4.64424C64.7318 5.14468 63.9311 5.88551 63.3911 6.78331C63.2676 6.99088 63.1568 7.20468 63.0592 7.4237C62.6034 8.75254 62.7096 10.1914 63.3564 11.4509C64.0033 12.7104 65.1427 13.6971 66.5457 14.2126C67.9486 14.7281 69.511 14.7342 70.9186 14.2296C72.3262 13.725 73.4747 12.7472 74.1329 11.4928C74.3889 10.8937 74.5305 10.2582 74.5512 9.61451C74.5808 9.00442 74.4977 8.39413 74.3056 7.80977Z" fill="#F0F0F0"/>
<path d="M69.6351 7.99975C69.6351 7.99975 70.06 7.17245 70.7538 7.15407C71.6467 7.13569 71.9521 8.09474 71.9521 8.09474H71.6036C71.6036 8.09474 71.3148 7.35017 70.7737 7.39C70.5653 7.42051 70.3688 7.49954 70.2027 7.61963C70.0366 7.73972 69.9064 7.89691 69.8243 8.07635L69.6351 7.99975Z" fill="#E0E0E0"/>
<path d="M67.368 7.86492C67.368 7.86492 66.9032 7.056 66.2061 7.07132C65.3132 7.08971 65.0609 8.06102 65.0609 8.06102H65.4095C65.4095 8.06102 65.6584 7.30113 66.1962 7.31951C66.4084 7.33897 66.6117 7.40871 66.7861 7.52198C66.9606 7.63526 67.1004 7.78821 67.192 7.96603L67.368 7.86492Z" fill="#E0E0E0"/>
<path d="M64.7621 9.21619C64.7621 9.21619 68.9845 9.93012 72.1147 9.3939C72.1147 9.3939 71.7264 13.2669 68.1081 12.8655C64.4899 12.4641 64.7621 9.21619 64.7621 9.21619Z" fill="#E6E6E6"/>
<path d="M64.8617 9.21619C64.8617 9.21619 68.9712 9.89335 71.9554 9.41842C71.8805 9.59434 71.7751 9.75784 71.6434 9.90254C71.4757 9.96397 71.3008 10.0072 71.1222 10.0312C71.0999 10.0889 71.0595 10.139 71.006 10.1752C70.7106 10.3254 69.6351 10.2427 69.6351 10.2427C69.6351 10.2427 69.6351 10.3223 69.5787 10.3438C69.3908 10.4217 69.1871 10.462 68.9812 10.462C68.7752 10.462 68.5715 10.4217 68.3837 10.3438C68.3242 10.2717 68.2782 10.1909 68.2476 10.1048C68.2476 10.1048 68.1911 10.3101 68.1347 10.3438C67.9841 10.3903 67.8246 10.4067 67.6666 10.3919C67.5086 10.3771 67.3559 10.3315 67.2185 10.258C67.1572 10.1997 67.1108 10.1296 67.0824 10.0527C66.7736 10.0801 66.462 10.0614 66.1596 9.99752C66.0908 9.93323 66.0326 9.85993 65.987 9.77998C65.987 9.77998 65.1837 9.77998 64.9912 9.63596C64.9015 9.57775 64.8617 9.21619 64.8617 9.21619Z" fill="white"/>
<path d="M65.894 11.9953C66.64 11.6572 67.4674 11.5011 68.2973 11.5418C69.904 11.5878 70.7006 12.1822 70.7006 12.1822C70.7006 12.1822 70.0367 12.9727 68.148 12.9605C67.7201 12.9538 67.2985 12.8645 66.9103 12.6982C66.522 12.532 66.1759 12.2925 65.894 11.9953Z" fill="#E0E0E0"/>
<path d="M144.167 107.08C144.191 106.876 144.2 106.671 144.194 106.467C144.174 105.081 143.6 103.751 142.582 102.731C141.565 101.712 140.175 101.076 138.68 100.944C137.185 100.813 135.691 101.196 134.483 102.02C133.275 102.844 132.44 104.05 132.137 105.408C131.834 106.765 132.085 108.178 132.842 109.375C133.599 110.572 134.808 111.469 136.237 111.894C137.666 112.319 139.215 112.241 140.587 111.676C141.958 111.111 143.054 110.098 143.666 108.832C143.939 108.278 144.109 107.686 144.167 107.08Z" fill="#F0F0F0"/>
<path d="M139.769 105.609C139.769 105.609 140.499 104.996 141.147 105.22C141.983 105.526 141.87 106.51 141.87 106.51L141.538 106.387C141.538 106.387 141.578 105.593 141.064 105.443C140.858 105.399 140.643 105.404 140.44 105.458C140.236 105.511 140.051 105.612 139.902 105.75L139.769 105.609Z" fill="#E0E0E0"/>
<path d="M137.721 104.711C137.721 104.711 137.625 103.792 136.971 103.568C136.137 103.262 135.503 104.083 135.503 104.083L135.835 104.205C135.835 104.205 136.376 103.593 136.868 103.795C137.053 103.889 137.209 104.025 137.322 104.19C137.435 104.355 137.5 104.544 137.512 104.739L137.721 104.711Z" fill="#E0E0E0"/>
<path d="M134.757 105.042C134.757 105.042 138.375 107.187 141.492 107.778C141.492 107.778 139.54 111.228 136.357 109.592C133.173 107.956 134.757 105.042 134.757 105.042Z" fill="#E6E6E6"/>
<path d="M134.849 105.079C134.849 105.079 138.378 107.141 141.329 107.754C141.188 107.889 141.025 108.003 140.844 108.091C140.664 108.089 140.485 108.068 140.31 108.029C140.265 108.075 140.206 108.107 140.141 108.121C139.809 108.155 138.846 107.705 138.846 107.705C138.846 107.705 138.796 107.769 138.753 107.778C138.547 107.787 138.341 107.756 138.149 107.686C137.957 107.616 137.782 107.51 137.638 107.374C137.614 107.286 137.606 107.195 137.615 107.104C137.615 107.104 137.475 107.276 137.409 107.288C137.25 107.278 137.096 107.237 136.956 107.168C136.815 107.098 136.693 107.003 136.596 106.887C136.563 106.812 136.549 106.731 136.556 106.651C136.258 106.569 135.978 106.441 135.726 106.274C135.686 106.191 135.662 106.103 135.653 106.013C135.653 106.013 134.906 105.744 134.796 105.535C134.737 105.425 134.849 105.079 134.849 105.079Z" fill="white"/>
<path d="M134.664 108.011C135.492 107.961 136.321 108.109 137.07 108.44C138.541 109.053 139.032 109.871 139.032 109.871C139.032 109.871 138.106 110.377 136.353 109.699C135.959 109.542 135.606 109.311 135.315 109.02C135.024 108.73 134.802 108.386 134.664 108.011Z" fill="#E0E0E0"/>
<path d="M155.835 68.3405C155.775 68.1447 155.7 67.9533 155.61 67.7675C155.165 66.824 154.444 66.0144 153.526 65.4307C152.608 64.847 151.532 64.5125 150.418 64.4653C149.305 64.418 148.2 64.6599 147.228 65.1635C146.256 65.6671 145.457 66.4121 144.921 67.314C144.797 67.5216 144.687 67.7354 144.589 67.9544C144.252 68.7048 144.1 69.5145 144.142 70.3258C144.183 71.137 144.419 71.9296 144.831 72.6472C145.243 73.3647 145.822 73.9893 146.526 74.4765C147.23 74.9636 148.042 75.3013 148.903 75.4653C149.765 75.6292 150.655 75.6156 151.511 75.4252C152.366 75.2348 153.165 74.8724 153.851 74.3638C154.537 73.8553 155.093 73.2132 155.479 72.4835C155.865 71.7537 156.072 70.9542 156.084 70.1421C156.111 69.5329 156.027 68.9239 155.835 68.3405Z" fill="#F0F0F0"/>
<path d="M151.148 68.5336C151.148 68.5336 151.573 67.7093 152.263 67.6909C153.16 67.6726 153.462 68.6316 153.462 68.6316H153.113C153.113 68.6316 152.824 67.884 152.287 67.9269C152.078 67.9568 151.881 68.0356 151.715 68.1558C151.549 68.276 151.419 68.4334 151.337 68.6132L151.148 68.5336Z" fill="#E0E0E0"/>
<path d="M148.881 68.4018C148.881 68.4018 148.416 67.5929 147.719 67.6051C146.823 67.6266 146.571 68.5979 146.571 68.5979H146.919C146.919 68.5979 147.171 67.838 147.709 67.8564C147.921 67.8758 148.125 67.9456 148.299 68.0588C148.474 68.1721 148.613 68.3251 148.705 68.5029L148.881 68.4018Z" fill="#E0E0E0"/>
<path d="M146.275 69.7592C146.275 69.7592 150.498 70.4731 153.628 69.9369C153.628 69.9369 153.236 73.8129 149.618 73.4115C146 73.0101 146.275 69.7592 146.275 69.7592Z" fill="#E6E6E6"/>
<path d="M146.371 69.7592C146.371 69.7592 150.484 70.4363 153.465 69.9644C153.391 70.14 153.287 70.3035 153.156 70.4486C152.988 70.5082 152.813 70.5514 152.635 70.5773C152.613 70.6351 152.571 70.6846 152.516 70.7182C152.224 70.8714 151.148 70.7887 151.148 70.7887C151.139 70.8264 151.12 70.8612 151.092 70.8898C150.904 70.9686 150.699 71.0094 150.493 71.0094C150.286 71.0094 150.082 70.9686 149.893 70.8898C149.832 70.8191 149.787 70.7378 149.761 70.6508C149.761 70.6508 149.704 70.8592 149.644 70.8929C149.494 70.9394 149.334 70.9558 149.176 70.941C149.018 70.9262 148.866 70.8806 148.728 70.8071C148.667 70.748 148.622 70.6767 148.596 70.5987C148.287 70.6276 147.975 70.609 147.673 70.5436C147.602 70.4817 147.544 70.4092 147.5 70.3291C147.5 70.3291 146.697 70.3291 146.504 70.1851C146.411 70.1054 146.371 69.7592 146.371 69.7592Z" fill="white"/>
<path d="M147.407 72.5168C148.154 72.1808 148.981 72.0268 149.81 72.0695C151.417 72.1154 152.21 72.7098 152.21 72.7098C152.21 72.7098 151.563 73.5004 149.661 73.4881C149.233 73.4799 148.811 73.3893 148.423 73.2221C148.035 73.0548 147.689 72.8146 147.407 72.5168Z" fill="#E0E0E0"/>
<path d="M151.52 128.917C151.52 129.953 120.476 130.796 82.1828 130.796C43.8893 130.796 12.8489 129.953 12.8489 128.917C12.8489 127.882 43.8893 127.036 82.1828 127.036C120.476 127.036 151.52 127.879 151.52 128.917Z" fill="#F5F5F5"/>
<path d="M37.486 24.2271V80.8082C37.486 81.6014 37.8273 82.362 38.4349 82.9229C39.0425 83.4837 39.8665 83.7988 40.7258 83.7988H136.625C136.951 83.7988 137.264 83.6793 137.494 83.4667C137.724 83.2541 137.854 82.9657 137.854 82.6651V23.8349C137.854 23.4312 137.681 23.0438 137.373 22.757C137.066 22.4701 136.648 22.3069 136.21 22.3029H39.544C39.2717 22.3032 39.002 22.3535 38.7508 22.4506C38.4996 22.5477 38.2717 22.6899 38.0803 22.8688C37.8889 23.0477 37.7379 23.2599 37.6359 23.493C37.5338 23.7262 37.4829 23.9757 37.486 24.2271Z" fill="url(#paint0_linear_370_22944)"/>
<path opacity="0.7" d="M37.486 24.2271V80.8082C37.486 82.4598 38.9366 83.7988 41.1142 83.7865H137.014C137.303 83.7865 137.854 83.2932 137.854 82.6651V23.8349C137.854 23.4312 137.681 23.0438 137.373 22.757C137.066 22.4701 136.648 22.3069 136.21 22.3029H39.544C39.2717 22.3032 39.002 22.3535 38.7508 22.4506C38.4996 22.5477 38.2717 22.6899 38.0803 22.8688C37.8889 23.0477 37.7379 23.2599 37.6359 23.493C37.5338 23.7262 37.4829 23.9757 37.486 24.2271Z" fill="white"/>
<path d="M39.0992 22.3274H136.566C136.907 22.3274 137.235 22.4526 137.476 22.6756C137.718 22.8986 137.854 23.2009 137.854 23.5163V27.2606H37.486V23.8165C37.486 23.4216 37.6559 23.0428 37.9585 22.7636C38.261 22.4843 38.6714 22.3274 39.0992 22.3274Z" fill="url(#paint1_linear_370_22944)"/>
<path opacity="0.3" d="M136.516 24.7939C136.516 25.0012 136.449 25.2038 136.325 25.3761C136.2 25.5485 136.023 25.6828 135.815 25.7621C135.608 25.8414 135.379 25.8622 135.159 25.8217C134.939 25.7813 134.737 25.6815 134.578 25.5349C134.419 25.3884 134.311 25.2017 134.267 24.9984C134.223 24.7951 134.246 24.5844 134.332 24.3929C134.418 24.2014 134.563 24.0378 134.75 23.9226C134.937 23.8075 135.156 23.746 135.381 23.746C135.682 23.746 135.97 23.8564 136.183 24.053C136.396 24.2495 136.516 24.516 136.516 24.7939Z" fill="white"/>
<path opacity="0.3" d="M133.289 24.7939C133.289 25.0012 133.223 25.2038 133.098 25.3761C132.973 25.5485 132.796 25.6828 132.589 25.7621C132.381 25.8414 132.153 25.8622 131.933 25.8217C131.712 25.7813 131.51 25.6815 131.351 25.5349C131.193 25.3884 131.084 25.2017 131.041 24.9984C130.997 24.7951 131.019 24.5844 131.105 24.3929C131.191 24.2014 131.337 24.0378 131.523 23.9226C131.71 23.8075 131.93 23.746 132.154 23.746C132.455 23.746 132.744 23.8564 132.957 24.053C133.17 24.2495 133.289 24.516 133.289 24.7939Z" fill="white"/>
<path opacity="0.3" d="M128.924 25.8419C129.551 25.8419 130.059 25.3727 130.059 24.7939C130.059 24.2152 129.551 23.746 128.924 23.746C128.297 23.746 127.789 24.2152 127.789 24.7939C127.789 25.3727 128.297 25.8419 128.924 25.8419Z" fill="white"/>
<path d="M64.1447 20.2836H55.2319C55.1879 20.2836 55.1457 20.2675 55.1145 20.2388C55.0834 20.21 55.0659 20.1711 55.0659 20.1304C55.0659 20.0898 55.0834 20.0508 55.1145 20.0221C55.1457 19.9934 55.1879 19.9772 55.2319 19.9772H64.1447C64.1887 19.9772 64.2309 19.9934 64.262 20.0221C64.2932 20.0508 64.3107 20.0898 64.3107 20.1304C64.3107 20.1711 64.2932 20.21 64.262 20.2388C64.2309 20.2675 64.1887 20.2836 64.1447 20.2836Z" fill="url(#paint2_linear_370_22944)"/>
<path d="M68.4566 20.2836H66.5977C66.5537 20.2836 66.5115 20.2675 66.4804 20.2388C66.4493 20.21 66.4318 20.1711 66.4318 20.1304C66.4318 20.0898 66.4493 20.0508 66.4804 20.0221C66.5115 19.9934 66.5537 19.9772 66.5977 19.9772H68.4566C68.5007 19.9772 68.5429 19.9934 68.574 20.0221C68.6051 20.0508 68.6226 20.0898 68.6226 20.1304C68.6226 20.1711 68.6051 20.21 68.574 20.2388C68.5429 20.2675 68.5007 20.2836 68.4566 20.2836Z" fill="url(#paint3_linear_370_22944)"/>
<path d="M56.9892 40.0181C57.6296 37.5443 55.9763 35.0596 53.2963 34.4685C50.6163 33.8773 47.9246 35.4035 47.2841 37.8773C46.6437 40.351 48.2971 42.8357 50.977 43.4268C53.657 44.018 56.3488 42.4918 56.9892 40.0181Z" fill="url(#paint4_linear_370_22944)"/>
<path d="M53.5157 37.9358C53.5157 38.1873 53.4349 38.4331 53.2835 38.6422C53.1321 38.8513 52.917 39.0143 52.6653 39.1106C52.4135 39.2068 52.1366 39.232 51.8693 39.1829C51.6021 39.1339 51.3566 39.0128 51.164 38.8349C50.9713 38.6571 50.8401 38.4305 50.787 38.1838C50.7338 37.9372 50.7611 37.6815 50.8654 37.4492C50.9696 37.2168 51.1462 37.0182 51.3727 36.8785C51.5993 36.7388 51.8656 36.6642 52.1381 36.6642C52.5034 36.6642 52.8538 36.7982 53.1122 37.0366C53.3705 37.2751 53.5157 37.5985 53.5157 37.9358Z" fill="white"/>
<path d="M49.592 40.9753C49.592 40.9753 54.5978 40.9416 54.5713 40.9753C54.3923 40.5044 54.0539 40.0992 53.6062 39.8194C53.1584 39.5397 52.6251 39.4003 52.085 39.4219C50.0169 39.4249 49.7182 40.9998 49.592 40.9753Z" fill="white"/>
<path d="M75.7596 37.1115H58.8767V38.3954H75.7596V37.1115Z" fill="url(#paint5_linear_370_22944)"/>
<path d="M102.372 40.5984V41.8823H58.8767V40.5984" fill="#263238"/>
<path d="M56.992 52.3419C57.6325 49.8681 55.9791 47.3835 53.2991 46.7923C50.6191 46.2012 47.9274 47.7273 47.2869 50.2011C46.6465 52.6749 48.2999 55.1595 50.9799 55.7507C53.6598 56.3419 56.3516 54.8157 56.992 52.3419Z" fill="url(#paint6_linear_370_22944)"/>
<path d="M53.5157 50.2595C53.5163 50.5111 53.4361 50.7573 53.2851 50.9668C53.1341 51.1763 52.9192 51.3398 52.6676 51.4365C52.4159 51.5332 52.1388 51.5588 51.8714 51.5101C51.6039 51.4614 51.3582 51.3405 51.1652 51.1628C50.9722 50.9851 50.8406 50.7585 50.7872 50.5118C50.7338 50.265 50.7609 50.0092 50.865 49.7766C50.9692 49.5441 51.1458 49.3453 51.3724 49.2055C51.599 49.0656 51.8655 48.991 52.1381 48.991C52.5029 48.991 52.8528 49.1245 53.111 49.3623C53.3693 49.6001 53.5148 49.9228 53.5157 50.2595Z" fill="white"/>
<path d="M49.592 53.299C49.592 53.299 54.5978 53.2653 54.5713 53.299C54.3912 52.8289 54.0525 52.4246 53.605 52.1455C53.1574 51.8664 52.6246 51.7273 52.085 51.7486C50.0169 51.7486 49.7182 53.3235 49.592 53.299Z" fill="white"/>
<path d="M75.7596 49.4352H58.8767V50.719H75.7596V49.4352Z" fill="url(#paint7_linear_370_22944)"/>
<path d="M113.409 52.9221H58.8767V54.206H113.409V52.9221Z" fill="#263238"/>
<path d="M55.668 67.2444C57.6164 65.4459 57.6164 62.53 55.668 60.7315C53.7196 58.933 50.5606 58.933 48.6122 60.7315C46.6638 62.53 46.6638 65.4459 48.6122 67.2444C50.5606 69.0428 53.7196 69.0428 55.668 67.2444Z" fill="url(#paint8_linear_370_22944)"/>
<path d="M53.5157 62.9692C53.5163 63.2208 53.4361 63.467 53.2851 63.6765C53.1341 63.886 52.9192 64.0495 52.6676 64.1462C52.4159 64.2429 52.1388 64.2685 51.8714 64.2198C51.6039 64.1711 51.3582 64.0502 51.1652 63.8725C50.9722 63.6948 50.8406 63.4682 50.7872 63.2215C50.7338 62.9747 50.7609 62.7189 50.865 62.4864C50.9692 62.2538 51.1458 62.0551 51.3724 61.9152C51.599 61.7753 51.8655 61.7007 52.1381 61.7007C52.5029 61.7007 52.8528 61.8342 53.111 62.072C53.3693 62.3098 53.5148 62.6325 53.5157 62.9692Z" fill="white"/>
<path d="M49.592 66.0088C49.592 66.0088 54.5978 65.9751 54.5713 66.0088C54.3912 65.5388 54.0525 65.1345 53.605 64.8554C53.1574 64.5763 52.6246 64.4371 52.085 64.4584C50.0169 64.4584 49.7182 66.0334 49.592 66.0088Z" fill="white"/>
<path d="M75.7596 62.145H58.8767V63.4289H75.7596V62.145Z" fill="url(#paint9_linear_370_22944)"/>
<path d="M113.409 65.632H58.8767V66.9158H113.409V65.632Z" fill="#263238"/>
<path d="M113.409 70.2341H58.8767V71.518H113.409V70.2341Z" fill="#263238"/>
<path d="M109.18 38.7538C109.538 38.9231 109.837 39.1823 110.043 39.5015C110.251 39.8291 110.358 40.2033 110.352 40.5831C110.373 40.9253 110.28 41.2652 110.086 41.5575C110.008 41.6694 109.899 41.7607 109.771 41.8224C109.643 41.8842 109.5 41.9143 109.356 41.9098C109.207 41.9135 109.06 41.8762 108.934 41.8026C108.819 41.7287 108.735 41.6205 108.695 41.4962C108.592 41.634 108.452 41.7449 108.288 41.8179C108.125 41.8909 107.944 41.9236 107.763 41.9129C107.539 41.9157 107.318 41.8617 107.125 41.7566C106.935 41.6536 106.78 41.5041 106.677 41.3246C106.568 41.1285 106.513 40.9107 106.518 40.6903C106.515 40.477 106.57 40.2664 106.677 40.0775C106.78 39.8981 106.935 39.7485 107.125 39.6455C107.318 39.5405 107.539 39.4864 107.763 39.4892C107.932 39.4863 108.1 39.5155 108.257 39.575C108.402 39.6307 108.529 39.718 108.629 39.8293V39.5229H109.206V41.153C109.197 41.2412 109.223 41.3294 109.28 41.4012C109.304 41.4265 109.334 41.4465 109.368 41.4598C109.402 41.473 109.439 41.4792 109.475 41.4778C109.549 41.4773 109.621 41.4555 109.68 41.4153C109.74 41.3752 109.784 41.3188 109.807 41.2541C109.891 41.0488 109.929 40.8298 109.917 40.6107C109.924 40.2966 109.837 39.9868 109.665 39.716C109.5 39.4538 109.257 39.2411 108.964 39.1031C108.642 38.9552 108.285 38.8816 107.925 38.8887C107.56 38.8812 107.199 38.9592 106.876 39.1154C106.58 39.2588 106.335 39.4793 106.172 39.7497C106.004 40.0307 105.918 40.3477 105.924 40.6689C105.919 40.9896 106.003 41.3061 106.169 41.5881C106.331 41.8569 106.573 42.077 106.866 42.2224C107.187 42.3772 107.544 42.4552 107.905 42.4491C108.078 42.4483 108.251 42.4308 108.42 42.397C108.59 42.3625 108.755 42.309 108.911 42.2377L109.05 42.6207C108.88 42.6993 108.699 42.756 108.513 42.7892C108.313 42.8265 108.109 42.846 107.905 42.8474C107.458 42.8558 107.015 42.7576 106.621 42.5625C106.258 42.3835 105.958 42.1137 105.754 41.7842C105.545 41.439 105.439 41.049 105.446 40.6536C105.438 40.2616 105.546 39.8752 105.758 39.5352C105.963 39.2047 106.266 38.9349 106.631 38.7569C107.029 38.562 107.474 38.464 107.925 38.4719C108.362 38.4708 108.793 38.5675 109.18 38.7538ZM108.423 41.2419C108.498 41.1677 108.556 41.0804 108.593 40.985C108.63 40.8897 108.645 40.7884 108.639 40.6873C108.645 40.5876 108.629 40.4879 108.591 40.3942C108.554 40.3004 108.497 40.2146 108.423 40.1419C108.351 40.0758 108.265 40.024 108.17 39.9898C108.075 39.9555 107.974 39.9395 107.872 39.9427C107.769 39.9387 107.667 39.9547 107.572 39.9895C107.476 40.0243 107.39 40.0773 107.318 40.1449C107.245 40.2178 107.189 40.3033 107.153 40.3964C107.116 40.4895 107.1 40.5884 107.105 40.6873C107.099 40.7876 107.115 40.8881 107.151 40.9829C107.188 41.0776 107.244 41.1646 107.318 41.2388C107.389 41.308 107.475 41.3624 107.57 41.3984C107.666 41.4343 107.769 41.4509 107.872 41.4472C107.974 41.4501 108.076 41.4334 108.171 41.3981C108.266 41.3627 108.352 41.3095 108.423 41.2419Z" fill="#263238"/>
<path d="M113.273 40.6322H113.973V41.0673H113.216L113.107 41.8823H112.636L112.745 41.0673H111.869L111.759 41.8823H111.284L111.394 41.0673H110.69V40.6322H111.447L111.567 39.7773H110.866V39.3422H111.626L111.736 38.5272H112.207L112.098 39.3422H112.971L113.077 38.5272H113.552L113.442 39.3422H114.136V39.7773H113.379L113.273 40.6322ZM112.801 40.6322L112.914 39.7773H112.045L111.925 40.6322H112.801Z" fill="#263238"/>
<path d="M117.037 41.5912C116.787 41.7893 116.473 41.9047 116.144 41.9191V42.4553H115.716V41.9252C115.47 41.9117 115.226 41.8684 114.992 41.7965C114.792 41.741 114.606 41.6494 114.445 41.5269L114.68 41.0427C114.82 41.1457 114.977 41.2275 115.145 41.2848C115.328 41.3512 115.52 41.3925 115.716 41.4074V40.4483C115.506 40.4054 115.301 40.3459 115.102 40.2706C114.942 40.2063 114.801 40.1075 114.69 39.9826C114.574 39.8387 114.516 39.6623 114.524 39.4831C114.522 39.3593 114.549 39.2364 114.601 39.1224C114.654 39.0084 114.732 38.9059 114.83 38.8213C115.076 38.6224 115.389 38.5078 115.716 38.4965V37.9542H116.144V38.4842C116.337 38.4949 116.527 38.5258 116.712 38.5762C116.883 38.6224 117.046 38.6905 117.196 38.7784L116.984 39.2625C116.726 39.1238 116.44 39.0352 116.144 39.0021V39.9703C116.355 40.0138 116.561 40.0733 116.762 40.148C116.924 40.2093 117.066 40.3073 117.177 40.433C117.295 40.5757 117.355 40.7527 117.346 40.9324C117.348 41.0562 117.321 41.1789 117.268 41.2925C117.215 41.406 117.136 41.5079 117.037 41.5912ZM115.338 39.7068C115.455 39.7834 115.586 39.8386 115.726 39.8692V39.0174C115.581 39.0299 115.445 39.0835 115.334 39.1706C115.292 39.2066 115.259 39.2503 115.237 39.2989C115.215 39.3474 115.204 39.3998 115.205 39.4525C115.203 39.5016 115.214 39.5504 115.238 39.5946C115.261 39.6389 115.295 39.6774 115.338 39.7068ZM116.559 41.2388C116.602 41.2054 116.636 41.1636 116.659 41.1164C116.682 41.0692 116.693 41.0179 116.692 40.9661C116.694 40.9155 116.682 40.8652 116.658 40.8197C116.633 40.7742 116.597 40.7351 116.552 40.7057C116.431 40.6293 116.296 40.5733 116.154 40.5402V41.389C116.296 41.3825 116.433 41.3389 116.549 41.2634L116.559 41.2388Z" fill="#263238"/>
<path d="M117.94 40.0806C117.785 39.8879 117.701 39.6542 117.701 39.4142C117.701 39.1742 117.785 38.9405 117.94 38.7478C118.017 38.665 118.114 38.5994 118.223 38.5559C118.331 38.5124 118.449 38.4921 118.567 38.4965C118.686 38.4927 118.804 38.5133 118.913 38.5568C119.022 38.6002 119.12 38.6654 119.198 38.7478C119.365 38.935 119.451 39.1733 119.437 39.4157C119.45 39.658 119.365 39.896 119.198 40.0837C119.119 40.1655 119.022 40.2304 118.913 40.2738C118.804 40.3172 118.686 40.3381 118.567 40.3349C118.449 40.3387 118.331 40.3179 118.222 40.2738C118.114 40.2298 118.017 40.1638 117.94 40.0806ZM118.896 39.8447C118.972 39.7121 119.012 39.5643 119.012 39.4142C119.012 39.2641 118.972 39.1163 118.896 38.9837C118.859 38.9338 118.81 38.8929 118.752 38.8647C118.694 38.8364 118.63 38.8217 118.564 38.8217C118.499 38.8217 118.434 38.8364 118.376 38.8647C118.318 38.8929 118.269 38.9338 118.232 38.9837C118.152 39.1144 118.109 39.2622 118.109 39.4127C118.109 39.5631 118.152 39.7109 118.232 39.8416C118.269 39.8907 118.319 39.9304 118.377 39.9572C118.435 39.984 118.499 39.9969 118.564 39.9948C118.629 39.9984 118.693 39.9864 118.751 39.9601C118.81 39.9338 118.859 39.894 118.896 39.8447ZM120.745 38.5271H121.253L118.773 41.8976H118.265L120.745 38.5271ZM120.317 41.6617C120.162 41.4689 120.078 41.2353 120.078 40.9953C120.078 40.7552 120.162 40.5216 120.317 40.3288C120.397 40.2487 120.494 40.1848 120.603 40.141C120.711 40.0973 120.828 40.0747 120.946 40.0747C121.064 40.0747 121.181 40.0973 121.289 40.141C121.397 40.1848 121.495 40.2487 121.575 40.3288C121.732 40.5208 121.817 40.7547 121.817 40.9953C121.817 41.2358 121.732 41.4697 121.575 41.6617C121.495 41.7418 121.397 41.8057 121.289 41.8495C121.181 41.8932 121.064 41.9158 120.946 41.9158C120.828 41.9158 120.711 41.8932 120.603 41.8495C120.494 41.8057 120.397 41.7418 120.317 41.6617ZM121.273 41.4227C121.36 41.2958 121.402 41.1468 121.392 40.9968C121.402 40.8458 121.36 40.6959 121.273 40.5678C121.236 40.5179 121.186 40.477 121.129 40.4488C121.071 40.4206 121.006 40.4058 120.941 40.4058C120.875 40.4058 120.811 40.4206 120.753 40.4488C120.695 40.477 120.646 40.5179 120.609 40.5678C120.53 40.6997 120.489 40.8478 120.489 40.9983C120.489 41.1488 120.53 41.2969 120.609 41.4288C120.645 41.4787 120.695 41.5191 120.753 41.546C120.811 41.5728 120.876 41.5853 120.941 41.582C121.007 41.5845 121.072 41.5712 121.131 41.5432C121.19 41.5153 121.24 41.4738 121.276 41.4227H121.273Z" fill="#263238"/>
<path d="M122.418 41.8088C122.379 41.7742 122.349 41.7327 122.328 41.6869C122.308 41.641 122.298 41.5918 122.298 41.5422C122.297 41.493 122.307 41.444 122.327 41.3985C122.348 41.3531 122.379 41.3122 122.418 41.2787C122.458 41.2434 122.504 41.2158 122.556 41.1974C122.607 41.179 122.662 41.1701 122.717 41.1715C122.771 41.1702 122.825 41.1791 122.876 41.1975C122.927 41.2159 122.973 41.2435 123.012 41.2787C123.05 41.3129 123.08 41.3539 123.1 41.3993C123.12 41.4446 123.13 41.4933 123.128 41.5422C123.129 41.5915 123.119 41.6405 123.099 41.6862C123.079 41.732 123.05 41.7736 123.012 41.8088C122.973 41.844 122.927 41.8716 122.876 41.89C122.825 41.9084 122.771 41.9173 122.717 41.916C122.662 41.9173 122.607 41.9085 122.556 41.8901C122.504 41.8717 122.458 41.844 122.418 41.8088ZM122.335 38.5272H123.102L122.972 40.7701H122.458L122.335 38.5272Z" fill="#263238"/>
<path d="M61.6617 55.5604V58.0698H61.1539V56.9943H59.7497V58.0698H59.2385V55.5604H59.7464V56.5838H61.1505V55.5481L61.6617 55.5604Z" fill="#263238"/>
<path d="M64.1547 57.5029H62.7937L62.5281 58.082H62.007L63.2285 55.5725H63.7264L64.9547 58.082H64.4269L64.1547 57.5029ZM63.9887 57.1352L63.4742 56.0382L62.9663 57.1352H63.9887Z" fill="#263238"/>
<path d="M68.7919 55.5604V58.0698H68.2874V56.9943H66.8733V58.0698H66.3754V55.5604H66.8733V56.5838H68.2807V55.5481L68.7919 55.5604Z" fill="#263238"/>
<path d="M71.2849 57.5029H69.9272L69.6584 58.082H69.1372L70.3621 55.5725H70.8567L72.0849 58.082H71.5538L71.2849 57.5029ZM71.1189 57.1352L70.6077 56.0382L70.0965 57.1352H71.1189Z" fill="#263238"/>
<path d="M75.9221 55.5604V58.0698H75.4176V56.9943H74.0101V58.0698H73.5122V55.5604H74.0168V56.5838H75.4242V55.5481L75.9221 55.5604Z" fill="#263238"/>
<path d="M78.4184 57.5029H77.0574L76.7885 58.082H76.2673L77.4922 55.5725H77.9901L79.2183 58.082H78.6906L78.4184 57.5029ZM78.2491 57.1352L77.7379 56.0382L77.2267 57.1352H78.2491Z" fill="#263238"/>
<path d="M79.5171 58.0146C79.4878 57.9891 79.4647 57.9582 79.4492 57.9239C79.4338 57.8896 79.4264 57.8526 79.4275 57.8154C79.4264 57.7788 79.4338 57.7423 79.4493 57.7084C79.4648 57.6746 79.4879 57.6442 79.5171 57.6193C79.5788 57.5676 79.6594 57.5391 79.7428 57.5397C79.8244 57.5385 79.9032 57.5671 79.9619 57.6193C79.9907 57.6444 80.0133 57.6749 80.0282 57.7087C80.0431 57.7426 80.0499 57.779 80.0482 57.8154C80.05 57.8524 80.0432 57.8893 80.0283 57.9236C80.0134 57.958 79.9908 57.989 79.9619 58.0146C79.9333 58.041 79.899 58.0618 79.8613 58.0755C79.8237 58.0892 79.7833 58.0956 79.7428 58.0943C79.7013 58.0959 79.6599 58.0896 79.6211 58.0759C79.5823 58.0622 79.5469 58.0414 79.5171 58.0146ZM79.454 55.5634H80.0283L79.932 57.2425H79.547L79.454 55.5634Z" fill="#263238"/>
<path d="M123.998 52.9221H114.926V54.206H123.998V52.9221Z" fill="#263238"/>
<path d="M118.853 65.632H114.926V66.9158H118.853V65.632Z" fill="#263238"/>
<path d="M37.7616 86.6759C37.279 84.6871 37.3948 82.6143 38.0964 80.6818C38.7979 78.7493 40.0585 77.0307 41.7418 75.7117C43.4251 74.3928 45.467 73.5238 47.6468 73.1987C49.8265 72.8736 52.061 73.1048 54.1087 73.8673C56.1563 74.6297 57.9391 75.8945 59.2643 77.5247C60.5895 79.1549 61.4066 81.0886 61.6272 83.1165C61.8478 85.1444 61.4635 87.1894 60.5159 89.0303C59.5684 90.8711 58.0936 92.4378 56.251 93.5609L55.7299 96.8824L52.4104 95.1052C52.344 95.1052 52.2809 95.142 52.2145 95.1542C50.6624 95.4739 49.0573 95.5081 47.4908 95.255C45.9244 95.0019 44.4273 94.4663 43.0852 93.679C41.743 92.8917 40.582 91.868 39.6686 90.6664C38.7551 89.4647 38.1071 88.1088 37.7616 86.6759Z" fill="url(#paint10_linear_370_22944)"/>
<path d="M36.6927 80.3578H36.6661C36.6451 80.3527 36.6271 80.3403 36.616 80.3231C36.6048 80.3059 36.6014 80.2854 36.6064 80.2659C37.0923 78.4865 38.045 76.8447 39.3805 75.4853C40.716 74.126 42.3932 73.0907 44.2644 72.4709C44.2851 72.464 44.3079 72.4649 44.3278 72.4735C44.3478 72.4822 44.3632 72.4977 44.3706 72.5168C44.3771 72.5363 44.3751 72.5574 44.3653 72.5756C44.3554 72.5939 44.3383 72.6079 44.3175 72.6149C42.4728 73.2266 40.8193 74.2477 39.5029 75.5884C38.1866 76.9291 37.2477 78.548 36.7691 80.3026C36.7638 80.3178 36.7537 80.3312 36.7401 80.341C36.7264 80.3509 36.71 80.3567 36.6927 80.3578Z" fill="url(#paint11_linear_370_22944)"/>
<path d="M36.1516 83.6333C36.131 83.6342 36.1108 83.6276 36.0954 83.6151C36.0799 83.6025 36.0703 83.5849 36.0686 83.5659C36.0055 83.0024 36.0688 82.4329 36.2545 81.8929C36.262 81.8738 36.2773 81.858 36.297 81.8489C36.3168 81.8397 36.3396 81.838 36.3607 81.8439C36.3812 81.8502 36.3983 81.8637 36.4082 81.8814C36.4181 81.8992 36.4201 81.9198 36.4138 81.9389C36.2335 82.4588 36.1724 83.0077 36.2346 83.5506C36.2355 83.5607 36.2342 83.5708 36.2309 83.5804C36.2275 83.59 36.2221 83.5989 36.2151 83.6066C36.208 83.6143 36.1993 83.6206 36.1895 83.6252C36.1798 83.6298 36.1691 83.6325 36.1582 83.6333H36.1516Z" fill="url(#paint12_linear_370_22944)"/>
<g opacity="0.3">
<path d="M37.7616 86.6759C37.279 84.6871 37.3948 82.6143 38.0964 80.6818C38.7979 78.7493 40.0585 77.0307 41.7418 75.7117C43.4251 74.3928 45.467 73.5238 47.6468 73.1987C49.8265 72.8736 52.061 73.1048 54.1087 73.8673C56.1563 74.6297 57.9391 75.8945 59.2643 77.5247C60.5895 79.1549 61.4066 81.0886 61.6272 83.1165C61.8478 85.1444 61.4635 87.1894 60.5159 89.0303C59.5684 90.8711 58.0936 92.4378 56.251 93.5609L55.7299 96.8824L52.4104 95.1052C52.344 95.1052 52.2809 95.142 52.2145 95.1542C50.6624 95.4739 49.0573 95.5081 47.4908 95.255C45.9244 95.0019 44.4273 94.4663 43.0852 93.679C41.743 92.8917 40.582 91.868 39.6686 90.6664C38.7551 89.4647 38.1071 88.1088 37.7616 86.6759Z" fill="white"/>
</g>
<path d="M49.8246 90.3191C49.6149 90.3249 49.4062 90.2917 49.2106 90.2217C49.0151 90.1517 48.8367 90.0463 48.686 89.9116C48.5384 89.7851 48.4213 89.6313 48.3424 89.4603C48.2635 89.2892 48.2245 89.1047 48.2279 88.9189C48.2233 88.7364 48.2609 88.5551 48.3381 88.3871C48.4154 88.219 48.5306 88.0682 48.676 87.9445C48.9965 87.6914 49.4045 87.5523 49.8262 87.5523C50.248 87.5523 50.6559 87.6914 50.9764 87.9445C51.1219 88.0682 51.2371 88.219 51.3144 88.3871C51.3916 88.5551 51.4292 88.7364 51.4246 88.9189C51.428 89.1047 51.389 89.2892 51.3101 89.4603C51.2312 89.6313 51.1141 89.7851 50.9665 89.9116C50.8153 90.0465 50.6364 90.1521 50.4402 90.2221C50.2441 90.2921 50.0348 90.3251 49.8246 90.3191ZM50.8569 86.4615H48.7922L48.2844 79.4355H51.3814L50.8569 86.4615Z" fill="white"/>
<path d="M20.6397 101.754C19.2494 100.599 18.2277 99.1151 17.6849 97.4627C17.1422 95.8104 17.0991 94.0525 17.5604 92.3792C18.0216 90.7059 18.9697 89.1808 20.302 87.9689C21.6343 86.7569 23.3002 85.9042 25.1195 85.503C26.9388 85.1017 28.8424 85.1671 30.6243 85.6922C32.4063 86.2173 33.9988 87.182 35.2298 88.4821C36.4607 89.7822 37.2832 91.3681 37.6083 93.0685C37.9335 94.7688 37.7489 96.5189 37.0745 98.1294L38.4819 100.66L35.2388 100.942L35.1326 101.062C33.3099 102.927 30.7592 104.048 28.0415 104.178C25.3237 104.308 22.6613 103.436 20.6397 101.754Z" fill="url(#paint13_linear_370_22944)"/>
<path d="M16.5037 97.8996C16.487 97.8998 16.4707 97.8952 16.457 97.8865C16.4433 97.8777 16.4329 97.8651 16.4273 97.8506C15.8156 96.3994 15.5999 94.8316 15.799 93.2853C15.9981 91.739 16.606 90.2616 17.5692 88.9832C17.5825 88.9671 17.6018 88.9562 17.6234 88.9528C17.645 88.9494 17.6671 88.9537 17.6854 88.9648C17.6944 88.9706 17.702 88.978 17.7079 88.9865C17.7138 88.9951 17.7177 89.0046 17.7196 89.0146C17.7214 89.0245 17.7211 89.0348 17.7187 89.0446C17.7162 89.0545 17.7117 89.0638 17.7053 89.072C16.7573 90.3289 16.1588 91.7817 15.9625 93.3024C15.7663 94.8232 15.9784 96.3651 16.58 97.7924C16.5843 97.8018 16.5865 97.8119 16.5865 97.8222C16.5865 97.8324 16.5843 97.8426 16.5799 97.852C16.5756 97.8614 16.5693 97.8699 16.5613 97.8771C16.5533 97.8842 16.5439 97.8898 16.5336 97.8935L16.5037 97.8996Z" fill="url(#paint14_linear_370_22944)"/>
<path d="M17.8713 100.4C17.8594 100.4 17.8476 100.398 17.8367 100.394C17.8258 100.39 17.8161 100.383 17.8082 100.375C17.4651 100.013 17.2054 99.5894 17.0447 99.1313C17.0412 99.1217 17.0398 99.1115 17.0406 99.1013C17.0414 99.0912 17.0443 99.0813 17.0493 99.0721C17.0542 99.063 17.061 99.0549 17.0694 99.0483C17.0777 99.0416 17.0874 99.0365 17.0978 99.0333C17.1083 99.0301 17.1193 99.0288 17.1303 99.0295C17.1413 99.0302 17.1521 99.0329 17.1619 99.0375C17.1718 99.042 17.1806 99.0483 17.1878 99.056C17.195 99.0637 17.2006 99.0726 17.204 99.0823C17.3549 99.5222 17.6036 99.9282 17.9343 100.274C17.9423 100.281 17.9486 100.289 17.9529 100.299C17.9573 100.308 17.9595 100.318 17.9595 100.328C17.9595 100.338 17.9573 100.348 17.9529 100.357C17.9486 100.366 17.9423 100.375 17.9343 100.381C17.926 100.389 17.916 100.394 17.9051 100.397C17.8941 100.4 17.8826 100.401 17.8713 100.4Z" fill="url(#paint15_linear_370_22944)"/>
<path d="M24.9285 91.4253L23.5697 92.7484L29.985 98.362L31.3438 97.0389L24.9285 91.4253Z" fill="white"/>
<path d="M31.2088 92.5498L29.7754 91.2955L23.6939 97.2173L25.1272 98.4715L31.2088 92.5498Z" fill="white"/>
<path d="M29.4364 122.547C27.9422 122.632 26.4512 122.339 25.1245 121.699C23.7979 121.058 22.686 120.096 21.9092 118.914C21.1324 117.733 20.7202 116.378 20.7171 114.997C20.714 113.615 21.1201 112.258 21.8916 111.074C22.6631 109.89 23.7707 108.923 25.0944 108.278C26.4182 107.632 27.9079 107.333 29.4024 107.413C30.897 107.493 32.3395 107.948 33.5741 108.729C34.8087 109.511 35.7884 110.589 36.4072 111.847L38.7608 112.524L37.101 114.39C37.101 114.433 37.101 114.473 37.101 114.516C37.2347 116.518 36.5031 118.488 35.0664 119.993C33.6297 121.499 31.6052 122.417 29.4364 122.547Z" fill="url(#paint16_linear_370_22944)"/>
<path d="M24.6829 122.599C24.6721 122.602 24.6606 122.602 24.6497 122.599C23.4064 122.107 22.3132 121.341 21.4663 120.367C20.6194 119.394 20.0449 118.243 19.7933 117.016C19.7914 117.006 19.7918 116.996 19.7943 116.986C19.7968 116.976 19.8014 116.967 19.8079 116.958C19.8144 116.95 19.8226 116.943 19.8321 116.938C19.8416 116.932 19.8521 116.929 19.863 116.927C19.8846 116.924 19.9068 116.928 19.9249 116.94C19.9429 116.951 19.9553 116.969 19.9593 116.989C20.205 118.191 20.7675 119.319 21.597 120.274C22.4266 121.228 23.4977 121.979 24.7161 122.461C24.7364 122.469 24.7526 122.484 24.7612 122.503C24.7699 122.522 24.7704 122.543 24.7626 122.562C24.7548 122.575 24.743 122.585 24.7288 122.592C24.7146 122.598 24.6987 122.601 24.6829 122.599Z" fill="url(#paint17_linear_370_22944)"/>
<path d="M27.0032 123.285C26.583 123.261 26.1728 123.157 25.7983 122.979C25.7785 122.97 25.7635 122.953 25.7566 122.934C25.7498 122.914 25.7516 122.893 25.7618 122.875C25.7719 122.857 25.7895 122.843 25.8106 122.836C25.8318 122.83 25.8548 122.832 25.8746 122.841C26.2286 123.008 26.6165 123.104 27.0132 123.123C27.0349 123.125 27.0552 123.134 27.07 123.148C27.0848 123.163 27.0929 123.183 27.0929 123.203C27.0939 123.214 27.0922 123.225 27.0881 123.235C27.0839 123.246 27.0774 123.255 27.0688 123.263C27.0603 123.271 27.05 123.277 27.0387 123.281C27.0274 123.285 27.0153 123.286 27.0032 123.285Z" fill="url(#paint18_linear_370_22944)"/>
<g opacity="0.6">
<path d="M29.4364 122.547C27.9422 122.632 26.4512 122.339 25.1245 121.699C23.7979 121.058 22.686 120.096 21.9092 118.914C21.1324 117.733 20.7202 116.378 20.7171 114.997C20.714 113.615 21.1201 112.258 21.8916 111.074C22.6631 109.89 23.7707 108.923 25.0944 108.278C26.4182 107.632 27.9079 107.333 29.4024 107.413C30.897 107.493 32.3395 107.948 33.5741 108.729C34.8087 109.511 35.7884 110.589 36.4072 111.847L38.7608 112.524L37.101 114.39C37.101 114.433 37.101 114.473 37.101 114.516C37.2347 116.518 36.5031 118.488 35.0664 119.993C33.6297 121.499 31.6052 122.417 29.4364 122.547Z" fill="white"/>
</g>
<path d="M28.7857 116.928C28.3569 116.542 27.9534 116.132 27.5775 115.702C27.5775 115.702 27.8895 114.982 28.1949 114.268C28.0779 113.97 27.9122 113.69 27.7036 113.438C27.2953 113.012 26.9567 112.662 26.3957 112.518C26.0431 112.396 25.6621 112.359 25.2897 112.413C24.9174 112.467 24.5665 112.609 24.2713 112.825C23.6406 113.294 23.5377 114.158 23.7235 114.887C23.9588 115.631 24.3742 116.316 24.9385 116.891C25.9775 117.994 26.9036 118.83 28.1418 119.443C28.477 118.233 28.8554 116.946 28.7857 116.928Z" fill="url(#paint19_linear_370_22944)"/>
<path d="M33.0314 112.763C32.7361 112.547 32.3852 112.405 32.0129 112.352C31.6406 112.298 31.2595 112.334 30.9069 112.457C30.3459 112.61 30.0073 112.96 29.599 113.376C29.3735 113.638 29.1943 113.93 29.0679 114.243L29.048 114.194L28.4272 115.628C28.8035 116.063 29.207 116.478 29.6355 116.869C29.7086 116.891 29.3301 118.175 28.9716 119.373L29.0646 119.419C30.6579 118.576 31.2953 117.948 32.3608 116.817C32.9257 116.243 33.3412 115.558 33.5758 114.813C33.765 114.096 33.6787 113.232 33.0314 112.763Z" fill="url(#paint20_linear_370_22944)"/>
<path d="M50.2824 22.944C50.3354 14.1563 42.6608 6.99259 33.1406 6.94339C23.6205 6.89418 15.8599 13.9781 15.8068 22.7658C15.7538 31.5534 23.4284 38.7171 32.9486 38.7663C42.4687 38.8155 50.2293 31.7316 50.2824 22.944Z" fill="url(#paint21_linear_370_22944)"/>
<path d="M20.7327 19.202L31.6505 23.5408L32.3144 22.6522L31.5078 24.8307L28.1717 23.5837C28.1717 23.5837 28.1319 26.8898 26.6182 27.0552C25.1045 27.2207 25.5393 23.0719 25.5393 23.0719L20.2581 21.2335L20.7327 19.202Z" fill="#263238"/>
<path d="M45.3499 18.5647L34.7807 23.4151L33.8413 22.8023L34.9467 24.7082L38.1799 23.2926C38.1799 23.2926 38.4122 26.5926 39.9325 26.663C41.4529 26.7335 40.7724 22.6368 40.7724 22.6368L45.9607 20.5747L45.3499 18.5647Z" fill="#263238"/>
<path d="M28.6265 32.2274C28.6265 32.2274 30.1202 28.6945 33.2107 28.3605C36.3011 28.0265 38.5616 32.2274 38.5616 32.2274L38.0903 32.6165C38.0903 32.6165 35.3384 28.7006 33.3468 28.7803C31.3551 28.86 29.1908 32.8494 29.1908 32.8494L28.6265 32.2274Z" fill="#263238"/>
<path d="M24.8953 17.6884L24.3609 17.2809C24.7625 16.8274 25.3567 15.9143 25.2339 15.421C25.1111 14.9277 24.0522 14.4527 23.4115 14.2689L23.6173 13.6561C23.8298 13.7173 25.6654 14.2689 25.9111 15.28C26.1567 16.2912 25.048 17.5444 24.8953 17.6884Z" fill="#263238"/>
<path d="M26.5451 18.1112C26.5451 17.8477 26.3525 15.5619 27.438 14.8786C28.1335 14.4742 28.9397 14.2616 29.7616 14.2658V14.9123C29.0875 14.9209 28.4283 15.0966 27.8529 15.421C27.2919 15.7795 27.209 17.2104 27.2654 18.0683L26.5451 18.1112Z" fill="#263238"/>
<path d="M26.8803 14.1678C26.6572 14.1715 26.4344 14.1509 26.2164 14.1065C25.7485 13.964 25.319 13.7306 24.9571 13.4219C24.5952 13.1132 24.3093 12.7365 24.1185 12.3171L24.7625 12.0781C24.9112 12.4062 25.1323 12.7021 25.4118 12.9468C25.6913 13.1916 26.023 13.38 26.3857 13.4998C27.1426 13.6653 28.0455 13.3374 29.0114 12.5315L29.4695 13.0095C28.7754 13.6577 27.8615 14.0665 26.8803 14.1678Z" fill="#263238"/>
<path d="M152.72 94.3287C154.972 91.0761 153.941 86.7544 150.417 84.6758C146.894 82.5973 142.212 83.5491 139.96 86.8017C137.708 90.0543 138.739 94.376 142.263 96.4545C145.787 98.5331 150.469 97.5813 152.72 94.3287Z" fill="url(#paint22_linear_370_22944)"/>
<path d="M141.472 87.8525L145.671 90.7174L146.046 90.411L145.462 91.269L144.171 90.4264C144.171 90.4264 143.796 91.8358 143.132 91.7684C142.468 91.701 143.102 89.9668 143.102 89.9668L141.04 88.6982L141.472 87.8525Z" fill="#263238"/>
<path d="M152.068 89.8595L147.019 90.9564L146.687 90.6133L146.952 91.5325L148.489 91.2261C148.489 91.2261 148.23 92.657 148.871 92.8347C149.512 93.0124 149.668 91.1893 149.668 91.1893L152.107 90.7726L152.068 89.8595Z" fill="#263238"/>
<path d="M143.43 94.1585C143.43 94.1585 144.453 92.7827 145.81 92.9328C147.168 93.083 147.683 95.0777 147.683 95.0777L147.437 95.2002C147.437 95.2002 146.677 93.2699 145.827 93.1228C144.977 92.9757 143.606 94.4771 143.606 94.4771L143.43 94.1585Z" fill="#263238"/>
<path d="M143.414 87.5921L143.228 87.3684C143.45 87.2122 143.802 86.8782 143.802 86.6545C143.802 86.4308 143.404 86.1305 143.138 85.9927L143.291 85.7567C143.377 85.8027 144.101 86.2133 144.098 86.6759C144.094 87.1386 143.487 87.5308 143.414 87.5921Z" fill="#263238"/>
<path d="M144.071 87.9261C144.101 87.8127 144.267 86.8199 144.805 86.6269C145.146 86.5194 145.513 86.5046 145.864 86.584L145.794 86.8567C145.504 86.7987 145.202 86.8136 144.921 86.8996C144.642 87.0007 144.453 87.6043 144.383 87.9782L144.071 87.9261Z" fill="#263238"/>
<path d="M144.645 86.2715C144.552 86.2507 144.461 86.222 144.373 86.1857C144.189 86.0811 144.031 85.9415 143.909 85.7761C143.788 85.6108 143.706 85.4234 143.669 85.2266L143.972 85.1837C144 85.3377 144.062 85.4845 144.155 85.6149C144.249 85.7452 144.37 85.8561 144.513 85.9405C144.818 86.0815 145.233 86.0233 145.741 85.769L145.884 86.0171C145.515 86.2311 145.078 86.321 144.645 86.2715Z" fill="#263238"/>
<path d="M115.474 12.887C115.332 12.4214 115.155 11.9657 114.943 11.5235C113.887 9.27791 112.171 7.35072 109.988 5.961C107.805 4.57128 105.244 3.7748 102.595 3.66212C99.9457 3.54945 97.3157 4.12509 95.0036 5.3236C92.6915 6.52211 90.7901 8.2954 89.5155 10.4418C89.2275 10.9382 88.9715 11.4497 88.7487 11.9739C87.982 13.7502 87.6463 15.6601 87.7652 17.5691C87.8842 19.4782 88.4549 21.3399 89.4372 23.0234C90.4196 24.7069 91.7896 26.1713 93.451 27.3134C95.1125 28.4556 97.0249 29.2478 99.0537 29.6343C101.082 30.0208 103.178 29.9922 105.194 29.5505C107.209 29.1089 109.096 28.2649 110.72 27.0779C112.344 25.8909 113.667 24.3899 114.595 22.6803C115.523 20.9707 116.033 19.0942 116.091 17.1828C116.152 15.7289 115.943 14.276 115.474 12.887Z" fill="url(#paint23_linear_370_22944)"/>
<path opacity="0.3" d="M115.474 12.887C115.332 12.4214 115.155 11.9657 114.943 11.5235C113.887 9.27791 112.171 7.35072 109.988 5.961C107.805 4.57128 105.244 3.7748 102.595 3.66212C99.9457 3.54945 97.3157 4.12509 95.0036 5.3236C92.6915 6.52211 90.7901 8.2954 89.5155 10.4418C89.2275 10.9382 88.9715 11.4497 88.7487 11.9739C87.982 13.7502 87.6463 15.6601 87.7652 17.5691C87.8842 19.4782 88.4549 21.3399 89.4372 23.0234C90.4196 24.7069 91.7896 26.1713 93.451 27.3134C95.1125 28.4556 97.0249 29.2478 99.0537 29.6343C101.082 30.0208 103.178 29.9922 105.194 29.5505C107.209 29.1089 109.096 28.2649 110.72 27.0779C112.344 25.8909 113.667 24.3899 114.595 22.6803C115.523 20.9707 116.033 19.0942 116.091 17.1828C116.152 15.7289 115.943 14.276 115.474 12.887Z" fill="white"/>
<path d="M104.383 13.3343C104.383 13.3343 105.379 11.3702 107.039 11.3273C109.167 11.2814 109.89 13.5641 109.89 13.5641H109.031C109.031 13.5641 108.344 11.787 107.062 11.885C105.469 12.0045 104.805 13.5182 104.805 13.5182L104.383 13.3343Z" fill="#263238"/>
<path d="M98.9694 13.0279C98.9694 13.0279 97.864 11.1067 96.2076 11.1405C94.0798 11.1895 93.479 13.4937 93.479 13.4937H94.3089C94.3089 13.4937 94.9031 11.6889 96.1844 11.7349C97.781 11.7839 98.5246 13.2669 98.5246 13.2669L98.9694 13.0279Z" fill="#263238"/>
<path d="M92.7652 16.2268C92.7652 16.2268 102.813 17.9243 110.259 16.6496C110.259 16.6496 109.329 25.8633 100.722 24.9226C92.1146 23.982 92.7652 16.2268 92.7652 16.2268Z" fill="#263238"/>
<path d="M93.0076 16.2268C93.0076 16.2268 102.787 17.8385 109.88 16.714C109.88 16.714 109.442 17.67 109.144 17.863C108.744 18.0065 108.329 18.1093 107.905 18.1694C107.85 18.3061 107.752 18.4245 107.623 18.5095C106.923 18.868 104.367 18.6719 104.367 18.6719C104.367 18.6719 104.324 18.8588 104.234 18.9109C103.637 19.2786 101.957 19.3338 101.383 18.9446C101.236 18.7758 101.123 18.5837 101.051 18.3778C101.051 18.3778 100.918 18.868 100.782 18.9508C100.33 19.2388 99.0523 19.0335 98.6009 18.7455C98.4505 18.608 98.3369 18.4402 98.2689 18.2552C98.2689 18.2552 96.5528 18.3655 96.0748 18.1204C95.906 17.9716 95.7657 17.7976 95.6598 17.6056C95.6598 17.6056 93.7511 17.6302 93.303 17.2686C93.0972 17.0878 93.0076 16.2268 93.0076 16.2268Z" fill="white"/>
<path d="M95.4673 22.8421C95.4673 22.8421 97.6349 21.6808 101.183 21.7789C105.007 21.8861 106.896 23.3109 106.896 23.3109C106.896 23.3109 105.353 25.1892 100.828 25.1494C99.8097 25.1312 98.8066 24.9165 97.8834 24.5192C96.9601 24.1218 96.1371 23.5506 95.4673 22.8421Z" fill="url(#paint24_linear_370_22944)"/>
<path d="M32.57 60.9592C32.4446 60.7542 32.3038 60.5576 32.1484 60.3709C31.3701 59.4205 30.3185 58.6907 29.1131 58.2645C27.9078 57.8383 26.597 57.7329 25.33 57.9602C24.063 58.1875 22.8904 58.7383 21.9457 59.5501C21.001 60.362 20.322 61.4022 19.9859 62.5525C19.9115 62.8168 19.8538 63.0848 19.8133 63.3553C19.6719 64.2766 19.751 65.2153 20.0449 66.1054C20.3388 66.9955 20.8403 67.8153 21.5143 68.5073C22.1883 69.1992 23.0183 69.7465 23.946 70.1106C24.8737 70.4747 25.8765 70.6468 26.884 70.6147C27.8914 70.5827 28.879 70.3473 29.7774 69.9251C30.6757 69.503 31.463 68.9043 32.0837 68.1711C32.7045 67.438 33.1437 66.5882 33.3705 65.6816C33.5974 64.7749 33.6062 63.8334 33.3966 62.9233C33.244 62.23 32.9645 61.5658 32.57 60.9592Z" fill="url(#paint25_linear_370_22944)"/>
<path opacity="0.3" d="M32.57 60.9592C32.4446 60.7542 32.3038 60.5576 32.1484 60.3709C31.3701 59.4205 30.3185 58.6907 29.1131 58.2645C27.9078 57.8383 26.597 57.7329 25.33 57.9602C24.063 58.1875 22.8904 58.7383 21.9457 59.5501C21.001 60.362 20.322 61.4022 19.9859 62.5525C19.9115 62.8168 19.8538 63.0848 19.8133 63.3553C19.6719 64.2766 19.751 65.2153 20.0449 66.1054C20.3388 66.9955 20.8403 67.8153 21.5143 68.5073C22.1883 69.1992 23.0183 69.7465 23.946 70.1106C24.8737 70.4747 25.8765 70.6468 26.884 70.6147C27.8914 70.5827 28.879 70.3473 29.7774 69.9251C30.6757 69.503 31.463 68.9043 32.0837 68.1711C32.7045 67.438 33.1437 66.5882 33.3705 65.6816C33.5974 64.7749 33.6062 63.8334 33.3966 62.9233C33.244 62.23 32.9645 61.5658 32.57 60.9592Z" fill="white"/>
<path d="M27.3716 62.3473C27.3716 62.3473 27.6039 61.3116 28.3674 61.1216C29.3633 60.8765 29.994 61.8785 29.994 61.8785L29.6023 61.9673C29.6023 61.9673 29.0579 61.1982 28.4637 61.3821C28.2375 61.468 28.0391 61.6061 27.8874 61.7832C27.7357 61.9602 27.6358 62.1703 27.5973 62.3932L27.3716 62.3473Z" fill="#263238"/>
<path d="M24.7824 62.7731C24.7824 62.7731 24.019 61.9795 23.2389 62.1603C22.243 62.4085 22.243 63.5637 22.243 63.5637L22.6347 63.4748C22.6347 63.4748 22.6912 62.5556 23.2986 62.4422C23.5414 62.4141 23.788 62.4434 24.0151 62.5276C24.2422 62.6118 24.4423 62.7479 24.5965 62.9233L24.7824 62.7731Z" fill="#263238"/>
<path d="M22.2463 64.9424C22.2463 64.9424 27.2255 64.682 30.5749 63.2909C30.5749 63.2909 31.2786 67.7491 27.0895 68.2087C22.9003 68.6683 22.2463 64.9424 22.2463 64.9424Z" fill="#263238"/>
<path d="M22.3593 64.918C22.3593 64.918 27.1858 64.6453 30.399 63.3615C30.367 63.5747 30.2975 63.7817 30.1932 63.9743C30.0227 64.0852 29.8389 64.1777 29.6455 64.25C29.6382 64.3205 29.6068 64.3871 29.5559 64.44C29.2671 64.6851 28.0356 64.8628 28.0356 64.8628C28.0384 64.9078 28.0268 64.9526 28.0024 64.9915C27.8144 65.1274 27.5975 65.2249 27.3657 65.2777C27.134 65.3305 26.8928 65.3374 26.658 65.2979C26.5686 65.2327 26.4932 65.1527 26.4356 65.062C26.4356 65.062 26.4356 65.3102 26.3791 65.3684C26.2032 65.5553 25.5725 65.5921 25.3235 65.5032C25.2371 65.4528 25.1643 65.3847 25.1111 65.3041C24.7717 65.414 24.4152 65.472 24.0555 65.4757C23.9583 65.4211 23.871 65.3529 23.7966 65.2734C23.7966 65.2734 22.897 65.4879 22.6414 65.3623C22.5086 65.3133 22.3593 64.918 22.3593 64.918Z" fill="white"/>
<path d="M24.3442 67.7859C25.0851 67.225 25.9699 66.8493 26.9135 66.6951C28.7359 66.3397 29.8081 66.8085 29.8081 66.8085C29.8081 66.8085 29.3102 67.8625 27.1525 68.3405C26.6684 68.4333 26.1686 68.4318 25.6851 68.3364C25.2016 68.2409 24.7449 68.0534 24.3442 67.7859Z" fill="url(#paint26_linear_370_22944)"/>
<path d="M147.536 54.5982L144.393 44.4285L142.504 44.6675C141.774 44.6951 137.581 44.9739 134.889 45.1762C133.315 45.2857 131.841 45.9331 130.755 46.9921C129.67 48.0511 129.052 49.4455 129.02 50.9029L128.918 55.7472C128.898 56.4393 129.173 57.1108 129.683 57.6186C130.193 58.1263 130.897 58.4301 131.646 58.465L132.549 58.5049C133.485 58.5414 134.421 58.438 135.321 58.1985L137.847 57.5366C137.16 58.5753 136.137 60.6558 136.874 63.0979C137.296 64.4859 138.962 64.0508 138.962 64.0508C138.962 64.0508 140.954 58.0146 145.933 55.4224L147.536 54.5982Z" fill="url(#paint27_linear_370_22944)"/>
<path d="M151.306 41.5546L144.137 43.0349C143.577 43.1506 143.225 43.6633 143.35 44.1802L146.187 55.8837C146.312 56.4006 146.868 56.7259 147.428 56.6103L154.596 55.1299C155.156 55.0143 155.509 54.5015 155.383 53.9847L152.547 42.2812C152.422 41.7643 151.866 41.439 151.306 41.5546Z" fill="url(#paint28_linear_370_22944)"/>
<path d="M133.904 76.9046C133.034 76.3102 131.822 76.2183 130.71 76.013C126.471 75.2316 123.152 72.5996 120.772 69.606C118.392 66.6124 116.765 63.2113 114.674 60.0583C113.721 58.6335 112.632 57.221 111.022 56.3324C109.412 55.4438 105.183 54.6196 103.988 58.3792L106.01 63.3246C106.033 65.9934 107.205 68.4876 108.556 70.8132C109.907 73.1389 106.501 70.0196 107.391 72.526C107.922 74.0336 110.8 80.655 111.374 82.1442C111.949 83.6333 115.238 85.4227 116.748 86.3052C118.644 87.399 121.21 87.4419 123.57 87.0314C126.642 86.4937 129.529 85.2832 131.988 83.5015C133.17 82.6405 134.262 81.611 134.757 80.3793C135.251 79.1475 135.029 77.6767 133.904 76.9046Z" fill="#263238"/>
<path d="M80.3005 79.506L79.1155 84.7118L86.0897 85.9007V82.0553L80.3005 79.506Z" fill="#B97964"/>
<path d="M97.0175 89.6144C96.2341 89.5225 93.1569 90.169 89.8076 95.2431C86.342 100.495 85.6217 101.065 85.6217 101.065L86.903 85.5484L77.967 83.7437C77.6616 83.8386 71.8957 105.768 74.1264 109.516C76.3571 113.263 80.3006 116.768 86.4848 114.666C89.9204 113.505 99.4042 103.158 99.4042 103.158L97.0175 89.6144Z" fill="url(#paint29_linear_370_22944)"/>
<path d="M84.9943 83.1676C84.9943 83.1676 87.4109 83.3422 88.9179 82.1258C90.425 80.9093 91.4308 79.9104 92.4863 78.933C93.5419 77.9556 91.5303 78.0965 90.4747 78.3692C89.4192 78.6419 88.7785 79.3405 88.6855 78.5776C88.5926 77.8146 91.4208 71.7416 91.1586 70.6968C90.8963 69.6519 90.1063 70.5007 90.1063 70.5007C90.1063 70.5007 90.7503 69.0115 90.1793 68.6132C90.0299 68.5121 89.5154 68.4937 89.0972 69.131C88.1744 70.565 86.4117 73.6659 86.4117 73.6659C86.5179 73.4882 88.4034 69.5171 88.5959 68.889C88.8548 68.0678 88.5229 67.5592 88.0017 67.4366C87.2582 67.262 84.7453 72.1124 84.4831 72.2472C84.4831 72.2472 86.0333 69.4895 85.4789 68.7419C84.9246 67.9943 83.8524 69.6611 83.2084 71.3157C82.6176 72.8263 81.0308 75.6453 80.5894 77.2355C80.0483 79.1935 80.1611 80.6213 81.7644 81.8102C82.6962 82.5123 83.8088 82.9799 84.9943 83.1676Z" fill="#B97964"/>
<path opacity="0.3" d="M88.2408 74.2267H88.2209C88.2115 74.2215 88.2045 74.2133 88.2015 74.2036C88.1984 74.194 88.1994 74.1836 88.2043 74.1746C88.8516 73.0715 89.4823 71.7509 90.0665 70.4977C90.0704 70.4883 90.0783 70.4808 90.0882 70.4768C90.0982 70.4728 90.1095 70.4726 90.1196 70.4762C90.1297 70.4799 90.1379 70.4871 90.1422 70.4963C90.1466 70.5055 90.1468 70.5159 90.1428 70.5253C89.5553 71.7907 88.9246 73.1113 88.2773 74.2021C88.2751 74.2094 88.2703 74.2158 88.2636 74.2202C88.257 74.2247 88.249 74.2269 88.2408 74.2267Z" fill="#1E1E1E"/>
<path opacity="0.2" d="M83.391 74.8364C83.5238 75.7188 84.1645 76.7606 84.5329 77.5941C85.4793 79.4335 86.7859 81.0956 88.3868 82.4966C88.6391 82.1687 88.1312 80.8542 88.42 80.5172C88.9976 79.8308 89.5819 79.2088 90.1495 78.6481L86.0367 73.1297C85.5122 73.4882 83.4209 71.5119 82.9462 71.9255C82.6707 72.1798 83.0856 73.62 83.391 74.8364Z" fill="#1E1E1E"/>
<path d="M141.893 127.036C137.578 117.105 134.876 110.217 131.792 91.8358C131.032 87.3163 126.481 84.3595 121.811 84.7425C120.483 84.8528 116.048 84.3442 108.343 86.0539C102.717 87.3041 96.3934 89.6542 96.3934 89.6542C96.3934 89.6542 91.4142 101.203 96.6258 112.276C98.9726 117.265 106.01 119.682 104.496 127.008L141.893 127.036Z" fill="url(#paint30_linear_370_22944)"/>
<path d="M103.852 57.9717C105.363 57.702 106.923 58.37 108.018 59.3658C108.772 60.0164 109.297 60.8607 109.525 61.7895C109.632 62.2529 109.621 62.7328 109.494 63.1916C109.366 63.6504 109.124 64.0756 108.788 64.4338C108.439 64.7823 107.98 65.0206 107.476 65.1152C106.972 65.2098 106.449 65.1558 105.98 64.9608C105.157 64.5686 104.699 63.7168 104.543 62.8711C104.387 62.0255 104.473 61.1644 104.433 60.3126C104.393 59.4608 104.214 58.56 103.613 57.9104" fill="url(#paint31_linear_370_22944)"/>
<path d="M114.641 85.0581C113.864 88.0671 112.687 90.9756 111.135 93.7172C110.618 94.5949 109.997 95.417 109.283 96.1684C107.364 98.203 106.196 98.2673 105.157 97.3941C104.805 97.0821 104.478 96.7473 104.178 96.3921C102.929 94.7743 101.691 93.9163 102.787 92.2035C104.018 90.2762 104.41 88.8576 103.361 87.206C102.72 86.234 101.955 85.3361 101.084 84.5311L101.854 82.5333L106.335 73.1511C108.035 77.7748 109.774 83.952 114.641 85.0581Z" fill="#B97964"/>
<path opacity="0.2" d="M103.58 87.5921C105.13 85.7812 106.544 83.0971 105.376 81.0074C104.955 80.2386 104.437 79.5187 103.832 78.8625L101.821 85.2971C102.492 86.0038 103.081 86.773 103.58 87.5921Z" fill="#1E1E1E"/>
<path d="M105.379 65.1447C107.563 72.3115 108.649 75.2929 106.282 80.2904C102.724 87.8096 93.0042 89.1363 88.6191 82.8182C84.669 77.1344 81.7611 66.3703 87.9187 60.858C93.9801 55.4285 103.192 57.9778 105.379 65.1447Z" fill="#B97964"/>
<path d="M95.8789 70.9082C96.2706 71.5027 96.2374 72.2135 95.8092 72.4985C95.381 72.7834 94.7138 72.5291 94.3254 71.9347C93.9371 71.3403 93.9636 70.6294 94.3951 70.3444C94.8267 70.0595 95.4872 70.3138 95.8789 70.9082Z" fill="#263238"/>
<path d="M88.6092 73.5556C88.971 74.1377 88.9112 74.8363 88.4764 75.109C88.0415 75.3817 87.3976 75.1335 87.0324 74.5483C86.6673 73.9631 86.727 73.2675 87.1619 72.9918C87.5967 72.716 88.244 72.9703 88.6092 73.5556Z" fill="#263238"/>
<path d="M93.6748 67.4091C93.7195 67.3851 93.7692 67.3699 93.8206 67.3647C93.8721 67.3594 93.9242 67.3641 93.9735 67.3785C94.4247 67.5275 94.9087 67.5711 95.3826 67.5053C95.8564 67.4395 96.3052 67.2665 96.6889 67.0016C96.7263 66.9707 96.7702 66.9473 96.818 66.9329C96.8657 66.9186 96.9161 66.9135 96.9661 66.9182C97.0161 66.9228 97.0644 66.9369 97.1081 66.9597C97.1518 66.9825 97.1899 67.0135 97.22 67.0506C97.2821 67.13 97.31 67.2279 97.2984 67.3253C97.2867 67.4227 97.2363 67.5126 97.1569 67.5776C96.6782 67.9223 96.1133 68.1504 95.5141 68.2409C94.9149 68.3314 94.3007 68.2814 93.7279 68.0955C93.6297 68.0616 93.5499 67.9935 93.5058 67.9057C93.4616 67.818 93.4568 67.7177 93.4922 67.6266C93.5226 67.5362 93.5874 67.4589 93.6748 67.4091Z" fill="#263238"/>
<path d="M88.4068 69.5631C88.4551 69.5591 88.5038 69.5641 88.55 69.5777C88.5962 69.5914 88.6389 69.6136 88.6756 69.6428C88.7125 69.6762 88.7417 69.716 88.7617 69.7599C88.7817 69.8038 88.792 69.851 88.792 69.8986C88.792 69.9463 88.7817 69.9934 88.7617 70.0374C88.7417 70.0813 88.7125 70.1211 88.6756 70.1545C88.2673 70.6052 87.7516 70.9628 87.1689 71.1993C86.5862 71.4358 85.9522 71.5449 85.3163 71.518C85.2663 71.5126 85.218 71.4977 85.1746 71.4741C85.1312 71.4505 85.0936 71.4188 85.0642 71.381C85.0348 71.3432 85.0143 71.3002 85.004 71.2546C84.9937 71.2091 84.9938 71.1621 85.0043 71.1166C85.0272 71.0229 85.0864 70.94 85.1707 70.8836C85.255 70.8272 85.3587 70.8011 85.4624 70.8102C85.967 70.8244 86.4685 70.7321 86.9287 70.5404C87.3888 70.3488 87.7956 70.0627 88.118 69.7041C88.1536 69.6642 88.1975 69.6312 88.2471 69.607C88.2967 69.5828 88.3509 69.5679 88.4068 69.5631Z" fill="#263238"/>
<path d="M103.982 70.6171C103.982 70.6171 100.33 68.2057 98.6705 61.5812C98.5433 61.0472 98.1999 60.5783 97.7107 60.2702C97.2214 59.9621 96.6232 59.8381 96.0382 59.9235C92.5627 60.4873 86.6739 58.2475 84.4997 67.5837C84.4997 67.5837 83.2416 57.1229 99.5336 56.1363C110.016 55.499 109.26 68.1475 108.343 69.6826C107.427 71.2177 103.982 70.6171 103.982 70.6171Z" fill="#263238"/>
<path d="M109.983 69.986C109.724 71.5488 108.804 72.9528 107.424 73.8896C105.628 75.0509 103.381 72.4679 103.298 70.3935C103.272 69.4528 103.611 68.5345 104.253 67.8041C104.896 67.0737 105.8 66.5794 106.803 66.4102C108.851 66.1007 110.325 68.0035 109.983 69.986Z" fill="#B97964"/>
<path d="M91.0623 72.3759C91.0623 72.3759 90.9627 75.3817 90.3088 77.4653C90.2841 77.5509 90.2813 77.6407 90.3006 77.7275C90.3199 77.8144 90.3608 77.8959 90.42 77.9657C90.4792 78.0355 90.5551 78.0916 90.6418 78.1297C90.7285 78.1679 90.8236 78.1869 90.9196 78.1853C91.6483 78.1341 92.3476 77.8987 92.9411 77.5051L91.0623 72.3759Z" fill="#A24E3F"/>
<path d="M94.5179 70.2463L92.7653 70.8775C92.7653 70.8775 94.3586 71.3984 94.5179 70.2463Z" fill="#263238"/>
<path d="M87.3312 72.9121L85.552 73.5065C85.552 73.5065 87.1453 74.0489 87.3312 72.9121Z" fill="#263238"/>
<path d="M97.4921 56.3539C89.2333 54.5951 83.8258 60.4934 83.8258 60.4934C77.718 67.4764 84.1312 73.3441 84.1312 73.3441C88.5129 68.7205 90.7702 66.7472 94.8731 62.0837C94.3917 64.3388 97.5486 66.1558 100.632 67.216C103.716 68.2762 103.384 69.3394 103.384 69.3394C107.006 60.8335 105.754 58.1157 97.4921 56.3539Z" fill="#263238"/>
<path opacity="0.2" d="M106.335 71.95C106.321 71.9503 106.306 71.9471 106.293 71.9407C106.28 71.9342 106.27 71.9247 106.262 71.9132C105.899 71.363 105.698 70.7343 105.681 70.0901C105.643 69.5441 105.811 69.0028 106.156 68.5581C106.337 68.3362 106.586 68.1691 106.87 68.0779C107.154 67.9868 107.461 67.9758 107.753 68.0464C107.773 68.0533 107.79 68.0674 107.8 68.0856C107.81 68.1039 107.812 68.1249 107.806 68.1444C107.799 68.1634 107.784 68.1791 107.765 68.1882C107.746 68.1974 107.723 68.1993 107.703 68.1934C107.444 68.1293 107.169 68.1392 106.916 68.2218C106.663 68.3044 106.443 68.4558 106.285 68.6561C105.967 69.072 105.812 69.5758 105.847 70.084C105.864 70.7012 106.056 71.3035 106.405 71.8305C106.416 71.8481 106.42 71.8691 106.415 71.889C106.41 71.909 106.397 71.9264 106.378 71.9377C106.365 71.9447 106.35 71.9489 106.335 71.95Z" fill="#1E1E1E"/>
<path opacity="0.2" d="M100.818 65.638C100.586 66.0363 98.3552 70.28 99.4904 74.6862C99.7392 75.729 100.072 76.7532 100.486 77.7503L108.367 78.5531L107.799 77.0578L109.459 71.5945C108.739 71.1472 109.2 69.2076 108.997 67.0383C108.526 66.5266 105.778 65.4848 105.532 65.641C105.286 65.7973 100.818 65.638 100.818 65.638Z" fill="#1E1E1E"/>
<path d="M106.83 77.309C106.83 77.309 109.153 76.7146 110.133 75.0937C111.112 73.4728 111.686 72.2104 112.304 70.9848C112.921 69.7591 111.095 70.4976 110.206 71.0859C109.316 71.6742 108.971 72.5352 108.599 71.8458C108.227 71.1564 108.642 64.5594 108.008 63.6616C107.374 62.7639 106.946 63.8087 106.946 63.8087C106.946 63.8087 107.002 62.2062 106.319 62.0132C106.139 61.9611 105.655 62.1112 105.492 62.8405C105.16 64.4767 104.646 67.9483 104.646 67.9483C104.679 67.7491 104.978 63.4226 104.931 62.77C104.871 61.9151 104.37 61.5444 103.836 61.5934C103.072 61.6608 102.508 67.0137 102.312 67.2221C102.312 67.2221 102.75 64.158 101.953 63.6126C101.157 63.0672 100.765 64.9945 100.768 66.7472C100.768 68.3527 100.324 71.5057 100.5 73.1388C100.715 75.1488 101.349 76.4572 103.295 77.067C104.431 77.4275 105.648 77.5109 106.83 77.309Z" fill="#B97964"/>
<path opacity="0.3" d="M106.561 67.8871C106.555 67.8868 106.55 67.8854 106.545 67.883C106.541 67.8805 106.536 67.8771 106.533 67.873C106.53 67.8689 106.528 67.8642 106.527 67.8592C106.526 67.8542 106.526 67.849 106.528 67.8442C106.727 66.6185 106.83 65.1662 106.913 63.7965C106.913 63.7751 106.936 63.7628 106.956 63.7598C106.962 63.7597 106.967 63.7608 106.972 63.7628C106.977 63.7649 106.982 63.7678 106.985 63.7716C106.989 63.7753 106.992 63.7798 106.994 63.7846C106.996 63.7894 106.996 63.7945 106.996 63.7996C106.913 65.1723 106.807 66.6124 106.607 67.8564C106.605 67.8659 106.599 67.8742 106.59 67.8799C106.582 67.8855 106.571 67.8881 106.561 67.8871Z" fill="#1E1E1E"/>
<path d="M101.071 79.5213L101.462 74.8363L107.889 75.6759L107.939 80.6397L101.071 79.5213Z" fill="#B97964"/>
<path opacity="0.2" d="M98.6473 88.8636C98.6473 88.8636 94.9958 104.49 99.1618 106.595C99.985 107.015 102.597 108.127 105.339 107.711C116.45 106.038 127.48 99.9801 128.934 96.3737C129.19 95.7425 103.812 99.9249 103.812 99.9249L98.6473 88.8636Z" fill="#1E1E1E"/>
<path d="M127.756 86.2132C124.287 83.8202 109.167 92.6233 109.167 92.6233L108.725 78.1486L100.632 77.2294C100.3 77.6583 96.4798 97.728 98.8133 102.159C101.147 106.589 118.568 102.107 126.199 99.8759C133.83 97.6453 133.482 90.1689 127.756 86.2132Z" fill="url(#paint32_linear_370_22944)"/>
<path d="M94.6672 80.2505C94.9971 79.6129 95.5223 79.0786 96.1778 78.7137C96.8333 78.3488 97.5903 78.1694 98.3552 78.1976C98.6871 78.1976 98.6871 77.7533 98.3552 77.738C97.5032 77.7096 96.6607 77.9099 95.9295 78.3145C95.1984 78.7191 94.61 79.3107 94.2357 80.0177C94.0996 80.2842 94.5311 80.5171 94.6672 80.2505Z" fill="#263238"/>
<path opacity="0.2" d="M109.114 92.608C109.114 92.608 115.786 87.0927 121.004 86.8445L109.114 92.608Z" fill="#1E1E1E"/>
<path opacity="0.2" d="M109.114 92.608C109.114 92.608 108.981 96.9804 107.208 98.108C107.806 97.873 108.347 97.5296 108.799 97.098C109.251 96.6664 109.604 96.1554 109.837 95.5954C110.351 94.4237 110.561 93.157 110.448 91.8971L109.114 92.608Z" fill="#1E1E1E"/>
<g opacity="0.2">
<path d="M96.0282 80.2107C96.2639 80.23 96.5006 80.1859 96.7098 80.0837C96.9189 79.9814 97.0915 79.8255 97.2066 79.6346C97.2793 79.7238 97.3385 79.8218 97.3825 79.9257C97.4064 79.9776 97.4187 80.0333 97.4187 80.0897C97.4187 80.146 97.4064 80.2017 97.3825 80.2536C97.3077 80.3646 97.1884 80.4439 97.0506 80.4742C96.728 80.5645 96.3803 80.5382 96.078 80.4007" fill="#1E1E1E"/>
</g>
<g opacity="0.2">
<path d="M88.7154 75.6575C88.5261 75.8094 88.2941 75.9088 88.0462 75.944C87.7983 75.9793 87.5446 75.949 87.3146 75.8566C87.3146 75.8566 87.6465 76.4694 88.2407 76.3162C88.3977 76.2859 88.5354 76.1999 88.6243 76.0766C88.7131 75.9534 88.7458 75.8028 88.7154 75.6575Z" fill="#1E1E1E"/>
</g>
<g opacity="0.2">
<path d="M97.1104 72.0358C96.9752 72.3386 96.7714 72.6112 96.5126 72.8353C96.2538 73.0594 95.946 73.2298 95.61 73.3349C95.7252 73.3971 95.8527 73.4372 95.9851 73.4529C96.1174 73.4686 96.2518 73.4596 96.3803 73.4265C96.5088 73.3933 96.6288 73.3367 96.7331 73.2599C96.8374 73.1831 96.9239 73.0878 96.9876 72.9795C97.1457 72.6875 97.1891 72.354 97.1104 72.0358Z" fill="#1E1E1E"/>
</g>
<path opacity="0.2" d="M95.0191 107.692C95.1681 104.972 95.1681 102.247 95.0191 99.5266C95.0191 99.5266 92.4465 104.797 92.9079 109.739L95.0191 107.692Z" fill="#1E1E1E"/>
<path opacity="0.2" d="M85.6218 101.071C85.6218 101.071 85.6549 105.259 84.3604 106.602C84.3604 106.602 86.9794 103.844 86.5014 100.014L85.6218 101.071Z" fill="#1E1E1E"/>
<path d="M49.9441 126.671L39.2886 105.548C39.1959 105.37 39.1529 105.174 39.1634 104.977C39.174 104.78 39.2378 104.589 39.3491 104.421C39.4603 104.253 39.6155 104.113 39.8003 104.014C39.9851 103.916 40.1938 103.861 40.4072 103.856H72.865C73.1059 103.857 73.3412 103.923 73.5418 104.046C73.7424 104.169 73.8995 104.344 73.9936 104.549L84.0716 125.672C84.1596 125.85 84.1986 126.044 84.185 126.239C84.1715 126.433 84.1058 126.621 83.9939 126.787C83.882 126.952 83.7274 127.089 83.544 127.185C83.3605 127.282 83.154 127.335 82.943 127.339H51.076C50.8377 127.34 50.6041 127.278 50.4034 127.159C50.2026 127.041 50.0431 126.871 49.9441 126.671Z" fill="#263238"/>
<path opacity="0.3" d="M49.9441 126.671L39.2886 105.548C39.1959 105.37 39.1529 105.174 39.1634 104.977C39.174 104.78 39.2378 104.589 39.3491 104.421C39.4603 104.253 39.6155 104.113 39.8003 104.014C39.9851 103.916 40.1938 103.861 40.4072 103.856H72.865C73.1059 103.857 73.3412 103.923 73.5418 104.046C73.7424 104.169 73.8995 104.344 73.9936 104.549L84.0716 125.672C84.1596 125.85 84.1986 126.044 84.185 126.239C84.1715 126.433 84.1058 126.621 83.9939 126.787C83.882 126.952 83.7274 127.089 83.544 127.185C83.3605 127.282 83.154 127.335 82.943 127.339H51.076C50.8377 127.34 50.6041 127.278 50.4034 127.159C50.2026 127.041 50.0431 126.871 49.9441 126.671Z" fill="white"/>
<path d="M103.899 127.339H51.6038C51.2516 127.339 50.9139 127.21 50.6649 126.98C50.4159 126.75 50.276 126.439 50.276 126.114C50.276 125.789 50.4159 125.477 50.6649 125.247C50.9139 125.017 51.2516 124.888 51.6038 124.888H103.899C104.251 124.888 104.589 125.017 104.838 125.247C105.087 125.477 105.227 125.789 105.227 126.114C105.227 126.439 105.087 126.75 104.838 126.98C104.589 127.21 104.251 127.339 103.899 127.339Z" fill="#263238"/>
<path opacity="0.3" d="M103.899 127.339H51.6038C51.2516 127.339 50.9139 127.21 50.6649 126.98C50.4159 126.75 50.276 126.439 50.276 126.114C50.276 125.789 50.4159 125.477 50.6649 125.247C50.9139 125.017 51.2516 124.888 51.6038 124.888H103.899C104.251 124.888 104.589 125.017 104.838 125.247C105.087 125.477 105.227 125.789 105.227 126.114C105.227 126.439 105.087 126.75 104.838 126.98C104.589 127.21 104.251 127.339 103.899 127.339Z" fill="white"/>
<path d="M61.7913 114.562C62.5216 115.408 62.4552 116.603 61.6585 117.231C60.8618 117.859 59.6137 117.684 58.8834 116.839C58.1531 115.993 58.2195 114.798 59.0162 114.17C59.8129 113.542 61.0643 113.716 61.7913 114.562Z" fill="white"/>
<defs>
<linearGradient id="paint0_linear_370_22944" x1="37.4858" y1="22.3029" x2="129.924" y2="98.1158" gradientUnits="userSpaceOnUse">
<stop stop-color="#00294B"/>
<stop offset="0.116637" stop-color="#175054"/>
<stop offset="0.205862" stop-color="#296E5B"/>
<stop offset="0.297711" stop-color="#449C65"/>
<stop offset="0.331401" stop-color="#4BA968"/>
<stop offset="0.414088" stop-color="#53B66B"/>
<stop offset="0.447014" stop-color="#50B069"/>
<stop offset="0.51457" stop-color="#48A366"/>
<stop offset="0.696682" stop-color="#2E785D"/>
<stop offset="0.81531" stop-color="#1D5A56"/>
<stop offset="0.95" stop-color="#00294B"/>
</linearGradient>
<linearGradient id="paint1_linear_370_22944" x1="37.486" y1="22.3274" x2="38.9511" y2="37.3071" gradientUnits="userSpaceOnUse">
<stop stop-color="#00294B"/>
<stop offset="0.116637" stop-color="#175054"/>
<stop offset="0.205862" stop-color="#296E5B"/>
<stop offset="0.297711" stop-color="#449C65"/>
<stop offset="0.331401" stop-color="#4BA968"/>
<stop offset="0.414088" stop-color="#53B66B"/>
<stop offset="0.447014" stop-color="#50B069"/>
<stop offset="0.51457" stop-color="#48A366"/>
<stop offset="0.696682" stop-color="#2E785D"/>
<stop offset="0.81531" stop-color="#1D5A56"/>
<stop offset="0.95" stop-color="#00294B"/>
</linearGradient>
<linearGradient id="paint2_linear_370_22944" x1="55.0659" y1="19.9772" x2="55.1276" y2="20.9125" gradientUnits="userSpaceOnUse">
<stop stop-color="#00294B"/>
<stop offset="0.116637" stop-color="#175054"/>
<stop offset="0.205862" stop-color="#296E5B"/>
<stop offset="0.297711" stop-color="#449C65"/>
<stop offset="0.331401" stop-color="#4BA968"/>
<stop offset="0.414088" stop-color="#53B66B"/>
<stop offset="0.447014" stop-color="#50B069"/>
<stop offset="0.51457" stop-color="#48A366"/>
<stop offset="0.696682" stop-color="#2E785D"/>
<stop offset="0.81531" stop-color="#1D5A56"/>
<stop offset="0.95" stop-color="#00294B"/>
</linearGradient>
<linearGradient id="paint3_linear_370_22944" x1="66.4318" y1="19.9772" x2="66.6744" y2="20.849" gradientUnits="userSpaceOnUse">
<stop stop-color="#00294B"/>
<stop offset="0.116637" stop-color="#175054"/>
<stop offset="0.205862" stop-color="#296E5B"/>
<stop offset="0.297711" stop-color="#449C65"/>
<stop offset="0.331401" stop-color="#4BA968"/>
<stop offset="0.414088" stop-color="#53B66B"/>
<stop offset="0.447014" stop-color="#50B069"/>
<stop offset="0.51457" stop-color="#48A366"/>
<stop offset="0.696682" stop-color="#2E785D"/>
<stop offset="0.81531" stop-color="#1D5A56"/>
<stop offset="0.95" stop-color="#00294B"/>
</linearGradient>
<linearGradient id="paint4_linear_370_22944" x1="46.1245" y1="42.3564" x2="54.1593" y2="32.0269" gradientUnits="userSpaceOnUse">
<stop stop-color="#00294B"/>
<stop offset="0.116637" stop-color="#175054"/>
<stop offset="0.205862" stop-color="#296E5B"/>
<stop offset="0.297711" stop-color="#449C65"/>
<stop offset="0.331401" stop-color="#4BA968"/>
<stop offset="0.414088" stop-color="#53B66B"/>
<stop offset="0.447014" stop-color="#50B069"/>
<stop offset="0.51457" stop-color="#48A366"/>
<stop offset="0.696682" stop-color="#2E785D"/>
<stop offset="0.81531" stop-color="#1D5A56"/>
<stop offset="0.95" stop-color="#00294B"/>
</linearGradient>
<linearGradient id="paint5_linear_370_22944" x1="58.8767" y1="37.1115" x2="59.459" y2="40.9591" gradientUnits="userSpaceOnUse">
<stop stop-color="#00294B"/>
<stop offset="0.116637" stop-color="#175054"/>
<stop offset="0.205862" stop-color="#296E5B"/>
<stop offset="0.297711" stop-color="#449C65"/>
<stop offset="0.331401" stop-color="#4BA968"/>
<stop offset="0.414088" stop-color="#53B66B"/>
<stop offset="0.447014" stop-color="#50B069"/>
<stop offset="0.51457" stop-color="#48A366"/>
<stop offset="0.696682" stop-color="#2E785D"/>
<stop offset="0.81531" stop-color="#1D5A56"/>
<stop offset="0.95" stop-color="#00294B"/>
</linearGradient>
<linearGradient id="paint6_linear_370_22944" x1="46.1273" y1="54.6803" x2="54.1621" y2="44.3507" gradientUnits="userSpaceOnUse">
<stop stop-color="#00294B"/>
<stop offset="0.116637" stop-color="#175054"/>
<stop offset="0.205862" stop-color="#296E5B"/>
<stop offset="0.297711" stop-color="#449C65"/>
<stop offset="0.331401" stop-color="#4BA968"/>
<stop offset="0.414088" stop-color="#53B66B"/>
<stop offset="0.447014" stop-color="#50B069"/>
<stop offset="0.51457" stop-color="#48A366"/>
<stop offset="0.696682" stop-color="#2E785D"/>
<stop offset="0.81531" stop-color="#1D5A56"/>
<stop offset="0.95" stop-color="#00294B"/>
</linearGradient>
<linearGradient id="paint7_linear_370_22944" x1="58.8767" y1="49.4352" x2="59.459" y2="53.2828" gradientUnits="userSpaceOnUse">
<stop stop-color="#00294B"/>
<stop offset="0.116637" stop-color="#175054"/>
<stop offset="0.205862" stop-color="#296E5B"/>
<stop offset="0.297711" stop-color="#449C65"/>
<stop offset="0.331401" stop-color="#4BA968"/>
<stop offset="0.414088" stop-color="#53B66B"/>
<stop offset="0.447014" stop-color="#50B069"/>
<stop offset="0.51457" stop-color="#48A366"/>
<stop offset="0.696682" stop-color="#2E785D"/>
<stop offset="0.81531" stop-color="#1D5A56"/>
<stop offset="0.95" stop-color="#00294B"/>
</linearGradient>
<linearGradient id="paint8_linear_370_22944" x1="45.0844" y1="63.9879" x2="57.9032" y2="59.3898" gradientUnits="userSpaceOnUse">
<stop stop-color="#00294B"/>
<stop offset="0.116637" stop-color="#175054"/>
<stop offset="0.205862" stop-color="#296E5B"/>
<stop offset="0.297711" stop-color="#449C65"/>
<stop offset="0.331401" stop-color="#4BA968"/>
<stop offset="0.414088" stop-color="#53B66B"/>
<stop offset="0.447014" stop-color="#50B069"/>
<stop offset="0.51457" stop-color="#48A366"/>
<stop offset="0.696682" stop-color="#2E785D"/>
<stop offset="0.81531" stop-color="#1D5A56"/>
<stop offset="0.95" stop-color="#00294B"/>
</linearGradient>
<linearGradient id="paint9_linear_370_22944" x1="58.8767" y1="62.145" x2="59.459" y2="65.9926" gradientUnits="userSpaceOnUse">
<stop stop-color="#00294B"/>
<stop offset="0.116637" stop-color="#175054"/>
<stop offset="0.205862" stop-color="#296E5B"/>
<stop offset="0.297711" stop-color="#449C65"/>
<stop offset="0.331401" stop-color="#4BA968"/>
<stop offset="0.414088" stop-color="#53B66B"/>
<stop offset="0.447014" stop-color="#50B069"/>
<stop offset="0.51457" stop-color="#48A366"/>
<stop offset="0.696682" stop-color="#2E785D"/>
<stop offset="0.81531" stop-color="#1D5A56"/>
<stop offset="0.95" stop-color="#00294B"/>
</linearGradient>
<linearGradient id="paint10_linear_370_22944" x1="37.4689" y1="73.0555" x2="67.0582" y2="88.1692" gradientUnits="userSpaceOnUse">
<stop stop-color="#00294B"/>
<stop offset="0.116637" stop-color="#175054"/>
<stop offset="0.205862" stop-color="#296E5B"/>
<stop offset="0.297711" stop-color="#449C65"/>
<stop offset="0.331401" stop-color="#4BA968"/>
<stop offset="0.414088" stop-color="#53B66B"/>
<stop offset="0.447014" stop-color="#50B069"/>
<stop offset="0.51457" stop-color="#48A366"/>
<stop offset="0.696682" stop-color="#2E785D"/>
<stop offset="0.81531" stop-color="#1D5A56"/>
<stop offset="0.95" stop-color="#00294B"/>
</linearGradient>
<linearGradient id="paint11_linear_370_22944" x1="36.6041" y1="72.4663" x2="46.22" y2="77.2242" gradientUnits="userSpaceOnUse">
<stop stop-color="#00294B"/>
<stop offset="0.116637" stop-color="#175054"/>
<stop offset="0.205862" stop-color="#296E5B"/>
<stop offset="0.297711" stop-color="#449C65"/>
<stop offset="0.331401" stop-color="#4BA968"/>
<stop offset="0.414088" stop-color="#53B66B"/>
<stop offset="0.447014" stop-color="#50B069"/>
<stop offset="0.51457" stop-color="#48A366"/>
<stop offset="0.696682" stop-color="#2E785D"/>
<stop offset="0.81531" stop-color="#1D5A56"/>
<stop offset="0.95" stop-color="#00294B"/>
</linearGradient>
<linearGradient id="paint12_linear_370_22944" x1="36.0449" y1="81.8405" x2="36.6126" y2="81.8997" gradientUnits="userSpaceOnUse">
<stop stop-color="#00294B"/>
<stop offset="0.116637" stop-color="#175054"/>
<stop offset="0.205862" stop-color="#296E5B"/>
<stop offset="0.297711" stop-color="#449C65"/>
<stop offset="0.331401" stop-color="#4BA968"/>
<stop offset="0.414088" stop-color="#53B66B"/>
<stop offset="0.447014" stop-color="#50B069"/>
<stop offset="0.51457" stop-color="#48A366"/>
<stop offset="0.696682" stop-color="#2E785D"/>
<stop offset="0.81531" stop-color="#1D5A56"/>
<stop offset="0.95" stop-color="#00294B"/>
</linearGradient>
<linearGradient id="paint13_linear_370_22944" x1="17.2435" y1="85.2437" x2="42.0804" y2="99.2341" gradientUnits="userSpaceOnUse">
<stop stop-color="#00294B"/>
<stop offset="0.116637" stop-color="#175054"/>
<stop offset="0.205862" stop-color="#296E5B"/>
<stop offset="0.297711" stop-color="#449C65"/>
<stop offset="0.331401" stop-color="#4BA968"/>
<stop offset="0.414088" stop-color="#53B66B"/>
<stop offset="0.447014" stop-color="#50B069"/>
<stop offset="0.51457" stop-color="#48A366"/>
<stop offset="0.696682" stop-color="#2E785D"/>
<stop offset="0.81531" stop-color="#1D5A56"/>
<stop offset="0.95" stop-color="#00294B"/>
</linearGradient>
<linearGradient id="paint14_linear_370_22944" x1="15.7271" y1="88.9517" x2="18.7603" y2="89.2913" gradientUnits="userSpaceOnUse">
<stop stop-color="#00294B"/>
<stop offset="0.116637" stop-color="#175054"/>
<stop offset="0.205862" stop-color="#296E5B"/>
<stop offset="0.297711" stop-color="#449C65"/>
<stop offset="0.331401" stop-color="#4BA968"/>
<stop offset="0.414088" stop-color="#53B66B"/>
<stop offset="0.447014" stop-color="#50B069"/>
<stop offset="0.51457" stop-color="#48A366"/>
<stop offset="0.696682" stop-color="#2E785D"/>
<stop offset="0.81531" stop-color="#1D5A56"/>
<stop offset="0.95" stop-color="#00294B"/>
</linearGradient>
<linearGradient id="paint15_linear_370_22944" x1="17.0404" y1="99.0293" x2="18.312" y2="99.4576" gradientUnits="userSpaceOnUse">
<stop stop-color="#00294B"/>
<stop offset="0.116637" stop-color="#175054"/>
<stop offset="0.205862" stop-color="#296E5B"/>
<stop offset="0.297711" stop-color="#449C65"/>
<stop offset="0.331401" stop-color="#4BA968"/>
<stop offset="0.414088" stop-color="#53B66B"/>
<stop offset="0.447014" stop-color="#50B069"/>
<stop offset="0.51457" stop-color="#48A366"/>
<stop offset="0.696682" stop-color="#2E785D"/>
<stop offset="0.81531" stop-color="#1D5A56"/>
<stop offset="0.95" stop-color="#00294B"/>
</linearGradient>
<linearGradient id="paint16_linear_370_22944" x1="20.717" y1="107.4" x2="41.1905" y2="119.645" gradientUnits="userSpaceOnUse">
<stop stop-color="#00294B"/>
<stop offset="0.116637" stop-color="#175054"/>
<stop offset="0.205862" stop-color="#296E5B"/>
<stop offset="0.297711" stop-color="#449C65"/>
<stop offset="0.331401" stop-color="#4BA968"/>
<stop offset="0.414088" stop-color="#53B66B"/>
<stop offset="0.447014" stop-color="#50B069"/>
<stop offset="0.51457" stop-color="#48A366"/>
<stop offset="0.696682" stop-color="#2E785D"/>
<stop offset="0.81531" stop-color="#1D5A56"/>
<stop offset="0.95" stop-color="#00294B"/>
</linearGradient>
<linearGradient id="paint17_linear_370_22944" x1="19.7921" y1="116.926" x2="26.2113" y2="119.755" gradientUnits="userSpaceOnUse">
<stop stop-color="#00294B"/>
<stop offset="0.116637" stop-color="#175054"/>
<stop offset="0.205862" stop-color="#296E5B"/>
<stop offset="0.297711" stop-color="#449C65"/>
<stop offset="0.331401" stop-color="#4BA968"/>
<stop offset="0.414088" stop-color="#53B66B"/>
<stop offset="0.447014" stop-color="#50B069"/>
<stop offset="0.51457" stop-color="#48A366"/>
<stop offset="0.696682" stop-color="#2E785D"/>
<stop offset="0.81531" stop-color="#1D5A56"/>
<stop offset="0.95" stop-color="#00294B"/>
</linearGradient>
<linearGradient id="paint18_linear_370_22944" x1="25.7526" y1="122.833" x2="26.3957" y2="123.789" gradientUnits="userSpaceOnUse">
<stop stop-color="#00294B"/>
<stop offset="0.116637" stop-color="#175054"/>
<stop offset="0.205862" stop-color="#296E5B"/>
<stop offset="0.297711" stop-color="#449C65"/>
<stop offset="0.331401" stop-color="#4BA968"/>
<stop offset="0.414088" stop-color="#53B66B"/>
<stop offset="0.447014" stop-color="#50B069"/>
<stop offset="0.51457" stop-color="#48A366"/>
<stop offset="0.696682" stop-color="#2E785D"/>
<stop offset="0.81531" stop-color="#1D5A56"/>
<stop offset="0.95" stop-color="#00294B"/>
</linearGradient>
<linearGradient id="paint19_linear_370_22944" x1="23.6405" y1="112.389" x2="30.6367" y2="114.957" gradientUnits="userSpaceOnUse">
<stop stop-color="#00294B"/>
<stop offset="0.116637" stop-color="#175054"/>
<stop offset="0.205862" stop-color="#296E5B"/>
<stop offset="0.297711" stop-color="#449C65"/>
<stop offset="0.331401" stop-color="#4BA968"/>
<stop offset="0.414088" stop-color="#53B66B"/>
<stop offset="0.447014" stop-color="#50B069"/>
<stop offset="0.51457" stop-color="#48A366"/>
<stop offset="0.696682" stop-color="#2E785D"/>
<stop offset="0.81531" stop-color="#1D5A56"/>
<stop offset="0.95" stop-color="#00294B"/>
</linearGradient>
<linearGradient id="paint20_linear_370_22944" x1="28.4272" y1="112.328" x2="35.5178" y2="114.959" gradientUnits="userSpaceOnUse">
<stop stop-color="#00294B"/>
<stop offset="0.116637" stop-color="#175054"/>
<stop offset="0.205862" stop-color="#296E5B"/>
<stop offset="0.297711" stop-color="#449C65"/>
<stop offset="0.331401" stop-color="#4BA968"/>
<stop offset="0.414088" stop-color="#53B66B"/>
<stop offset="0.447014" stop-color="#50B069"/>
<stop offset="0.51457" stop-color="#48A366"/>
<stop offset="0.696682" stop-color="#2E785D"/>
<stop offset="0.81531" stop-color="#1D5A56"/>
<stop offset="0.95" stop-color="#00294B"/>
</linearGradient>
<linearGradient id="paint21_linear_370_22944" x1="15.7108" y1="38.6772" x2="34.645" y2="-1.57959" gradientUnits="userSpaceOnUse">
<stop stop-color="#00294B"/>
<stop offset="0.116637" stop-color="#175054"/>
<stop offset="0.205862" stop-color="#296E5B"/>
<stop offset="0.297711" stop-color="#449C65"/>
<stop offset="0.331401" stop-color="#4BA968"/>
<stop offset="0.414088" stop-color="#53B66B"/>
<stop offset="0.447014" stop-color="#50B069"/>
<stop offset="0.51457" stop-color="#48A366"/>
<stop offset="0.696682" stop-color="#2E785D"/>
<stop offset="0.81531" stop-color="#1D5A56"/>
<stop offset="0.95" stop-color="#00294B"/>
</linearGradient>
<linearGradient id="paint22_linear_370_22944" x1="135.883" y1="92.691" x2="153.021" y2="81.6494" gradientUnits="userSpaceOnUse">
<stop stop-color="#00294B"/>
<stop offset="0.116637" stop-color="#175054"/>
<stop offset="0.205862" stop-color="#296E5B"/>
<stop offset="0.297711" stop-color="#449C65"/>
<stop offset="0.331401" stop-color="#4BA968"/>
<stop offset="0.414088" stop-color="#53B66B"/>
<stop offset="0.447014" stop-color="#50B069"/>
<stop offset="0.51457" stop-color="#48A366"/>
<stop offset="0.696682" stop-color="#2E785D"/>
<stop offset="0.81531" stop-color="#1D5A56"/>
<stop offset="0.95" stop-color="#00294B"/>
</linearGradient>
<linearGradient id="paint23_linear_370_22944" x1="87.7418" y1="3.64825" x2="121.488" y2="21.9648" gradientUnits="userSpaceOnUse">
<stop stop-color="#00294B"/>
<stop offset="0.116637" stop-color="#175054"/>
<stop offset="0.205862" stop-color="#296E5B"/>
<stop offset="0.297711" stop-color="#449C65"/>
<stop offset="0.331401" stop-color="#4BA968"/>
<stop offset="0.414088" stop-color="#53B66B"/>
<stop offset="0.447014" stop-color="#50B069"/>
<stop offset="0.51457" stop-color="#48A366"/>
<stop offset="0.696682" stop-color="#2E785D"/>
<stop offset="0.81531" stop-color="#1D5A56"/>
<stop offset="0.95" stop-color="#00294B"/>
</linearGradient>
<linearGradient id="paint24_linear_370_22944" x1="95.4673" y1="21.773" x2="99.9906" y2="29.4657" gradientUnits="userSpaceOnUse">
<stop stop-color="#00294B"/>
<stop offset="0.116637" stop-color="#175054"/>
<stop offset="0.205862" stop-color="#296E5B"/>
<stop offset="0.297711" stop-color="#449C65"/>
<stop offset="0.331401" stop-color="#4BA968"/>
<stop offset="0.414088" stop-color="#53B66B"/>
<stop offset="0.447014" stop-color="#50B069"/>
<stop offset="0.51457" stop-color="#48A366"/>
<stop offset="0.696682" stop-color="#2E785D"/>
<stop offset="0.81531" stop-color="#1D5A56"/>
<stop offset="0.95" stop-color="#00294B"/>
</linearGradient>
<linearGradient id="paint25_linear_370_22944" x1="19.7451" y1="57.8433" x2="36.1671" y2="66.759" gradientUnits="userSpaceOnUse">
<stop stop-color="#00294B"/>
<stop offset="0.116637" stop-color="#175054"/>
<stop offset="0.205862" stop-color="#296E5B"/>
<stop offset="0.297711" stop-color="#449C65"/>
<stop offset="0.331401" stop-color="#4BA968"/>
<stop offset="0.414088" stop-color="#53B66B"/>
<stop offset="0.447014" stop-color="#50B069"/>
<stop offset="0.51457" stop-color="#48A366"/>
<stop offset="0.696682" stop-color="#2E785D"/>
<stop offset="0.81531" stop-color="#1D5A56"/>
<stop offset="0.95" stop-color="#00294B"/>
</linearGradient>
<linearGradient id="paint26_linear_370_22944" x1="24.3442" y1="66.562" x2="26.9666" y2="70.4602" gradientUnits="userSpaceOnUse">
<stop stop-color="#00294B"/>
<stop offset="0.116637" stop-color="#175054"/>
<stop offset="0.205862" stop-color="#296E5B"/>
<stop offset="0.297711" stop-color="#449C65"/>
<stop offset="0.331401" stop-color="#4BA968"/>
<stop offset="0.414088" stop-color="#53B66B"/>
<stop offset="0.447014" stop-color="#50B069"/>
<stop offset="0.51457" stop-color="#48A366"/>
<stop offset="0.696682" stop-color="#2E785D"/>
<stop offset="0.81531" stop-color="#1D5A56"/>
<stop offset="0.95" stop-color="#00294B"/>
</linearGradient>
<linearGradient id="paint27_linear_370_22944" x1="128.917" y1="44.4285" x2="152.315" y2="55.5492" gradientUnits="userSpaceOnUse">
<stop stop-color="#00294B"/>
<stop offset="0.116637" stop-color="#175054"/>
<stop offset="0.205862" stop-color="#296E5B"/>
<stop offset="0.297711" stop-color="#449C65"/>
<stop offset="0.331401" stop-color="#4BA968"/>
<stop offset="0.414088" stop-color="#53B66B"/>
<stop offset="0.447014" stop-color="#50B069"/>
<stop offset="0.51457" stop-color="#48A366"/>
<stop offset="0.696682" stop-color="#2E785D"/>
<stop offset="0.81531" stop-color="#1D5A56"/>
<stop offset="0.95" stop-color="#00294B"/>
</linearGradient>
<linearGradient id="paint28_linear_370_22944" x1="143.124" y1="43.2443" x2="156.907" y2="44.5073" gradientUnits="userSpaceOnUse">
<stop stop-color="#00294B"/>
<stop offset="0.116637" stop-color="#175054"/>
<stop offset="0.205862" stop-color="#296E5B"/>
<stop offset="0.297711" stop-color="#449C65"/>
<stop offset="0.331401" stop-color="#4BA968"/>
<stop offset="0.414088" stop-color="#53B66B"/>
<stop offset="0.447014" stop-color="#50B069"/>
<stop offset="0.51457" stop-color="#48A366"/>
<stop offset="0.696682" stop-color="#2E785D"/>
<stop offset="0.81531" stop-color="#1D5A56"/>
<stop offset="0.95" stop-color="#00294B"/>
</linearGradient>
<linearGradient id="paint29_linear_370_22944" x1="73.6146" y1="83.7437" x2="107.609" y2="97.7052" gradientUnits="userSpaceOnUse">
<stop stop-color="#00294B"/>
<stop offset="0.116637" stop-color="#175054"/>
<stop offset="0.205862" stop-color="#296E5B"/>
<stop offset="0.297711" stop-color="#449C65"/>
<stop offset="0.331401" stop-color="#4BA968"/>
<stop offset="0.414088" stop-color="#53B66B"/>
<stop offset="0.447014" stop-color="#50B069"/>
<stop offset="0.51457" stop-color="#48A366"/>
<stop offset="0.696682" stop-color="#2E785D"/>
<stop offset="0.81531" stop-color="#1D5A56"/>
<stop offset="0.95" stop-color="#00294B"/>
</linearGradient>
<linearGradient id="paint30_linear_370_22944" x1="94.2477" y1="84.7092" x2="149.853" y2="116.163" gradientUnits="userSpaceOnUse">
<stop stop-color="#00294B"/>
<stop offset="0.116637" stop-color="#175054"/>
<stop offset="0.205862" stop-color="#296E5B"/>
<stop offset="0.297711" stop-color="#449C65"/>
<stop offset="0.331401" stop-color="#4BA968"/>
<stop offset="0.414088" stop-color="#53B66B"/>
<stop offset="0.447014" stop-color="#50B069"/>
<stop offset="0.51457" stop-color="#48A366"/>
<stop offset="0.696682" stop-color="#2E785D"/>
<stop offset="0.81531" stop-color="#1D5A56"/>
<stop offset="0.95" stop-color="#00294B"/>
</linearGradient>
<linearGradient id="paint31_linear_370_22944" x1="103.613" y1="57.9104" x2="111.479" y2="61.1734" gradientUnits="userSpaceOnUse">
<stop stop-color="#00294B"/>
<stop offset="0.116637" stop-color="#175054"/>
<stop offset="0.205862" stop-color="#296E5B"/>
<stop offset="0.297711" stop-color="#449C65"/>
<stop offset="0.331401" stop-color="#4BA968"/>
<stop offset="0.414088" stop-color="#53B66B"/>
<stop offset="0.447014" stop-color="#50B069"/>
<stop offset="0.51457" stop-color="#48A366"/>
<stop offset="0.696682" stop-color="#2E785D"/>
<stop offset="0.81531" stop-color="#1D5A56"/>
<stop offset="0.95" stop-color="#00294B"/>
</linearGradient>
<linearGradient id="paint32_linear_370_22944" x1="98.0625" y1="77.2294" x2="135.283" y2="100.901" gradientUnits="userSpaceOnUse">
<stop stop-color="#00294B"/>
<stop offset="0.116637" stop-color="#175054"/>
<stop offset="0.205862" stop-color="#296E5B"/>
<stop offset="0.297711" stop-color="#449C65"/>
<stop offset="0.331401" stop-color="#4BA968"/>
<stop offset="0.414088" stop-color="#53B66B"/>
<stop offset="0.447014" stop-color="#50B069"/>
<stop offset="0.51457" stop-color="#48A366"/>
<stop offset="0.696682" stop-color="#2E785D"/>
<stop offset="0.81531" stop-color="#1D5A56"/>
<stop offset="0.95" stop-color="#00294B"/>
</linearGradient>
</defs>
</svg>
