<svg xmlns="http://www.w3.org/2000/svg" viewBox="0 0 194 203.75"><defs><style>.cls-1{fill:#f12e90;}.cls-2{fill:#ffbc00;}</style></defs><g id="Layer_2" data-name="Layer 2"><g id="Layer_1-2" data-name="Layer 1"><path class="cls-1" d="M0,143.67V61.46A12.89,12.89,0,0,1,6.45,50.29L90.55,1.73a12.87,12.87,0,0,1,12.9,0l84.1,48.56A12.89,12.89,0,0,1,194,61.46v82.21a12.9,12.9,0,0,1-19.35,11.17l-71.2-41.11a12.92,12.92,0,0,0-12.9,0l-71.2,41.11A12.9,12.9,0,0,1,0,143.67Z"/><path class="cls-2" d="M51.31,147.84h.44A13.24,13.24,0,0,1,63.41,155c5.09,9.54,18.12,22.18,33.59,22.18s28.5-12.64,33.58-22.18a13.27,13.27,0,0,1,11.66-7.13h.45a13.09,13.09,0,0,1,11.78,18.9c-9.76,19.29-32.58,37-57.47,37s-47.71-17.73-57.47-37A13.09,13.09,0,0,1,51.31,147.84Z"/></g></g></svg>